<?xml version="1.0" encoding="utf-8" standalone="no"?>
<!DOCTYPE svg PUBLIC "-//W3C//DTD SVG 1.1//EN"
  "http://www.w3.org/Graphics/SVG/1.1/DTD/svg11.dtd">
<!-- Created with matplotlib (https://matplotlib.org/) -->
<svg height="360pt" version="1.1" viewBox="0 0 1080 360" width="1080pt" xmlns="http://www.w3.org/2000/svg" xmlns:xlink="http://www.w3.org/1999/xlink">
 <defs>
  <style type="text/css">
*{stroke-linecap:butt;stroke-linejoin:round;}
  </style>
 </defs>
 <g id="figure_1">
  <g id="patch_1">
   <path d="M 0 360 
L 1080 360 
L 1080 0 
L 0 0 
z
" style="fill:#ffffff;"/>
  </g>
  <g id="axes_1">
   <g id="patch_2">
    <path d="M 135 315 
L 381.176471 315 
L 381.176471 43.2 
L 135 43.2 
z
" style="fill:#ffffff;"/>
   </g>
   <g id="matplotlib.axis_1">
    <g id="xtick_1">
     <g id="line2d_1">
      <defs>
       <path d="M 0 0 
L 0 3.5 
" id="ma1c2a2b5b0" style="stroke:#000000;stroke-width:0.8;"/>
      </defs>
      <g>
       <use style="stroke:#000000;stroke-width:0.8;" x="148.858123" xlink:href="#ma1c2a2b5b0" y="315"/>
      </g>
     </g>
     <g id="text_1">
      <!-- −0.08 -->
      <defs>
       <path d="M 10.59375 35.5 
L 73.1875 35.5 
L 73.1875 27.203125 
L 10.59375 27.203125 
z
" id="DejaVuSans-8722"/>
       <path d="M 31.78125 66.40625 
Q 24.171875 66.40625 20.328125 58.90625 
Q 16.5 51.421875 16.5 36.375 
Q 16.5 21.390625 20.328125 13.890625 
Q 24.171875 6.390625 31.78125 6.390625 
Q 39.453125 6.390625 43.28125 13.890625 
Q 47.125 21.390625 47.125 36.375 
Q 47.125 51.421875 43.28125 58.90625 
Q 39.453125 66.40625 31.78125 66.40625 
z
M 31.78125 74.21875 
Q 44.046875 74.21875 50.515625 64.515625 
Q 56.984375 54.828125 56.984375 36.375 
Q 56.984375 17.96875 50.515625 8.265625 
Q 44.046875 -1.421875 31.78125 -1.421875 
Q 19.53125 -1.421875 13.0625 8.265625 
Q 6.59375 17.96875 6.59375 36.375 
Q 6.59375 54.828125 13.0625 64.515625 
Q 19.53125 74.21875 31.78125 74.21875 
z
" id="DejaVuSans-48"/>
       <path d="M 10.6875 12.40625 
L 21 12.40625 
L 21 0 
L 10.6875 0 
z
" id="DejaVuSans-46"/>
       <path d="M 31.78125 34.625 
Q 24.75 34.625 20.71875 30.859375 
Q 16.703125 27.09375 16.703125 20.515625 
Q 16.703125 13.921875 20.71875 10.15625 
Q 24.75 6.390625 31.78125 6.390625 
Q 38.8125 6.390625 42.859375 10.171875 
Q 46.921875 13.96875 46.921875 20.515625 
Q 46.921875 27.09375 42.890625 30.859375 
Q 38.875 34.625 31.78125 34.625 
z
M 21.921875 38.8125 
Q 15.578125 40.375 12.03125 44.71875 
Q 8.5 49.078125 8.5 55.328125 
Q 8.5 64.0625 14.71875 69.140625 
Q 20.953125 74.21875 31.78125 74.21875 
Q 42.671875 74.21875 48.875 69.140625 
Q 55.078125 64.0625 55.078125 55.328125 
Q 55.078125 49.078125 51.53125 44.71875 
Q 48 40.375 41.703125 38.8125 
Q 48.828125 37.15625 52.796875 32.3125 
Q 56.78125 27.484375 56.78125 20.515625 
Q 56.78125 9.90625 50.3125 4.234375 
Q 43.84375 -1.421875 31.78125 -1.421875 
Q 19.734375 -1.421875 13.25 4.234375 
Q 6.78125 9.90625 6.78125 20.515625 
Q 6.78125 27.484375 10.78125 32.3125 
Q 14.796875 37.15625 21.921875 38.8125 
z
M 18.3125 54.390625 
Q 18.3125 48.734375 21.84375 45.5625 
Q 25.390625 42.390625 31.78125 42.390625 
Q 38.140625 42.390625 41.71875 45.5625 
Q 45.3125 48.734375 45.3125 54.390625 
Q 45.3125 60.0625 41.71875 63.234375 
Q 38.140625 66.40625 31.78125 66.40625 
Q 25.390625 66.40625 21.84375 63.234375 
Q 18.3125 60.0625 18.3125 54.390625 
z
" id="DejaVuSans-56"/>
      </defs>
      <g transform="translate(133.535466 329.598437)scale(0.1 -0.1)">
       <use xlink:href="#DejaVuSans-8722"/>
       <use x="83.789062" xlink:href="#DejaVuSans-48"/>
       <use x="147.412109" xlink:href="#DejaVuSans-46"/>
       <use x="179.199219" xlink:href="#DejaVuSans-48"/>
       <use x="242.822266" xlink:href="#DejaVuSans-56"/>
      </g>
     </g>
    </g>
    <g id="xtick_2">
     <g id="line2d_2">
      <g>
       <use style="stroke:#000000;stroke-width:0.8;" x="179.815577" xlink:href="#ma1c2a2b5b0" y="315"/>
      </g>
     </g>
     <g id="text_2">
      <!-- −0.06 -->
      <defs>
       <path d="M 33.015625 40.375 
Q 26.375 40.375 22.484375 35.828125 
Q 18.609375 31.296875 18.609375 23.390625 
Q 18.609375 15.53125 22.484375 10.953125 
Q 26.375 6.390625 33.015625 6.390625 
Q 39.65625 6.390625 43.53125 10.953125 
Q 47.40625 15.53125 47.40625 23.390625 
Q 47.40625 31.296875 43.53125 35.828125 
Q 39.65625 40.375 33.015625 40.375 
z
M 52.59375 71.296875 
L 52.59375 62.3125 
Q 48.875 64.0625 45.09375 64.984375 
Q 41.3125 65.921875 37.59375 65.921875 
Q 27.828125 65.921875 22.671875 59.328125 
Q 17.53125 52.734375 16.796875 39.40625 
Q 19.671875 43.65625 24.015625 45.921875 
Q 28.375 48.1875 33.59375 48.1875 
Q 44.578125 48.1875 50.953125 41.515625 
Q 57.328125 34.859375 57.328125 23.390625 
Q 57.328125 12.15625 50.6875 5.359375 
Q 44.046875 -1.421875 33.015625 -1.421875 
Q 20.359375 -1.421875 13.671875 8.265625 
Q 6.984375 17.96875 6.984375 36.375 
Q 6.984375 53.65625 15.1875 63.9375 
Q 23.390625 74.21875 37.203125 74.21875 
Q 40.921875 74.21875 44.703125 73.484375 
Q 48.484375 72.75 52.59375 71.296875 
z
" id="DejaVuSans-54"/>
      </defs>
      <g transform="translate(164.492921 329.598437)scale(0.1 -0.1)">
       <use xlink:href="#DejaVuSans-8722"/>
       <use x="83.789062" xlink:href="#DejaVuSans-48"/>
       <use x="147.412109" xlink:href="#DejaVuSans-46"/>
       <use x="179.199219" xlink:href="#DejaVuSans-48"/>
       <use x="242.822266" xlink:href="#DejaVuSans-54"/>
      </g>
     </g>
    </g>
    <g id="xtick_3">
     <g id="line2d_3">
      <g>
       <use style="stroke:#000000;stroke-width:0.8;" x="210.773031" xlink:href="#ma1c2a2b5b0" y="315"/>
      </g>
     </g>
     <g id="text_3">
      <!-- −0.04 -->
      <defs>
       <path d="M 37.796875 64.3125 
L 12.890625 25.390625 
L 37.796875 25.390625 
z
M 35.203125 72.90625 
L 47.609375 72.90625 
L 47.609375 25.390625 
L 58.015625 25.390625 
L 58.015625 17.1875 
L 47.609375 17.1875 
L 47.609375 0 
L 37.796875 0 
L 37.796875 17.1875 
L 4.890625 17.1875 
L 4.890625 26.703125 
z
" id="DejaVuSans-52"/>
      </defs>
      <g transform="translate(195.450375 329.598437)scale(0.1 -0.1)">
       <use xlink:href="#DejaVuSans-8722"/>
       <use x="83.789062" xlink:href="#DejaVuSans-48"/>
       <use x="147.412109" xlink:href="#DejaVuSans-46"/>
       <use x="179.199219" xlink:href="#DejaVuSans-48"/>
       <use x="242.822266" xlink:href="#DejaVuSans-52"/>
      </g>
     </g>
    </g>
    <g id="xtick_4">
     <g id="line2d_4">
      <g>
       <use style="stroke:#000000;stroke-width:0.8;" x="241.730486" xlink:href="#ma1c2a2b5b0" y="315"/>
      </g>
     </g>
     <g id="text_4">
      <!-- −0.02 -->
      <defs>
       <path d="M 19.1875 8.296875 
L 53.609375 8.296875 
L 53.609375 0 
L 7.328125 0 
L 7.328125 8.296875 
Q 12.9375 14.109375 22.625 23.890625 
Q 32.328125 33.6875 34.8125 36.53125 
Q 39.546875 41.84375 41.421875 45.53125 
Q 43.3125 49.21875 43.3125 52.78125 
Q 43.3125 58.59375 39.234375 62.25 
Q 35.15625 65.921875 28.609375 65.921875 
Q 23.96875 65.921875 18.8125 64.3125 
Q 13.671875 62.703125 7.8125 59.421875 
L 7.8125 69.390625 
Q 13.765625 71.78125 18.9375 73 
Q 24.125 74.21875 28.421875 74.21875 
Q 39.75 74.21875 46.484375 68.546875 
Q 53.21875 62.890625 53.21875 53.421875 
Q 53.21875 48.921875 51.53125 44.890625 
Q 49.859375 40.875 45.40625 35.40625 
Q 44.1875 33.984375 37.640625 27.21875 
Q 31.109375 20.453125 19.1875 8.296875 
z
" id="DejaVuSans-50"/>
      </defs>
      <g transform="translate(226.407829 329.598437)scale(0.1 -0.1)">
       <use xlink:href="#DejaVuSans-8722"/>
       <use x="83.789062" xlink:href="#DejaVuSans-48"/>
       <use x="147.412109" xlink:href="#DejaVuSans-46"/>
       <use x="179.199219" xlink:href="#DejaVuSans-48"/>
       <use x="242.822266" xlink:href="#DejaVuSans-50"/>
      </g>
     </g>
    </g>
    <g id="xtick_5">
     <g id="line2d_5">
      <g>
       <use style="stroke:#000000;stroke-width:0.8;" x="272.68794" xlink:href="#ma1c2a2b5b0" y="315"/>
      </g>
     </g>
     <g id="text_5">
      <!-- 0.00 -->
      <g transform="translate(261.555128 329.598437)scale(0.1 -0.1)">
       <use xlink:href="#DejaVuSans-48"/>
       <use x="63.623047" xlink:href="#DejaVuSans-46"/>
       <use x="95.410156" xlink:href="#DejaVuSans-48"/>
       <use x="159.033203" xlink:href="#DejaVuSans-48"/>
      </g>
     </g>
    </g>
    <g id="xtick_6">
     <g id="line2d_6">
      <g>
       <use style="stroke:#000000;stroke-width:0.8;" x="303.645394" xlink:href="#ma1c2a2b5b0" y="315"/>
      </g>
     </g>
     <g id="text_6">
      <!-- 0.02 -->
      <g transform="translate(292.512582 329.598437)scale(0.1 -0.1)">
       <use xlink:href="#DejaVuSans-48"/>
       <use x="63.623047" xlink:href="#DejaVuSans-46"/>
       <use x="95.410156" xlink:href="#DejaVuSans-48"/>
       <use x="159.033203" xlink:href="#DejaVuSans-50"/>
      </g>
     </g>
    </g>
    <g id="xtick_7">
     <g id="line2d_7">
      <g>
       <use style="stroke:#000000;stroke-width:0.8;" x="334.602849" xlink:href="#ma1c2a2b5b0" y="315"/>
      </g>
     </g>
     <g id="text_7">
      <!-- 0.04 -->
      <g transform="translate(323.470036 329.598437)scale(0.1 -0.1)">
       <use xlink:href="#DejaVuSans-48"/>
       <use x="63.623047" xlink:href="#DejaVuSans-46"/>
       <use x="95.410156" xlink:href="#DejaVuSans-48"/>
       <use x="159.033203" xlink:href="#DejaVuSans-52"/>
      </g>
     </g>
    </g>
    <g id="xtick_8">
     <g id="line2d_8">
      <g>
       <use style="stroke:#000000;stroke-width:0.8;" x="365.560303" xlink:href="#ma1c2a2b5b0" y="315"/>
      </g>
     </g>
     <g id="text_8">
      <!-- 0.06 -->
      <g transform="translate(354.427491 329.598437)scale(0.1 -0.1)">
       <use xlink:href="#DejaVuSans-48"/>
       <use x="63.623047" xlink:href="#DejaVuSans-46"/>
       <use x="95.410156" xlink:href="#DejaVuSans-48"/>
       <use x="159.033203" xlink:href="#DejaVuSans-54"/>
      </g>
     </g>
    </g>
   </g>
   <g id="matplotlib.axis_2">
    <g id="ytick_1">
     <g id="line2d_9">
      <defs>
       <path d="M 0 0 
L -3.5 0 
" id="m25ebf24c2b" style="stroke:#000000;stroke-width:0.8;"/>
      </defs>
      <g>
       <use style="stroke:#000000;stroke-width:0.8;" x="135" xlink:href="#m25ebf24c2b" y="290.798469"/>
      </g>
     </g>
     <g id="text_9">
      <!-- −0.06 -->
      <g transform="translate(97.354687 294.597688)scale(0.1 -0.1)">
       <use xlink:href="#DejaVuSans-8722"/>
       <use x="83.789062" xlink:href="#DejaVuSans-48"/>
       <use x="147.412109" xlink:href="#DejaVuSans-46"/>
       <use x="179.199219" xlink:href="#DejaVuSans-48"/>
       <use x="242.822266" xlink:href="#DejaVuSans-54"/>
      </g>
     </g>
    </g>
    <g id="ytick_2">
     <g id="line2d_10">
      <g>
       <use style="stroke:#000000;stroke-width:0.8;" x="135" xlink:href="#m25ebf24c2b" y="259.841015"/>
      </g>
     </g>
     <g id="text_10">
      <!-- −0.04 -->
      <g transform="translate(97.354687 263.640233)scale(0.1 -0.1)">
       <use xlink:href="#DejaVuSans-8722"/>
       <use x="83.789062" xlink:href="#DejaVuSans-48"/>
       <use x="147.412109" xlink:href="#DejaVuSans-46"/>
       <use x="179.199219" xlink:href="#DejaVuSans-48"/>
       <use x="242.822266" xlink:href="#DejaVuSans-52"/>
      </g>
     </g>
    </g>
    <g id="ytick_3">
     <g id="line2d_11">
      <g>
       <use style="stroke:#000000;stroke-width:0.8;" x="135" xlink:href="#m25ebf24c2b" y="228.88356"/>
      </g>
     </g>
     <g id="text_11">
      <!-- −0.02 -->
      <g transform="translate(97.354687 232.682779)scale(0.1 -0.1)">
       <use xlink:href="#DejaVuSans-8722"/>
       <use x="83.789062" xlink:href="#DejaVuSans-48"/>
       <use x="147.412109" xlink:href="#DejaVuSans-46"/>
       <use x="179.199219" xlink:href="#DejaVuSans-48"/>
       <use x="242.822266" xlink:href="#DejaVuSans-50"/>
      </g>
     </g>
    </g>
    <g id="ytick_4">
     <g id="line2d_12">
      <g>
       <use style="stroke:#000000;stroke-width:0.8;" x="135" xlink:href="#m25ebf24c2b" y="197.926106"/>
      </g>
     </g>
     <g id="text_12">
      <!-- 0.00 -->
      <g transform="translate(105.734375 201.725325)scale(0.1 -0.1)">
       <use xlink:href="#DejaVuSans-48"/>
       <use x="63.623047" xlink:href="#DejaVuSans-46"/>
       <use x="95.410156" xlink:href="#DejaVuSans-48"/>
       <use x="159.033203" xlink:href="#DejaVuSans-48"/>
      </g>
     </g>
    </g>
    <g id="ytick_5">
     <g id="line2d_13">
      <g>
       <use style="stroke:#000000;stroke-width:0.8;" x="135" xlink:href="#m25ebf24c2b" y="166.968652"/>
      </g>
     </g>
     <g id="text_13">
      <!-- 0.02 -->
      <g transform="translate(105.734375 170.76787)scale(0.1 -0.1)">
       <use xlink:href="#DejaVuSans-48"/>
       <use x="63.623047" xlink:href="#DejaVuSans-46"/>
       <use x="95.410156" xlink:href="#DejaVuSans-48"/>
       <use x="159.033203" xlink:href="#DejaVuSans-50"/>
      </g>
     </g>
    </g>
    <g id="ytick_6">
     <g id="line2d_14">
      <g>
       <use style="stroke:#000000;stroke-width:0.8;" x="135" xlink:href="#m25ebf24c2b" y="136.011197"/>
      </g>
     </g>
     <g id="text_14">
      <!-- 0.04 -->
      <g transform="translate(105.734375 139.810416)scale(0.1 -0.1)">
       <use xlink:href="#DejaVuSans-48"/>
       <use x="63.623047" xlink:href="#DejaVuSans-46"/>
       <use x="95.410156" xlink:href="#DejaVuSans-48"/>
       <use x="159.033203" xlink:href="#DejaVuSans-52"/>
      </g>
     </g>
    </g>
    <g id="ytick_7">
     <g id="line2d_15">
      <g>
       <use style="stroke:#000000;stroke-width:0.8;" x="135" xlink:href="#m25ebf24c2b" y="105.053743"/>
      </g>
     </g>
     <g id="text_15">
      <!-- 0.06 -->
      <g transform="translate(105.734375 108.852962)scale(0.1 -0.1)">
       <use xlink:href="#DejaVuSans-48"/>
       <use x="63.623047" xlink:href="#DejaVuSans-46"/>
       <use x="95.410156" xlink:href="#DejaVuSans-48"/>
       <use x="159.033203" xlink:href="#DejaVuSans-54"/>
      </g>
     </g>
    </g>
    <g id="ytick_8">
     <g id="line2d_16">
      <g>
       <use style="stroke:#000000;stroke-width:0.8;" x="135" xlink:href="#m25ebf24c2b" y="74.096289"/>
      </g>
     </g>
     <g id="text_16">
      <!-- 0.08 -->
      <g transform="translate(105.734375 77.895507)scale(0.1 -0.1)">
       <use xlink:href="#DejaVuSans-48"/>
       <use x="63.623047" xlink:href="#DejaVuSans-46"/>
       <use x="95.410156" xlink:href="#DejaVuSans-48"/>
       <use x="159.033203" xlink:href="#DejaVuSans-56"/>
      </g>
     </g>
    </g>
   </g>
   <g id="line2d_17">
    <path clip-path="url(#p6cb6b6f63f)" d="M 290.059206 51.216119 
L 288.252838 53.022487 
L 286.862108 54.828854 
L 286.862108 56.635222 
L 286.030832 58.44159 
L 284.224464 60.247957 
L 283.665011 62.054325 
L 283.665011 63.860595 
L 282.002556 65.666963 
L 280.467914 67.745154 
L 280.467914 71.357791 
L 279.093186 74.970527 
L 275.480451 78.583262 
L 272.970718 79.989992 
L 271.16435 79.989992 
L 267.839342 83.027274 
L 264.482429 86.639911 
L 264.482429 90.252646 
L 263.395428 93.865382 
L 259.782693 97.478117 
L 258.088235 101.090852 
L 258.088235 104.703587 
L 256.713507 106.941497 
L 254.907139 108.747864 
L 254.891138 112.344599 
L 254.491501 115.557697 
L 252.685134 117.364064 
L 251.694041 119.170432 
L 251.694041 120.9768 
L 248.001398 125.244897 
L 242.582295 130.664 
L 242.10275 132.790096 
L 240.056561 136.386831 
L 225.605718 150.837674 
L 215.854611 159.917418 
L 214.048243 159.917418 
L 210.067873 163.178422 
L 204.64877 168.597525 
L 199.229667 169.508709 
L 194.146295 170.068162 
L 194.146295 179.1 
L 193.618747 186.021742 
L 191.812379 187.82811 
L 190.949198 189.634478 
L 190.949198 191.440748 
L 189.590471 193.247115 
L 187.784103 195.053483 
L 187.752101 212.829335 
L 187.368465 227.440091 
L 185.562097 229.246459 
L 184.555004 231.052827 
L 184.555004 232.859194 
L 183.340091 234.665562 
L 181.533724 236.471929 
L 181.118085 240.084665 
L 179.311718 241.891032 
L 177.505448 243.04194 
L 175.69908 243.04194 
L 172.821615 245.184038 
L 169.208977 248.796676 
L 167.08288 249.436134 
L 165.276513 249.532043 
L 163.470145 251.338411 
L 161.663777 252.633231 
L 159.85741 252.633231 
L 158.051042 253.560417 
L 156.244675 255.366785 
L 154.438307 255.830328 
L 152.632037 255.830328 
L 149.067207 259.347155 
L 146.18984 262.592157 
L 146.18984 264.398525 
L 152.456122 265.42162 
L 166.907063 265.42162 
L 172.965527 266.620531 
L 174.771895 268.426899 
L 184.778824 268.842537 
L 186.585192 270.648904 
L 187.752101 272.455272 
L 187.752101 274.26164 
L 188.8071 276.06791 
L 190.613468 277.874277 
L 196.831845 278.210008 
L 203.817494 278.289916 
L 205.623861 280.096283 
L 206.934683 283.389289 
L 206.934683 290.61476 
L 207.845867 295.106677 
L 209.652235 296.913045 
L 215.438973 297.39259 
L 222.664443 297.39259 
L 224.662629 299.135051 
L 226.117265 300.941321 
L 226.117265 302.747688 
L 228.419179 303.786784 
L 233.838282 303.786784 
L 236.891466 304.969694 
L 238.697834 306.776062 
L 240.504202 306.983881 
L 242.310569 306.776062 
L 244.116937 304.969694 
L 245.923305 303.786784 
L 247.729672 303.786784 
L 249.53604 302.747688 
L 251.342407 300.941321 
L 257.512781 300.589687 
L 264.610341 300.717598 
L 268.223076 304.330333 
L 271.835713 306.983881 
L 275.448449 306.983881 
L 278.166001 306.088698 
L 279.972368 304.28233 
L 283.089557 303.786784 
L 286.702293 303.786784 
L 288.588568 302.060324 
L 290.394936 300.589687 
L 292.201303 300.589687 
L 294.758942 299.087047 
L 298.371677 295.474312 
L 300.817406 294.195493 
L 302.623773 294.195493 
L 312.630703 284.604202 
L 314.43707 284.604202 
L 318.065807 282.174377 
L 325.29118 274.949004 
L 336.60893 271.815814 
L 351.059774 271.815814 
L 355.439879 270.377081 
L 357.246246 268.618717 
L 359.052516 268.618717 
L 360.39534 266.300802 
L 360.39534 257.269061 
L 361.274522 251.754049 
L 363.08089 249.947682 
L 361.002796 246.846494 
L 357.390061 243.233758 
L 357.198243 237.910565 
L 357.517972 233.13092 
L 359.32434 231.324553 
L 360.39534 229.518185 
L 360.39534 227.711817 
L 361.546248 225.905547 
L 363.352616 224.09918 
L 365.158983 223.859358 
L 366.789534 223.155993 
L 366.789534 215.930523 
L 367.380989 210.479515 
L 369.187357 208.673147 
L 369.986631 205.859686 
L 369.986631 202.246951 
L 368.563899 200.056948 
L 366.789534 198.25058 
L 366.789534 196.444212 
L 366.341894 195.085485 
L 364.535624 195.085485 
L 361.002796 192.495844 
L 355.583693 187.076741 
L 354.001146 182.936555 
L 354.001146 179.32382 
L 357.390061 175.711085 
L 360.39534 170.883437 
L 360.39534 160.045329 
L 361.114706 152.803857 
L 362.921074 150.99749 
L 363.592437 149.191122 
L 363.592437 147.384755 
L 365.142982 145.578485 
L 366.469805 143.612204 
L 362.85707 139.999468 
L 360.39534 136.386831 
L 360.39534 132.774095 
L 359.404248 131.143545 
L 357.59788 131.143545 
L 354.384782 128.330084 
L 350.804049 124.73335 
L 350.804049 122.926982 
L 349.940868 120.689073 
L 346.328133 117.076337 
L 344.409855 110.074687 
L 344.409855 99.236481 
L 339.358484 90.924107 
L 332.133014 83.698637 
L 329.94301 83.187089 
L 328.136643 82.899362 
L 326.330275 81.092995 
L 325.227273 77.879897 
L 325.227273 72.460794 
L 322.989266 68.160694 
L 319.376628 64.548057 
L 318.833079 60.935321 
L 318.689166 57.466401 
L 316.882896 55.660131 
L 313.957525 54.413216 
L 308.538422 54.413216 
L 305.069599 53.438125 
L 303.263232 51.631757 
L 297.284676 51.216119 
L 297.284676 51.216119 
" style="fill:none;stroke:#1f77b4;stroke-linecap:square;stroke-width:1.5;"/>
   </g>
   <g id="line2d_18">
    <defs>
     <path d="M 0 3 
C 0.795609 3 1.55874 2.683901 2.12132 2.12132 
C 2.683901 1.55874 3 0.795609 3 0 
C 3 -0.795609 2.683901 -1.55874 2.12132 -2.12132 
C 1.55874 -2.683901 0.795609 -3 0 -3 
C -0.795609 -3 -1.55874 -2.683901 -2.12132 -2.12132 
C -2.683901 -1.55874 -3 -0.795609 -3 0 
C -3 0.795609 -2.683901 1.55874 -2.12132 2.12132 
C -1.55874 2.683901 -0.795609 3 0 3 
z
" id="mcae77e966b" style="stroke:#ff0000;"/>
    </defs>
    <g clip-path="url(#p6cb6b6f63f)">
     <use style="fill:#ff0000;stroke:#ff0000;" x="290.059206" xlink:href="#mcae77e966b" y="51.216119"/>
    </g>
   </g>
   <g id="patch_3">
    <path d="M 135 315 
L 135 43.2 
" style="fill:none;stroke:#000000;stroke-linecap:square;stroke-linejoin:miter;stroke-width:0.8;"/>
   </g>
   <g id="patch_4">
    <path d="M 381.176471 315 
L 381.176471 43.2 
" style="fill:none;stroke:#000000;stroke-linecap:square;stroke-linejoin:miter;stroke-width:0.8;"/>
   </g>
   <g id="patch_5">
    <path d="M 135 315 
L 381.176471 315 
" style="fill:none;stroke:#000000;stroke-linecap:square;stroke-linejoin:miter;stroke-width:0.8;"/>
   </g>
   <g id="patch_6">
    <path d="M 135 43.2 
L 381.176471 43.2 
" style="fill:none;stroke:#000000;stroke-linecap:square;stroke-linejoin:miter;stroke-width:0.8;"/>
   </g>
   <g id="text_17">
    <!-- Reference curve -->
    <defs>
     <path d="M 44.390625 34.1875 
Q 47.5625 33.109375 50.5625 29.59375 
Q 53.5625 26.078125 56.59375 19.921875 
L 66.609375 0 
L 56 0 
L 46.6875 18.703125 
Q 43.0625 26.03125 39.671875 28.421875 
Q 36.28125 30.8125 30.421875 30.8125 
L 19.671875 30.8125 
L 19.671875 0 
L 9.8125 0 
L 9.8125 72.90625 
L 32.078125 72.90625 
Q 44.578125 72.90625 50.734375 67.671875 
Q 56.890625 62.453125 56.890625 51.90625 
Q 56.890625 45.015625 53.6875 40.46875 
Q 50.484375 35.9375 44.390625 34.1875 
z
M 19.671875 64.796875 
L 19.671875 38.921875 
L 32.078125 38.921875 
Q 39.203125 38.921875 42.84375 42.21875 
Q 46.484375 45.515625 46.484375 51.90625 
Q 46.484375 58.296875 42.84375 61.546875 
Q 39.203125 64.796875 32.078125 64.796875 
z
" id="DejaVuSans-82"/>
     <path d="M 56.203125 29.59375 
L 56.203125 25.203125 
L 14.890625 25.203125 
Q 15.484375 15.921875 20.484375 11.0625 
Q 25.484375 6.203125 34.421875 6.203125 
Q 39.59375 6.203125 44.453125 7.46875 
Q 49.3125 8.734375 54.109375 11.28125 
L 54.109375 2.78125 
Q 49.265625 0.734375 44.1875 -0.34375 
Q 39.109375 -1.421875 33.890625 -1.421875 
Q 20.796875 -1.421875 13.15625 6.1875 
Q 5.515625 13.8125 5.515625 26.8125 
Q 5.515625 40.234375 12.765625 48.109375 
Q 20.015625 56 32.328125 56 
Q 43.359375 56 49.78125 48.890625 
Q 56.203125 41.796875 56.203125 29.59375 
z
M 47.21875 32.234375 
Q 47.125 39.59375 43.09375 43.984375 
Q 39.0625 48.390625 32.421875 48.390625 
Q 24.90625 48.390625 20.390625 44.140625 
Q 15.875 39.890625 15.1875 32.171875 
z
" id="DejaVuSans-101"/>
     <path d="M 37.109375 75.984375 
L 37.109375 68.5 
L 28.515625 68.5 
Q 23.6875 68.5 21.796875 66.546875 
Q 19.921875 64.59375 19.921875 59.515625 
L 19.921875 54.6875 
L 34.71875 54.6875 
L 34.71875 47.703125 
L 19.921875 47.703125 
L 19.921875 0 
L 10.890625 0 
L 10.890625 47.703125 
L 2.296875 47.703125 
L 2.296875 54.6875 
L 10.890625 54.6875 
L 10.890625 58.5 
Q 10.890625 67.625 15.140625 71.796875 
Q 19.390625 75.984375 28.609375 75.984375 
z
" id="DejaVuSans-102"/>
     <path d="M 41.109375 46.296875 
Q 39.59375 47.171875 37.8125 47.578125 
Q 36.03125 48 33.890625 48 
Q 26.265625 48 22.1875 43.046875 
Q 18.109375 38.09375 18.109375 28.8125 
L 18.109375 0 
L 9.078125 0 
L 9.078125 54.6875 
L 18.109375 54.6875 
L 18.109375 46.1875 
Q 20.953125 51.171875 25.484375 53.578125 
Q 30.03125 56 36.53125 56 
Q 37.453125 56 38.578125 55.875 
Q 39.703125 55.765625 41.0625 55.515625 
z
" id="DejaVuSans-114"/>
     <path d="M 54.890625 33.015625 
L 54.890625 0 
L 45.90625 0 
L 45.90625 32.71875 
Q 45.90625 40.484375 42.875 44.328125 
Q 39.84375 48.1875 33.796875 48.1875 
Q 26.515625 48.1875 22.3125 43.546875 
Q 18.109375 38.921875 18.109375 30.90625 
L 18.109375 0 
L 9.078125 0 
L 9.078125 54.6875 
L 18.109375 54.6875 
L 18.109375 46.1875 
Q 21.34375 51.125 25.703125 53.5625 
Q 30.078125 56 35.796875 56 
Q 45.21875 56 50.046875 50.171875 
Q 54.890625 44.34375 54.890625 33.015625 
z
" id="DejaVuSans-110"/>
     <path d="M 48.78125 52.59375 
L 48.78125 44.1875 
Q 44.96875 46.296875 41.140625 47.34375 
Q 37.3125 48.390625 33.40625 48.390625 
Q 24.65625 48.390625 19.8125 42.84375 
Q 14.984375 37.3125 14.984375 27.296875 
Q 14.984375 17.28125 19.8125 11.734375 
Q 24.65625 6.203125 33.40625 6.203125 
Q 37.3125 6.203125 41.140625 7.25 
Q 44.96875 8.296875 48.78125 10.40625 
L 48.78125 2.09375 
Q 45.015625 0.34375 40.984375 -0.53125 
Q 36.96875 -1.421875 32.421875 -1.421875 
Q 20.0625 -1.421875 12.78125 6.34375 
Q 5.515625 14.109375 5.515625 27.296875 
Q 5.515625 40.671875 12.859375 48.328125 
Q 20.21875 56 33.015625 56 
Q 37.15625 56 41.109375 55.140625 
Q 45.0625 54.296875 48.78125 52.59375 
z
" id="DejaVuSans-99"/>
     <path id="DejaVuSans-32"/>
     <path d="M 8.5 21.578125 
L 8.5 54.6875 
L 17.484375 54.6875 
L 17.484375 21.921875 
Q 17.484375 14.15625 20.5 10.265625 
Q 23.53125 6.390625 29.59375 6.390625 
Q 36.859375 6.390625 41.078125 11.03125 
Q 45.3125 15.671875 45.3125 23.6875 
L 45.3125 54.6875 
L 54.296875 54.6875 
L 54.296875 0 
L 45.3125 0 
L 45.3125 8.40625 
Q 42.046875 3.421875 37.71875 1 
Q 33.40625 -1.421875 27.6875 -1.421875 
Q 18.265625 -1.421875 13.375 4.4375 
Q 8.5 10.296875 8.5 21.578125 
z
M 31.109375 56 
z
" id="DejaVuSans-117"/>
     <path d="M 2.984375 54.6875 
L 12.5 54.6875 
L 29.59375 8.796875 
L 46.6875 54.6875 
L 56.203125 54.6875 
L 35.6875 0 
L 23.484375 0 
z
" id="DejaVuSans-118"/>
    </defs>
    <g transform="translate(208.75886 37.2)scale(0.12 -0.12)">
     <use xlink:href="#DejaVuSans-82"/>
     <use x="69.419922" xlink:href="#DejaVuSans-101"/>
     <use x="130.943359" xlink:href="#DejaVuSans-102"/>
     <use x="166.148438" xlink:href="#DejaVuSans-101"/>
     <use x="227.671875" xlink:href="#DejaVuSans-114"/>
     <use x="268.753906" xlink:href="#DejaVuSans-101"/>
     <use x="330.277344" xlink:href="#DejaVuSans-110"/>
     <use x="393.65625" xlink:href="#DejaVuSans-99"/>
     <use x="448.636719" xlink:href="#DejaVuSans-101"/>
     <use x="510.160156" xlink:href="#DejaVuSans-32"/>
     <use x="541.947266" xlink:href="#DejaVuSans-99"/>
     <use x="596.927734" xlink:href="#DejaVuSans-117"/>
     <use x="660.306641" xlink:href="#DejaVuSans-114"/>
     <use x="701.419922" xlink:href="#DejaVuSans-118"/>
     <use x="760.599609" xlink:href="#DejaVuSans-101"/>
    </g>
   </g>
  </g>
  <g id="axes_2">
   <g id="patch_7">
    <path d="M 430.411765 315 
L 676.588235 315 
L 676.588235 43.2 
L 430.411765 43.2 
z
" style="fill:#ffffff;"/>
   </g>
   <g id="matplotlib.axis_3">
    <g id="xtick_9">
     <g id="line2d_19">
      <g>
       <use style="stroke:#000000;stroke-width:0.8;" x="459.114198" xlink:href="#ma1c2a2b5b0" y="315"/>
      </g>
     </g>
     <g id="text_18">
      <!-- −0.075 -->
      <defs>
       <path d="M 8.203125 72.90625 
L 55.078125 72.90625 
L 55.078125 68.703125 
L 28.609375 0 
L 18.3125 0 
L 43.21875 64.59375 
L 8.203125 64.59375 
z
" id="DejaVuSans-55"/>
       <path d="M 10.796875 72.90625 
L 49.515625 72.90625 
L 49.515625 64.59375 
L 19.828125 64.59375 
L 19.828125 46.734375 
Q 21.96875 47.46875 24.109375 47.828125 
Q 26.265625 48.1875 28.421875 48.1875 
Q 40.625 48.1875 47.75 41.5 
Q 54.890625 34.8125 54.890625 23.390625 
Q 54.890625 11.625 47.5625 5.09375 
Q 40.234375 -1.421875 26.90625 -1.421875 
Q 22.3125 -1.421875 17.546875 -0.640625 
Q 12.796875 0.140625 7.71875 1.703125 
L 7.71875 11.625 
Q 12.109375 9.234375 16.796875 8.0625 
Q 21.484375 6.890625 26.703125 6.890625 
Q 35.15625 6.890625 40.078125 11.328125 
Q 45.015625 15.765625 45.015625 23.390625 
Q 45.015625 31 40.078125 35.4375 
Q 35.15625 39.890625 26.703125 39.890625 
Q 22.75 39.890625 18.8125 39.015625 
Q 14.890625 38.140625 10.796875 36.28125 
z
" id="DejaVuSans-53"/>
      </defs>
      <g transform="translate(440.610292 329.598437)scale(0.1 -0.1)">
       <use xlink:href="#DejaVuSans-8722"/>
       <use x="83.789062" xlink:href="#DejaVuSans-48"/>
       <use x="147.412109" xlink:href="#DejaVuSans-46"/>
       <use x="179.199219" xlink:href="#DejaVuSans-48"/>
       <use x="242.822266" xlink:href="#DejaVuSans-55"/>
       <use x="306.445312" xlink:href="#DejaVuSans-53"/>
      </g>
     </g>
    </g>
    <g id="xtick_10">
     <g id="line2d_20">
      <g>
       <use style="stroke:#000000;stroke-width:0.8;" x="490.572762" xlink:href="#ma1c2a2b5b0" y="315"/>
      </g>
     </g>
     <g id="text_19">
      <!-- −0.050 -->
      <g transform="translate(472.068856 329.598437)scale(0.1 -0.1)">
       <use xlink:href="#DejaVuSans-8722"/>
       <use x="83.789062" xlink:href="#DejaVuSans-48"/>
       <use x="147.412109" xlink:href="#DejaVuSans-46"/>
       <use x="179.199219" xlink:href="#DejaVuSans-48"/>
       <use x="242.822266" xlink:href="#DejaVuSans-53"/>
       <use x="306.445312" xlink:href="#DejaVuSans-48"/>
      </g>
     </g>
    </g>
    <g id="xtick_11">
     <g id="line2d_21">
      <g>
       <use style="stroke:#000000;stroke-width:0.8;" x="522.031327" xlink:href="#ma1c2a2b5b0" y="315"/>
      </g>
     </g>
     <g id="text_20">
      <!-- −0.025 -->
      <g transform="translate(503.52742 329.598437)scale(0.1 -0.1)">
       <use xlink:href="#DejaVuSans-8722"/>
       <use x="83.789062" xlink:href="#DejaVuSans-48"/>
       <use x="147.412109" xlink:href="#DejaVuSans-46"/>
       <use x="179.199219" xlink:href="#DejaVuSans-48"/>
       <use x="242.822266" xlink:href="#DejaVuSans-50"/>
       <use x="306.445312" xlink:href="#DejaVuSans-53"/>
      </g>
     </g>
    </g>
    <g id="xtick_12">
     <g id="line2d_22">
      <g>
       <use style="stroke:#000000;stroke-width:0.8;" x="553.489891" xlink:href="#ma1c2a2b5b0" y="315"/>
      </g>
     </g>
     <g id="text_21">
      <!-- 0.000 -->
      <g transform="translate(539.175829 329.598437)scale(0.1 -0.1)">
       <use xlink:href="#DejaVuSans-48"/>
       <use x="63.623047" xlink:href="#DejaVuSans-46"/>
       <use x="95.410156" xlink:href="#DejaVuSans-48"/>
       <use x="159.033203" xlink:href="#DejaVuSans-48"/>
       <use x="222.65625" xlink:href="#DejaVuSans-48"/>
      </g>
     </g>
    </g>
    <g id="xtick_13">
     <g id="line2d_23">
      <g>
       <use style="stroke:#000000;stroke-width:0.8;" x="584.948455" xlink:href="#ma1c2a2b5b0" y="315"/>
      </g>
     </g>
     <g id="text_22">
      <!-- 0.025 -->
      <g transform="translate(570.634393 329.598437)scale(0.1 -0.1)">
       <use xlink:href="#DejaVuSans-48"/>
       <use x="63.623047" xlink:href="#DejaVuSans-46"/>
       <use x="95.410156" xlink:href="#DejaVuSans-48"/>
       <use x="159.033203" xlink:href="#DejaVuSans-50"/>
       <use x="222.65625" xlink:href="#DejaVuSans-53"/>
      </g>
     </g>
    </g>
    <g id="xtick_14">
     <g id="line2d_24">
      <g>
       <use style="stroke:#000000;stroke-width:0.8;" x="616.40702" xlink:href="#ma1c2a2b5b0" y="315"/>
      </g>
     </g>
     <g id="text_23">
      <!-- 0.050 -->
      <g transform="translate(602.092957 329.598437)scale(0.1 -0.1)">
       <use xlink:href="#DejaVuSans-48"/>
       <use x="63.623047" xlink:href="#DejaVuSans-46"/>
       <use x="95.410156" xlink:href="#DejaVuSans-48"/>
       <use x="159.033203" xlink:href="#DejaVuSans-53"/>
       <use x="222.65625" xlink:href="#DejaVuSans-48"/>
      </g>
     </g>
    </g>
    <g id="xtick_15">
     <g id="line2d_25">
      <g>
       <use style="stroke:#000000;stroke-width:0.8;" x="647.865584" xlink:href="#ma1c2a2b5b0" y="315"/>
      </g>
     </g>
     <g id="text_24">
      <!-- 0.075 -->
      <g transform="translate(633.551522 329.598437)scale(0.1 -0.1)">
       <use xlink:href="#DejaVuSans-48"/>
       <use x="63.623047" xlink:href="#DejaVuSans-46"/>
       <use x="95.410156" xlink:href="#DejaVuSans-48"/>
       <use x="159.033203" xlink:href="#DejaVuSans-55"/>
       <use x="222.65625" xlink:href="#DejaVuSans-53"/>
      </g>
     </g>
    </g>
   </g>
   <g id="matplotlib.axis_4">
    <g id="ytick_9">
     <g id="line2d_26">
      <g>
       <use style="stroke:#000000;stroke-width:0.8;" x="430.411765" xlink:href="#m25ebf24c2b" y="306.72938"/>
      </g>
     </g>
     <g id="text_25">
      <!-- −0.100 -->
      <defs>
       <path d="M 12.40625 8.296875 
L 28.515625 8.296875 
L 28.515625 63.921875 
L 10.984375 60.40625 
L 10.984375 69.390625 
L 28.421875 72.90625 
L 38.28125 72.90625 
L 38.28125 8.296875 
L 54.390625 8.296875 
L 54.390625 0 
L 12.40625 0 
z
" id="DejaVuSans-49"/>
      </defs>
      <g transform="translate(386.403952 310.528598)scale(0.1 -0.1)">
       <use xlink:href="#DejaVuSans-8722"/>
       <use x="83.789062" xlink:href="#DejaVuSans-48"/>
       <use x="147.412109" xlink:href="#DejaVuSans-46"/>
       <use x="179.199219" xlink:href="#DejaVuSans-49"/>
       <use x="242.822266" xlink:href="#DejaVuSans-48"/>
       <use x="306.445312" xlink:href="#DejaVuSans-48"/>
      </g>
     </g>
    </g>
    <g id="ytick_10">
     <g id="line2d_27">
      <g>
       <use style="stroke:#000000;stroke-width:0.8;" x="430.411765" xlink:href="#m25ebf24c2b" y="275.270815"/>
      </g>
     </g>
     <g id="text_26">
      <!-- −0.075 -->
      <g transform="translate(386.403952 279.070034)scale(0.1 -0.1)">
       <use xlink:href="#DejaVuSans-8722"/>
       <use x="83.789062" xlink:href="#DejaVuSans-48"/>
       <use x="147.412109" xlink:href="#DejaVuSans-46"/>
       <use x="179.199219" xlink:href="#DejaVuSans-48"/>
       <use x="242.822266" xlink:href="#DejaVuSans-55"/>
       <use x="306.445312" xlink:href="#DejaVuSans-53"/>
      </g>
     </g>
    </g>
    <g id="ytick_11">
     <g id="line2d_28">
      <g>
       <use style="stroke:#000000;stroke-width:0.8;" x="430.411765" xlink:href="#m25ebf24c2b" y="243.812251"/>
      </g>
     </g>
     <g id="text_27">
      <!-- −0.050 -->
      <g transform="translate(386.403952 247.61147)scale(0.1 -0.1)">
       <use xlink:href="#DejaVuSans-8722"/>
       <use x="83.789062" xlink:href="#DejaVuSans-48"/>
       <use x="147.412109" xlink:href="#DejaVuSans-46"/>
       <use x="179.199219" xlink:href="#DejaVuSans-48"/>
       <use x="242.822266" xlink:href="#DejaVuSans-53"/>
       <use x="306.445312" xlink:href="#DejaVuSans-48"/>
      </g>
     </g>
    </g>
    <g id="ytick_12">
     <g id="line2d_29">
      <g>
       <use style="stroke:#000000;stroke-width:0.8;" x="430.411765" xlink:href="#m25ebf24c2b" y="212.353687"/>
      </g>
     </g>
     <g id="text_28">
      <!-- −0.025 -->
      <g transform="translate(386.403952 216.152905)scale(0.1 -0.1)">
       <use xlink:href="#DejaVuSans-8722"/>
       <use x="83.789062" xlink:href="#DejaVuSans-48"/>
       <use x="147.412109" xlink:href="#DejaVuSans-46"/>
       <use x="179.199219" xlink:href="#DejaVuSans-48"/>
       <use x="242.822266" xlink:href="#DejaVuSans-50"/>
       <use x="306.445312" xlink:href="#DejaVuSans-53"/>
      </g>
     </g>
    </g>
    <g id="ytick_13">
     <g id="line2d_30">
      <g>
       <use style="stroke:#000000;stroke-width:0.8;" x="430.411765" xlink:href="#m25ebf24c2b" y="180.895122"/>
      </g>
     </g>
     <g id="text_29">
      <!-- 0.000 -->
      <g transform="translate(394.78364 184.694341)scale(0.1 -0.1)">
       <use xlink:href="#DejaVuSans-48"/>
       <use x="63.623047" xlink:href="#DejaVuSans-46"/>
       <use x="95.410156" xlink:href="#DejaVuSans-48"/>
       <use x="159.033203" xlink:href="#DejaVuSans-48"/>
       <use x="222.65625" xlink:href="#DejaVuSans-48"/>
      </g>
     </g>
    </g>
    <g id="ytick_14">
     <g id="line2d_31">
      <g>
       <use style="stroke:#000000;stroke-width:0.8;" x="430.411765" xlink:href="#m25ebf24c2b" y="149.436558"/>
      </g>
     </g>
     <g id="text_30">
      <!-- 0.025 -->
      <g transform="translate(394.78364 153.235777)scale(0.1 -0.1)">
       <use xlink:href="#DejaVuSans-48"/>
       <use x="63.623047" xlink:href="#DejaVuSans-46"/>
       <use x="95.410156" xlink:href="#DejaVuSans-48"/>
       <use x="159.033203" xlink:href="#DejaVuSans-50"/>
       <use x="222.65625" xlink:href="#DejaVuSans-53"/>
      </g>
     </g>
    </g>
    <g id="ytick_15">
     <g id="line2d_32">
      <g>
       <use style="stroke:#000000;stroke-width:0.8;" x="430.411765" xlink:href="#m25ebf24c2b" y="117.977994"/>
      </g>
     </g>
     <g id="text_31">
      <!-- 0.050 -->
      <g transform="translate(394.78364 121.777212)scale(0.1 -0.1)">
       <use xlink:href="#DejaVuSans-48"/>
       <use x="63.623047" xlink:href="#DejaVuSans-46"/>
       <use x="95.410156" xlink:href="#DejaVuSans-48"/>
       <use x="159.033203" xlink:href="#DejaVuSans-53"/>
       <use x="222.65625" xlink:href="#DejaVuSans-48"/>
      </g>
     </g>
    </g>
    <g id="ytick_16">
     <g id="line2d_33">
      <g>
       <use style="stroke:#000000;stroke-width:0.8;" x="430.411765" xlink:href="#m25ebf24c2b" y="86.519429"/>
      </g>
     </g>
     <g id="text_32">
      <!-- 0.075 -->
      <g transform="translate(394.78364 90.318648)scale(0.1 -0.1)">
       <use xlink:href="#DejaVuSans-48"/>
       <use x="63.623047" xlink:href="#DejaVuSans-46"/>
       <use x="95.410156" xlink:href="#DejaVuSans-48"/>
       <use x="159.033203" xlink:href="#DejaVuSans-55"/>
       <use x="222.65625" xlink:href="#DejaVuSans-53"/>
      </g>
     </g>
    </g>
    <g id="ytick_17">
     <g id="line2d_34">
      <g>
       <use style="stroke:#000000;stroke-width:0.8;" x="430.411765" xlink:href="#m25ebf24c2b" y="55.060865"/>
      </g>
     </g>
     <g id="text_33">
      <!-- 0.100 -->
      <g transform="translate(394.78364 58.860084)scale(0.1 -0.1)">
       <use xlink:href="#DejaVuSans-48"/>
       <use x="63.623047" xlink:href="#DejaVuSans-46"/>
       <use x="95.410156" xlink:href="#DejaVuSans-49"/>
       <use x="159.033203" xlink:href="#DejaVuSans-48"/>
       <use x="222.65625" xlink:href="#DejaVuSans-48"/>
      </g>
     </g>
    </g>
   </g>
   <g id="line2d_35">
    <path clip-path="url(#pdab13b5326)" d="M 530.154292 96.476316 
L 531.76434 98.738436 
L 531.329596 103.351225 
L 530.154292 105.178631 
L 529.284802 107.006037 
L 525.283854 107.746658 
L 521.105825 105.138377 
L 517.450982 104.52656 
L 514.182536 107.875462 
L 515.663852 110.049028 
L 514.536896 113.70384 
L 510.101204 115.796902 
L 507.613608 116.795131 
L 506.398013 118.62254 
L 504.570592 119.017 
L 502.783461 120.667303 
L 502.525798 122.494705 
L 500.698377 123.847147 
L 498.870956 124.539468 
L 494.314588 125.457195 
L 490.386163 124.33016 
L 489.90307 121.158368 
L 489.90307 125.312291 
L 488.123998 127.067244 
L 486.682972 128.226481 
L 487.286741 132.501159 
L 488.293021 135.970812 
L 486.215995 140.414551 
L 481.305464 141.557684 
L 478.769519 140.084488 
L 478.552147 138.418087 
L 477.022679 140.543352 
L 475.992224 144.198163 
L 475.267781 147.852975 
L 478.189925 152.38526 
L 478.632728 156.981955 
L 477.030737 159.260169 
L 476.604051 161.29688 
L 473.802581 164.52503 
L 472.192533 169.041218 
L 468.956319 173.774765 
L 466.06621 175.36871 
L 467.265689 176.88216 
L 467.120839 183.660464 
L 464.480336 186.977161 
L 465.752337 189.360039 
L 464.142288 195.059613 
L 462.934752 197.506882 
L 462.532239 203.608969 
L 460.922191 206.056237 
L 460.672586 211.039341 
L 459.312142 212.866749 
L 458.627792 214.694158 
L 456.800371 215.619932 
L 456.092044 216.738915 
L 454.755774 218.566324 
L 452.928353 218.840029 
L 447.397741 223.670176 
L 441.601604 224.426901 
L 443.388735 228.677429 
L 448.057916 231.72042 
L 450.682303 232.75085 
L 453.757552 233.330469 
L 455.947195 234.795619 
L 464.214811 235.012967 
L 465.752337 236.840376 
L 467.273747 238.160616 
L 471.306927 238.885133 
L 473.134348 239.770664 
L 474.961769 240.929902 
L 479.542311 241.380713 
L 481.83671 242.974658 
L 483.664131 243.192018 
L 485.491552 244.600811 
L 487.318973 245.236775 
L 490.852944 246.21086 
L 494.193913 247.281544 
L 497.309256 247.820909 
L 499.458804 249.3263 
L 504.506127 249.543661 
L 507.323712 251.041006 
L 514.086035 252.683251 
L 518.038635 255.871153 
L 519.866056 254.889022 
L 524.092434 254.261104 
L 526.740996 255.677943 
L 527.151566 257.481202 
L 541.66618 257.722712 
L 543.493601 259.091251 
L 545.321023 259.767468 
L 552.509836 260.7013 
L 557.525122 259.590362 
L 558.853334 257.762965 
L 565.317704 257.481202 
L 569.101279 260.7013 
L 572.385842 261.071616 
L 574.213263 261.723684 
L 576.040684 260.7013 
L 574.800915 258.656543 
L 573.625611 252.522248 
L 575.082752 249.583914 
L 578.520222 249.495361 
L 580.065806 251.32277 
L 580.565016 252.651055 
L 583.108822 251.218113 
L 586.763664 249.430958 
L 589.26718 250.582137 
L 591.094602 251.041006 
L 592.922023 249.455107 
L 593.139395 241.187503 
L 595.787957 239.770664 
L 600.014335 239.142746 
L 602.687071 238.160616 
L 607.404404 234.972713 
L 610.326745 233.330469 
L 616.646069 227.341085 
L 620.840215 226.367013 
L 628.689203 218.840029 
L 630.516624 218.300664 
L 633.100721 217.22998 
L 635.781516 216.255895 
L 638.800357 215.619932 
L 641.046407 214.211139 
L 644.499993 214.042078 
L 648.154835 217.22998 
L 651.358817 217.680792 
L 653.186238 218.840029 
L 655.013659 217.954497 
L 657.943862 217.22998 
L 660.278354 218.55022 
L 660.568249 223.452816 
L 663.933196 223.815074 
L 665.398396 226.367013 
L 665.398396 225.473435 
L 663.804463 215.636035 
L 662.178298 207.9239 
L 660.946587 203.117903 
L 660.568249 196.943367 
L 658.9582 194.576593 
L 658.410839 191.469199 
L 655.246951 191.960264 
L 652.711203 193.079248 
L 649.982257 192.153474 
L 645.868495 191.469199 
L 641.746872 188.748212 
L 641.247663 180.359859 
L 639.637614 178.403656 
L 639.235102 176.576247 
L 638.027565 171.649501 
L 638.864822 164.871191 
L 638.582985 164.098368 
L 636.755564 162.826428 
L 636.417516 160.999025 
L 631.58737 155.758314 
L 631.901243 150.904018 
L 633.197419 149.076609 
L 632.448801 147.249206 
L 631.58737 140.591657 
L 630.404007 135.544151 
L 629.977321 130.91526 
L 631.58737 128.669241 
L 631.361939 127.067244 
L 629.534518 126.624478 
L 628.367272 124.797076 
L 627.489725 124.72462 
L 622.377937 125.457195 
L 619.004932 124.145008 
L 618.706979 122.317599 
L 616.960139 120.627049 
L 615.132718 120.272836 
L 613.305296 119.017 
L 609.650454 117.406951 
L 607.823033 116.183317 
L 605.995612 115.796902 
L 604.119842 114.186853 
L 600.465196 113.655537 
L 597.29325 110.966756 
L 595.465829 110.266385 
L 592.720767 109.356707 
L 590.201135 108.221622 
L 585.668745 107.746658 
L 583.326194 106.17686 
L 581.498773 105.959503 
L 579.671352 104.52656 
L 577.232104 103.302923 
L 570.260664 101.306463 
L 563.482224 103.399525 
L 558.563635 104.52656 
L 556.043806 103.045315 
L 554.216385 102.827958 
L 551.777334 101.306463 
L 547.341642 100.783195 
L 544.773464 99.696414 
L 542.076751 98.738436 
L 535.547916 98.086365 
L 531.981713 96.693673 
L 531.981713 96.693673 
" style="fill:none;stroke:#1f77b4;stroke-linecap:square;stroke-width:1.5;"/>
   </g>
   <g id="line2d_36">
    <g clip-path="url(#pdab13b5326)">
     <use style="fill:#ff0000;stroke:#ff0000;" x="530.154292" xlink:href="#mcae77e966b" y="96.476316"/>
    </g>
   </g>
   <g id="patch_8">
    <path d="M 430.411765 315 
L 430.411765 43.2 
" style="fill:none;stroke:#000000;stroke-linecap:square;stroke-linejoin:miter;stroke-width:0.8;"/>
   </g>
   <g id="patch_9">
    <path d="M 676.588235 315 
L 676.588235 43.2 
" style="fill:none;stroke:#000000;stroke-linecap:square;stroke-linejoin:miter;stroke-width:0.8;"/>
   </g>
   <g id="patch_10">
    <path d="M 430.411765 315 
L 676.588235 315 
" style="fill:none;stroke:#000000;stroke-linecap:square;stroke-linejoin:miter;stroke-width:0.8;"/>
   </g>
   <g id="patch_11">
    <path d="M 430.411765 43.2 
L 676.588235 43.2 
" style="fill:none;stroke:#000000;stroke-linecap:square;stroke-linejoin:miter;stroke-width:0.8;"/>
   </g>
   <g id="text_34">
    <!-- Unaligned curve -->
    <defs>
     <path d="M 8.6875 72.90625 
L 18.609375 72.90625 
L 18.609375 28.609375 
Q 18.609375 16.890625 22.84375 11.734375 
Q 27.09375 6.59375 36.625 6.59375 
Q 46.09375 6.59375 50.34375 11.734375 
Q 54.59375 16.890625 54.59375 28.609375 
L 54.59375 72.90625 
L 64.5 72.90625 
L 64.5 27.390625 
Q 64.5 13.140625 57.4375 5.859375 
Q 50.390625 -1.421875 36.625 -1.421875 
Q 22.796875 -1.421875 15.734375 5.859375 
Q 8.6875 13.140625 8.6875 27.390625 
z
" id="DejaVuSans-85"/>
     <path d="M 34.28125 27.484375 
Q 23.390625 27.484375 19.1875 25 
Q 14.984375 22.515625 14.984375 16.5 
Q 14.984375 11.71875 18.140625 8.90625 
Q 21.296875 6.109375 26.703125 6.109375 
Q 34.1875 6.109375 38.703125 11.40625 
Q 43.21875 16.703125 43.21875 25.484375 
L 43.21875 27.484375 
z
M 52.203125 31.203125 
L 52.203125 0 
L 43.21875 0 
L 43.21875 8.296875 
Q 40.140625 3.328125 35.546875 0.953125 
Q 30.953125 -1.421875 24.3125 -1.421875 
Q 15.921875 -1.421875 10.953125 3.296875 
Q 6 8.015625 6 15.921875 
Q 6 25.140625 12.171875 29.828125 
Q 18.359375 34.515625 30.609375 34.515625 
L 43.21875 34.515625 
L 43.21875 35.40625 
Q 43.21875 41.609375 39.140625 45 
Q 35.0625 48.390625 27.6875 48.390625 
Q 23 48.390625 18.546875 47.265625 
Q 14.109375 46.140625 10.015625 43.890625 
L 10.015625 52.203125 
Q 14.9375 54.109375 19.578125 55.046875 
Q 24.21875 56 28.609375 56 
Q 40.484375 56 46.34375 49.84375 
Q 52.203125 43.703125 52.203125 31.203125 
z
" id="DejaVuSans-97"/>
     <path d="M 9.421875 75.984375 
L 18.40625 75.984375 
L 18.40625 0 
L 9.421875 0 
z
" id="DejaVuSans-108"/>
     <path d="M 9.421875 54.6875 
L 18.40625 54.6875 
L 18.40625 0 
L 9.421875 0 
z
M 9.421875 75.984375 
L 18.40625 75.984375 
L 18.40625 64.59375 
L 9.421875 64.59375 
z
" id="DejaVuSans-105"/>
     <path d="M 45.40625 27.984375 
Q 45.40625 37.75 41.375 43.109375 
Q 37.359375 48.484375 30.078125 48.484375 
Q 22.859375 48.484375 18.828125 43.109375 
Q 14.796875 37.75 14.796875 27.984375 
Q 14.796875 18.265625 18.828125 12.890625 
Q 22.859375 7.515625 30.078125 7.515625 
Q 37.359375 7.515625 41.375 12.890625 
Q 45.40625 18.265625 45.40625 27.984375 
z
M 54.390625 6.78125 
Q 54.390625 -7.171875 48.1875 -13.984375 
Q 42 -20.796875 29.203125 -20.796875 
Q 24.46875 -20.796875 20.265625 -20.09375 
Q 16.0625 -19.390625 12.109375 -17.921875 
L 12.109375 -9.1875 
Q 16.0625 -11.328125 19.921875 -12.34375 
Q 23.78125 -13.375 27.78125 -13.375 
Q 36.625 -13.375 41.015625 -8.765625 
Q 45.40625 -4.15625 45.40625 5.171875 
L 45.40625 9.625 
Q 42.625 4.78125 38.28125 2.390625 
Q 33.9375 0 27.875 0 
Q 17.828125 0 11.671875 7.65625 
Q 5.515625 15.328125 5.515625 27.984375 
Q 5.515625 40.671875 11.671875 48.328125 
Q 17.828125 56 27.875 56 
Q 33.9375 56 38.28125 53.609375 
Q 42.625 51.21875 45.40625 46.390625 
L 45.40625 54.6875 
L 54.390625 54.6875 
z
" id="DejaVuSans-103"/>
     <path d="M 45.40625 46.390625 
L 45.40625 75.984375 
L 54.390625 75.984375 
L 54.390625 0 
L 45.40625 0 
L 45.40625 8.203125 
Q 42.578125 3.328125 38.25 0.953125 
Q 33.9375 -1.421875 27.875 -1.421875 
Q 17.96875 -1.421875 11.734375 6.484375 
Q 5.515625 14.40625 5.515625 27.296875 
Q 5.515625 40.1875 11.734375 48.09375 
Q 17.96875 56 27.875 56 
Q 33.9375 56 38.25 53.625 
Q 42.578125 51.265625 45.40625 46.390625 
z
M 14.796875 27.296875 
Q 14.796875 17.390625 18.875 11.75 
Q 22.953125 6.109375 30.078125 6.109375 
Q 37.203125 6.109375 41.296875 11.75 
Q 45.40625 17.390625 45.40625 27.296875 
Q 45.40625 37.203125 41.296875 42.84375 
Q 37.203125 48.484375 30.078125 48.484375 
Q 22.953125 48.484375 18.875 42.84375 
Q 14.796875 37.203125 14.796875 27.296875 
z
" id="DejaVuSans-100"/>
    </defs>
    <g transform="translate(504.465 37.2)scale(0.12 -0.12)">
     <use xlink:href="#DejaVuSans-85"/>
     <use x="73.193359" xlink:href="#DejaVuSans-110"/>
     <use x="136.572266" xlink:href="#DejaVuSans-97"/>
     <use x="197.851562" xlink:href="#DejaVuSans-108"/>
     <use x="225.634766" xlink:href="#DejaVuSans-105"/>
     <use x="253.417969" xlink:href="#DejaVuSans-103"/>
     <use x="316.894531" xlink:href="#DejaVuSans-110"/>
     <use x="380.273438" xlink:href="#DejaVuSans-101"/>
     <use x="441.796875" xlink:href="#DejaVuSans-100"/>
     <use x="505.273438" xlink:href="#DejaVuSans-32"/>
     <use x="537.060547" xlink:href="#DejaVuSans-99"/>
     <use x="592.041016" xlink:href="#DejaVuSans-117"/>
     <use x="655.419922" xlink:href="#DejaVuSans-114"/>
     <use x="696.533203" xlink:href="#DejaVuSans-118"/>
     <use x="755.712891" xlink:href="#DejaVuSans-101"/>
    </g>
   </g>
  </g>
  <g id="axes_3">
   <g id="patch_12">
    <path d="M 725.823529 315 
L 972 315 
L 972 43.2 
L 725.823529 43.2 
z
" style="fill:#ffffff;"/>
   </g>
   <g id="matplotlib.axis_5">
    <g id="xtick_16">
     <g id="line2d_37">
      <g>
       <use style="stroke:#000000;stroke-width:0.8;" x="754.130584" xlink:href="#ma1c2a2b5b0" y="315"/>
      </g>
     </g>
     <g id="text_35">
      <!-- −0.075 -->
      <g transform="translate(735.626678 329.598437)scale(0.1 -0.1)">
       <use xlink:href="#DejaVuSans-8722"/>
       <use x="83.789062" xlink:href="#DejaVuSans-48"/>
       <use x="147.412109" xlink:href="#DejaVuSans-46"/>
       <use x="179.199219" xlink:href="#DejaVuSans-48"/>
       <use x="242.822266" xlink:href="#DejaVuSans-55"/>
       <use x="306.445312" xlink:href="#DejaVuSans-53"/>
      </g>
     </g>
    </g>
    <g id="xtick_17">
     <g id="line2d_38">
      <g>
       <use style="stroke:#000000;stroke-width:0.8;" x="789.971195" xlink:href="#ma1c2a2b5b0" y="315"/>
      </g>
     </g>
     <g id="text_36">
      <!-- −0.050 -->
      <g transform="translate(771.467289 329.598437)scale(0.1 -0.1)">
       <use xlink:href="#DejaVuSans-8722"/>
       <use x="83.789062" xlink:href="#DejaVuSans-48"/>
       <use x="147.412109" xlink:href="#DejaVuSans-46"/>
       <use x="179.199219" xlink:href="#DejaVuSans-48"/>
       <use x="242.822266" xlink:href="#DejaVuSans-53"/>
       <use x="306.445312" xlink:href="#DejaVuSans-48"/>
      </g>
     </g>
    </g>
    <g id="xtick_18">
     <g id="line2d_39">
      <g>
       <use style="stroke:#000000;stroke-width:0.8;" x="825.811805" xlink:href="#ma1c2a2b5b0" y="315"/>
      </g>
     </g>
     <g id="text_37">
      <!-- −0.025 -->
      <g transform="translate(807.307899 329.598437)scale(0.1 -0.1)">
       <use xlink:href="#DejaVuSans-8722"/>
       <use x="83.789062" xlink:href="#DejaVuSans-48"/>
       <use x="147.412109" xlink:href="#DejaVuSans-46"/>
       <use x="179.199219" xlink:href="#DejaVuSans-48"/>
       <use x="242.822266" xlink:href="#DejaVuSans-50"/>
       <use x="306.445312" xlink:href="#DejaVuSans-53"/>
      </g>
     </g>
    </g>
    <g id="xtick_19">
     <g id="line2d_40">
      <g>
       <use style="stroke:#000000;stroke-width:0.8;" x="861.652416" xlink:href="#ma1c2a2b5b0" y="315"/>
      </g>
     </g>
     <g id="text_38">
      <!-- 0.000 -->
      <g transform="translate(847.338353 329.598437)scale(0.1 -0.1)">
       <use xlink:href="#DejaVuSans-48"/>
       <use x="63.623047" xlink:href="#DejaVuSans-46"/>
       <use x="95.410156" xlink:href="#DejaVuSans-48"/>
       <use x="159.033203" xlink:href="#DejaVuSans-48"/>
       <use x="222.65625" xlink:href="#DejaVuSans-48"/>
      </g>
     </g>
    </g>
    <g id="xtick_20">
     <g id="line2d_41">
      <g>
       <use style="stroke:#000000;stroke-width:0.8;" x="897.493026" xlink:href="#ma1c2a2b5b0" y="315"/>
      </g>
     </g>
     <g id="text_39">
      <!-- 0.025 -->
      <g transform="translate(883.178964 329.598437)scale(0.1 -0.1)">
       <use xlink:href="#DejaVuSans-48"/>
       <use x="63.623047" xlink:href="#DejaVuSans-46"/>
       <use x="95.410156" xlink:href="#DejaVuSans-48"/>
       <use x="159.033203" xlink:href="#DejaVuSans-50"/>
       <use x="222.65625" xlink:href="#DejaVuSans-53"/>
      </g>
     </g>
    </g>
    <g id="xtick_21">
     <g id="line2d_42">
      <g>
       <use style="stroke:#000000;stroke-width:0.8;" x="933.333637" xlink:href="#ma1c2a2b5b0" y="315"/>
      </g>
     </g>
     <g id="text_40">
      <!-- 0.050 -->
      <g transform="translate(919.019574 329.598437)scale(0.1 -0.1)">
       <use xlink:href="#DejaVuSans-48"/>
       <use x="63.623047" xlink:href="#DejaVuSans-46"/>
       <use x="95.410156" xlink:href="#DejaVuSans-48"/>
       <use x="159.033203" xlink:href="#DejaVuSans-53"/>
       <use x="222.65625" xlink:href="#DejaVuSans-48"/>
      </g>
     </g>
    </g>
    <g id="xtick_22">
     <g id="line2d_43">
      <g>
       <use style="stroke:#000000;stroke-width:0.8;" x="969.174247" xlink:href="#ma1c2a2b5b0" y="315"/>
      </g>
     </g>
     <g id="text_41">
      <!-- 0.075 -->
      <g transform="translate(954.860185 329.598437)scale(0.1 -0.1)">
       <use xlink:href="#DejaVuSans-48"/>
       <use x="63.623047" xlink:href="#DejaVuSans-46"/>
       <use x="95.410156" xlink:href="#DejaVuSans-48"/>
       <use x="159.033203" xlink:href="#DejaVuSans-55"/>
       <use x="222.65625" xlink:href="#DejaVuSans-53"/>
      </g>
     </g>
    </g>
   </g>
   <g id="matplotlib.axis_6">
    <g id="ytick_18">
     <g id="line2d_44">
      <g>
       <use style="stroke:#000000;stroke-width:0.8;" x="725.823529" xlink:href="#m25ebf24c2b" y="297.752451"/>
      </g>
     </g>
     <g id="text_42">
      <!-- −0.075 -->
      <g transform="translate(681.815717 301.55167)scale(0.1 -0.1)">
       <use xlink:href="#DejaVuSans-8722"/>
       <use x="83.789062" xlink:href="#DejaVuSans-48"/>
       <use x="147.412109" xlink:href="#DejaVuSans-46"/>
       <use x="179.199219" xlink:href="#DejaVuSans-48"/>
       <use x="242.822266" xlink:href="#DejaVuSans-55"/>
       <use x="306.445312" xlink:href="#DejaVuSans-53"/>
      </g>
     </g>
    </g>
    <g id="ytick_19">
     <g id="line2d_45">
      <g>
       <use style="stroke:#000000;stroke-width:0.8;" x="725.823529" xlink:href="#m25ebf24c2b" y="261.91184"/>
      </g>
     </g>
     <g id="text_43">
      <!-- −0.050 -->
      <g transform="translate(681.815717 265.711059)scale(0.1 -0.1)">
       <use xlink:href="#DejaVuSans-8722"/>
       <use x="83.789062" xlink:href="#DejaVuSans-48"/>
       <use x="147.412109" xlink:href="#DejaVuSans-46"/>
       <use x="179.199219" xlink:href="#DejaVuSans-48"/>
       <use x="242.822266" xlink:href="#DejaVuSans-53"/>
       <use x="306.445312" xlink:href="#DejaVuSans-48"/>
      </g>
     </g>
    </g>
    <g id="ytick_20">
     <g id="line2d_46">
      <g>
       <use style="stroke:#000000;stroke-width:0.8;" x="725.823529" xlink:href="#m25ebf24c2b" y="226.07123"/>
      </g>
     </g>
     <g id="text_44">
      <!-- −0.025 -->
      <g transform="translate(681.815717 229.870449)scale(0.1 -0.1)">
       <use xlink:href="#DejaVuSans-8722"/>
       <use x="83.789062" xlink:href="#DejaVuSans-48"/>
       <use x="147.412109" xlink:href="#DejaVuSans-46"/>
       <use x="179.199219" xlink:href="#DejaVuSans-48"/>
       <use x="242.822266" xlink:href="#DejaVuSans-50"/>
       <use x="306.445312" xlink:href="#DejaVuSans-53"/>
      </g>
     </g>
    </g>
    <g id="ytick_21">
     <g id="line2d_47">
      <g>
       <use style="stroke:#000000;stroke-width:0.8;" x="725.823529" xlink:href="#m25ebf24c2b" y="190.230619"/>
      </g>
     </g>
     <g id="text_45">
      <!-- 0.000 -->
      <g transform="translate(690.195404 194.029838)scale(0.1 -0.1)">
       <use xlink:href="#DejaVuSans-48"/>
       <use x="63.623047" xlink:href="#DejaVuSans-46"/>
       <use x="95.410156" xlink:href="#DejaVuSans-48"/>
       <use x="159.033203" xlink:href="#DejaVuSans-48"/>
       <use x="222.65625" xlink:href="#DejaVuSans-48"/>
      </g>
     </g>
    </g>
    <g id="ytick_22">
     <g id="line2d_48">
      <g>
       <use style="stroke:#000000;stroke-width:0.8;" x="725.823529" xlink:href="#m25ebf24c2b" y="154.390009"/>
      </g>
     </g>
     <g id="text_46">
      <!-- 0.025 -->
      <g transform="translate(690.195404 158.189228)scale(0.1 -0.1)">
       <use xlink:href="#DejaVuSans-48"/>
       <use x="63.623047" xlink:href="#DejaVuSans-46"/>
       <use x="95.410156" xlink:href="#DejaVuSans-48"/>
       <use x="159.033203" xlink:href="#DejaVuSans-50"/>
       <use x="222.65625" xlink:href="#DejaVuSans-53"/>
      </g>
     </g>
    </g>
    <g id="ytick_23">
     <g id="line2d_49">
      <g>
       <use style="stroke:#000000;stroke-width:0.8;" x="725.823529" xlink:href="#m25ebf24c2b" y="118.549398"/>
      </g>
     </g>
     <g id="text_47">
      <!-- 0.050 -->
      <g transform="translate(690.195404 122.348617)scale(0.1 -0.1)">
       <use xlink:href="#DejaVuSans-48"/>
       <use x="63.623047" xlink:href="#DejaVuSans-46"/>
       <use x="95.410156" xlink:href="#DejaVuSans-48"/>
       <use x="159.033203" xlink:href="#DejaVuSans-53"/>
       <use x="222.65625" xlink:href="#DejaVuSans-48"/>
      </g>
     </g>
    </g>
    <g id="ytick_24">
     <g id="line2d_50">
      <g>
       <use style="stroke:#000000;stroke-width:0.8;" x="725.823529" xlink:href="#m25ebf24c2b" y="82.708788"/>
      </g>
     </g>
     <g id="text_48">
      <!-- 0.075 -->
      <g transform="translate(690.195404 86.508007)scale(0.1 -0.1)">
       <use xlink:href="#DejaVuSans-48"/>
       <use x="63.623047" xlink:href="#DejaVuSans-46"/>
       <use x="95.410156" xlink:href="#DejaVuSans-48"/>
       <use x="159.033203" xlink:href="#DejaVuSans-55"/>
       <use x="222.65625" xlink:href="#DejaVuSans-53"/>
      </g>
     </g>
    </g>
    <g id="ytick_25">
     <g id="line2d_51">
      <g>
       <use style="stroke:#000000;stroke-width:0.8;" x="725.823529" xlink:href="#m25ebf24c2b" y="46.868177"/>
      </g>
     </g>
     <g id="text_49">
      <!-- 0.100 -->
      <g transform="translate(690.195404 50.667396)scale(0.1 -0.1)">
       <use xlink:href="#DejaVuSans-48"/>
       <use x="63.623047" xlink:href="#DejaVuSans-46"/>
       <use x="95.410156" xlink:href="#DejaVuSans-49"/>
       <use x="159.033203" xlink:href="#DejaVuSans-48"/>
       <use x="222.65625" xlink:href="#DejaVuSans-48"/>
      </g>
     </g>
    </g>
   </g>
   <g id="line2d_52">
    <path clip-path="url(#pb7ad210607)" d="M 897.887951 64.149917 
L 895.022895 66.271911 
L 892.103145 66.968119 
L 885.521525 73.710972 
L 882.803756 73.581637 
L 880.522418 73.831427 
L 876.794705 76.642014 
L 874.639867 77.484113 
L 872.256232 78.114337 
L 868.333606 81.594352 
L 865.225103 82.278428 
L 863.628806 83.637756 
L 861.036562 84.0748 
L 859.090344 85.110088 
L 855.540448 87.310185 
L 852.059204 89.274169 
L 849.19676 91.460839 
L 846.274408 92.092381 
L 842.185597 96.143303 
L 838.752846 97.339501 
L 832.145363 101.721035 
L 826.420824 102.557365 
L 825.827211 104.845215 
L 823.080478 108.864216 
L 819.845866 109.981444 
L 818.020656 108.928753 
L 806.58306 120.87492 
L 804.024464 121.343124 
L 802.044597 122.347252 
L 795.699149 127.63368 
L 792.745493 132.686053 
L 793.244894 135.210919 
L 788.476381 140.832755 
L 782.85577 141.502871 
L 780.003645 143.961856 
L 778.043965 144.984679 
L 777.484001 147.303689 
L 780.152963 147.850175 
L 786.190568 151.616245 
L 787.518825 155.10886 
L 784.931915 158.050873 
L 782.207908 157.928274 
L 780.711126 157.317354 
L 779.939806 160.553019 
L 778.604531 164.991622 
L 775.70427 166.193248 
L 773.906089 167.365624 
L 773.81718 170.120849 
L 780.560004 176.70248 
L 779.694131 180.013247 
L 776.947399 184.032248 
L 775.69943 187.026717 
L 774.712603 193.437795 
L 773.823221 197.151907 
L 773.938126 207.070744 
L 771.505703 211.330759 
L 771.721817 223.718531 
L 770.758085 225.663637 
L 769.652755 228.65256 
L 768.391823 231.647537 
L 766.586565 234.663357 
L 766.02555 237.631426 
L 763.493463 240.649232 
L 757.999417 241.23666 
L 755.142382 243.565974 
L 752.758747 244.196198 
L 752.084384 246.409271 
L 750.421766 249.419545 
L 747.511023 250.349011 
L 743.188417 246.796259 
L 740.280802 249.328677 
L 737.013369 248.578026 
L 737.760332 249.269741 
L 747.217511 255.552431 
L 754.923082 260.163018 
L 759.893995 262.853706 
L 765.348309 267.317131 
L 768.573086 267.803364 
L 771.594344 269.751235 
L 773.633005 266.726332 
L 774.660534 263.740437 
L 777.546878 262.175882 
L 781.303329 259.266785 
L 786.768402 257.927726 
L 794.166866 264.00382 
L 797.048438 264.172232 
L 798.887597 265.250353 
L 803.940733 268.05472 
L 808.95877 274.00167 
L 809.82296 274.364315 
L 812.300806 273.821334 
L 814.090058 274.953338 
L 822.209895 274.972517 
L 826.024752 278.992585 
L 826.548962 281.490681 
L 828.656035 282.27948 
L 834.888073 286.712974 
L 840.023443 289.63103 
L 844.223142 292.857561 
L 844.85431 295.942075 
L 846.367964 296.993733 
L 848.152683 295.808891 
L 850.583814 296.247748 
L 851.323688 295.570272 
L 854.668327 290.730121 
L 858.376249 288.926303 
L 860.134469 290.091828 
L 862.899864 289.940251 
L 864.610559 288.68686 
L 867.074944 288.131412 
L 871.250023 286.322574 
L 873.68749 285.7422 
L 875.425103 284.513736 
L 878.223009 284.192068 
L 881.496198 281.54835 
L 886.199208 280.97822 
L 888.199265 279.992789 
L 891.084631 278.402303 
L 893.983914 277.174746 
L 897.889456 273.75368 
L 901.015049 273.010661 
L 902.611343 271.65133 
L 905.223775 271.23298 
L 908.134856 270.141167 
L 915.200314 265.859023 
L 918.697839 258.572529 
L 921.563186 253.588526 
L 924.751985 252.628767 
L 926.34828 251.269436 
L 929.508196 250.408359 
L 933.379262 247.105515 
L 936.275747 245.799987 
L 939.164061 244.287306 
L 944.763091 239.33446 
L 948.687861 237.431462 
L 950.284156 236.072132 
L 947.146862 235.666912 
L 943.627453 231.732753 
L 943.009679 229.335699 
L 942.155175 227.194284 
L 944.633192 223.276482 
L 950.047715 221.803026 
L 953.388349 219.22146 
L 953.119014 213.896913 
L 950.155395 213.452631 
L 947.972622 209.681404 
L 949.656634 204.353269 
L 950.74783 201.501101 
L 950.161243 199.070365 
L 951.246104 197.237429 
L 951.249988 194.466029 
L 949.921873 192.836057 
L 950.205935 190.261551 
L 951.041807 188.198041 
L 953.801725 183.678853 
L 957.784821 181.267422 
L 960.81016 183.318865 
L 957.337795 180.103328 
L 957.247961 177.257655 
L 957.394419 175.155705 
L 953.353737 172.351396 
L 949.674411 170.506724 
L 947.567601 165.330605 
L 950.413253 160.340877 
L 953.6078 159.361415 
L 955.169052 160.469663 
L 954.576448 157.545985 
L 952.318973 153.855425 
L 949.824616 150.420668 
L 943.773947 149.354933 
L 939.588686 146.166797 
L 938.924366 143.064096 
L 937.552127 141.130808 
L 937.022246 136.290092 
L 934.493388 131.448248 
L 933.041643 125.078795 
L 933.946448 121.429016 
L 931.752807 121.260133 
L 926.198785 115.891987 
L 925.470282 111.117283 
L 922.493725 110.336002 
L 918.975645 104.578102 
L 917.864664 101.674271 
L 913.075364 96.614197 
L 912.275966 93.373895 
L 908.303687 89.307842 
L 907.829227 86.756022 
L 906.831404 84.769367 
L 907.472128 82.525143 
L 907.085056 81.066834 
L 906.591882 78.535223 
L 907.777686 76.795763 
L 908.021277 68.43359 
L 911.875481 63.00268 
L 906.93895 61.206267 
L 900.780842 62.75378 
L 900.780842 62.75378 
" style="fill:none;stroke:#1f77b4;stroke-linecap:square;stroke-width:1.5;"/>
   </g>
   <g id="line2d_53">
    <g clip-path="url(#pb7ad210607)">
     <use style="fill:#ff0000;stroke:#ff0000;" x="897.887951" xlink:href="#mcae77e966b" y="64.149917"/>
    </g>
   </g>
   <g id="patch_13">
    <path d="M 725.823529 315 
L 725.823529 43.2 
" style="fill:none;stroke:#000000;stroke-linecap:square;stroke-linejoin:miter;stroke-width:0.8;"/>
   </g>
   <g id="patch_14">
    <path d="M 972 315 
L 972 43.2 
" style="fill:none;stroke:#000000;stroke-linecap:square;stroke-linejoin:miter;stroke-width:0.8;"/>
   </g>
   <g id="patch_15">
    <path d="M 725.823529 315 
L 972 315 
" style="fill:none;stroke:#000000;stroke-linecap:square;stroke-linejoin:miter;stroke-width:0.8;"/>
   </g>
   <g id="patch_16">
    <path d="M 725.823529 43.2 
L 972 43.2 
" style="fill:none;stroke:#000000;stroke-linecap:square;stroke-linejoin:miter;stroke-width:0.8;"/>
   </g>
   <g id="text_50">
    <!-- Aligned curve -->
    <defs>
     <path d="M 34.1875 63.1875 
L 20.796875 26.90625 
L 47.609375 26.90625 
z
M 28.609375 72.90625 
L 39.796875 72.90625 
L 67.578125 0 
L 57.328125 0 
L 50.6875 18.703125 
L 17.828125 18.703125 
L 11.1875 0 
L 0.78125 0 
z
" id="DejaVuSans-65"/>
    </defs>
    <g transform="translate(807.643015 37.2)scale(0.12 -0.12)">
     <use xlink:href="#DejaVuSans-65"/>
     <use x="68.408203" xlink:href="#DejaVuSans-108"/>
     <use x="96.191406" xlink:href="#DejaVuSans-105"/>
     <use x="123.974609" xlink:href="#DejaVuSans-103"/>
     <use x="187.451172" xlink:href="#DejaVuSans-110"/>
     <use x="250.830078" xlink:href="#DejaVuSans-101"/>
     <use x="312.353516" xlink:href="#DejaVuSans-100"/>
     <use x="375.830078" xlink:href="#DejaVuSans-32"/>
     <use x="407.617188" xlink:href="#DejaVuSans-99"/>
     <use x="462.597656" xlink:href="#DejaVuSans-117"/>
     <use x="525.976562" xlink:href="#DejaVuSans-114"/>
     <use x="567.089844" xlink:href="#DejaVuSans-118"/>
     <use x="626.269531" xlink:href="#DejaVuSans-101"/>
    </g>
   </g>
  </g>
 </g>
 <defs>
  <clipPath id="p6cb6b6f63f">
   <rect height="271.8" width="246.176471" x="135" y="43.2"/>
  </clipPath>
  <clipPath id="pdab13b5326">
   <rect height="271.8" width="246.176471" x="430.411765" y="43.2"/>
  </clipPath>
  <clipPath id="pb7ad210607">
   <rect height="271.8" width="246.176471" x="725.823529" y="43.2"/>
  </clipPath>
 </defs>
</svg>
