<?xml version="1.0" encoding="utf-8" standalone="no"?>
<!DOCTYPE svg PUBLIC "-//W3C//DTD SVG 1.1//EN"
  "http://www.w3.org/Graphics/SVG/1.1/DTD/svg11.dtd">
<!-- Created with matplotlib (https://matplotlib.org/) -->
<svg height="288pt" version="1.1" viewBox="0 0 576 288" width="576pt" xmlns="http://www.w3.org/2000/svg" xmlns:xlink="http://www.w3.org/1999/xlink">
 <defs>
  <style type="text/css">
*{stroke-linecap:butt;stroke-linejoin:round;}
  </style>
 </defs>
 <g id="figure_1">
  <g id="patch_1">
   <path d="M 0 288 
L 576 288 
L 576 0 
L 0 0 
z
" style="fill:#ffffff;"/>
  </g>
  <g id="axes_1">
   <g id="line2d_1">
    <path clip-path="url(#pf223496c0f)" d="M 153.907115 75.350996 
L 152.373286 75.479748 
L 150.515704 75.943053 
L 148.869104 76.191202 
L 144.153143 76.363866 
L 142.693723 76.50897 
L 139.509507 77.134315 
L 135.846843 77.452719 
L 134.146524 77.9701 
L 132.452637 78.839986 
L 130.782821 79.944365 
L 129.210972 80.760302 
L 123.542157 82.817029 
L 119.889092 84.495166 
L 118.277908 85.678064 
L 115.189644 88.531166 
L 113.572469 89.822944 
L 111.824381 91.066116 
L 110.055654 92.561621 
L 106.640587 96.315227 
L 104.408304 98.737309 
L 99.709564 104.703957 
L 97.598207 107.692214 
L 95.884757 110.600096 
L 93.349391 114.342541 
L 91.806428 116.125711 
L 90.269146 118.368601 
L 88.81193 121.054485 
L 83.839862 131.471235 
L 82.874115 133.068603 
L 81.122144 137.821985 
L 80.406039 140.234131 
L 79.51732 144.760553 
L 78.966005 146.536613 
L 78.734763 148.569803 
L 78.443793 153.194756 
L 78.314484 155.462098 
L 78.363917 164.268775 
L 77.967914 168.281222 
L 78.027439 169.811647 
L 78.47496 172.52977 
L 78.501757 174.164472 
L 79.060215 177.673321 
L 80.24497 181.690187 
L 81.363846 184.694916 
L 83.089686 187.922661 
L 85.284748 190.448803 
L 86.289286 191.88534 
L 88.958233 194.892566 
L 89.858092 196.024554 
L 92.202532 197.977531 
L 94.210936 199.849715 
L 97.179349 201.759931 
L 102.005818 205.464262 
L 105.041095 207.492996 
L 108.228332 208.62676 
L 109.764611 208.849242 
L 110.96865 208.905634 
L 113.615063 209.487531 
L 116.499808 210.167213 
L 118.091225 210.655934 
L 121.534122 211.967172 
L 123.309849 212.310724 
L 125.002735 212.440313 
L 130.325478 212.445309 
L 132.605249 212.263419 
L 134.789007 211.786167 
L 136.585277 211.239079 
L 138.241111 210.597248 
L 140.194126 209.990886 
L 142.049421 209.261028 
L 144.252745 208.648309 
L 146.526835 207.570301 
L 148.76871 206.814736 
L 156.148653 203.401508 
L 157.321977 202.626949 
L 162.659018 200.009332 
L 165.665902 198.105717 
L 171.22224 193.090698 
L 175.305534 190.764966 
L 177.70087 188.473365 
L 178.950395 187.082303 
L 182.866737 181.677956 
L 184.905776 178.454785 
L 185.444594 177.054335 
L 186.439235 175.086468 
L 187.333536 173.06155 
L 188.542281 169.68257 
L 190.239481 166.485511 
L 192.150678 163.333448 
L 192.861162 161.704342 
L 193.81865 158.047325 
L 195.824276 152.518921 
L 195.9526 150.826772 
L 195.785824 145.036772 
L 195.904244 143.246949 
L 196.346482 141.331575 
L 197.280943 134.029682 
L 197.326203 131.551018 
L 196.64524 126.769955 
L 196.093245 122.52011 
L 195.546127 120.661971 
L 194.804524 118.59571 
L 193.522545 114.183896 
L 192.004651 110.075236 
L 191.408809 107.951913 
L 190.510984 105.592391 
L 185.294248 97.193749 
L 184.135383 94.887941 
L 183.428485 92.990999 
L 182.588022 91.581071 
L 181.273905 90.144637 
L 178.218768 85.99443 
L 176.783911 84.383761 
L 175.09126 82.827116 
L 173.694397 81.707666 
L 171.315373 79.482151 
L 170.18833 78.772625 
L 165.336818 77.332463 
L 162.92353 76.084996 
L 160.139204 75.216924 
L 156.136429 74.039648 
L 156.136429 74.039648 
" style="fill:none;stroke:#2ca02c;stroke-linecap:square;stroke-width:1.5;"/>
   </g>
   <g id="text_1">
    <!-- Mean control -->
    <defs>
     <path d="M 9.8125 72.90625 
L 24.515625 72.90625 
L 43.109375 23.296875 
L 61.8125 72.90625 
L 76.515625 72.90625 
L 76.515625 0 
L 66.890625 0 
L 66.890625 64.015625 
L 48.09375 14.015625 
L 38.1875 14.015625 
L 19.390625 64.015625 
L 19.390625 0 
L 9.8125 0 
z
" id="DejaVuSans-77"/>
     <path d="M 56.203125 29.59375 
L 56.203125 25.203125 
L 14.890625 25.203125 
Q 15.484375 15.921875 20.484375 11.0625 
Q 25.484375 6.203125 34.421875 6.203125 
Q 39.59375 6.203125 44.453125 7.46875 
Q 49.3125 8.734375 54.109375 11.28125 
L 54.109375 2.78125 
Q 49.265625 0.734375 44.1875 -0.34375 
Q 39.109375 -1.421875 33.890625 -1.421875 
Q 20.796875 -1.421875 13.15625 6.1875 
Q 5.515625 13.8125 5.515625 26.8125 
Q 5.515625 40.234375 12.765625 48.109375 
Q 20.015625 56 32.328125 56 
Q 43.359375 56 49.78125 48.890625 
Q 56.203125 41.796875 56.203125 29.59375 
z
M 47.21875 32.234375 
Q 47.125 39.59375 43.09375 43.984375 
Q 39.0625 48.390625 32.421875 48.390625 
Q 24.90625 48.390625 20.390625 44.140625 
Q 15.875 39.890625 15.1875 32.171875 
z
" id="DejaVuSans-101"/>
     <path d="M 34.28125 27.484375 
Q 23.390625 27.484375 19.1875 25 
Q 14.984375 22.515625 14.984375 16.5 
Q 14.984375 11.71875 18.140625 8.90625 
Q 21.296875 6.109375 26.703125 6.109375 
Q 34.1875 6.109375 38.703125 11.40625 
Q 43.21875 16.703125 43.21875 25.484375 
L 43.21875 27.484375 
z
M 52.203125 31.203125 
L 52.203125 0 
L 43.21875 0 
L 43.21875 8.296875 
Q 40.140625 3.328125 35.546875 0.953125 
Q 30.953125 -1.421875 24.3125 -1.421875 
Q 15.921875 -1.421875 10.953125 3.296875 
Q 6 8.015625 6 15.921875 
Q 6 25.140625 12.171875 29.828125 
Q 18.359375 34.515625 30.609375 34.515625 
L 43.21875 34.515625 
L 43.21875 35.40625 
Q 43.21875 41.609375 39.140625 45 
Q 35.0625 48.390625 27.6875 48.390625 
Q 23 48.390625 18.546875 47.265625 
Q 14.109375 46.140625 10.015625 43.890625 
L 10.015625 52.203125 
Q 14.9375 54.109375 19.578125 55.046875 
Q 24.21875 56 28.609375 56 
Q 40.484375 56 46.34375 49.84375 
Q 52.203125 43.703125 52.203125 31.203125 
z
" id="DejaVuSans-97"/>
     <path d="M 54.890625 33.015625 
L 54.890625 0 
L 45.90625 0 
L 45.90625 32.71875 
Q 45.90625 40.484375 42.875 44.328125 
Q 39.84375 48.1875 33.796875 48.1875 
Q 26.515625 48.1875 22.3125 43.546875 
Q 18.109375 38.921875 18.109375 30.90625 
L 18.109375 0 
L 9.078125 0 
L 9.078125 54.6875 
L 18.109375 54.6875 
L 18.109375 46.1875 
Q 21.34375 51.125 25.703125 53.5625 
Q 30.078125 56 35.796875 56 
Q 45.21875 56 50.046875 50.171875 
Q 54.890625 44.34375 54.890625 33.015625 
z
" id="DejaVuSans-110"/>
     <path id="DejaVuSans-32"/>
     <path d="M 48.78125 52.59375 
L 48.78125 44.1875 
Q 44.96875 46.296875 41.140625 47.34375 
Q 37.3125 48.390625 33.40625 48.390625 
Q 24.65625 48.390625 19.8125 42.84375 
Q 14.984375 37.3125 14.984375 27.296875 
Q 14.984375 17.28125 19.8125 11.734375 
Q 24.65625 6.203125 33.40625 6.203125 
Q 37.3125 6.203125 41.140625 7.25 
Q 44.96875 8.296875 48.78125 10.40625 
L 48.78125 2.09375 
Q 45.015625 0.34375 40.984375 -0.53125 
Q 36.96875 -1.421875 32.421875 -1.421875 
Q 20.0625 -1.421875 12.78125 6.34375 
Q 5.515625 14.109375 5.515625 27.296875 
Q 5.515625 40.671875 12.859375 48.328125 
Q 20.21875 56 33.015625 56 
Q 37.15625 56 41.109375 55.140625 
Q 45.0625 54.296875 48.78125 52.59375 
z
" id="DejaVuSans-99"/>
     <path d="M 30.609375 48.390625 
Q 23.390625 48.390625 19.1875 42.75 
Q 14.984375 37.109375 14.984375 27.296875 
Q 14.984375 17.484375 19.15625 11.84375 
Q 23.34375 6.203125 30.609375 6.203125 
Q 37.796875 6.203125 41.984375 11.859375 
Q 46.1875 17.53125 46.1875 27.296875 
Q 46.1875 37.015625 41.984375 42.703125 
Q 37.796875 48.390625 30.609375 48.390625 
z
M 30.609375 56 
Q 42.328125 56 49.015625 48.375 
Q 55.71875 40.765625 55.71875 27.296875 
Q 55.71875 13.875 49.015625 6.21875 
Q 42.328125 -1.421875 30.609375 -1.421875 
Q 18.84375 -1.421875 12.171875 6.21875 
Q 5.515625 13.875 5.515625 27.296875 
Q 5.515625 40.765625 12.171875 48.375 
Q 18.84375 56 30.609375 56 
z
" id="DejaVuSans-111"/>
     <path d="M 18.3125 70.21875 
L 18.3125 54.6875 
L 36.8125 54.6875 
L 36.8125 47.703125 
L 18.3125 47.703125 
L 18.3125 18.015625 
Q 18.3125 11.328125 20.140625 9.421875 
Q 21.96875 7.515625 27.59375 7.515625 
L 36.8125 7.515625 
L 36.8125 0 
L 27.59375 0 
Q 17.1875 0 13.234375 3.875 
Q 9.28125 7.765625 9.28125 18.015625 
L 9.28125 47.703125 
L 2.6875 47.703125 
L 2.6875 54.6875 
L 9.28125 54.6875 
L 9.28125 70.21875 
z
" id="DejaVuSans-116"/>
     <path d="M 41.109375 46.296875 
Q 39.59375 47.171875 37.8125 47.578125 
Q 36.03125 48 33.890625 48 
Q 26.265625 48 22.1875 43.046875 
Q 18.109375 38.09375 18.109375 28.8125 
L 18.109375 0 
L 9.078125 0 
L 9.078125 54.6875 
L 18.109375 54.6875 
L 18.109375 46.1875 
Q 20.953125 51.171875 25.484375 53.578125 
Q 30.03125 56 36.53125 56 
Q 37.453125 56 38.578125 55.875 
Q 39.703125 55.765625 41.0625 55.515625 
z
" id="DejaVuSans-114"/>
     <path d="M 9.421875 75.984375 
L 18.40625 75.984375 
L 18.40625 0 
L 9.421875 0 
z
" id="DejaVuSans-108"/>
    </defs>
    <g transform="translate(72.342371 28.56)scale(0.2 -0.2)">
     <use xlink:href="#DejaVuSans-77"/>
     <use x="86.279297" xlink:href="#DejaVuSans-101"/>
     <use x="147.802734" xlink:href="#DejaVuSans-97"/>
     <use x="209.082031" xlink:href="#DejaVuSans-110"/>
     <use x="272.460938" xlink:href="#DejaVuSans-32"/>
     <use x="304.248047" xlink:href="#DejaVuSans-99"/>
     <use x="359.228516" xlink:href="#DejaVuSans-111"/>
     <use x="420.410156" xlink:href="#DejaVuSans-110"/>
     <use x="483.789062" xlink:href="#DejaVuSans-116"/>
     <use x="522.998047" xlink:href="#DejaVuSans-114"/>
     <use x="564.080078" xlink:href="#DejaVuSans-111"/>
     <use x="625.261719" xlink:href="#DejaVuSans-108"/>
    </g>
   </g>
  </g>
  <g id="axes_2">
   <g id="line2d_2">
    <path clip-path="url(#p3dd1f3eb0c)" d="M 335.745182 63.141304 
L 330.362676 66.365463 
L 328.605439 66.919537 
L 327.069957 67.737205 
L 325.961701 68.552819 
L 324.655903 69.723831 
L 323.708864 70.282104 
L 323.11402 71.205293 
L 320.840346 74.400402 
L 320.138617 76.167203 
L 318.257094 79.518101 
L 314.941948 82.46872 
L 311.101583 86.732008 
L 309.601575 87.982827 
L 306.012452 90.24697 
L 304.046041 91.765243 
L 302.092996 92.907086 
L 300.01038 94.275827 
L 297.672027 96.526341 
L 296.395093 98.564921 
L 294.343563 102.61736 
L 292.560199 105.294845 
L 291.505247 107.390847 
L 289.926681 109.946429 
L 286.797407 114.041443 
L 284.520844 116.165983 
L 281.975028 118.125965 
L 280.429711 119.641697 
L 279.344178 121.180684 
L 278.342843 123.453819 
L 276.923793 126.086419 
L 274.550004 129.123771 
L 272.349054 131.143941 
L 270.55268 133.42197 
L 269.794203 134.878877 
L 268.920709 136.826824 
L 267.661783 140.203381 
L 266.86663 142.812852 
L 265.45563 145.484311 
L 263.699185 152.36074 
L 262.226341 155.782404 
L 260.076697 159.262202 
L 257.665896 163.796861 
L 256.373689 166.789686 
L 254.714286 169.583527 
L 253.471506 172.007456 
L 251.394373 175.678099 
L 248.357127 183.133826 
L 245.929174 186.157918 
L 244.115866 188.760216 
L 242.883827 191.083439 
L 239.976194 195.57358 
L 239.002691 197.86063 
L 235.520856 204.922376 
L 235.748325 206.022802 
L 236.49792 206.934977 
L 237.302751 209.219742 
L 237.447301 211.094789 
L 237.247604 212.33931 
L 237.378057 212.872315 
L 238.558006 214.385097 
L 240.447842 215.226924 
L 241.606546 215.470678 
L 242.418546 215.937063 
L 242.894679 216.957755 
L 244.29283 218.072458 
L 248.4194 220.706048 
L 249.547886 221.139857 
L 251.132198 221.971188 
L 251.946612 222.237413 
L 253.419284 222.923816 
L 255.307176 223.601682 
L 257.431276 223.598367 
L 259.213527 223.723684 
L 260.68068 224.035069 
L 263.124003 223.930259 
L 265.429156 224.205341 
L 266.833548 224.54471 
L 269.505606 224.15583 
L 271.974656 223.631039 
L 274.111518 223.296296 
L 278.645769 222.148683 
L 280.87415 221.706756 
L 282.517238 221.243056 
L 284.082875 221.133255 
L 287.086989 220.622564 
L 289.041695 220.597964 
L 290.426876 220.284974 
L 291.787112 220.174386 
L 294.3659 220.625114 
L 297.467998 220.580299 
L 300.361997 219.308448 
L 302.099852 218.507205 
L 303.27964 217.633936 
L 305.773572 216.050695 
L 310.528122 211.805082 
L 312.475392 210.216894 
L 316.511199 208.536193 
L 319.429122 207.76531 
L 323.472639 205.788226 
L 326.618788 203.235353 
L 328.239847 201.389157 
L 329.517299 198.984372 
L 333.164783 192.96948 
L 334.700116 191.272902 
L 335.878163 189.644566 
L 337.658067 188.246021 
L 339.206735 185.117093 
L 344.999418 176.670094 
L 346.909244 174.462542 
L 347.990224 172.529381 
L 349.78133 170.54982 
L 351.203535 168.562112 
L 352.068941 166.957245 
L 353.325224 165.528723 
L 354.433453 163.837444 
L 354.879144 161.69639 
L 354.507811 160.05667 
L 354.088084 148.60789 
L 354.226993 146.551582 
L 353.930496 144.889495 
L 353.478029 138.295371 
L 352.18491 127.677879 
L 348.75353 120.895105 
L 348.429136 118.880134 
L 348.277587 112.523465 
L 348.50723 107.295884 
L 348.576562 102.89256 
L 348.29446 99.899368 
L 347.499225 98.599079 
L 346.824091 97.198408 
L 345.109194 92.747565 
L 344.43582 90.119199 
L 343.677895 87.748631 
L 342.194988 84.528171 
L 340.837895 78.953823 
L 340.208111 77.318998 
L 339.14994 75.896724 
L 337.731922 74.828873 
L 336.632377 73.710467 
L 335.196902 71.700986 
L 333.136357 66.445737 
L 332.344177 65.401792 
L 331.059953 64.0222 
L 329.906938 62.527022 
L 327.001143 62.01529 
L 325.891217 62.17183 
L 324.986537 62.927203 
L 324.986537 62.927203 
" style="fill:none;stroke:#2ca02c;stroke-linecap:square;stroke-width:1.5;"/>
   </g>
   <g id="text_2">
    <!-- Mean cytd -->
    <defs>
     <path d="M 32.171875 -5.078125 
Q 28.375 -14.84375 24.75 -17.8125 
Q 21.140625 -20.796875 15.09375 -20.796875 
L 7.90625 -20.796875 
L 7.90625 -13.28125 
L 13.1875 -13.28125 
Q 16.890625 -13.28125 18.9375 -11.515625 
Q 21 -9.765625 23.484375 -3.21875 
L 25.09375 0.875 
L 2.984375 54.6875 
L 12.5 54.6875 
L 29.59375 11.921875 
L 46.6875 54.6875 
L 56.203125 54.6875 
z
" id="DejaVuSans-121"/>
     <path d="M 45.40625 46.390625 
L 45.40625 75.984375 
L 54.390625 75.984375 
L 54.390625 0 
L 45.40625 0 
L 45.40625 8.203125 
Q 42.578125 3.328125 38.25 0.953125 
Q 33.9375 -1.421875 27.875 -1.421875 
Q 17.96875 -1.421875 11.734375 6.484375 
Q 5.515625 14.40625 5.515625 27.296875 
Q 5.515625 40.1875 11.734375 48.09375 
Q 17.96875 56 27.875 56 
Q 33.9375 56 38.25 53.625 
Q 42.578125 51.265625 45.40625 46.390625 
z
M 14.796875 27.296875 
Q 14.796875 17.390625 18.875 11.75 
Q 22.953125 6.109375 30.078125 6.109375 
Q 37.203125 6.109375 41.296875 11.75 
Q 45.40625 17.390625 45.40625 27.296875 
Q 45.40625 37.203125 41.296875 42.84375 
Q 37.203125 48.484375 30.078125 48.484375 
Q 22.953125 48.484375 18.875 42.84375 
Q 14.796875 37.203125 14.796875 27.296875 
z
" id="DejaVuSans-100"/>
    </defs>
    <g transform="translate(243.089063 28.56)scale(0.2 -0.2)">
     <use xlink:href="#DejaVuSans-77"/>
     <use x="86.279297" xlink:href="#DejaVuSans-101"/>
     <use x="147.802734" xlink:href="#DejaVuSans-97"/>
     <use x="209.082031" xlink:href="#DejaVuSans-110"/>
     <use x="272.460938" xlink:href="#DejaVuSans-32"/>
     <use x="304.248047" xlink:href="#DejaVuSans-99"/>
     <use x="359.228516" xlink:href="#DejaVuSans-121"/>
     <use x="418.408203" xlink:href="#DejaVuSans-116"/>
     <use x="457.617188" xlink:href="#DejaVuSans-100"/>
    </g>
   </g>
  </g>
  <g id="axes_3">
   <g id="line2d_3">
    <path clip-path="url(#p3baf903f2b)" d="M 474.493264 68.524359 
L 472.501531 69.100938 
L 470.627676 69.363877 
L 467.120026 70.623593 
L 465.438129 71.666215 
L 463.418905 73.131517 
L 459.707218 76.627472 
L 458.287185 78.226649 
L 456.671201 79.593918 
L 455.13958 81.23284 
L 453.503487 82.324368 
L 452.821601 83.592706 
L 451.620876 85.474846 
L 448.53873 89.19067 
L 447.185151 90.653313 
L 446.189473 91.964606 
L 445.76424 93.900102 
L 444.421467 96.241077 
L 442.815821 98.389451 
L 440.260912 102.396842 
L 439.403928 104.76917 
L 436.545024 109.694161 
L 434.593446 112.855328 
L 433.384747 115.419633 
L 432.315102 117.959705 
L 429.603737 123.210297 
L 427.987257 125.598489 
L 424.866463 129.644775 
L 422.929792 131.781679 
L 421.360473 134.082169 
L 417.855736 137.695131 
L 416.593326 139.128372 
L 414.993236 141.137418 
L 413.421237 142.658356 
L 412.362033 143.911285 
L 411.310277 145.810222 
L 408.994526 149.18729 
L 407.760139 151.309958 
L 406.46275 153.044504 
L 404.343402 157.246181 
L 403.008697 159.368442 
L 399.655488 162.868046 
L 398.622986 164.32754 
L 397.89111 165.799354 
L 395.762518 169.358136 
L 395.202333 170.887731 
L 394.697183 174.229998 
L 393.625017 177.021199 
L 393.59586 178.497391 
L 393.073797 184.300662 
L 393.772496 187.8305 
L 394.514737 190.102079 
L 395.363899 193.206579 
L 396.012576 194.613099 
L 396.293895 195.587374 
L 396.941865 196.559267 
L 398.408241 199.769585 
L 399.232327 200.995669 
L 401.409781 203.759889 
L 404.775423 206.095581 
L 413.339008 212.798235 
L 415.539266 213.853412 
L 417.310274 214.96283 
L 420.233677 216.310613 
L 422.010825 216.801018 
L 423.880118 217.06629 
L 425.346522 217.569945 
L 427.312667 217.361547 
L 429.131804 217.734073 
L 430.973526 217.959954 
L 432.855347 217.87796 
L 435.015438 218.035641 
L 439.412952 217.481447 
L 441.403955 217.3988 
L 443.321764 217.476357 
L 447.032661 217.064686 
L 449.091899 216.787544 
L 451.466413 216.083051 
L 453.45779 215.966331 
L 457.56615 214.934211 
L 465.085796 212.12145 
L 466.83978 211.304546 
L 468.743665 210.668206 
L 470.089601 209.670417 
L 474.347036 207.657244 
L 476.076147 206.926422 
L 477.804715 205.756206 
L 480.830862 203.084679 
L 481.732827 202.276319 
L 482.719233 200.36656 
L 484.38228 198.400897 
L 486.269043 196.857816 
L 487.854799 195.184725 
L 489.126374 193.542636 
L 491.587708 189.983645 
L 493.476298 187.985113 
L 494.469072 187.309967 
L 495.373582 186.210337 
L 496.150769 184.774687 
L 497.178875 183.516678 
L 498.137381 181.636947 
L 498.989583 180.242537 
L 499.717502 178.78874 
L 500.191161 177.216848 
L 501.004868 175.417636 
L 501.565626 173.720779 
L 502.347543 172.044349 
L 503.496777 167.637476 
L 504.074137 166.022635 
L 505.809102 162.747704 
L 506.470195 160.975548 
L 507.503117 158.694873 
L 509.517387 154.967985 
L 510.107504 153.541954 
L 510.311715 152.184354 
L 511.095643 148.61663 
L 511.618359 143.690295 
L 511.497171 139.162989 
L 512.409119 134.232761 
L 512.432086 132.412426 
L 512.311672 129.7187 
L 512.013961 127.009079 
L 510.645211 119.064297 
L 510.545268 117.281111 
L 508.44165 112.898887 
L 508.001716 110.501668 
L 506.953925 107.836551 
L 506.00983 105.753871 
L 505.342038 103.501939 
L 504.127724 100.901738 
L 503.102349 98.420787 
L 501.825428 95.788338 
L 500.829997 93.434654 
L 499.152489 90.865153 
L 496.579245 86.286208 
L 495.476436 84.271475 
L 493.246779 80.909314 
L 491.540865 79.040918 
L 490.043134 76.838409 
L 489.165331 75.913308 
L 488.018911 74.96221 
L 486.183834 73.737591 
L 484.938342 72.724803 
L 483.985906 71.681933 
L 482.889603 71.237171 
L 479.246475 70.334183 
L 477.766397 69.837403 
L 475.875808 69.845892 
L 473.87806 69.98974 
L 473.87806 69.98974 
" style="fill:none;stroke:#2ca02c;stroke-linecap:square;stroke-width:1.5;"/>
   </g>
   <g id="text_3">
    <!-- Mean jasp -->
    <defs>
     <path d="M 9.421875 54.6875 
L 18.40625 54.6875 
L 18.40625 -0.984375 
Q 18.40625 -11.421875 14.421875 -16.109375 
Q 10.453125 -20.796875 1.609375 -20.796875 
L -1.8125 -20.796875 
L -1.8125 -13.1875 
L 0.59375 -13.1875 
Q 5.71875 -13.1875 7.5625 -10.8125 
Q 9.421875 -8.453125 9.421875 -0.984375 
z
M 9.421875 75.984375 
L 18.40625 75.984375 
L 18.40625 64.59375 
L 9.421875 64.59375 
z
" id="DejaVuSans-106"/>
     <path d="M 44.28125 53.078125 
L 44.28125 44.578125 
Q 40.484375 46.53125 36.375 47.5 
Q 32.28125 48.484375 27.875 48.484375 
Q 21.1875 48.484375 17.84375 46.4375 
Q 14.5 44.390625 14.5 40.28125 
Q 14.5 37.15625 16.890625 35.375 
Q 19.28125 33.59375 26.515625 31.984375 
L 29.59375 31.296875 
Q 39.15625 29.25 43.1875 25.515625 
Q 47.21875 21.78125 47.21875 15.09375 
Q 47.21875 7.46875 41.1875 3.015625 
Q 35.15625 -1.421875 24.609375 -1.421875 
Q 20.21875 -1.421875 15.453125 -0.5625 
Q 10.6875 0.296875 5.421875 2 
L 5.421875 11.28125 
Q 10.40625 8.6875 15.234375 7.390625 
Q 20.0625 6.109375 24.8125 6.109375 
Q 31.15625 6.109375 34.5625 8.28125 
Q 37.984375 10.453125 37.984375 14.40625 
Q 37.984375 18.0625 35.515625 20.015625 
Q 33.0625 21.96875 24.703125 23.78125 
L 21.578125 24.515625 
Q 13.234375 26.265625 9.515625 29.90625 
Q 5.8125 33.546875 5.8125 39.890625 
Q 5.8125 47.609375 11.28125 51.796875 
Q 16.75 56 26.8125 56 
Q 31.78125 56 36.171875 55.265625 
Q 40.578125 54.546875 44.28125 53.078125 
z
" id="DejaVuSans-115"/>
     <path d="M 18.109375 8.203125 
L 18.109375 -20.796875 
L 9.078125 -20.796875 
L 9.078125 54.6875 
L 18.109375 54.6875 
L 18.109375 46.390625 
Q 20.953125 51.265625 25.265625 53.625 
Q 29.59375 56 35.59375 56 
Q 45.5625 56 51.78125 48.09375 
Q 58.015625 40.1875 58.015625 27.296875 
Q 58.015625 14.40625 51.78125 6.484375 
Q 45.5625 -1.421875 35.59375 -1.421875 
Q 29.59375 -1.421875 25.265625 0.953125 
Q 20.953125 3.328125 18.109375 8.203125 
z
M 48.6875 27.296875 
Q 48.6875 37.203125 44.609375 42.84375 
Q 40.53125 48.484375 33.40625 48.484375 
Q 26.265625 48.484375 22.1875 42.84375 
Q 18.109375 37.203125 18.109375 27.296875 
Q 18.109375 17.390625 22.1875 11.75 
Q 26.265625 6.109375 33.40625 6.109375 
Q 40.53125 6.109375 44.609375 11.75 
Q 48.6875 17.390625 48.6875 27.296875 
z
" id="DejaVuSans-112"/>
    </defs>
    <g transform="translate(401.863879 28.56)scale(0.2 -0.2)">
     <use xlink:href="#DejaVuSans-77"/>
     <use x="86.279297" xlink:href="#DejaVuSans-101"/>
     <use x="147.802734" xlink:href="#DejaVuSans-97"/>
     <use x="209.082031" xlink:href="#DejaVuSans-110"/>
     <use x="272.460938" xlink:href="#DejaVuSans-32"/>
     <use x="304.248047" xlink:href="#DejaVuSans-106"/>
     <use x="332.03125" xlink:href="#DejaVuSans-97"/>
     <use x="393.310547" xlink:href="#DejaVuSans-115"/>
     <use x="445.410156" xlink:href="#DejaVuSans-112"/>
    </g>
   </g>
  </g>
 </g>
 <defs>
  <clipPath id="pf223496c0f">
   <rect height="217.44" width="131.294118" x="72" y="34.56"/>
  </clipPath>
  <clipPath id="p3dd1f3eb0c">
   <rect height="217.44" width="131.294118" x="229.552941" y="34.56"/>
  </clipPath>
  <clipPath id="p3baf903f2b">
   <rect height="217.44" width="131.294118" x="387.105882" y="34.56"/>
  </clipPath>
 </defs>
</svg>
