<?xml version="1.0" encoding="utf-8" standalone="no"?>
<!DOCTYPE svg PUBLIC "-//W3C//DTD SVG 1.1//EN"
  "http://www.w3.org/Graphics/SVG/1.1/DTD/svg11.dtd">
<!-- Created with matplotlib (https://matplotlib.org/) -->
<svg height="432pt" version="1.1" viewBox="0 0 1152 432" width="1152pt" xmlns="http://www.w3.org/2000/svg" xmlns:xlink="http://www.w3.org/1999/xlink">
 <defs>
  <style type="text/css">
*{stroke-linecap:butt;stroke-linejoin:round;}
  </style>
 </defs>
 <g id="figure_1">
  <g id="patch_1">
   <path d="M 0 432 
L 1152 432 
L 1152 0 
L 0 0 
z
" style="fill:#ffffff;"/>
  </g>
  <g id="axes_1">
   <g id="line2d_1">
    <path clip-path="url(#p84bdc1c709)" d="M 357.731494 56.548431 
L 356.864436 56.6766 
L 354.474402 57.502793 
L 350.008622 57.94755 
L 348.899074 58.250286 
L 346.532738 58.386514 
L 345.500394 58.765234 
L 344.467826 59.447081 
L 343.334074 60.414379 
L 342.140294 61.110954 
L 339.922322 61.799523 
L 338.342485 62.423413 
L 335.98726 63.647485 
L 334.834818 64.520568 
L 328.88518 70.455012 
L 326.330104 73.27358 
L 322.556463 78.57821 
L 321.709279 80.174252 
L 319.991192 82.458857 
L 318.831274 83.687056 
L 317.844076 85.240101 
L 315.220874 91.056791 
L 314.073328 92.902755 
L 313.374623 93.845285 
L 312.104063 97.190516 
L 311.593656 98.936534 
L 311.306651 102.112301 
L 311.039522 103.148046 
L 310.655157 106.710017 
L 310.383569 110.592859 
L 310.11959 113.211396 
L 309.605424 117.976348 
L 309.73753 120.826444 
L 309.826489 122.012755 
L 310.445853 125.781802 
L 311.237339 127.961625 
L 311.708199 129.192445 
L 312.254371 129.940567 
L 313.084659 130.855148 
L 313.739703 131.76163 
L 315.518205 133.696315 
L 316.005742 134.380322 
L 317.771561 135.782545 
L 318.213681 136.128386 
L 320.430577 137.35888 
L 322.7765 139.08067 
L 325.274985 140.467176 
L 325.966838 141.083089 
L 326.641367 141.509152 
L 327.640999 141.940918 
L 333.444106 142.555612 
L 335.434896 143.272591 
L 336.581022 143.408984 
L 341.014767 143.165349 
L 342.209507 143.089976 
L 344.272243 142.366744 
L 345.167078 141.905125 
L 349.354805 140.561145 
L 350.752699 139.844558 
L 352.150687 139.392456 
L 355.809913 137.531705 
L 358.713373 136.263523 
L 363.83495 133.350522 
L 365.119524 132.301344 
L 366.509327 130.980558 
L 370.943336 128.642102 
L 372.430192 127.318898 
L 373.052246 126.461968 
L 373.832004 125.670875 
L 375.981935 123.241093 
L 376.856643 122.342518 
L 378.102293 120.26349 
L 378.642461 118.879406 
L 379.240518 116.607202 
L 380.437094 114.503798 
L 382.568171 111.31485 
L 383.028851 110.177169 
L 384.054836 106.485653 
L 384.265955 105.434657 
L 384.142544 102.99815 
L 384.009579 100.612626 
L 383.994037 99.442367 
L 384.253355 98.428676 
L 384.134501 94.608631 
L 384.153961 93.184572 
L 383.814242 90.667115 
L 382.987858 86.603044 
L 380.363207 79.216962 
L 380.18765 77.97672 
L 379.656493 76.45821 
L 374.911368 68.888748 
L 374.07014 66.756913 
L 373.309049 65.708098 
L 372.441034 64.186464 
L 371.489004 62.79223 
L 370.546534 61.93688 
L 368.69144 60.582783 
L 367.429224 59.147086 
L 366.747619 58.770067 
L 363.696362 57.903744 
L 363.113457 57.459721 
L 361.775417 57.033295 
L 361.073951 56.937845 
L 358.859956 56.200428 
L 358.859956 56.200428 
" style="fill:none;stroke:#1f77b4;stroke-linecap:square;stroke-width:1.5;"/>
   </g>
   <g id="text_1">
    <!-- control   -   dlm8 -->
    <defs>
     <path d="M 48.78125 52.59375 
L 48.78125 44.1875 
Q 44.96875 46.296875 41.140625 47.34375 
Q 37.3125 48.390625 33.40625 48.390625 
Q 24.65625 48.390625 19.8125 42.84375 
Q 14.984375 37.3125 14.984375 27.296875 
Q 14.984375 17.28125 19.8125 11.734375 
Q 24.65625 6.203125 33.40625 6.203125 
Q 37.3125 6.203125 41.140625 7.25 
Q 44.96875 8.296875 48.78125 10.40625 
L 48.78125 2.09375 
Q 45.015625 0.34375 40.984375 -0.53125 
Q 36.96875 -1.421875 32.421875 -1.421875 
Q 20.0625 -1.421875 12.78125 6.34375 
Q 5.515625 14.109375 5.515625 27.296875 
Q 5.515625 40.671875 12.859375 48.328125 
Q 20.21875 56 33.015625 56 
Q 37.15625 56 41.109375 55.140625 
Q 45.0625 54.296875 48.78125 52.59375 
z
" id="DejaVuSans-99"/>
     <path d="M 30.609375 48.390625 
Q 23.390625 48.390625 19.1875 42.75 
Q 14.984375 37.109375 14.984375 27.296875 
Q 14.984375 17.484375 19.15625 11.84375 
Q 23.34375 6.203125 30.609375 6.203125 
Q 37.796875 6.203125 41.984375 11.859375 
Q 46.1875 17.53125 46.1875 27.296875 
Q 46.1875 37.015625 41.984375 42.703125 
Q 37.796875 48.390625 30.609375 48.390625 
z
M 30.609375 56 
Q 42.328125 56 49.015625 48.375 
Q 55.71875 40.765625 55.71875 27.296875 
Q 55.71875 13.875 49.015625 6.21875 
Q 42.328125 -1.421875 30.609375 -1.421875 
Q 18.84375 -1.421875 12.171875 6.21875 
Q 5.515625 13.875 5.515625 27.296875 
Q 5.515625 40.765625 12.171875 48.375 
Q 18.84375 56 30.609375 56 
z
" id="DejaVuSans-111"/>
     <path d="M 54.890625 33.015625 
L 54.890625 0 
L 45.90625 0 
L 45.90625 32.71875 
Q 45.90625 40.484375 42.875 44.328125 
Q 39.84375 48.1875 33.796875 48.1875 
Q 26.515625 48.1875 22.3125 43.546875 
Q 18.109375 38.921875 18.109375 30.90625 
L 18.109375 0 
L 9.078125 0 
L 9.078125 54.6875 
L 18.109375 54.6875 
L 18.109375 46.1875 
Q 21.34375 51.125 25.703125 53.5625 
Q 30.078125 56 35.796875 56 
Q 45.21875 56 50.046875 50.171875 
Q 54.890625 44.34375 54.890625 33.015625 
z
" id="DejaVuSans-110"/>
     <path d="M 18.3125 70.21875 
L 18.3125 54.6875 
L 36.8125 54.6875 
L 36.8125 47.703125 
L 18.3125 47.703125 
L 18.3125 18.015625 
Q 18.3125 11.328125 20.140625 9.421875 
Q 21.96875 7.515625 27.59375 7.515625 
L 36.8125 7.515625 
L 36.8125 0 
L 27.59375 0 
Q 17.1875 0 13.234375 3.875 
Q 9.28125 7.765625 9.28125 18.015625 
L 9.28125 47.703125 
L 2.6875 47.703125 
L 2.6875 54.6875 
L 9.28125 54.6875 
L 9.28125 70.21875 
z
" id="DejaVuSans-116"/>
     <path d="M 41.109375 46.296875 
Q 39.59375 47.171875 37.8125 47.578125 
Q 36.03125 48 33.890625 48 
Q 26.265625 48 22.1875 43.046875 
Q 18.109375 38.09375 18.109375 28.8125 
L 18.109375 0 
L 9.078125 0 
L 9.078125 54.6875 
L 18.109375 54.6875 
L 18.109375 46.1875 
Q 20.953125 51.171875 25.484375 53.578125 
Q 30.03125 56 36.53125 56 
Q 37.453125 56 38.578125 55.875 
Q 39.703125 55.765625 41.0625 55.515625 
z
" id="DejaVuSans-114"/>
     <path d="M 9.421875 75.984375 
L 18.40625 75.984375 
L 18.40625 0 
L 9.421875 0 
z
" id="DejaVuSans-108"/>
     <path id="DejaVuSans-32"/>
     <path d="M 4.890625 31.390625 
L 31.203125 31.390625 
L 31.203125 23.390625 
L 4.890625 23.390625 
z
" id="DejaVuSans-45"/>
     <path d="M 45.40625 46.390625 
L 45.40625 75.984375 
L 54.390625 75.984375 
L 54.390625 0 
L 45.40625 0 
L 45.40625 8.203125 
Q 42.578125 3.328125 38.25 0.953125 
Q 33.9375 -1.421875 27.875 -1.421875 
Q 17.96875 -1.421875 11.734375 6.484375 
Q 5.515625 14.40625 5.515625 27.296875 
Q 5.515625 40.1875 11.734375 48.09375 
Q 17.96875 56 27.875 56 
Q 33.9375 56 38.25 53.625 
Q 42.578125 51.265625 45.40625 46.390625 
z
M 14.796875 27.296875 
Q 14.796875 17.390625 18.875 11.75 
Q 22.953125 6.109375 30.078125 6.109375 
Q 37.203125 6.109375 41.296875 11.75 
Q 45.40625 17.390625 45.40625 27.296875 
Q 45.40625 37.203125 41.296875 42.84375 
Q 37.203125 48.484375 30.078125 48.484375 
Q 22.953125 48.484375 18.875 42.84375 
Q 14.796875 37.203125 14.796875 27.296875 
z
" id="DejaVuSans-100"/>
     <path d="M 52 44.1875 
Q 55.375 50.25 60.0625 53.125 
Q 64.75 56 71.09375 56 
Q 79.640625 56 84.28125 50.015625 
Q 88.921875 44.046875 88.921875 33.015625 
L 88.921875 0 
L 79.890625 0 
L 79.890625 32.71875 
Q 79.890625 40.578125 77.09375 44.375 
Q 74.3125 48.1875 68.609375 48.1875 
Q 61.625 48.1875 57.5625 43.546875 
Q 53.515625 38.921875 53.515625 30.90625 
L 53.515625 0 
L 44.484375 0 
L 44.484375 32.71875 
Q 44.484375 40.625 41.703125 44.40625 
Q 38.921875 48.1875 33.109375 48.1875 
Q 26.21875 48.1875 22.15625 43.53125 
Q 18.109375 38.875 18.109375 30.90625 
L 18.109375 0 
L 9.078125 0 
L 9.078125 54.6875 
L 18.109375 54.6875 
L 18.109375 46.1875 
Q 21.1875 51.21875 25.484375 53.609375 
Q 29.78125 56 35.6875 56 
Q 41.65625 56 45.828125 52.96875 
Q 50 49.953125 52 44.1875 
z
" id="DejaVuSans-109"/>
     <path d="M 31.78125 34.625 
Q 24.75 34.625 20.71875 30.859375 
Q 16.703125 27.09375 16.703125 20.515625 
Q 16.703125 13.921875 20.71875 10.15625 
Q 24.75 6.390625 31.78125 6.390625 
Q 38.8125 6.390625 42.859375 10.171875 
Q 46.921875 13.96875 46.921875 20.515625 
Q 46.921875 27.09375 42.890625 30.859375 
Q 38.875 34.625 31.78125 34.625 
z
M 21.921875 38.8125 
Q 15.578125 40.375 12.03125 44.71875 
Q 8.5 49.078125 8.5 55.328125 
Q 8.5 64.0625 14.71875 69.140625 
Q 20.953125 74.21875 31.78125 74.21875 
Q 42.671875 74.21875 48.875 69.140625 
Q 55.078125 64.0625 55.078125 55.328125 
Q 55.078125 49.078125 51.53125 44.71875 
Q 48 40.375 41.703125 38.8125 
Q 48.828125 37.15625 52.796875 32.3125 
Q 56.78125 27.484375 56.78125 20.515625 
Q 56.78125 9.90625 50.3125 4.234375 
Q 43.84375 -1.421875 31.78125 -1.421875 
Q 19.734375 -1.421875 13.25 4.234375 
Q 6.78125 9.90625 6.78125 20.515625 
Q 6.78125 27.484375 10.78125 32.3125 
Q 14.796875 37.15625 21.921875 38.8125 
z
M 18.3125 54.390625 
Q 18.3125 48.734375 21.84375 45.5625 
Q 25.390625 42.390625 31.78125 42.390625 
Q 38.140625 42.390625 41.71875 45.5625 
Q 45.3125 48.734375 45.3125 54.390625 
Q 45.3125 60.0625 41.71875 63.234375 
Q 38.140625 66.40625 31.78125 66.40625 
Q 25.390625 66.40625 21.84375 63.234375 
Q 18.3125 60.0625 18.3125 54.390625 
z
" id="DejaVuSans-56"/>
    </defs>
    <g transform="translate(264.123153 45.84)scale(0.2 -0.2)">
     <use xlink:href="#DejaVuSans-99"/>
     <use x="54.980469" xlink:href="#DejaVuSans-111"/>
     <use x="116.162109" xlink:href="#DejaVuSans-110"/>
     <use x="179.541016" xlink:href="#DejaVuSans-116"/>
     <use x="218.75" xlink:href="#DejaVuSans-114"/>
     <use x="259.832031" xlink:href="#DejaVuSans-111"/>
     <use x="321.013672" xlink:href="#DejaVuSans-108"/>
     <use x="348.796875" xlink:href="#DejaVuSans-32"/>
     <use x="380.583984" xlink:href="#DejaVuSans-32"/>
     <use x="412.371094" xlink:href="#DejaVuSans-32"/>
     <use x="444.158203" xlink:href="#DejaVuSans-45"/>
     <use x="480.242188" xlink:href="#DejaVuSans-32"/>
     <use x="512.029297" xlink:href="#DejaVuSans-32"/>
     <use x="543.816406" xlink:href="#DejaVuSans-32"/>
     <use x="575.603516" xlink:href="#DejaVuSans-100"/>
     <use x="639.080078" xlink:href="#DejaVuSans-108"/>
     <use x="666.863281" xlink:href="#DejaVuSans-109"/>
     <use x="764.275391" xlink:href="#DejaVuSans-56"/>
    </g>
   </g>
  </g>
  <g id="axes_2">
   <g id="line2d_2">
    <path clip-path="url(#pee9c3cb1ed)" d="M 848.091909 56.610498 
L 847.471412 56.706063 
L 846.736833 56.382469 
L 846.003346 56.200428 
L 845.423994 56.497396 
L 842.785038 58.575142 
L 841.859123 58.71113 
L 841.080466 59.141804 
L 840.386671 59.209292 
L 839.09858 59.83448 
L 837.635055 61.435541 
L 837.129098 61.892277 
L 836.356514 62.796223 
L 835.713268 63.205633 
L 834.44873 64.496276 
L 832.418444 66.540538 
L 831.581755 67.028023 
L 830.618152 67.442186 
L 829.09429 69.256465 
L 828.619145 70.098444 
L 827.991193 71.510724 
L 827.392209 73.533305 
L 826.11588 75.654055 
L 824.535675 77.796981 
L 821.956105 80.140402 
L 820.128245 81.829591 
L 818.33642 84.418808 
L 815.463877 88.059639 
L 813.187175 90.805699 
L 811.869998 92.687429 
L 810.958565 94.320456 
L 809.485762 96.252297 
L 808.80731 97.823113 
L 806.852475 101.571481 
L 804.424565 106.433748 
L 803.82165 107.265776 
L 802.455198 110.578376 
L 802.390148 111.457786 
L 800.604931 116.117207 
L 799.374712 117.527534 
L 799.240647 119.018949 
L 799.378545 120.011547 
L 799.508517 123.514802 
L 799.799791 124.793854 
L 799.857964 125.570873 
L 800.111644 126.300691 
L 800.21459 127.474417 
L 800.496976 128.573223 
L 800.906831 129.39523 
L 801.796168 130.801003 
L 802.33276 131.13315 
L 802.884566 131.752314 
L 804.71771 132.982377 
L 805.426466 133.680887 
L 806.142415 134.631737 
L 806.935566 135.932161 
L 807.700986 136.857241 
L 810.214964 139.105805 
L 810.917885 140.150356 
L 814.940017 142.416944 
L 818.070122 143.408984 
L 819.168581 143.151071 
L 821.410165 143.082215 
L 822.846604 142.962527 
L 824.288644 142.668428 
L 825.865317 142.744854 
L 827.403977 142.706491 
L 828.176724 142.221562 
L 829.342477 141.638501 
L 830.453399 141.483071 
L 831.586586 140.960025 
L 833.889513 140.736288 
L 836.670581 139.110403 
L 837.747617 138.239223 
L 839.070899 137.583872 
L 840.150834 136.555409 
L 841.349753 136.067689 
L 844.184145 134.286975 
L 845.332945 133.649334 
L 846.068803 133.014281 
L 848.270289 132.281963 
L 849.356863 132.061316 
L 850.605086 131.952726 
L 853.161226 130.858781 
L 855.833788 130.20207 
L 856.825319 129.689204 
L 858.672187 128.284768 
L 859.309261 127.64286 
L 860.997494 124.194085 
L 861.567539 123.243909 
L 862.441836 119.616494 
L 862.842194 118.433761 
L 863.291829 114.364757 
L 863.764273 113.226299 
L 864.627078 111.958933 
L 865.005607 111.158778 
L 865.602017 106.870933 
L 865.38893 105.505186 
L 865.679912 104.27316 
L 865.855965 102.446216 
L 866.549694 100.478538 
L 866.888341 99.186947 
L 866.86015 97.344383 
L 867.79805 93.850898 
L 868.230208 92.436559 
L 868.541171 91.029919 
L 867.895507 90.093572 
L 867.466888 89.01465 
L 867.039138 86.426643 
L 867.020023 84.167086 
L 866.532146 83.335562 
L 866.331051 82.538892 
L 865.103953 79.989348 
L 864.213159 78.657635 
L 863.601684 77.614777 
L 863.270215 76.804528 
L 862.271774 75.795161 
L 861.67933 74.759464 
L 860.861484 72.93224 
L 859.919327 71.626403 
L 858.774538 70.482197 
L 856.989093 68.863869 
L 854.240735 66.998321 
L 852.907544 65.805221 
L 852.018106 65.262673 
L 849.048707 64.225096 
L 847.930665 63.556098 
L 846.82509 63.134721 
L 845.617213 62.529512 
L 845.617213 62.529512 
" style="fill:none;stroke:#ff7f0e;stroke-linecap:square;stroke-width:1.5;"/>
   </g>
   <g id="text_2">
    <!-- control   -   dunn -->
    <defs>
     <path d="M 8.5 21.578125 
L 8.5 54.6875 
L 17.484375 54.6875 
L 17.484375 21.921875 
Q 17.484375 14.15625 20.5 10.265625 
Q 23.53125 6.390625 29.59375 6.390625 
Q 36.859375 6.390625 41.078125 11.03125 
Q 45.3125 15.671875 45.3125 23.6875 
L 45.3125 54.6875 
L 54.296875 54.6875 
L 54.296875 0 
L 45.3125 0 
L 45.3125 8.40625 
Q 42.046875 3.421875 37.71875 1 
Q 33.40625 -1.421875 27.6875 -1.421875 
Q 18.265625 -1.421875 13.375 4.4375 
Q 8.5 10.296875 8.5 21.578125 
z
M 31.109375 56 
z
" id="DejaVuSans-117"/>
    </defs>
    <g transform="translate(750.973722 45.84)scale(0.2 -0.2)">
     <use xlink:href="#DejaVuSans-99"/>
     <use x="54.980469" xlink:href="#DejaVuSans-111"/>
     <use x="116.162109" xlink:href="#DejaVuSans-110"/>
     <use x="179.541016" xlink:href="#DejaVuSans-116"/>
     <use x="218.75" xlink:href="#DejaVuSans-114"/>
     <use x="259.832031" xlink:href="#DejaVuSans-111"/>
     <use x="321.013672" xlink:href="#DejaVuSans-108"/>
     <use x="348.796875" xlink:href="#DejaVuSans-32"/>
     <use x="380.583984" xlink:href="#DejaVuSans-32"/>
     <use x="412.371094" xlink:href="#DejaVuSans-32"/>
     <use x="444.158203" xlink:href="#DejaVuSans-45"/>
     <use x="480.242188" xlink:href="#DejaVuSans-32"/>
     <use x="512.029297" xlink:href="#DejaVuSans-32"/>
     <use x="543.816406" xlink:href="#DejaVuSans-32"/>
     <use x="575.603516" xlink:href="#DejaVuSans-100"/>
     <use x="639.080078" xlink:href="#DejaVuSans-117"/>
     <use x="702.458984" xlink:href="#DejaVuSans-110"/>
     <use x="765.837891" xlink:href="#DejaVuSans-110"/>
    </g>
   </g>
  </g>
  <g id="axes_3">
   <g id="line2d_3">
    <path clip-path="url(#pbe3cdf0936)" d="M 364.621979 178.2325 
L 363.551692 179.262768 
L 362.048029 180.155537 
L 361.077354 180.549271 
L 358.621678 182.547844 
L 357.673107 184.330118 
L 357.357588 184.811578 
L 357.215816 185.437013 
L 356.611814 186.773695 
L 355.281108 188.125728 
L 353.756145 190.072897 
L 352.346995 191.659697 
L 350.116044 194.02575 
L 346.115512 198.459082 
L 345.295116 200.364423 
L 343.072824 203.779744 
L 341.801732 205.896187 
L 340.699694 206.895226 
L 339.252242 207.831433 
L 337.984837 209.090735 
L 337.541367 210.048841 
L 335.83308 212.720585 
L 334.868058 213.633539 
L 333.6433 215.079681 
L 333.251232 215.855763 
L 332.554357 219.10306 
L 331.733184 220.322922 
L 330.955972 223.568786 
L 330.181638 225.151639 
L 328.025758 228.920342 
L 327.619617 230.310576 
L 326.609644 232.491357 
L 325.598906 234.138418 
L 323.87692 237.929798 
L 322.072659 239.686896 
L 318.669996 243.349081 
L 317.600842 244.330337 
L 316.786169 246.252183 
L 316.096197 247.249524 
L 315.734788 248.22546 
L 315.930701 248.704809 
L 316.406853 249.166296 
L 316.582939 250.40247 
L 316.49205 251.376677 
L 316.247615 252.171788 
L 316.381155 252.400404 
L 316.922136 253.012826 
L 318.137156 253.358776 
L 319.179407 253.538146 
L 319.443661 254.04079 
L 323.599149 258.304086 
L 324.273647 258.524278 
L 325.802937 258.127362 
L 327.10114 258.013749 
L 329.184535 257.959856 
L 330.293534 258.099187 
L 331.943683 257.671735 
L 334.713279 256.822024 
L 337.113187 255.401448 
L 339.688509 254.47634 
L 342.596375 253.928284 
L 344.403982 253.331215 
L 345.692115 253.654963 
L 347.369038 253.729054 
L 348.042814 253.60354 
L 348.786604 253.342469 
L 350.790247 252.40723 
L 351.146699 252.283526 
L 352.002834 251.423216 
L 353.889895 250.035263 
L 355.049064 249.367861 
L 356.928981 248.833756 
L 358.387404 248.721297 
L 361.185648 246.621002 
L 362.211273 246.04381 
L 362.984895 245.379625 
L 363.742295 244.519697 
L 365.91676 241.422404 
L 368.491568 239.503001 
L 369.368402 237.850586 
L 373.961864 232.549275 
L 374.602057 231.578203 
L 375.488073 230.760464 
L 376.629216 229.196997 
L 377.242889 228.434245 
L 377.673466 227.522345 
L 377.693041 226.625426 
L 377.517747 225.832352 
L 377.389256 224.443971 
L 377.488031 222.979993 
L 377.779505 221.235663 
L 377.789628 219.370157 
L 378.083394 218.035486 
L 377.841942 215.84234 
L 377.711528 214.503554 
L 377.327208 213.33537 
L 376.473526 210.037954 
L 375.750593 207.535665 
L 375.157751 206.514003 
L 374.36557 204.349085 
L 373.919198 202.525523 
L 374.151611 199.247822 
L 373.810998 194.626022 
L 373.184059 193.287427 
L 371.910622 192.113483 
L 371.275028 191.255717 
L 368.443182 186.633829 
L 367.923905 183.984664 
L 367.750846 181.976673 
L 367.4439 180.572442 
L 366.164994 178.856953 
L 365.20912 176.53251 
L 364.274535 173.636609 
L 362.491918 171.661981 
L 361.346301 171.315722 
L 360.630866 171.366438 
L 359.764895 171.548092 
L 359.146953 172.309687 
L 359.146953 172.309687 
" style="fill:none;stroke:#1f77b4;stroke-linecap:square;stroke-width:1.5;"/>
   </g>
   <g id="text_3">
    <!-- cytd   -   dlm8 -->
    <defs>
     <path d="M 32.171875 -5.078125 
Q 28.375 -14.84375 24.75 -17.8125 
Q 21.140625 -20.796875 15.09375 -20.796875 
L 7.90625 -20.796875 
L 7.90625 -13.28125 
L 13.1875 -13.28125 
Q 16.890625 -13.28125 18.9375 -11.515625 
Q 21 -9.765625 23.484375 -3.21875 
L 25.09375 0.875 
L 2.984375 54.6875 
L 12.5 54.6875 
L 29.59375 11.921875 
L 46.6875 54.6875 
L 56.203125 54.6875 
z
" id="DejaVuSans-121"/>
    </defs>
    <g transform="translate(277.316903 160.955294)scale(0.2 -0.2)">
     <use xlink:href="#DejaVuSans-99"/>
     <use x="54.980469" xlink:href="#DejaVuSans-121"/>
     <use x="114.160156" xlink:href="#DejaVuSans-116"/>
     <use x="153.369141" xlink:href="#DejaVuSans-100"/>
     <use x="216.845703" xlink:href="#DejaVuSans-32"/>
     <use x="248.632812" xlink:href="#DejaVuSans-32"/>
     <use x="280.419922" xlink:href="#DejaVuSans-32"/>
     <use x="312.207031" xlink:href="#DejaVuSans-45"/>
     <use x="348.291016" xlink:href="#DejaVuSans-32"/>
     <use x="380.078125" xlink:href="#DejaVuSans-32"/>
     <use x="411.865234" xlink:href="#DejaVuSans-32"/>
     <use x="443.652344" xlink:href="#DejaVuSans-100"/>
     <use x="507.128906" xlink:href="#DejaVuSans-108"/>
     <use x="534.912109" xlink:href="#DejaVuSans-109"/>
     <use x="632.324219" xlink:href="#DejaVuSans-56"/>
    </g>
   </g>
  </g>
  <g id="axes_4">
   <g id="line2d_4">
    <path clip-path="url(#pfd29e755c9)" d="M 852.893224 173.386894 
L 852.327183 173.844912 
L 851.807132 174.566501 
L 850.972568 176.240083 
L 849.807002 177.711304 
L 848.987737 178.492459 
L 847.19783 179.518815 
L 846.22739 180.640454 
L 845.070929 181.338146 
L 844.226289 181.486412 
L 843.324781 182.001184 
L 841.534407 183.52504 
L 840.497623 184.682831 
L 840.094337 185.655261 
L 840.061147 186.447971 
L 839.806292 186.811156 
L 839.001578 187.495556 
L 838.386555 187.784083 
L 837.740203 188.492127 
L 836.264244 190.280082 
L 834.841503 191.450136 
L 834.355359 192.605602 
L 833.909953 193.215376 
L 833.193184 193.789743 
L 831.5917 194.688983 
L 829.256113 196.40879 
L 825.62162 200.79151 
L 823.244819 202.61563 
L 821.33495 203.680265 
L 818.060455 206.515194 
L 817.348349 207.986852 
L 817.091616 208.51537 
L 817.305903 210.183271 
L 817.1659 211.777613 
L 816.810471 213.21537 
L 816.372589 214.390092 
L 816.750224 215.411305 
L 816.863482 216.763548 
L 816.728102 221.437557 
L 815.928675 224.333841 
L 814.551081 227.075251 
L 812.527662 229.243061 
L 811.370101 230.898532 
L 810.917605 232.026872 
L 810.682705 233.002935 
L 810.168838 233.796875 
L 809.30541 234.834238 
L 808.495283 236.20847 
L 807.423663 237.512159 
L 805.978756 238.272908 
L 805.641295 238.758358 
L 805.291706 239.597011 
L 804.116905 240.868068 
L 802.521033 242.34895 
L 800.359681 243.777363 
L 799.068512 245.053645 
L 798.97519 245.412624 
L 799.290469 246.126191 
L 799.932393 246.473869 
L 800.465302 246.422096 
L 800.905604 246.564129 
L 801.089255 246.405976 
L 801.498877 246.285502 
L 803.009938 246.262566 
L 803.950403 245.644225 
L 806.14861 245.448249 
L 807.161705 245.688643 
L 807.553079 246.056679 
L 808.93061 246.548855 
L 810.040662 247.031794 
L 813.535441 251.045232 
L 815.282985 251.689645 
L 815.788485 253.036094 
L 816.338292 253.567841 
L 817.397056 253.881366 
L 818.942562 253.982659 
L 819.894967 254.240928 
L 821.373902 255.270555 
L 822.379894 256.357769 
L 823.202619 257.501266 
L 824.22673 258.300211 
L 824.834531 258.524278 
L 825.290248 258.426758 
L 825.616428 258.229517 
L 827.25897 257.582463 
L 828.496491 257.584627 
L 828.981275 257.791834 
L 832.673644 258.360477 
L 833.113735 257.328126 
L 834.166288 255.859964 
L 834.942353 255.228136 
L 835.86964 254.246046 
L 836.65798 253.246156 
L 838.394773 252.055082 
L 840.034554 251.507077 
L 841.275453 250.669223 
L 842.780479 249.382327 
L 844.573693 248.107386 
L 845.542268 246.987271 
L 847.048653 245.617605 
L 849.102327 244.647094 
L 852.180613 244.094044 
L 853.487572 243.263557 
L 855.388926 242.998266 
L 857.197979 242.56687 
L 858.99341 241.941814 
L 859.51075 241.225051 
L 861.086248 239.431936 
L 862.591004 237.550446 
L 864.188234 235.201582 
L 863.860004 233.366931 
L 863.876975 232.243209 
L 864.664534 230.295766 
L 864.764004 229.422912 
L 865.011068 228.485846 
L 865.3716 227.97264 
L 865.604937 227.22517 
L 866.06118 226.653833 
L 867.850231 225.514459 
L 868.618483 224.569111 
L 868.794994 223.903813 
L 868.75282 220.222954 
L 868.393718 218.321384 
L 867.716308 216.841635 
L 866.635257 215.190129 
L 864.628391 214.23968 
L 863.435269 212.23304 
L 860.80379 208.701365 
L 859.76177 206.746727 
L 859.812899 202.772154 
L 859.324701 201.869344 
L 858.857125 200.705772 
L 858.236763 200.238944 
L 858.033502 199.771148 
L 857.362166 198.549854 
L 857.050951 197.457401 
L 856.694632 195.90814 
L 855.843516 194.07183 
L 855.310443 192.850261 
L 854.510893 189.835811 
L 854.094245 188.128937 
L 853.692022 187.508491 
L 851.631214 186.107941 
L 851.033302 184.737855 
L 850.927171 184.011071 
L 850.984366 183.190346 
L 850.386904 181.599037 
L 849.923753 177.368882 
L 849.557166 175.533125 
L 848.235239 174.440077 
L 847.397911 173.560167 
L 845.956563 172.744291 
L 845.248776 171.962725 
L 844.401975 171.315722 
L 843.772646 171.515122 
L 843.772646 171.515122 
" style="fill:none;stroke:#ff7f0e;stroke-linecap:square;stroke-width:1.5;"/>
   </g>
   <g id="text_4">
    <!-- cytd   -   dunn -->
    <g transform="translate(764.167472 160.955294)scale(0.2 -0.2)">
     <use xlink:href="#DejaVuSans-99"/>
     <use x="54.980469" xlink:href="#DejaVuSans-121"/>
     <use x="114.160156" xlink:href="#DejaVuSans-116"/>
     <use x="153.369141" xlink:href="#DejaVuSans-100"/>
     <use x="216.845703" xlink:href="#DejaVuSans-32"/>
     <use x="248.632812" xlink:href="#DejaVuSans-32"/>
     <use x="280.419922" xlink:href="#DejaVuSans-32"/>
     <use x="312.207031" xlink:href="#DejaVuSans-45"/>
     <use x="348.291016" xlink:href="#DejaVuSans-32"/>
     <use x="380.078125" xlink:href="#DejaVuSans-32"/>
     <use x="411.865234" xlink:href="#DejaVuSans-32"/>
     <use x="443.652344" xlink:href="#DejaVuSans-100"/>
     <use x="507.128906" xlink:href="#DejaVuSans-117"/>
     <use x="570.507812" xlink:href="#DejaVuSans-110"/>
     <use x="633.886719" xlink:href="#DejaVuSans-110"/>
    </g>
   </g>
  </g>
  <g id="axes_5">
   <g id="line2d_5">
    <path clip-path="url(#pc7b80705b1)" d="M 361.512555 286.431016 
L 360.286689 286.59418 
L 359.277478 286.608721 
L 357.619639 287.289024 
L 355.561752 288.799095 
L 354.632165 289.901501 
L 353.978266 290.746856 
L 352.984594 291.753051 
L 351.851927 292.471029 
L 350.894695 293.376898 
L 350.055232 294.007545 
L 349.480963 294.706868 
L 348.747832 295.7961 
L 347.143481 297.76579 
L 346.455203 298.385889 
L 345.558689 299.452538 
L 345.153295 300.637022 
L 344.176817 301.952952 
L 343.142746 303.059019 
L 341.521379 305.632443 
L 340.938047 306.908049 
L 340.062156 308.287265 
L 338.693538 310.081408 
L 336.916665 312.076818 
L 334.371902 316.328687 
L 333.445391 317.777748 
L 332.33921 319.15297 
L 330.896794 320.595807 
L 328.103876 324.564968 
L 327.05713 325.665629 
L 322.732085 331.610268 
L 322.197491 333.014361 
L 320.941053 335.418255 
L 320.168336 337.17745 
L 319.551867 338.059561 
L 319.205246 339.296769 
L 318.416367 340.973615 
L 317.722063 342.173229 
L 315.223571 345.392026 
L 313.643364 349.365559 
L 313.143542 352.824257 
L 313.570681 356.25242 
L 313.975355 357.838396 
L 314.531969 359.694514 
L 314.910079 360.249266 
L 315.696569 361.849381 
L 316.88643 364.296531 
L 317.591956 364.924587 
L 318.071707 365.508843 
L 320.296093 366.618559 
L 321.512513 367.578489 
L 323.018583 369.014697 
L 324.892453 370.660635 
L 326.251665 371.333593 
L 328.06078 372.433106 
L 329.83311 373.221603 
L 333.84086 373.639572 
L 337.134399 373.633413 
L 338.441995 373.310913 
L 339.547828 373.248055 
L 341.422798 373.352218 
L 344.652809 373.129143 
L 346.055629 372.781171 
L 347.194625 372.804133 
L 347.941853 372.618272 
L 350.473581 371.513925 
L 353.626331 370.49613 
L 355.990905 368.925981 
L 359.042814 367.635522 
L 360.914452 366.35779 
L 362.073658 365.387322 
L 362.522618 364.681192 
L 363.600684 363.567592 
L 365.659547 361.859406 
L 366.337429 361.061278 
L 367.778199 358.863724 
L 370.675161 356.490383 
L 371.190078 355.503156 
L 371.672173 354.979897 
L 373.944997 350.460212 
L 374.460941 349.5332 
L 375.228135 348.423534 
L 375.70182 347.328001 
L 376.063515 345.498274 
L 376.753189 344.40682 
L 377.576248 342.36399 
L 378.894323 340.246782 
L 380.084145 337.920537 
L 380.187487 336.824561 
L 380.496946 335.339795 
L 380.674639 332.89662 
L 380.123753 330.205609 
L 380.079955 328.926317 
L 380.370947 327.556099 
L 380.491775 326.083867 
L 380.331926 323.589138 
L 380.165026 322.282839 
L 379.76517 320.808093 
L 379.251248 316.552799 
L 378.124158 314.246094 
L 377.804374 312.859249 
L 377.289467 311.541599 
L 376.64683 310.462087 
L 375.5461 307.181448 
L 374.782597 305.696937 
L 374.174246 303.977012 
L 373.636663 302.857902 
L 371.761945 300.390798 
L 369.819281 296.882584 
L 368.050512 294.967513 
L 366.16253 292.004736 
L 364.826586 290.991425 
L 363.805589 289.975896 
L 363.172598 289.550011 
L 360.318301 288.663116 
L 359.293237 288.699342 
L 359.293237 288.699342 
" style="fill:none;stroke:#1f77b4;stroke-linecap:square;stroke-width:1.5;"/>
   </g>
   <g id="text_5">
    <!-- jasp   -   dlm8 -->
    <defs>
     <path d="M 9.421875 54.6875 
L 18.40625 54.6875 
L 18.40625 -0.984375 
Q 18.40625 -11.421875 14.421875 -16.109375 
Q 10.453125 -20.796875 1.609375 -20.796875 
L -1.8125 -20.796875 
L -1.8125 -13.1875 
L 0.59375 -13.1875 
Q 5.71875 -13.1875 7.5625 -10.8125 
Q 9.421875 -8.453125 9.421875 -0.984375 
z
M 9.421875 75.984375 
L 18.40625 75.984375 
L 18.40625 64.59375 
L 9.421875 64.59375 
z
" id="DejaVuSans-106"/>
     <path d="M 34.28125 27.484375 
Q 23.390625 27.484375 19.1875 25 
Q 14.984375 22.515625 14.984375 16.5 
Q 14.984375 11.71875 18.140625 8.90625 
Q 21.296875 6.109375 26.703125 6.109375 
Q 34.1875 6.109375 38.703125 11.40625 
Q 43.21875 16.703125 43.21875 25.484375 
L 43.21875 27.484375 
z
M 52.203125 31.203125 
L 52.203125 0 
L 43.21875 0 
L 43.21875 8.296875 
Q 40.140625 3.328125 35.546875 0.953125 
Q 30.953125 -1.421875 24.3125 -1.421875 
Q 15.921875 -1.421875 10.953125 3.296875 
Q 6 8.015625 6 15.921875 
Q 6 25.140625 12.171875 29.828125 
Q 18.359375 34.515625 30.609375 34.515625 
L 43.21875 34.515625 
L 43.21875 35.40625 
Q 43.21875 41.609375 39.140625 45 
Q 35.0625 48.390625 27.6875 48.390625 
Q 23 48.390625 18.546875 47.265625 
Q 14.109375 46.140625 10.015625 43.890625 
L 10.015625 52.203125 
Q 14.9375 54.109375 19.578125 55.046875 
Q 24.21875 56 28.609375 56 
Q 40.484375 56 46.34375 49.84375 
Q 52.203125 43.703125 52.203125 31.203125 
z
" id="DejaVuSans-97"/>
     <path d="M 44.28125 53.078125 
L 44.28125 44.578125 
Q 40.484375 46.53125 36.375 47.5 
Q 32.28125 48.484375 27.875 48.484375 
Q 21.1875 48.484375 17.84375 46.4375 
Q 14.5 44.390625 14.5 40.28125 
Q 14.5 37.15625 16.890625 35.375 
Q 19.28125 33.59375 26.515625 31.984375 
L 29.59375 31.296875 
Q 39.15625 29.25 43.1875 25.515625 
Q 47.21875 21.78125 47.21875 15.09375 
Q 47.21875 7.46875 41.1875 3.015625 
Q 35.15625 -1.421875 24.609375 -1.421875 
Q 20.21875 -1.421875 15.453125 -0.5625 
Q 10.6875 0.296875 5.421875 2 
L 5.421875 11.28125 
Q 10.40625 8.6875 15.234375 7.390625 
Q 20.0625 6.109375 24.8125 6.109375 
Q 31.15625 6.109375 34.5625 8.28125 
Q 37.984375 10.453125 37.984375 14.40625 
Q 37.984375 18.0625 35.515625 20.015625 
Q 33.0625 21.96875 24.703125 23.78125 
L 21.578125 24.515625 
Q 13.234375 26.265625 9.515625 29.90625 
Q 5.8125 33.546875 5.8125 39.890625 
Q 5.8125 47.609375 11.28125 51.796875 
Q 16.75 56 26.8125 56 
Q 31.78125 56 36.171875 55.265625 
Q 40.578125 54.546875 44.28125 53.078125 
z
" id="DejaVuSans-115"/>
     <path d="M 18.109375 8.203125 
L 18.109375 -20.796875 
L 9.078125 -20.796875 
L 9.078125 54.6875 
L 18.109375 54.6875 
L 18.109375 46.390625 
Q 20.953125 51.265625 25.265625 53.625 
Q 29.59375 56 35.59375 56 
Q 45.5625 56 51.78125 48.09375 
Q 58.015625 40.1875 58.015625 27.296875 
Q 58.015625 14.40625 51.78125 6.484375 
Q 45.5625 -1.421875 35.59375 -1.421875 
Q 29.59375 -1.421875 25.265625 0.953125 
Q 20.953125 3.328125 18.109375 8.203125 
z
M 48.6875 27.296875 
Q 48.6875 37.203125 44.609375 42.84375 
Q 40.53125 48.484375 33.40625 48.484375 
Q 26.265625 48.484375 22.1875 42.84375 
Q 18.109375 37.203125 18.109375 27.296875 
Q 18.109375 17.390625 22.1875 11.75 
Q 26.265625 6.109375 33.40625 6.109375 
Q 40.53125 6.109375 44.609375 11.75 
Q 48.6875 17.390625 48.6875 27.296875 
z
" id="DejaVuSans-112"/>
    </defs>
    <g transform="translate(278.538778 276.070588)scale(0.2 -0.2)">
     <use xlink:href="#DejaVuSans-106"/>
     <use x="27.783203" xlink:href="#DejaVuSans-97"/>
     <use x="89.0625" xlink:href="#DejaVuSans-115"/>
     <use x="141.162109" xlink:href="#DejaVuSans-112"/>
     <use x="204.638672" xlink:href="#DejaVuSans-32"/>
     <use x="236.425781" xlink:href="#DejaVuSans-32"/>
     <use x="268.212891" xlink:href="#DejaVuSans-32"/>
     <use x="300" xlink:href="#DejaVuSans-45"/>
     <use x="336.083984" xlink:href="#DejaVuSans-32"/>
     <use x="367.871094" xlink:href="#DejaVuSans-32"/>
     <use x="399.658203" xlink:href="#DejaVuSans-32"/>
     <use x="431.445312" xlink:href="#DejaVuSans-100"/>
     <use x="494.921875" xlink:href="#DejaVuSans-108"/>
     <use x="522.705078" xlink:href="#DejaVuSans-109"/>
     <use x="620.117188" xlink:href="#DejaVuSans-56"/>
    </g>
   </g>
  </g>
  <g id="axes_6">
   <g id="line2d_6">
    <path clip-path="url(#pfc4c67f862)" d="M 848.624769 286.930623 
L 846.88661 286.431016 
L 845.485333 286.45149 
L 844.812224 286.700941 
L 843.860994 287.606025 
L 842.708525 289.444137 
L 841.331115 291.377441 
L 840.458274 293.098379 
L 839.274085 294.620621 
L 838.115167 295.482953 
L 836.757634 296.653417 
L 835.881174 297.672851 
L 834.75114 298.443514 
L 833.966627 299.188378 
L 833.026163 299.622464 
L 832.2029 300.200222 
L 831.700928 301.004682 
L 831.476521 301.948525 
L 830.885861 303.083917 
L 830.048412 304.224151 
L 827.369319 307.185731 
L 826.388942 308.545749 
L 825.012492 309.641043 
L 821.552732 313.581081 
L 820.015493 316.294602 
L 818.34054 318.528126 
L 816.993073 320.839114 
L 813.543563 325.072969 
L 811.386969 328.428085 
L 810.81766 330.437967 
L 809.966649 332.258181 
L 808.976697 333.311023 
L 807.741613 334.260531 
L 806.414608 335.007675 
L 805.715262 335.659594 
L 805.239915 336.904566 
L 805.033737 337.965967 
L 804.208707 339.854983 
L 804.585507 340.841694 
L 804.552407 341.5855 
L 804.125312 343.454007 
L 803.624437 344.462541 
L 802.735137 348.262235 
L 802.105123 349.780574 
L 801.550369 351.684339 
L 800.988328 352.987131 
L 800.451425 353.617871 
L 800.462995 354.695773 
L 801.124503 356.021165 
L 801.780552 359.172734 
L 802.386017 359.941287 
L 802.823353 360.043957 
L 803.819809 361.017858 
L 805.078021 361.868002 
L 805.204823 362.140251 
L 805.369875 362.258906 
L 805.626333 362.772423 
L 806.321706 363.714043 
L 808.252501 365.42985 
L 809.099206 365.715058 
L 810.310145 365.919684 
L 811.373467 366.561936 
L 813.279849 368.288348 
L 813.715135 368.630312 
L 817.046933 370.295043 
L 817.914459 370.424046 
L 819.198782 370.931137 
L 820.755381 371.115739 
L 822.150201 371.604549 
L 823.123771 372.179317 
L 824.237287 372.696275 
L 825.130522 372.884285 
L 826.151682 372.857954 
L 827.172262 373.090513 
L 829.594956 373.3658 
L 830.267658 373.172409 
L 831.514905 373.295525 
L 832.115155 373.518431 
L 833.041139 373.639572 
L 833.999582 373.372914 
L 838.411771 371.799952 
L 840.062956 370.607086 
L 841.266586 369.951096 
L 842.792853 369.426072 
L 843.71975 368.610803 
L 845.454267 367.66543 
L 846.125461 366.895146 
L 846.641772 365.810167 
L 847.556175 364.466146 
L 849.328576 362.601756 
L 854.362484 358.993925 
L 855.25169 358.281272 
L 856.649833 357.514589 
L 857.654809 356.756382 
L 858.227324 356.6477 
L 860.131141 354.928249 
L 861.530246 352.456156 
L 862.671832 350.76296 
L 864.677962 348.665325 
L 866.054933 347.338475 
L 866.395687 346.004309 
L 866.726953 343.652537 
L 866.982269 342.864297 
L 866.663337 341.622065 
L 866.919386 339.361163 
L 867.278175 338.221678 
L 867.336805 337.521841 
L 866.879449 336.781562 
L 866.261276 334.993621 
L 865.63103 333.757522 
L 865.317039 332.775618 
L 865.148501 331.882306 
L 865.128987 330.250961 
L 864.849434 329.046735 
L 865.157846 326.284857 
L 865.087395 324.990539 
L 864.657863 323.840542 
L 864.389564 322.71823 
L 863.879561 321.580148 
L 863.384091 320.126056 
L 862.404553 317.951784 
L 862.342136 315.307404 
L 861.778885 313.627388 
L 861.588925 312.561723 
L 860.90763 311.596109 
L 860.043061 311.099626 
L 858.474101 309.384266 
L 856.728352 307.11048 
L 856.548395 306.011863 
L 856.13376 305.277618 
L 855.772966 304.247954 
L 855.273512 303.391632 
L 853.027018 301.032213 
L 851.979377 300.339898 
L 850.909792 299.230196 
L 849.689899 297.30768 
L 849.192357 295.904087 
L 848.346931 294.488074 
L 847.304433 293.187947 
L 845.401716 291.305143 
L 844.637433 290.304562 
L 843.826036 289.531007 
L 843.067555 289.102286 
L 842.495839 288.982884 
L 842.495839 288.982884 
" style="fill:none;stroke:#ff7f0e;stroke-linecap:square;stroke-width:1.5;"/>
   </g>
   <g id="text_6">
    <!-- jasp   -   dunn -->
    <g transform="translate(765.389347 276.070588)scale(0.2 -0.2)">
     <use xlink:href="#DejaVuSans-106"/>
     <use x="27.783203" xlink:href="#DejaVuSans-97"/>
     <use x="89.0625" xlink:href="#DejaVuSans-115"/>
     <use x="141.162109" xlink:href="#DejaVuSans-112"/>
     <use x="204.638672" xlink:href="#DejaVuSans-32"/>
     <use x="236.425781" xlink:href="#DejaVuSans-32"/>
     <use x="268.212891" xlink:href="#DejaVuSans-32"/>
     <use x="300" xlink:href="#DejaVuSans-45"/>
     <use x="336.083984" xlink:href="#DejaVuSans-32"/>
     <use x="367.871094" xlink:href="#DejaVuSans-32"/>
     <use x="399.658203" xlink:href="#DejaVuSans-32"/>
     <use x="431.445312" xlink:href="#DejaVuSans-100"/>
     <use x="494.921875" xlink:href="#DejaVuSans-117"/>
     <use x="558.300781" xlink:href="#DejaVuSans-110"/>
     <use x="621.679688" xlink:href="#DejaVuSans-110"/>
    </g>
   </g>
  </g>
 </g>
 <defs>
  <clipPath id="p84bdc1c709">
   <rect height="95.929412" width="405.818182" x="144" y="51.84"/>
  </clipPath>
  <clipPath id="pee9c3cb1ed">
   <rect height="95.929412" width="405.818182" x="630.981818" y="51.84"/>
  </clipPath>
  <clipPath id="pbe3cdf0936">
   <rect height="95.929412" width="405.818182" x="144" y="166.955294"/>
  </clipPath>
  <clipPath id="pfd29e755c9">
   <rect height="95.929412" width="405.818182" x="630.981818" y="166.955294"/>
  </clipPath>
  <clipPath id="pc7b80705b1">
   <rect height="95.929412" width="405.818182" x="144" y="282.070588"/>
  </clipPath>
  <clipPath id="pfc4c67f862">
   <rect height="95.929412" width="405.818182" x="630.981818" y="282.070588"/>
  </clipPath>
 </defs>
</svg>
