<?xml version="1.0" encoding="utf-8" standalone="no"?>
<!DOCTYPE svg PUBLIC "-//W3C//DTD SVG 1.1//EN"
  "http://www.w3.org/Graphics/SVG/1.1/DTD/svg11.dtd">
<!-- Created with matplotlib (https://matplotlib.org/) -->
<svg height="288pt" version="1.1" viewBox="0 0 576 288" width="576pt" xmlns="http://www.w3.org/2000/svg" xmlns:xlink="http://www.w3.org/1999/xlink">
 <defs>
  <style type="text/css">
*{stroke-linecap:butt;stroke-linejoin:round;}
  </style>
 </defs>
 <g id="figure_1">
  <g id="patch_1">
   <path d="M 0 288 
L 576 288 
L 576 0 
L 0 0 
z
" style="fill:#ffffff;"/>
  </g>
  <g id="axes_1">
   <g id="line2d_1">
    <path clip-path="url(#p24ff739750)" d="M 211.581028 44.443636 
L 209.435067 44.850676 
L 206.948796 45.612982 
L 204.803633 46.153338 
L 200.34149 47.761877 
L 196.23276 49.723799 
L 194.400564 50.887833 
L 186.296386 57.013587 
L 184.236274 58.629965 
L 179.965137 62.277372 
L 173.004111 67.733196 
L 168.251703 72.094982 
L 163.252649 76.701199 
L 160.96359 79.077661 
L 158.690291 81.631839 
L 156.752808 84.363701 
L 151.843554 90.704572 
L 147.609159 96.379812 
L 140.074771 106.389757 
L 137.194021 110.052576 
L 132.675239 116.567906 
L 128.767288 122.850014 
L 121.521438 133.855035 
L 116.046013 143.70828 
L 114.571157 147.075681 
L 107.089551 167.705242 
L 105.968696 170.89135 
L 103.521118 176.785228 
L 99.653886 188.483141 
L 96.325227 198.962163 
L 95.532267 203.406177 
L 95.194719 209.743858 
L 95.337604 211.358026 
L 96.178569 214.639622 
L 97.270082 217.920362 
L 97.913828 219.419221 
L 100.724351 223.110687 
L 104.533973 226.918507 
L 105.893679 228.197497 
L 112.175696 232.551738 
L 124.522533 238.878766 
L 126.946139 239.644524 
L 129.333963 240.23042 
L 135.749609 241.148062 
L 137.787442 241.199409 
L 144.20483 241.976361 
L 146.289749 242.116364 
L 150.789664 241.898115 
L 153.692836 241.716111 
L 156.1194 241.702803 
L 166.680213 240.937589 
L 171.143222 240.426984 
L 173.649147 240.079078 
L 176.160877 239.498485 
L 181.374564 237.964326 
L 183.875742 237.039968 
L 185.946772 236.075011 
L 190.61649 233.550209 
L 195.180745 230.700147 
L 197.936541 229.141427 
L 207.240411 223.056387 
L 214.826448 217.441818 
L 217.267965 215.745607 
L 219.600514 213.981531 
L 221.814468 211.958467 
L 227.212413 205.887008 
L 229.053614 203.32669 
L 233.980608 197.169785 
L 235.24246 195.112495 
L 240.455816 185.186906 
L 241.460241 182.53074 
L 242.824798 179.734077 
L 246.439132 171.379974 
L 248.244307 165.609836 
L 249.502499 160.807412 
L 250.269201 158.312672 
L 250.917549 155.655926 
L 251.367591 152.972079 
L 251.543446 148.303892 
L 251.611806 143.098282 
L 251.714372 140.080482 
L 251.130764 129.935652 
L 249.956368 120.962581 
L 249.60648 118.215199 
L 248.162932 111.637622 
L 247.719753 108.137647 
L 247.439263 104.879093 
L 246.276853 98.068955 
L 245.430451 94.646128 
L 244.415473 91.858892 
L 240.742663 83.487612 
L 239.337923 80.70633 
L 237.699652 77.809378 
L 236.616686 74.98514 
L 235.265264 72.166202 
L 233.752401 69.289278 
L 232.084041 66.406912 
L 230.41838 63.87571 
L 228.801463 61.794764 
L 220.213959 52.117191 
L 218.470491 50.501542 
L 216.731328 49.052233 
L 214.903612 47.764469 
L 213.296527 46.871001 
L 211.77788 46.274809 
L 208.352709 45.422194 
L 204.530773 44.922216 
L 204.530773 44.922216 
" style="fill:none;stroke:#ff7f0e;stroke-linecap:square;stroke-width:1.5;"/>
   </g>
   <g id="text_1">
    <!-- Mean dlm8 -->
    <defs>
     <path d="M 9.8125 72.90625 
L 24.515625 72.90625 
L 43.109375 23.296875 
L 61.8125 72.90625 
L 76.515625 72.90625 
L 76.515625 0 
L 66.890625 0 
L 66.890625 64.015625 
L 48.09375 14.015625 
L 38.1875 14.015625 
L 19.390625 64.015625 
L 19.390625 0 
L 9.8125 0 
z
" id="DejaVuSans-77"/>
     <path d="M 56.203125 29.59375 
L 56.203125 25.203125 
L 14.890625 25.203125 
Q 15.484375 15.921875 20.484375 11.0625 
Q 25.484375 6.203125 34.421875 6.203125 
Q 39.59375 6.203125 44.453125 7.46875 
Q 49.3125 8.734375 54.109375 11.28125 
L 54.109375 2.78125 
Q 49.265625 0.734375 44.1875 -0.34375 
Q 39.109375 -1.421875 33.890625 -1.421875 
Q 20.796875 -1.421875 13.15625 6.1875 
Q 5.515625 13.8125 5.515625 26.8125 
Q 5.515625 40.234375 12.765625 48.109375 
Q 20.015625 56 32.328125 56 
Q 43.359375 56 49.78125 48.890625 
Q 56.203125 41.796875 56.203125 29.59375 
z
M 47.21875 32.234375 
Q 47.125 39.59375 43.09375 43.984375 
Q 39.0625 48.390625 32.421875 48.390625 
Q 24.90625 48.390625 20.390625 44.140625 
Q 15.875 39.890625 15.1875 32.171875 
z
" id="DejaVuSans-101"/>
     <path d="M 34.28125 27.484375 
Q 23.390625 27.484375 19.1875 25 
Q 14.984375 22.515625 14.984375 16.5 
Q 14.984375 11.71875 18.140625 8.90625 
Q 21.296875 6.109375 26.703125 6.109375 
Q 34.1875 6.109375 38.703125 11.40625 
Q 43.21875 16.703125 43.21875 25.484375 
L 43.21875 27.484375 
z
M 52.203125 31.203125 
L 52.203125 0 
L 43.21875 0 
L 43.21875 8.296875 
Q 40.140625 3.328125 35.546875 0.953125 
Q 30.953125 -1.421875 24.3125 -1.421875 
Q 15.921875 -1.421875 10.953125 3.296875 
Q 6 8.015625 6 15.921875 
Q 6 25.140625 12.171875 29.828125 
Q 18.359375 34.515625 30.609375 34.515625 
L 43.21875 34.515625 
L 43.21875 35.40625 
Q 43.21875 41.609375 39.140625 45 
Q 35.0625 48.390625 27.6875 48.390625 
Q 23 48.390625 18.546875 47.265625 
Q 14.109375 46.140625 10.015625 43.890625 
L 10.015625 52.203125 
Q 14.9375 54.109375 19.578125 55.046875 
Q 24.21875 56 28.609375 56 
Q 40.484375 56 46.34375 49.84375 
Q 52.203125 43.703125 52.203125 31.203125 
z
" id="DejaVuSans-97"/>
     <path d="M 54.890625 33.015625 
L 54.890625 0 
L 45.90625 0 
L 45.90625 32.71875 
Q 45.90625 40.484375 42.875 44.328125 
Q 39.84375 48.1875 33.796875 48.1875 
Q 26.515625 48.1875 22.3125 43.546875 
Q 18.109375 38.921875 18.109375 30.90625 
L 18.109375 0 
L 9.078125 0 
L 9.078125 54.6875 
L 18.109375 54.6875 
L 18.109375 46.1875 
Q 21.34375 51.125 25.703125 53.5625 
Q 30.078125 56 35.796875 56 
Q 45.21875 56 50.046875 50.171875 
Q 54.890625 44.34375 54.890625 33.015625 
z
" id="DejaVuSans-110"/>
     <path id="DejaVuSans-32"/>
     <path d="M 45.40625 46.390625 
L 45.40625 75.984375 
L 54.390625 75.984375 
L 54.390625 0 
L 45.40625 0 
L 45.40625 8.203125 
Q 42.578125 3.328125 38.25 0.953125 
Q 33.9375 -1.421875 27.875 -1.421875 
Q 17.96875 -1.421875 11.734375 6.484375 
Q 5.515625 14.40625 5.515625 27.296875 
Q 5.515625 40.1875 11.734375 48.09375 
Q 17.96875 56 27.875 56 
Q 33.9375 56 38.25 53.625 
Q 42.578125 51.265625 45.40625 46.390625 
z
M 14.796875 27.296875 
Q 14.796875 17.390625 18.875 11.75 
Q 22.953125 6.109375 30.078125 6.109375 
Q 37.203125 6.109375 41.296875 11.75 
Q 45.40625 17.390625 45.40625 27.296875 
Q 45.40625 37.203125 41.296875 42.84375 
Q 37.203125 48.484375 30.078125 48.484375 
Q 22.953125 48.484375 18.875 42.84375 
Q 14.796875 37.203125 14.796875 27.296875 
z
" id="DejaVuSans-100"/>
     <path d="M 9.421875 75.984375 
L 18.40625 75.984375 
L 18.40625 0 
L 9.421875 0 
z
" id="DejaVuSans-108"/>
     <path d="M 52 44.1875 
Q 55.375 50.25 60.0625 53.125 
Q 64.75 56 71.09375 56 
Q 79.640625 56 84.28125 50.015625 
Q 88.921875 44.046875 88.921875 33.015625 
L 88.921875 0 
L 79.890625 0 
L 79.890625 32.71875 
Q 79.890625 40.578125 77.09375 44.375 
Q 74.3125 48.1875 68.609375 48.1875 
Q 61.625 48.1875 57.5625 43.546875 
Q 53.515625 38.921875 53.515625 30.90625 
L 53.515625 0 
L 44.484375 0 
L 44.484375 32.71875 
Q 44.484375 40.625 41.703125 44.40625 
Q 38.921875 48.1875 33.109375 48.1875 
Q 26.21875 48.1875 22.15625 43.53125 
Q 18.109375 38.875 18.109375 30.90625 
L 18.109375 0 
L 9.078125 0 
L 9.078125 54.6875 
L 18.109375 54.6875 
L 18.109375 46.1875 
Q 21.1875 51.21875 25.484375 53.609375 
Q 29.78125 56 35.6875 56 
Q 41.65625 56 45.828125 52.96875 
Q 50 49.953125 52 44.1875 
z
" id="DejaVuSans-109"/>
     <path d="M 31.78125 34.625 
Q 24.75 34.625 20.71875 30.859375 
Q 16.703125 27.09375 16.703125 20.515625 
Q 16.703125 13.921875 20.71875 10.15625 
Q 24.75 6.390625 31.78125 6.390625 
Q 38.8125 6.390625 42.859375 10.171875 
Q 46.921875 13.96875 46.921875 20.515625 
Q 46.921875 27.09375 42.890625 30.859375 
Q 38.875 34.625 31.78125 34.625 
z
M 21.921875 38.8125 
Q 15.578125 40.375 12.03125 44.71875 
Q 8.5 49.078125 8.5 55.328125 
Q 8.5 64.0625 14.71875 69.140625 
Q 20.953125 74.21875 31.78125 74.21875 
Q 42.671875 74.21875 48.875 69.140625 
Q 55.078125 64.0625 55.078125 55.328125 
Q 55.078125 49.078125 51.53125 44.71875 
Q 48 40.375 41.703125 38.8125 
Q 48.828125 37.15625 52.796875 32.3125 
Q 56.78125 27.484375 56.78125 20.515625 
Q 56.78125 9.90625 50.3125 4.234375 
Q 43.84375 -1.421875 31.78125 -1.421875 
Q 19.734375 -1.421875 13.25 4.234375 
Q 6.78125 9.90625 6.78125 20.515625 
Q 6.78125 27.484375 10.78125 32.3125 
Q 14.796875 37.15625 21.921875 38.8125 
z
M 18.3125 54.390625 
Q 18.3125 48.734375 21.84375 45.5625 
Q 25.390625 42.390625 31.78125 42.390625 
Q 38.140625 42.390625 41.71875 45.5625 
Q 45.3125 48.734375 45.3125 54.390625 
Q 45.3125 60.0625 41.71875 63.234375 
Q 38.140625 66.40625 31.78125 66.40625 
Q 25.390625 66.40625 21.84375 63.234375 
Q 18.3125 60.0625 18.3125 54.390625 
z
" id="DejaVuSans-56"/>
    </defs>
    <g transform="translate(117.799858 28.56)scale(0.2 -0.2)">
     <use xlink:href="#DejaVuSans-77"/>
     <use x="86.279297" xlink:href="#DejaVuSans-101"/>
     <use x="147.802734" xlink:href="#DejaVuSans-97"/>
     <use x="209.082031" xlink:href="#DejaVuSans-110"/>
     <use x="272.460938" xlink:href="#DejaVuSans-32"/>
     <use x="304.248047" xlink:href="#DejaVuSans-100"/>
     <use x="367.724609" xlink:href="#DejaVuSans-108"/>
     <use x="395.507812" xlink:href="#DejaVuSans-109"/>
     <use x="492.919922" xlink:href="#DejaVuSans-56"/>
    </g>
   </g>
  </g>
  <g id="axes_2">
   <g id="line2d_2">
    <path clip-path="url(#p81ec1a74c3)" d="M 445.361366 44.443636 
L 440.659747 45.000497 
L 436.28327 45.780972 
L 427.815386 48.828003 
L 423.149665 50.953455 
L 418.866823 53.252377 
L 412.327116 57.454532 
L 409.753125 59.560947 
L 405.436701 63.690925 
L 398.602971 69.911538 
L 396.559012 71.920717 
L 394.32565 73.882986 
L 389.772798 79.073283 
L 383.834467 86.898956 
L 381.58075 89.729955 
L 379.363524 92.827015 
L 376.916901 96.046934 
L 374.306359 99.296552 
L 368.703687 106.804268 
L 365.999162 110.47216 
L 364.051664 113.774769 
L 362.346967 116.95803 
L 360.645585 119.895114 
L 358.885017 122.612628 
L 353.769848 132.820013 
L 350.712902 138.704985 
L 349.403934 141.527371 
L 346.547886 148.63404 
L 344.862382 152.522704 
L 340.813628 160.738561 
L 339.955769 163.437047 
L 339.28477 166.237185 
L 338.336766 169.147108 
L 337.208483 171.803767 
L 336.266741 174.311945 
L 335.042601 179.41492 
L 334.122467 184.237386 
L 333.172321 193.623856 
L 333.116626 195.627747 
L 333.307773 197.929093 
L 333.639545 200.20837 
L 334.392815 202.386723 
L 335.323995 204.561932 
L 336.719158 208.693107 
L 337.527213 210.087423 
L 340.33764 212.920549 
L 344.643762 216.649023 
L 348.234433 220.151523 
L 351.770115 222.925529 
L 355.782357 225.76414 
L 362.073042 230.387928 
L 364.080375 231.907237 
L 366.591503 233.466056 
L 371.544273 236.019447 
L 376.332549 237.854219 
L 382.904255 240.066927 
L 390.279805 241.852363 
L 392.907778 242.116364 
L 401.199761 242.017128 
L 403.758171 241.707725 
L 408.917562 240.835406 
L 413.713974 240.025817 
L 418.120535 239.115943 
L 422.879177 238.395923 
L 425.355043 237.83074 
L 427.760532 237.087404 
L 431.991289 235.31636 
L 437.018027 232.693281 
L 442.182137 229.77078 
L 447.255306 227.235089 
L 453.274538 224.330061 
L 458.225132 221.26865 
L 463.959952 217.213683 
L 467.301406 215.111451 
L 469.838955 213.199391 
L 472.036969 211.39221 
L 474.193011 209.468825 
L 478.711694 205.232714 
L 480.46191 203.142499 
L 482.221388 200.806886 
L 483.975215 198.901884 
L 487.262604 194.51793 
L 490.101676 189.576962 
L 491.364685 186.905095 
L 493.186012 181.559391 
L 494.225283 179.006392 
L 495.046088 176.611623 
L 497.063021 168.571077 
L 498.966926 163.096147 
L 499.6078 160.149657 
L 500.292309 154.507114 
L 500.774283 145.735205 
L 500.680536 142.725004 
L 499.913254 132.913773 
L 499.781682 129.723654 
L 499.671083 122.84145 
L 499.556573 118.834664 
L 499.334012 115.830632 
L 499.020216 113.517528 
L 497.949583 107.863125 
L 497.168807 105.044709 
L 496.274711 102.315511 
L 492.93751 94.314817 
L 490.137768 89.172981 
L 479.192709 71.5865 
L 477.317954 69.066672 
L 475.164591 66.583349 
L 467.635246 58.455433 
L 462.012497 53.370629 
L 460.028491 51.932612 
L 455.645299 49.312361 
L 453.0977 48.098419 
L 447.643594 45.91562 
L 444.925639 45.172592 
L 442.197083 44.660048 
L 442.197083 44.660048 
" style="fill:none;stroke:#ff7f0e;stroke-linecap:square;stroke-width:1.5;"/>
   </g>
   <g id="text_2">
    <!-- Mean dunn -->
    <defs>
     <path d="M 8.5 21.578125 
L 8.5 54.6875 
L 17.484375 54.6875 
L 17.484375 21.921875 
Q 17.484375 14.15625 20.5 10.265625 
Q 23.53125 6.390625 29.59375 6.390625 
Q 36.859375 6.390625 41.078125 11.03125 
Q 45.3125 15.671875 45.3125 23.6875 
L 45.3125 54.6875 
L 54.296875 54.6875 
L 54.296875 0 
L 45.3125 0 
L 45.3125 8.40625 
Q 42.046875 3.421875 37.71875 1 
Q 33.40625 -1.421875 27.6875 -1.421875 
Q 18.265625 -1.421875 13.375 4.4375 
Q 8.5 10.296875 8.5 21.578125 
z
M 31.109375 56 
z
" id="DejaVuSans-117"/>
    </defs>
    <g transform="translate(361.159517 28.56)scale(0.2 -0.2)">
     <use xlink:href="#DejaVuSans-77"/>
     <use x="86.279297" xlink:href="#DejaVuSans-101"/>
     <use x="147.802734" xlink:href="#DejaVuSans-97"/>
     <use x="209.082031" xlink:href="#DejaVuSans-110"/>
     <use x="272.460938" xlink:href="#DejaVuSans-32"/>
     <use x="304.248047" xlink:href="#DejaVuSans-100"/>
     <use x="367.724609" xlink:href="#DejaVuSans-117"/>
     <use x="431.103516" xlink:href="#DejaVuSans-110"/>
     <use x="494.482422" xlink:href="#DejaVuSans-110"/>
    </g>
   </g>
  </g>
 </g>
 <defs>
  <clipPath id="p24ff739750">
   <rect height="217.44" width="202.909091" x="72" y="34.56"/>
  </clipPath>
  <clipPath id="p81ec1a74c3">
   <rect height="217.44" width="202.909091" x="315.490909" y="34.56"/>
  </clipPath>
 </defs>
</svg>
