<?xml version="1.0" encoding="utf-8" standalone="no"?>
<!DOCTYPE svg PUBLIC "-//W3C//DTD SVG 1.1//EN"
  "http://www.w3.org/Graphics/SVG/1.1/DTD/svg11.dtd">
<!-- Created with matplotlib (https://matplotlib.org/) -->
<svg height="576pt" version="1.1" viewBox="0 0 576 576" width="576pt" xmlns="http://www.w3.org/2000/svg" xmlns:xlink="http://www.w3.org/1999/xlink">
 <defs>
  <style type="text/css">
*{stroke-linecap:butt;stroke-linejoin:round;}
  </style>
 </defs>
 <g id="figure_1">
  <g id="patch_1">
   <path d="M 0 576 
L 576 576 
L 576 0 
L 0 0 
z
" style="fill:#ffffff;"/>
  </g>
  <g id="axes_1">
   <g id="patch_2">
    <path d="M 41.711875 178.921354 
L 565.2 178.921354 
L 565.2 27.437812 
L 41.711875 27.437812 
z
" style="fill:#ffffff;"/>
   </g>
   <g id="patch_3">
    <path clip-path="url(#pd234af17e0)" d="M 143.251706 178.921354 
L 148.531877 178.921354 
L 148.531877 153.911454 
L 143.251706 153.911454 
z
" style="fill:#1f77b4;opacity:0.4;"/>
   </g>
   <g id="patch_4">
    <path clip-path="url(#pd234af17e0)" d="M 148.531877 178.921354 
L 153.812049 178.921354 
L 153.812049 72.629279 
L 148.531877 72.629279 
z
" style="fill:#1f77b4;opacity:0.4;"/>
   </g>
   <g id="patch_5">
    <path clip-path="url(#pd234af17e0)" d="M 153.812049 178.921354 
L 159.09222 178.921354 
L 159.09222 66.376804 
L 153.812049 66.376804 
z
" style="fill:#1f77b4;opacity:0.4;"/>
   </g>
   <g id="patch_6">
    <path clip-path="url(#pd234af17e0)" d="M 159.09222 178.921354 
L 164.372392 178.921354 
L 164.372392 97.639179 
L 159.09222 97.639179 
z
" style="fill:#1f77b4;opacity:0.4;"/>
   </g>
   <g id="patch_7">
    <path clip-path="url(#pd234af17e0)" d="M 164.372392 178.921354 
L 169.652563 178.921354 
L 169.652563 141.406504 
L 164.372392 141.406504 
z
" style="fill:#1f77b4;opacity:0.4;"/>
   </g>
   <g id="patch_8">
    <path clip-path="url(#pd234af17e0)" d="M 169.652563 178.921354 
L 174.932735 178.921354 
L 174.932735 135.154029 
L 169.652563 135.154029 
z
" style="fill:#1f77b4;opacity:0.4;"/>
   </g>
   <g id="patch_9">
    <path clip-path="url(#pd234af17e0)" d="M 174.932735 178.921354 
L 180.212906 178.921354 
L 180.212906 160.163929 
L 174.932735 160.163929 
z
" style="fill:#1f77b4;opacity:0.4;"/>
   </g>
   <g id="patch_10">
    <path clip-path="url(#pd234af17e0)" d="M 180.212906 178.921354 
L 185.493077 178.921354 
L 185.493077 103.891654 
L 180.212906 103.891654 
z
" style="fill:#1f77b4;opacity:0.4;"/>
   </g>
   <g id="patch_11">
    <path clip-path="url(#pd234af17e0)" d="M 185.493077 178.921354 
L 190.773249 178.921354 
L 190.773249 141.406504 
L 185.493077 141.406504 
z
" style="fill:#1f77b4;opacity:0.4;"/>
   </g>
   <g id="patch_12">
    <path clip-path="url(#pd234af17e0)" d="M 190.773249 178.921354 
L 196.05342 178.921354 
L 196.05342 135.154029 
L 190.773249 135.154029 
z
" style="fill:#1f77b4;opacity:0.4;"/>
   </g>
   <g id="patch_13">
    <path clip-path="url(#pd234af17e0)" d="M 196.05342 178.921354 
L 201.333592 178.921354 
L 201.333592 153.911454 
L 196.05342 153.911454 
z
" style="fill:#1f77b4;opacity:0.4;"/>
   </g>
   <g id="patch_14">
    <path clip-path="url(#pd234af17e0)" d="M 201.333592 178.921354 
L 206.613763 178.921354 
L 206.613763 160.163929 
L 201.333592 160.163929 
z
" style="fill:#1f77b4;opacity:0.4;"/>
   </g>
   <g id="patch_15">
    <path clip-path="url(#pd234af17e0)" d="M 206.613763 178.921354 
L 211.893934 178.921354 
L 211.893934 153.911454 
L 206.613763 153.911454 
z
" style="fill:#1f77b4;opacity:0.4;"/>
   </g>
   <g id="patch_16">
    <path clip-path="url(#pd234af17e0)" d="M 211.893934 178.921354 
L 217.174106 178.921354 
L 217.174106 153.911454 
L 211.893934 153.911454 
z
" style="fill:#1f77b4;opacity:0.4;"/>
   </g>
   <g id="patch_17">
    <path clip-path="url(#pd234af17e0)" d="M 217.174106 178.921354 
L 222.454277 178.921354 
L 222.454277 172.668879 
L 217.174106 172.668879 
z
" style="fill:#1f77b4;opacity:0.4;"/>
   </g>
   <g id="patch_18">
    <path clip-path="url(#pd234af17e0)" d="M 222.454277 178.921354 
L 227.734449 178.921354 
L 227.734449 166.416404 
L 222.454277 166.416404 
z
" style="fill:#1f77b4;opacity:0.4;"/>
   </g>
   <g id="patch_19">
    <path clip-path="url(#pd234af17e0)" d="M 227.734449 178.921354 
L 233.01462 178.921354 
L 233.01462 172.668879 
L 227.734449 172.668879 
z
" style="fill:#1f77b4;opacity:0.4;"/>
   </g>
   <g id="patch_20">
    <path clip-path="url(#pd234af17e0)" d="M 233.01462 178.921354 
L 238.294792 178.921354 
L 238.294792 178.921354 
L 233.01462 178.921354 
z
" style="fill:#1f77b4;opacity:0.4;"/>
   </g>
   <g id="patch_21">
    <path clip-path="url(#pd234af17e0)" d="M 238.294792 178.921354 
L 243.574963 178.921354 
L 243.574963 172.668879 
L 238.294792 172.668879 
z
" style="fill:#1f77b4;opacity:0.4;"/>
   </g>
   <g id="patch_22">
    <path clip-path="url(#pd234af17e0)" d="M 243.574963 178.921354 
L 248.855134 178.921354 
L 248.855134 172.668879 
L 243.574963 172.668879 
z
" style="fill:#1f77b4;opacity:0.4;"/>
   </g>
   <g id="patch_23">
    <path clip-path="url(#pd234af17e0)" d="M 149.925005 178.921354 
L 157.259293 178.921354 
L 157.259293 133.643152 
L 149.925005 133.643152 
z
" style="fill:#ff7f0e;opacity:0.4;"/>
   </g>
   <g id="patch_24">
    <path clip-path="url(#pd234af17e0)" d="M 157.259293 178.921354 
L 164.593582 178.921354 
L 164.593582 70.75676 
L 157.259293 70.75676 
z
" style="fill:#ff7f0e;opacity:0.4;"/>
   </g>
   <g id="patch_25">
    <path clip-path="url(#pd234af17e0)" d="M 164.593582 178.921354 
L 171.927871 178.921354 
L 171.927871 126.096785 
L 164.593582 126.096785 
z
" style="fill:#ff7f0e;opacity:0.4;"/>
   </g>
   <g id="patch_26">
    <path clip-path="url(#pd234af17e0)" d="M 171.927871 178.921354 
L 179.262159 178.921354 
L 179.262159 153.766797 
L 171.927871 153.766797 
z
" style="fill:#ff7f0e;opacity:0.4;"/>
   </g>
   <g id="patch_27">
    <path clip-path="url(#pd234af17e0)" d="M 179.262159 178.921354 
L 186.596448 178.921354 
L 186.596448 163.82862 
L 179.262159 163.82862 
z
" style="fill:#ff7f0e;opacity:0.4;"/>
   </g>
   <g id="patch_28">
    <path clip-path="url(#pd234af17e0)" d="M 186.596448 178.921354 
L 193.930737 178.921354 
L 193.930737 151.251342 
L 186.596448 151.251342 
z
" style="fill:#ff7f0e;opacity:0.4;"/>
   </g>
   <g id="patch_29">
    <path clip-path="url(#pd234af17e0)" d="M 193.930737 178.921354 
L 201.265025 178.921354 
L 201.265025 161.313164 
L 193.930737 161.313164 
z
" style="fill:#ff7f0e;opacity:0.4;"/>
   </g>
   <g id="patch_30">
    <path clip-path="url(#pd234af17e0)" d="M 201.265025 178.921354 
L 208.599314 178.921354 
L 208.599314 143.704975 
L 201.265025 143.704975 
z
" style="fill:#ff7f0e;opacity:0.4;"/>
   </g>
   <g id="patch_31">
    <path clip-path="url(#pd234af17e0)" d="M 208.599314 178.921354 
L 215.933603 178.921354 
L 215.933603 153.766797 
L 208.599314 153.766797 
z
" style="fill:#ff7f0e;opacity:0.4;"/>
   </g>
   <g id="patch_32">
    <path clip-path="url(#pd234af17e0)" d="M 215.933603 178.921354 
L 223.267891 178.921354 
L 223.267891 143.704975 
L 215.933603 143.704975 
z
" style="fill:#ff7f0e;opacity:0.4;"/>
   </g>
   <g id="patch_33">
    <path clip-path="url(#pd234af17e0)" d="M 223.267891 178.921354 
L 230.60218 178.921354 
L 230.60218 146.22043 
L 223.267891 146.22043 
z
" style="fill:#ff7f0e;opacity:0.4;"/>
   </g>
   <g id="patch_34">
    <path clip-path="url(#pd234af17e0)" d="M 230.60218 178.921354 
L 237.936468 178.921354 
L 237.936468 168.859531 
L 230.60218 168.859531 
z
" style="fill:#ff7f0e;opacity:0.4;"/>
   </g>
   <g id="patch_35">
    <path clip-path="url(#pd234af17e0)" d="M 237.936468 178.921354 
L 245.270757 178.921354 
L 245.270757 156.282253 
L 237.936468 156.282253 
z
" style="fill:#ff7f0e;opacity:0.4;"/>
   </g>
   <g id="patch_36">
    <path clip-path="url(#pd234af17e0)" d="M 245.270757 178.921354 
L 252.605046 178.921354 
L 252.605046 161.313164 
L 245.270757 161.313164 
z
" style="fill:#ff7f0e;opacity:0.4;"/>
   </g>
   <g id="patch_37">
    <path clip-path="url(#pd234af17e0)" d="M 252.605046 178.921354 
L 259.939334 178.921354 
L 259.939334 158.797709 
L 252.605046 158.797709 
z
" style="fill:#ff7f0e;opacity:0.4;"/>
   </g>
   <g id="patch_38">
    <path clip-path="url(#pd234af17e0)" d="M 259.939334 178.921354 
L 267.273623 178.921354 
L 267.273623 178.921354 
L 259.939334 178.921354 
z
" style="fill:#ff7f0e;opacity:0.4;"/>
   </g>
   <g id="patch_39">
    <path clip-path="url(#pd234af17e0)" d="M 267.273623 178.921354 
L 274.607912 178.921354 
L 274.607912 168.859531 
L 267.273623 168.859531 
z
" style="fill:#ff7f0e;opacity:0.4;"/>
   </g>
   <g id="patch_40">
    <path clip-path="url(#pd234af17e0)" d="M 274.607912 178.921354 
L 281.9422 178.921354 
L 281.9422 171.374987 
L 274.607912 171.374987 
z
" style="fill:#ff7f0e;opacity:0.4;"/>
   </g>
   <g id="patch_41">
    <path clip-path="url(#pd234af17e0)" d="M 281.9422 178.921354 
L 289.276489 178.921354 
L 289.276489 176.405898 
L 281.9422 176.405898 
z
" style="fill:#ff7f0e;opacity:0.4;"/>
   </g>
   <g id="patch_42">
    <path clip-path="url(#pd234af17e0)" d="M 289.276489 178.921354 
L 296.610778 178.921354 
L 296.610778 176.405898 
L 289.276489 176.405898 
z
" style="fill:#ff7f0e;opacity:0.4;"/>
   </g>
   <g id="matplotlib.axis_1">
    <g id="xtick_1">
     <g id="line2d_1">
      <defs>
       <path d="M 0 0 
L 0 3.5 
" id="m93e53a80e1" style="stroke:#000000;stroke-width:0.8;"/>
      </defs>
      <g>
       <use style="stroke:#000000;stroke-width:0.8;" x="65.50679" xlink:href="#m93e53a80e1" y="178.921354"/>
      </g>
     </g>
    </g>
    <g id="xtick_2">
     <g id="line2d_2">
      <g>
       <use style="stroke:#000000;stroke-width:0.8;" x="124.994077" xlink:href="#m93e53a80e1" y="178.921354"/>
      </g>
     </g>
    </g>
    <g id="xtick_3">
     <g id="line2d_3">
      <g>
       <use style="stroke:#000000;stroke-width:0.8;" x="184.481364" xlink:href="#m93e53a80e1" y="178.921354"/>
      </g>
     </g>
    </g>
    <g id="xtick_4">
     <g id="line2d_4">
      <g>
       <use style="stroke:#000000;stroke-width:0.8;" x="243.968651" xlink:href="#m93e53a80e1" y="178.921354"/>
      </g>
     </g>
    </g>
    <g id="xtick_5">
     <g id="line2d_5">
      <g>
       <use style="stroke:#000000;stroke-width:0.8;" x="303.455938" xlink:href="#m93e53a80e1" y="178.921354"/>
      </g>
     </g>
    </g>
    <g id="xtick_6">
     <g id="line2d_6">
      <g>
       <use style="stroke:#000000;stroke-width:0.8;" x="362.943224" xlink:href="#m93e53a80e1" y="178.921354"/>
      </g>
     </g>
    </g>
    <g id="xtick_7">
     <g id="line2d_7">
      <g>
       <use style="stroke:#000000;stroke-width:0.8;" x="422.430511" xlink:href="#m93e53a80e1" y="178.921354"/>
      </g>
     </g>
    </g>
    <g id="xtick_8">
     <g id="line2d_8">
      <g>
       <use style="stroke:#000000;stroke-width:0.8;" x="481.917798" xlink:href="#m93e53a80e1" y="178.921354"/>
      </g>
     </g>
    </g>
    <g id="xtick_9">
     <g id="line2d_9">
      <g>
       <use style="stroke:#000000;stroke-width:0.8;" x="541.405085" xlink:href="#m93e53a80e1" y="178.921354"/>
      </g>
     </g>
    </g>
   </g>
   <g id="matplotlib.axis_2">
    <g id="ytick_1">
     <g id="line2d_10">
      <defs>
       <path d="M 0 0 
L -3.5 0 
" id="m560d25c34f" style="stroke:#000000;stroke-width:0.8;"/>
      </defs>
      <g>
       <use style="stroke:#000000;stroke-width:0.8;" x="41.711875" xlink:href="#m560d25c34f" y="178.921354"/>
      </g>
     </g>
     <g id="text_1">
      <!-- 0 -->
      <defs>
       <path d="M 31.78125 66.40625 
Q 24.171875 66.40625 20.328125 58.90625 
Q 16.5 51.421875 16.5 36.375 
Q 16.5 21.390625 20.328125 13.890625 
Q 24.171875 6.390625 31.78125 6.390625 
Q 39.453125 6.390625 43.28125 13.890625 
Q 47.125 21.390625 47.125 36.375 
Q 47.125 51.421875 43.28125 58.90625 
Q 39.453125 66.40625 31.78125 66.40625 
z
M 31.78125 74.21875 
Q 44.046875 74.21875 50.515625 64.515625 
Q 56.984375 54.828125 56.984375 36.375 
Q 56.984375 17.96875 50.515625 8.265625 
Q 44.046875 -1.421875 31.78125 -1.421875 
Q 19.53125 -1.421875 13.0625 8.265625 
Q 6.59375 17.96875 6.59375 36.375 
Q 6.59375 54.828125 13.0625 64.515625 
Q 19.53125 74.21875 31.78125 74.21875 
z
" id="DejaVuSans-48"/>
      </defs>
      <g transform="translate(28.349375 182.720573)scale(0.1 -0.1)">
       <use xlink:href="#DejaVuSans-48"/>
      </g>
     </g>
    </g>
    <g id="ytick_2">
     <g id="line2d_11">
      <g>
       <use style="stroke:#000000;stroke-width:0.8;" x="41.711875" xlink:href="#m560d25c34f" y="147.287604"/>
      </g>
     </g>
     <g id="text_2">
      <!-- 2 -->
      <defs>
       <path d="M 19.1875 8.296875 
L 53.609375 8.296875 
L 53.609375 0 
L 7.328125 0 
L 7.328125 8.296875 
Q 12.9375 14.109375 22.625 23.890625 
Q 32.328125 33.6875 34.8125 36.53125 
Q 39.546875 41.84375 41.421875 45.53125 
Q 43.3125 49.21875 43.3125 52.78125 
Q 43.3125 58.59375 39.234375 62.25 
Q 35.15625 65.921875 28.609375 65.921875 
Q 23.96875 65.921875 18.8125 64.3125 
Q 13.671875 62.703125 7.8125 59.421875 
L 7.8125 69.390625 
Q 13.765625 71.78125 18.9375 73 
Q 24.125 74.21875 28.421875 74.21875 
Q 39.75 74.21875 46.484375 68.546875 
Q 53.21875 62.890625 53.21875 53.421875 
Q 53.21875 48.921875 51.53125 44.890625 
Q 49.859375 40.875 45.40625 35.40625 
Q 44.1875 33.984375 37.640625 27.21875 
Q 31.109375 20.453125 19.1875 8.296875 
z
" id="DejaVuSans-50"/>
      </defs>
      <g transform="translate(28.349375 151.086823)scale(0.1 -0.1)">
       <use xlink:href="#DejaVuSans-50"/>
      </g>
     </g>
    </g>
    <g id="ytick_3">
     <g id="line2d_12">
      <g>
       <use style="stroke:#000000;stroke-width:0.8;" x="41.711875" xlink:href="#m560d25c34f" y="115.653854"/>
      </g>
     </g>
     <g id="text_3">
      <!-- 4 -->
      <defs>
       <path d="M 37.796875 64.3125 
L 12.890625 25.390625 
L 37.796875 25.390625 
z
M 35.203125 72.90625 
L 47.609375 72.90625 
L 47.609375 25.390625 
L 58.015625 25.390625 
L 58.015625 17.1875 
L 47.609375 17.1875 
L 47.609375 0 
L 37.796875 0 
L 37.796875 17.1875 
L 4.890625 17.1875 
L 4.890625 26.703125 
z
" id="DejaVuSans-52"/>
      </defs>
      <g transform="translate(28.349375 119.453073)scale(0.1 -0.1)">
       <use xlink:href="#DejaVuSans-52"/>
      </g>
     </g>
    </g>
    <g id="ytick_4">
     <g id="line2d_13">
      <g>
       <use style="stroke:#000000;stroke-width:0.8;" x="41.711875" xlink:href="#m560d25c34f" y="84.020104"/>
      </g>
     </g>
     <g id="text_4">
      <!-- 6 -->
      <defs>
       <path d="M 33.015625 40.375 
Q 26.375 40.375 22.484375 35.828125 
Q 18.609375 31.296875 18.609375 23.390625 
Q 18.609375 15.53125 22.484375 10.953125 
Q 26.375 6.390625 33.015625 6.390625 
Q 39.65625 6.390625 43.53125 10.953125 
Q 47.40625 15.53125 47.40625 23.390625 
Q 47.40625 31.296875 43.53125 35.828125 
Q 39.65625 40.375 33.015625 40.375 
z
M 52.59375 71.296875 
L 52.59375 62.3125 
Q 48.875 64.0625 45.09375 64.984375 
Q 41.3125 65.921875 37.59375 65.921875 
Q 27.828125 65.921875 22.671875 59.328125 
Q 17.53125 52.734375 16.796875 39.40625 
Q 19.671875 43.65625 24.015625 45.921875 
Q 28.375 48.1875 33.59375 48.1875 
Q 44.578125 48.1875 50.953125 41.515625 
Q 57.328125 34.859375 57.328125 23.390625 
Q 57.328125 12.15625 50.6875 5.359375 
Q 44.046875 -1.421875 33.015625 -1.421875 
Q 20.359375 -1.421875 13.671875 8.265625 
Q 6.984375 17.96875 6.984375 36.375 
Q 6.984375 53.65625 15.1875 63.9375 
Q 23.390625 74.21875 37.203125 74.21875 
Q 40.921875 74.21875 44.703125 73.484375 
Q 48.484375 72.75 52.59375 71.296875 
z
" id="DejaVuSans-54"/>
      </defs>
      <g transform="translate(28.349375 87.819323)scale(0.1 -0.1)">
       <use xlink:href="#DejaVuSans-54"/>
      </g>
     </g>
    </g>
    <g id="ytick_5">
     <g id="line2d_14">
      <g>
       <use style="stroke:#000000;stroke-width:0.8;" x="41.711875" xlink:href="#m560d25c34f" y="52.386354"/>
      </g>
     </g>
     <g id="text_5">
      <!-- 8 -->
      <defs>
       <path d="M 31.78125 34.625 
Q 24.75 34.625 20.71875 30.859375 
Q 16.703125 27.09375 16.703125 20.515625 
Q 16.703125 13.921875 20.71875 10.15625 
Q 24.75 6.390625 31.78125 6.390625 
Q 38.8125 6.390625 42.859375 10.171875 
Q 46.921875 13.96875 46.921875 20.515625 
Q 46.921875 27.09375 42.890625 30.859375 
Q 38.875 34.625 31.78125 34.625 
z
M 21.921875 38.8125 
Q 15.578125 40.375 12.03125 44.71875 
Q 8.5 49.078125 8.5 55.328125 
Q 8.5 64.0625 14.71875 69.140625 
Q 20.953125 74.21875 31.78125 74.21875 
Q 42.671875 74.21875 48.875 69.140625 
Q 55.078125 64.0625 55.078125 55.328125 
Q 55.078125 49.078125 51.53125 44.71875 
Q 48 40.375 41.703125 38.8125 
Q 48.828125 37.15625 52.796875 32.3125 
Q 56.78125 27.484375 56.78125 20.515625 
Q 56.78125 9.90625 50.3125 4.234375 
Q 43.84375 -1.421875 31.78125 -1.421875 
Q 19.734375 -1.421875 13.25 4.234375 
Q 6.78125 9.90625 6.78125 20.515625 
Q 6.78125 27.484375 10.78125 32.3125 
Q 14.796875 37.15625 21.921875 38.8125 
z
M 18.3125 54.390625 
Q 18.3125 48.734375 21.84375 45.5625 
Q 25.390625 42.390625 31.78125 42.390625 
Q 38.140625 42.390625 41.71875 45.5625 
Q 45.3125 48.734375 45.3125 54.390625 
Q 45.3125 60.0625 41.71875 63.234375 
Q 38.140625 66.40625 31.78125 66.40625 
Q 25.390625 66.40625 21.84375 63.234375 
Q 18.3125 60.0625 18.3125 54.390625 
z
" id="DejaVuSans-56"/>
      </defs>
      <g transform="translate(28.349375 56.185573)scale(0.1 -0.1)">
       <use xlink:href="#DejaVuSans-56"/>
      </g>
     </g>
    </g>
    <g id="text_6">
     <!-- Fraction of cells -->
     <defs>
      <path d="M 9.8125 72.90625 
L 51.703125 72.90625 
L 51.703125 64.59375 
L 19.671875 64.59375 
L 19.671875 43.109375 
L 48.578125 43.109375 
L 48.578125 34.8125 
L 19.671875 34.8125 
L 19.671875 0 
L 9.8125 0 
z
" id="DejaVuSans-70"/>
      <path d="M 41.109375 46.296875 
Q 39.59375 47.171875 37.8125 47.578125 
Q 36.03125 48 33.890625 48 
Q 26.265625 48 22.1875 43.046875 
Q 18.109375 38.09375 18.109375 28.8125 
L 18.109375 0 
L 9.078125 0 
L 9.078125 54.6875 
L 18.109375 54.6875 
L 18.109375 46.1875 
Q 20.953125 51.171875 25.484375 53.578125 
Q 30.03125 56 36.53125 56 
Q 37.453125 56 38.578125 55.875 
Q 39.703125 55.765625 41.0625 55.515625 
z
" id="DejaVuSans-114"/>
      <path d="M 34.28125 27.484375 
Q 23.390625 27.484375 19.1875 25 
Q 14.984375 22.515625 14.984375 16.5 
Q 14.984375 11.71875 18.140625 8.90625 
Q 21.296875 6.109375 26.703125 6.109375 
Q 34.1875 6.109375 38.703125 11.40625 
Q 43.21875 16.703125 43.21875 25.484375 
L 43.21875 27.484375 
z
M 52.203125 31.203125 
L 52.203125 0 
L 43.21875 0 
L 43.21875 8.296875 
Q 40.140625 3.328125 35.546875 0.953125 
Q 30.953125 -1.421875 24.3125 -1.421875 
Q 15.921875 -1.421875 10.953125 3.296875 
Q 6 8.015625 6 15.921875 
Q 6 25.140625 12.171875 29.828125 
Q 18.359375 34.515625 30.609375 34.515625 
L 43.21875 34.515625 
L 43.21875 35.40625 
Q 43.21875 41.609375 39.140625 45 
Q 35.0625 48.390625 27.6875 48.390625 
Q 23 48.390625 18.546875 47.265625 
Q 14.109375 46.140625 10.015625 43.890625 
L 10.015625 52.203125 
Q 14.9375 54.109375 19.578125 55.046875 
Q 24.21875 56 28.609375 56 
Q 40.484375 56 46.34375 49.84375 
Q 52.203125 43.703125 52.203125 31.203125 
z
" id="DejaVuSans-97"/>
      <path d="M 48.78125 52.59375 
L 48.78125 44.1875 
Q 44.96875 46.296875 41.140625 47.34375 
Q 37.3125 48.390625 33.40625 48.390625 
Q 24.65625 48.390625 19.8125 42.84375 
Q 14.984375 37.3125 14.984375 27.296875 
Q 14.984375 17.28125 19.8125 11.734375 
Q 24.65625 6.203125 33.40625 6.203125 
Q 37.3125 6.203125 41.140625 7.25 
Q 44.96875 8.296875 48.78125 10.40625 
L 48.78125 2.09375 
Q 45.015625 0.34375 40.984375 -0.53125 
Q 36.96875 -1.421875 32.421875 -1.421875 
Q 20.0625 -1.421875 12.78125 6.34375 
Q 5.515625 14.109375 5.515625 27.296875 
Q 5.515625 40.671875 12.859375 48.328125 
Q 20.21875 56 33.015625 56 
Q 37.15625 56 41.109375 55.140625 
Q 45.0625 54.296875 48.78125 52.59375 
z
" id="DejaVuSans-99"/>
      <path d="M 18.3125 70.21875 
L 18.3125 54.6875 
L 36.8125 54.6875 
L 36.8125 47.703125 
L 18.3125 47.703125 
L 18.3125 18.015625 
Q 18.3125 11.328125 20.140625 9.421875 
Q 21.96875 7.515625 27.59375 7.515625 
L 36.8125 7.515625 
L 36.8125 0 
L 27.59375 0 
Q 17.1875 0 13.234375 3.875 
Q 9.28125 7.765625 9.28125 18.015625 
L 9.28125 47.703125 
L 2.6875 47.703125 
L 2.6875 54.6875 
L 9.28125 54.6875 
L 9.28125 70.21875 
z
" id="DejaVuSans-116"/>
      <path d="M 9.421875 54.6875 
L 18.40625 54.6875 
L 18.40625 0 
L 9.421875 0 
z
M 9.421875 75.984375 
L 18.40625 75.984375 
L 18.40625 64.59375 
L 9.421875 64.59375 
z
" id="DejaVuSans-105"/>
      <path d="M 30.609375 48.390625 
Q 23.390625 48.390625 19.1875 42.75 
Q 14.984375 37.109375 14.984375 27.296875 
Q 14.984375 17.484375 19.15625 11.84375 
Q 23.34375 6.203125 30.609375 6.203125 
Q 37.796875 6.203125 41.984375 11.859375 
Q 46.1875 17.53125 46.1875 27.296875 
Q 46.1875 37.015625 41.984375 42.703125 
Q 37.796875 48.390625 30.609375 48.390625 
z
M 30.609375 56 
Q 42.328125 56 49.015625 48.375 
Q 55.71875 40.765625 55.71875 27.296875 
Q 55.71875 13.875 49.015625 6.21875 
Q 42.328125 -1.421875 30.609375 -1.421875 
Q 18.84375 -1.421875 12.171875 6.21875 
Q 5.515625 13.875 5.515625 27.296875 
Q 5.515625 40.765625 12.171875 48.375 
Q 18.84375 56 30.609375 56 
z
" id="DejaVuSans-111"/>
      <path d="M 54.890625 33.015625 
L 54.890625 0 
L 45.90625 0 
L 45.90625 32.71875 
Q 45.90625 40.484375 42.875 44.328125 
Q 39.84375 48.1875 33.796875 48.1875 
Q 26.515625 48.1875 22.3125 43.546875 
Q 18.109375 38.921875 18.109375 30.90625 
L 18.109375 0 
L 9.078125 0 
L 9.078125 54.6875 
L 18.109375 54.6875 
L 18.109375 46.1875 
Q 21.34375 51.125 25.703125 53.5625 
Q 30.078125 56 35.796875 56 
Q 45.21875 56 50.046875 50.171875 
Q 54.890625 44.34375 54.890625 33.015625 
z
" id="DejaVuSans-110"/>
      <path id="DejaVuSans-32"/>
      <path d="M 37.109375 75.984375 
L 37.109375 68.5 
L 28.515625 68.5 
Q 23.6875 68.5 21.796875 66.546875 
Q 19.921875 64.59375 19.921875 59.515625 
L 19.921875 54.6875 
L 34.71875 54.6875 
L 34.71875 47.703125 
L 19.921875 47.703125 
L 19.921875 0 
L 10.890625 0 
L 10.890625 47.703125 
L 2.296875 47.703125 
L 2.296875 54.6875 
L 10.890625 54.6875 
L 10.890625 58.5 
Q 10.890625 67.625 15.140625 71.796875 
Q 19.390625 75.984375 28.609375 75.984375 
z
" id="DejaVuSans-102"/>
      <path d="M 56.203125 29.59375 
L 56.203125 25.203125 
L 14.890625 25.203125 
Q 15.484375 15.921875 20.484375 11.0625 
Q 25.484375 6.203125 34.421875 6.203125 
Q 39.59375 6.203125 44.453125 7.46875 
Q 49.3125 8.734375 54.109375 11.28125 
L 54.109375 2.78125 
Q 49.265625 0.734375 44.1875 -0.34375 
Q 39.109375 -1.421875 33.890625 -1.421875 
Q 20.796875 -1.421875 13.15625 6.1875 
Q 5.515625 13.8125 5.515625 26.8125 
Q 5.515625 40.234375 12.765625 48.109375 
Q 20.015625 56 32.328125 56 
Q 43.359375 56 49.78125 48.890625 
Q 56.203125 41.796875 56.203125 29.59375 
z
M 47.21875 32.234375 
Q 47.125 39.59375 43.09375 43.984375 
Q 39.0625 48.390625 32.421875 48.390625 
Q 24.90625 48.390625 20.390625 44.140625 
Q 15.875 39.890625 15.1875 32.171875 
z
" id="DejaVuSans-101"/>
      <path d="M 9.421875 75.984375 
L 18.40625 75.984375 
L 18.40625 0 
L 9.421875 0 
z
" id="DejaVuSans-108"/>
      <path d="M 44.28125 53.078125 
L 44.28125 44.578125 
Q 40.484375 46.53125 36.375 47.5 
Q 32.28125 48.484375 27.875 48.484375 
Q 21.1875 48.484375 17.84375 46.4375 
Q 14.5 44.390625 14.5 40.28125 
Q 14.5 37.15625 16.890625 35.375 
Q 19.28125 33.59375 26.515625 31.984375 
L 29.59375 31.296875 
Q 39.15625 29.25 43.1875 25.515625 
Q 47.21875 21.78125 47.21875 15.09375 
Q 47.21875 7.46875 41.1875 3.015625 
Q 35.15625 -1.421875 24.609375 -1.421875 
Q 20.21875 -1.421875 15.453125 -0.5625 
Q 10.6875 0.296875 5.421875 2 
L 5.421875 11.28125 
Q 10.40625 8.6875 15.234375 7.390625 
Q 20.0625 6.109375 24.8125 6.109375 
Q 31.15625 6.109375 34.5625 8.28125 
Q 37.984375 10.453125 37.984375 14.40625 
Q 37.984375 18.0625 35.515625 20.015625 
Q 33.0625 21.96875 24.703125 23.78125 
L 21.578125 24.515625 
Q 13.234375 26.265625 9.515625 29.90625 
Q 5.8125 33.546875 5.8125 39.890625 
Q 5.8125 47.609375 11.28125 51.796875 
Q 16.75 56 26.8125 56 
Q 31.78125 56 36.171875 55.265625 
Q 40.578125 54.546875 44.28125 53.078125 
z
" id="DejaVuSans-115"/>
     </defs>
     <g transform="translate(21.437812 158.511302)rotate(-90)scale(0.14 -0.14)">
      <use xlink:href="#DejaVuSans-70"/>
      <use x="57.410156" xlink:href="#DejaVuSans-114"/>
      <use x="98.523438" xlink:href="#DejaVuSans-97"/>
      <use x="159.802734" xlink:href="#DejaVuSans-99"/>
      <use x="214.783203" xlink:href="#DejaVuSans-116"/>
      <use x="253.992188" xlink:href="#DejaVuSans-105"/>
      <use x="281.775391" xlink:href="#DejaVuSans-111"/>
      <use x="342.957031" xlink:href="#DejaVuSans-110"/>
      <use x="406.335938" xlink:href="#DejaVuSans-32"/>
      <use x="438.123047" xlink:href="#DejaVuSans-111"/>
      <use x="499.304688" xlink:href="#DejaVuSans-102"/>
      <use x="534.509766" xlink:href="#DejaVuSans-32"/>
      <use x="566.296875" xlink:href="#DejaVuSans-99"/>
      <use x="621.277344" xlink:href="#DejaVuSans-101"/>
      <use x="682.800781" xlink:href="#DejaVuSans-108"/>
      <use x="710.583984" xlink:href="#DejaVuSans-108"/>
      <use x="738.367188" xlink:href="#DejaVuSans-115"/>
     </g>
    </g>
   </g>
   <g id="line2d_15">
    <path clip-path="url(#pd234af17e0)" d="M 65.50679 178.921354 
L 70.313843 178.921354 
L 75.120897 178.921354 
L 79.92795 178.921354 
L 84.735004 178.921354 
L 89.542057 178.921354 
L 94.349111 178.921353 
L 99.156164 178.921333 
L 103.963218 178.921089 
L 108.770271 178.918757 
L 113.577325 178.901487 
L 118.384378 178.801668 
L 123.191432 178.350225 
L 127.998485 176.750975 
L 132.805539 172.322906 
L 137.612592 162.80528 
L 142.419646 147.151743 
L 147.226699 128.037684 
L 152.033753 112.002911 
L 156.840806 105.382948 
L 161.64786 109.313331 
L 166.454913 119.024926 
L 171.261967 128.008631 
L 176.06902 132.817658 
L 180.876074 134.483231 
L 185.683127 136.110383 
L 190.49018 139.610757 
L 195.297234 144.635756 
L 200.104287 149.792095 
L 204.911341 154.19556 
L 209.718394 157.968473 
L 214.525448 161.601957 
L 219.332501 165.154287 
L 224.139555 168.2802 
L 228.946608 170.771951 
L 233.753662 172.671329 
L 238.560715 174.051541 
L 243.367769 175.04551 
L 248.174822 175.912968 
L 252.981876 176.825962 
L 257.788929 177.700393 
L 262.595983 178.350531 
L 267.403036 178.71198 
L 272.21009 178.861854 
L 277.017143 178.908354 
L 281.824197 178.919181 
L 286.63125 178.921077 
L 291.438304 178.921327 
L 296.245357 178.921352 
L 301.052411 178.921354 
L 305.859464 178.921354 
L 310.666518 178.921354 
L 315.473571 178.921354 
L 320.280625 178.921354 
L 325.087678 178.921354 
L 329.894732 178.921354 
L 334.701785 178.921354 
L 339.508839 178.921354 
L 344.315892 178.921354 
L 349.122946 178.921354 
L 353.929999 178.921354 
L 358.737053 178.921354 
L 363.544106 178.921354 
L 368.35116 178.921354 
L 373.158213 178.921354 
L 377.965267 178.921354 
L 382.77232 178.921354 
L 387.579374 178.921354 
L 392.386427 178.921354 
L 397.193481 178.921354 
L 402.000534 178.921354 
L 406.807588 178.921354 
L 411.614641 178.921354 
L 416.421695 178.921354 
L 421.228748 178.921354 
L 426.035801 178.921354 
L 430.842855 178.921354 
L 435.649908 178.921354 
L 440.456962 178.921354 
L 445.264015 178.921354 
L 450.071069 178.921354 
L 454.878122 178.921354 
L 459.685176 178.921354 
L 464.492229 178.921354 
L 469.299283 178.921354 
L 474.106336 178.921354 
L 478.91339 178.921354 
L 483.720443 178.921354 
L 488.527497 178.921354 
L 493.33455 178.921354 
L 498.141604 178.921354 
L 502.948657 178.921354 
L 507.755711 178.921354 
L 512.562764 178.921354 
L 517.369818 178.921354 
L 522.176871 178.921354 
L 526.983925 178.921354 
L 531.790978 178.921354 
L 536.598032 178.921354 
L 541.405085 178.921354 
" style="fill:none;stroke:#1f77b4;stroke-linecap:square;stroke-width:1.5;"/>
   </g>
   <g id="line2d_16">
    <path clip-path="url(#pd234af17e0)" d="M 65.50679 178.921354 
L 70.313843 178.921354 
L 75.120897 178.921354 
L 79.92795 178.921354 
L 84.735004 178.921351 
L 89.542057 178.921333 
L 94.349111 178.92121 
L 99.156164 178.9205 
L 103.963218 178.91696 
L 108.770271 178.901631 
L 113.577325 178.844076 
L 118.384378 178.656729 
L 123.191432 178.12854 
L 127.998485 176.84079 
L 132.805539 174.133063 
L 137.612592 169.2445 
L 142.419646 161.722912 
L 147.226699 151.990469 
L 152.033753 141.672318 
L 156.840806 133.24343 
L 161.64786 128.963678 
L 166.454913 129.706134 
L 171.261967 134.506537 
L 176.06902 141.151888 
L 180.876074 147.336447 
L 185.683127 151.593258 
L 190.49018 153.558633 
L 195.297234 153.680192 
L 200.104287 152.743063 
L 204.911341 151.507355 
L 209.718394 150.547594 
L 214.525448 150.233818 
L 219.332501 150.743157 
L 224.139555 152.042874 
L 228.946608 153.891696 
L 233.753662 155.944315 
L 238.560715 157.943302 
L 243.367769 159.852254 
L 248.174822 161.80245 
L 252.981876 163.900686 
L 257.788929 166.0855 
L 262.595983 168.164195 
L 267.403036 169.975848 
L 272.21009 171.508186 
L 277.017143 172.863643 
L 281.824197 174.133536 
L 286.63125 175.317231 
L 291.438304 176.348128 
L 296.245357 177.170007 
L 301.052411 177.779079 
L 305.859464 178.210416 
L 310.666518 178.50591 
L 315.473571 178.698449 
L 320.280625 178.813821 
L 325.087678 178.875447 
L 329.894732 178.904194 
L 334.701785 178.915774 
L 339.508839 178.919782 
L 344.315892 178.920971 
L 349.122946 178.921274 
L 353.929999 178.92134 
L 358.737053 178.921352 
L 363.544106 178.921354 
L 368.35116 178.921354 
L 373.158213 178.921354 
L 377.965267 178.921354 
L 382.77232 178.921354 
L 387.579374 178.921354 
L 392.386427 178.921354 
L 397.193481 178.921354 
L 402.000534 178.921354 
L 406.807588 178.921354 
L 411.614641 178.921354 
L 416.421695 178.921354 
L 421.228748 178.921354 
L 426.035801 178.921354 
L 430.842855 178.921354 
L 435.649908 178.921354 
L 440.456962 178.921354 
L 445.264015 178.921354 
L 450.071069 178.921354 
L 454.878122 178.921354 
L 459.685176 178.921354 
L 464.492229 178.921354 
L 469.299283 178.921354 
L 474.106336 178.921354 
L 478.91339 178.921354 
L 483.720443 178.921354 
L 488.527497 178.921354 
L 493.33455 178.921354 
L 498.141604 178.921354 
L 502.948657 178.921354 
L 507.755711 178.921354 
L 512.562764 178.921354 
L 517.369818 178.921354 
L 522.176871 178.921354 
L 526.983925 178.921354 
L 531.790978 178.921354 
L 536.598032 178.921354 
L 541.405085 178.921354 
" style="fill:none;stroke:#ff7f0e;stroke-linecap:square;stroke-width:1.5;"/>
   </g>
   <g id="patch_43">
    <path d="M 41.711875 178.921354 
L 41.711875 27.437812 
" style="fill:none;stroke:#000000;stroke-linecap:square;stroke-linejoin:miter;stroke-width:0.8;"/>
   </g>
   <g id="patch_44">
    <path d="M 565.2 178.921354 
L 565.2 27.437812 
" style="fill:none;stroke:#000000;stroke-linecap:square;stroke-linejoin:miter;stroke-width:0.8;"/>
   </g>
   <g id="patch_45">
    <path d="M 41.711875 178.921354 
L 565.2 178.921354 
" style="fill:none;stroke:#000000;stroke-linecap:square;stroke-linejoin:miter;stroke-width:0.8;"/>
   </g>
   <g id="patch_46">
    <path d="M 41.711875 27.437812 
L 565.2 27.437812 
" style="fill:none;stroke:#000000;stroke-linecap:square;stroke-linejoin:miter;stroke-width:0.8;"/>
   </g>
   <g id="text_7">
    <!-- control cells -->
    <g transform="translate(261.123438 21.437812)scale(0.14 -0.14)">
     <use xlink:href="#DejaVuSans-99"/>
     <use x="54.980469" xlink:href="#DejaVuSans-111"/>
     <use x="116.162109" xlink:href="#DejaVuSans-110"/>
     <use x="179.541016" xlink:href="#DejaVuSans-116"/>
     <use x="218.75" xlink:href="#DejaVuSans-114"/>
     <use x="259.832031" xlink:href="#DejaVuSans-111"/>
     <use x="321.013672" xlink:href="#DejaVuSans-108"/>
     <use x="348.796875" xlink:href="#DejaVuSans-32"/>
     <use x="380.583984" xlink:href="#DejaVuSans-99"/>
     <use x="435.564453" xlink:href="#DejaVuSans-101"/>
     <use x="497.087891" xlink:href="#DejaVuSans-108"/>
     <use x="524.871094" xlink:href="#DejaVuSans-108"/>
     <use x="552.654297" xlink:href="#DejaVuSans-115"/>
    </g>
   </g>
   <g id="legend_1">
    <g id="patch_47">
     <path d="M 487.966875 72.265312 
L 556.8 72.265312 
Q 559.2 72.265312 559.2 69.865313 
L 559.2 35.837812 
Q 559.2 33.437812 556.8 33.437812 
L 487.966875 33.437812 
Q 485.566875 33.437812 485.566875 35.837812 
L 485.566875 69.865313 
Q 485.566875 72.265312 487.966875 72.265312 
z
" style="fill:#ffffff;opacity:0.8;stroke:#cccccc;stroke-linejoin:miter;"/>
    </g>
    <g id="patch_48">
     <path d="M 490.366875 47.355937 
L 514.366875 47.355937 
L 514.366875 38.955937 
L 490.366875 38.955937 
z
" style="fill:#1f77b4;opacity:0.4;"/>
    </g>
    <g id="text_8">
     <!-- dlm8 -->
     <defs>
      <path d="M 45.40625 46.390625 
L 45.40625 75.984375 
L 54.390625 75.984375 
L 54.390625 0 
L 45.40625 0 
L 45.40625 8.203125 
Q 42.578125 3.328125 38.25 0.953125 
Q 33.9375 -1.421875 27.875 -1.421875 
Q 17.96875 -1.421875 11.734375 6.484375 
Q 5.515625 14.40625 5.515625 27.296875 
Q 5.515625 40.1875 11.734375 48.09375 
Q 17.96875 56 27.875 56 
Q 33.9375 56 38.25 53.625 
Q 42.578125 51.265625 45.40625 46.390625 
z
M 14.796875 27.296875 
Q 14.796875 17.390625 18.875 11.75 
Q 22.953125 6.109375 30.078125 6.109375 
Q 37.203125 6.109375 41.296875 11.75 
Q 45.40625 17.390625 45.40625 27.296875 
Q 45.40625 37.203125 41.296875 42.84375 
Q 37.203125 48.484375 30.078125 48.484375 
Q 22.953125 48.484375 18.875 42.84375 
Q 14.796875 37.203125 14.796875 27.296875 
z
" id="DejaVuSans-100"/>
      <path d="M 52 44.1875 
Q 55.375 50.25 60.0625 53.125 
Q 64.75 56 71.09375 56 
Q 79.640625 56 84.28125 50.015625 
Q 88.921875 44.046875 88.921875 33.015625 
L 88.921875 0 
L 79.890625 0 
L 79.890625 32.71875 
Q 79.890625 40.578125 77.09375 44.375 
Q 74.3125 48.1875 68.609375 48.1875 
Q 61.625 48.1875 57.5625 43.546875 
Q 53.515625 38.921875 53.515625 30.90625 
L 53.515625 0 
L 44.484375 0 
L 44.484375 32.71875 
Q 44.484375 40.625 41.703125 44.40625 
Q 38.921875 48.1875 33.109375 48.1875 
Q 26.21875 48.1875 22.15625 43.53125 
Q 18.109375 38.875 18.109375 30.90625 
L 18.109375 0 
L 9.078125 0 
L 9.078125 54.6875 
L 18.109375 54.6875 
L 18.109375 46.1875 
Q 21.1875 51.21875 25.484375 53.609375 
Q 29.78125 56 35.6875 56 
Q 41.65625 56 45.828125 52.96875 
Q 50 49.953125 52 44.1875 
z
" id="DejaVuSans-109"/>
     </defs>
     <g transform="translate(523.966875 47.355937)scale(0.12 -0.12)">
      <use xlink:href="#DejaVuSans-100"/>
      <use x="63.476562" xlink:href="#DejaVuSans-108"/>
      <use x="91.259766" xlink:href="#DejaVuSans-109"/>
      <use x="188.671875" xlink:href="#DejaVuSans-56"/>
     </g>
    </g>
    <g id="patch_49">
     <path d="M 490.366875 64.969687 
L 514.366875 64.969687 
L 514.366875 56.569687 
L 490.366875 56.569687 
z
" style="fill:#ff7f0e;opacity:0.4;"/>
    </g>
    <g id="text_9">
     <!-- dunn -->
     <defs>
      <path d="M 8.5 21.578125 
L 8.5 54.6875 
L 17.484375 54.6875 
L 17.484375 21.921875 
Q 17.484375 14.15625 20.5 10.265625 
Q 23.53125 6.390625 29.59375 6.390625 
Q 36.859375 6.390625 41.078125 11.03125 
Q 45.3125 15.671875 45.3125 23.6875 
L 45.3125 54.6875 
L 54.296875 54.6875 
L 54.296875 0 
L 45.3125 0 
L 45.3125 8.40625 
Q 42.046875 3.421875 37.71875 1 
Q 33.40625 -1.421875 27.6875 -1.421875 
Q 18.265625 -1.421875 13.375 4.4375 
Q 8.5 10.296875 8.5 21.578125 
z
M 31.109375 56 
z
" id="DejaVuSans-117"/>
     </defs>
     <g transform="translate(523.966875 64.969687)scale(0.12 -0.12)">
      <use xlink:href="#DejaVuSans-100"/>
      <use x="63.476562" xlink:href="#DejaVuSans-117"/>
      <use x="126.855469" xlink:href="#DejaVuSans-110"/>
      <use x="190.234375" xlink:href="#DejaVuSans-110"/>
     </g>
    </g>
   </g>
  </g>
  <g id="axes_2">
   <g id="patch_50">
    <path d="M 41.711875 363.721615 
L 565.2 363.721615 
L 565.2 212.238073 
L 41.711875 212.238073 
z
" style="fill:#ffffff;"/>
   </g>
   <g id="patch_51">
    <path clip-path="url(#pd2cd74e7b5)" d="M 171.747288 363.721615 
L 181.055292 363.721615 
L 181.055292 339.066648 
L 171.747288 339.066648 
z
" style="fill:#1f77b4;opacity:0.4;"/>
   </g>
   <g id="patch_52">
    <path clip-path="url(#pd2cd74e7b5)" d="M 181.055292 363.721615 
L 190.363297 363.721615 
L 190.363297 339.066648 
L 181.055292 339.066648 
z
" style="fill:#1f77b4;opacity:0.4;"/>
   </g>
   <g id="patch_53">
    <path clip-path="url(#pd2cd74e7b5)" d="M 190.363297 363.721615 
L 199.671301 363.721615 
L 199.671301 314.411682 
L 190.363297 314.411682 
z
" style="fill:#1f77b4;opacity:0.4;"/>
   </g>
   <g id="patch_54">
    <path clip-path="url(#pd2cd74e7b5)" d="M 199.671301 363.721615 
L 208.979305 363.721615 
L 208.979305 334.135655 
L 199.671301 334.135655 
z
" style="fill:#1f77b4;opacity:0.4;"/>
   </g>
   <g id="patch_55">
    <path clip-path="url(#pd2cd74e7b5)" d="M 208.979305 363.721615 
L 218.287309 363.721615 
L 218.287309 334.135655 
L 208.979305 334.135655 
z
" style="fill:#1f77b4;opacity:0.4;"/>
   </g>
   <g id="patch_56">
    <path clip-path="url(#pd2cd74e7b5)" d="M 218.287309 363.721615 
L 227.595314 363.721615 
L 227.595314 324.273668 
L 218.287309 324.273668 
z
" style="fill:#1f77b4;opacity:0.4;"/>
   </g>
   <g id="patch_57">
    <path clip-path="url(#pd2cd74e7b5)" d="M 227.595314 363.721615 
L 236.903318 363.721615 
L 236.903318 343.997641 
L 227.595314 343.997641 
z
" style="fill:#1f77b4;opacity:0.4;"/>
   </g>
   <g id="patch_58">
    <path clip-path="url(#pd2cd74e7b5)" d="M 236.903318 363.721615 
L 246.211322 363.721615 
L 246.211322 353.859628 
L 236.903318 353.859628 
z
" style="fill:#1f77b4;opacity:0.4;"/>
   </g>
   <g id="patch_59">
    <path clip-path="url(#pd2cd74e7b5)" d="M 246.211322 363.721615 
L 255.519326 363.721615 
L 255.519326 319.342675 
L 246.211322 319.342675 
z
" style="fill:#1f77b4;opacity:0.4;"/>
   </g>
   <g id="patch_60">
    <path clip-path="url(#pd2cd74e7b5)" d="M 255.519326 363.721615 
L 264.827331 363.721615 
L 264.827331 334.135655 
L 255.519326 334.135655 
z
" style="fill:#1f77b4;opacity:0.4;"/>
   </g>
   <g id="patch_61">
    <path clip-path="url(#pd2cd74e7b5)" d="M 264.827331 363.721615 
L 274.135335 363.721615 
L 274.135335 343.997641 
L 264.827331 343.997641 
z
" style="fill:#1f77b4;opacity:0.4;"/>
   </g>
   <g id="patch_62">
    <path clip-path="url(#pd2cd74e7b5)" d="M 274.135335 363.721615 
L 283.443339 363.721615 
L 283.443339 358.790621 
L 274.135335 358.790621 
z
" style="fill:#1f77b4;opacity:0.4;"/>
   </g>
   <g id="patch_63">
    <path clip-path="url(#pd2cd74e7b5)" d="M 283.443339 363.721615 
L 292.751343 363.721615 
L 292.751343 353.859628 
L 283.443339 353.859628 
z
" style="fill:#1f77b4;opacity:0.4;"/>
   </g>
   <g id="patch_64">
    <path clip-path="url(#pd2cd74e7b5)" d="M 292.751343 363.721615 
L 302.059348 363.721615 
L 302.059348 353.859628 
L 292.751343 353.859628 
z
" style="fill:#1f77b4;opacity:0.4;"/>
   </g>
   <g id="patch_65">
    <path clip-path="url(#pd2cd74e7b5)" d="M 302.059348 363.721615 
L 311.367352 363.721615 
L 311.367352 358.790621 
L 302.059348 358.790621 
z
" style="fill:#1f77b4;opacity:0.4;"/>
   </g>
   <g id="patch_66">
    <path clip-path="url(#pd2cd74e7b5)" d="M 311.367352 363.721615 
L 320.675356 363.721615 
L 320.675356 358.790621 
L 311.367352 358.790621 
z
" style="fill:#1f77b4;opacity:0.4;"/>
   </g>
   <g id="patch_67">
    <path clip-path="url(#pd2cd74e7b5)" d="M 320.675356 363.721615 
L 329.983361 363.721615 
L 329.983361 343.997641 
L 320.675356 343.997641 
z
" style="fill:#1f77b4;opacity:0.4;"/>
   </g>
   <g id="patch_68">
    <path clip-path="url(#pd2cd74e7b5)" d="M 329.983361 363.721615 
L 339.291365 363.721615 
L 339.291365 348.928635 
L 329.983361 348.928635 
z
" style="fill:#1f77b4;opacity:0.4;"/>
   </g>
   <g id="patch_69">
    <path clip-path="url(#pd2cd74e7b5)" d="M 339.291365 363.721615 
L 348.599369 363.721615 
L 348.599369 358.790621 
L 339.291365 358.790621 
z
" style="fill:#1f77b4;opacity:0.4;"/>
   </g>
   <g id="patch_70">
    <path clip-path="url(#pd2cd74e7b5)" d="M 348.599369 363.721615 
L 357.907373 363.721615 
L 357.907373 353.859628 
L 348.599369 353.859628 
z
" style="fill:#1f77b4;opacity:0.4;"/>
   </g>
   <g id="patch_71">
    <path clip-path="url(#pd2cd74e7b5)" d="M 191.648872 363.721615 
L 199.768472 363.721615 
L 199.768472 358.737509 
L 191.648872 358.737509 
z
" style="fill:#ff7f0e;opacity:0.4;"/>
   </g>
   <g id="patch_72">
    <path clip-path="url(#pd2cd74e7b5)" d="M 199.768472 363.721615 
L 207.888072 363.721615 
L 207.888072 363.721615 
L 199.768472 363.721615 
z
" style="fill:#ff7f0e;opacity:0.4;"/>
   </g>
   <g id="patch_73">
    <path clip-path="url(#pd2cd74e7b5)" d="M 207.888072 363.721615 
L 216.007672 363.721615 
L 216.007672 358.737509 
L 207.888072 358.737509 
z
" style="fill:#ff7f0e;opacity:0.4;"/>
   </g>
   <g id="patch_74">
    <path clip-path="url(#pd2cd74e7b5)" d="M 216.007672 363.721615 
L 224.127272 363.721615 
L 224.127272 363.721615 
L 216.007672 363.721615 
z
" style="fill:#ff7f0e;opacity:0.4;"/>
   </g>
   <g id="patch_75">
    <path clip-path="url(#pd2cd74e7b5)" d="M 224.127272 363.721615 
L 232.246872 363.721615 
L 232.246872 348.769297 
L 224.127272 348.769297 
z
" style="fill:#ff7f0e;opacity:0.4;"/>
   </g>
   <g id="patch_76">
    <path clip-path="url(#pd2cd74e7b5)" d="M 232.246872 363.721615 
L 240.366472 363.721615 
L 240.366472 343.785191 
L 232.246872 343.785191 
z
" style="fill:#ff7f0e;opacity:0.4;"/>
   </g>
   <g id="patch_77">
    <path clip-path="url(#pd2cd74e7b5)" d="M 240.366472 363.721615 
L 248.486072 363.721615 
L 248.486072 348.769297 
L 240.366472 348.769297 
z
" style="fill:#ff7f0e;opacity:0.4;"/>
   </g>
   <g id="patch_78">
    <path clip-path="url(#pd2cd74e7b5)" d="M 248.486072 363.721615 
L 256.605672 363.721615 
L 256.605672 338.801086 
L 248.486072 338.801086 
z
" style="fill:#ff7f0e;opacity:0.4;"/>
   </g>
   <g id="patch_79">
    <path clip-path="url(#pd2cd74e7b5)" d="M 256.605672 363.721615 
L 264.725272 363.721615 
L 264.725272 323.848768 
L 256.605672 323.848768 
z
" style="fill:#ff7f0e;opacity:0.4;"/>
   </g>
   <g id="patch_80">
    <path clip-path="url(#pd2cd74e7b5)" d="M 264.725272 363.721615 
L 272.844872 363.721615 
L 272.844872 333.81698 
L 264.725272 333.81698 
z
" style="fill:#ff7f0e;opacity:0.4;"/>
   </g>
   <g id="patch_81">
    <path clip-path="url(#pd2cd74e7b5)" d="M 272.844872 363.721615 
L 280.964472 363.721615 
L 280.964472 328.832874 
L 272.844872 328.832874 
z
" style="fill:#ff7f0e;opacity:0.4;"/>
   </g>
   <g id="patch_82">
    <path clip-path="url(#pd2cd74e7b5)" d="M 280.964472 363.721615 
L 289.084072 363.721615 
L 289.084072 313.880556 
L 280.964472 313.880556 
z
" style="fill:#ff7f0e;opacity:0.4;"/>
   </g>
   <g id="patch_83">
    <path clip-path="url(#pd2cd74e7b5)" d="M 289.084072 363.721615 
L 297.203672 363.721615 
L 297.203672 323.848768 
L 289.084072 323.848768 
z
" style="fill:#ff7f0e;opacity:0.4;"/>
   </g>
   <g id="patch_84">
    <path clip-path="url(#pd2cd74e7b5)" d="M 297.203672 363.721615 
L 305.323272 363.721615 
L 305.323272 318.864662 
L 297.203672 318.864662 
z
" style="fill:#ff7f0e;opacity:0.4;"/>
   </g>
   <g id="patch_85">
    <path clip-path="url(#pd2cd74e7b5)" d="M 305.323272 363.721615 
L 313.442872 363.721615 
L 313.442872 323.848768 
L 305.323272 323.848768 
z
" style="fill:#ff7f0e;opacity:0.4;"/>
   </g>
   <g id="patch_86">
    <path clip-path="url(#pd2cd74e7b5)" d="M 313.442872 363.721615 
L 321.562472 363.721615 
L 321.562472 338.801086 
L 313.442872 338.801086 
z
" style="fill:#ff7f0e;opacity:0.4;"/>
   </g>
   <g id="patch_87">
    <path clip-path="url(#pd2cd74e7b5)" d="M 321.562472 363.721615 
L 329.682072 363.721615 
L 329.682072 328.832874 
L 321.562472 328.832874 
z
" style="fill:#ff7f0e;opacity:0.4;"/>
   </g>
   <g id="patch_88">
    <path clip-path="url(#pd2cd74e7b5)" d="M 329.682072 363.721615 
L 337.801672 363.721615 
L 337.801672 338.801086 
L 329.682072 338.801086 
z
" style="fill:#ff7f0e;opacity:0.4;"/>
   </g>
   <g id="patch_89">
    <path clip-path="url(#pd2cd74e7b5)" d="M 337.801672 363.721615 
L 345.921272 363.721615 
L 345.921272 363.721615 
L 337.801672 363.721615 
z
" style="fill:#ff7f0e;opacity:0.4;"/>
   </g>
   <g id="patch_90">
    <path clip-path="url(#pd2cd74e7b5)" d="M 345.921272 363.721615 
L 354.040872 363.721615 
L 354.040872 348.769297 
L 345.921272 348.769297 
z
" style="fill:#ff7f0e;opacity:0.4;"/>
   </g>
   <g id="matplotlib.axis_3">
    <g id="xtick_10">
     <g id="line2d_17">
      <g>
       <use style="stroke:#000000;stroke-width:0.8;" x="65.50679" xlink:href="#m93e53a80e1" y="363.721615"/>
      </g>
     </g>
    </g>
    <g id="xtick_11">
     <g id="line2d_18">
      <g>
       <use style="stroke:#000000;stroke-width:0.8;" x="124.994077" xlink:href="#m93e53a80e1" y="363.721615"/>
      </g>
     </g>
    </g>
    <g id="xtick_12">
     <g id="line2d_19">
      <g>
       <use style="stroke:#000000;stroke-width:0.8;" x="184.481364" xlink:href="#m93e53a80e1" y="363.721615"/>
      </g>
     </g>
    </g>
    <g id="xtick_13">
     <g id="line2d_20">
      <g>
       <use style="stroke:#000000;stroke-width:0.8;" x="243.968651" xlink:href="#m93e53a80e1" y="363.721615"/>
      </g>
     </g>
    </g>
    <g id="xtick_14">
     <g id="line2d_21">
      <g>
       <use style="stroke:#000000;stroke-width:0.8;" x="303.455938" xlink:href="#m93e53a80e1" y="363.721615"/>
      </g>
     </g>
    </g>
    <g id="xtick_15">
     <g id="line2d_22">
      <g>
       <use style="stroke:#000000;stroke-width:0.8;" x="362.943224" xlink:href="#m93e53a80e1" y="363.721615"/>
      </g>
     </g>
    </g>
    <g id="xtick_16">
     <g id="line2d_23">
      <g>
       <use style="stroke:#000000;stroke-width:0.8;" x="422.430511" xlink:href="#m93e53a80e1" y="363.721615"/>
      </g>
     </g>
    </g>
    <g id="xtick_17">
     <g id="line2d_24">
      <g>
       <use style="stroke:#000000;stroke-width:0.8;" x="481.917798" xlink:href="#m93e53a80e1" y="363.721615"/>
      </g>
     </g>
    </g>
    <g id="xtick_18">
     <g id="line2d_25">
      <g>
       <use style="stroke:#000000;stroke-width:0.8;" x="541.405085" xlink:href="#m93e53a80e1" y="363.721615"/>
      </g>
     </g>
    </g>
   </g>
   <g id="matplotlib.axis_4">
    <g id="ytick_6">
     <g id="line2d_26">
      <g>
       <use style="stroke:#000000;stroke-width:0.8;" x="41.711875" xlink:href="#m560d25c34f" y="363.721615"/>
      </g>
     </g>
     <g id="text_10">
      <!-- 0 -->
      <g transform="translate(28.349375 367.520833)scale(0.1 -0.1)">
       <use xlink:href="#DejaVuSans-48"/>
      </g>
     </g>
    </g>
    <g id="ytick_7">
     <g id="line2d_27">
      <g>
       <use style="stroke:#000000;stroke-width:0.8;" x="41.711875" xlink:href="#m560d25c34f" y="332.087865"/>
      </g>
     </g>
     <g id="text_11">
      <!-- 2 -->
      <g transform="translate(28.349375 335.887083)scale(0.1 -0.1)">
       <use xlink:href="#DejaVuSans-50"/>
      </g>
     </g>
    </g>
    <g id="ytick_8">
     <g id="line2d_28">
      <g>
       <use style="stroke:#000000;stroke-width:0.8;" x="41.711875" xlink:href="#m560d25c34f" y="300.454114"/>
      </g>
     </g>
     <g id="text_12">
      <!-- 4 -->
      <g transform="translate(28.349375 304.253333)scale(0.1 -0.1)">
       <use xlink:href="#DejaVuSans-52"/>
      </g>
     </g>
    </g>
    <g id="ytick_9">
     <g id="line2d_29">
      <g>
       <use style="stroke:#000000;stroke-width:0.8;" x="41.711875" xlink:href="#m560d25c34f" y="268.820364"/>
      </g>
     </g>
     <g id="text_13">
      <!-- 6 -->
      <g transform="translate(28.349375 272.619583)scale(0.1 -0.1)">
       <use xlink:href="#DejaVuSans-54"/>
      </g>
     </g>
    </g>
    <g id="ytick_10">
     <g id="line2d_30">
      <g>
       <use style="stroke:#000000;stroke-width:0.8;" x="41.711875" xlink:href="#m560d25c34f" y="237.186614"/>
      </g>
     </g>
     <g id="text_14">
      <!-- 8 -->
      <g transform="translate(28.349375 240.985833)scale(0.1 -0.1)">
       <use xlink:href="#DejaVuSans-56"/>
      </g>
     </g>
    </g>
    <g id="text_15">
     <!-- Fraction of cells -->
     <g transform="translate(21.437812 343.311562)rotate(-90)scale(0.14 -0.14)">
      <use xlink:href="#DejaVuSans-70"/>
      <use x="57.410156" xlink:href="#DejaVuSans-114"/>
      <use x="98.523438" xlink:href="#DejaVuSans-97"/>
      <use x="159.802734" xlink:href="#DejaVuSans-99"/>
      <use x="214.783203" xlink:href="#DejaVuSans-116"/>
      <use x="253.992188" xlink:href="#DejaVuSans-105"/>
      <use x="281.775391" xlink:href="#DejaVuSans-111"/>
      <use x="342.957031" xlink:href="#DejaVuSans-110"/>
      <use x="406.335938" xlink:href="#DejaVuSans-32"/>
      <use x="438.123047" xlink:href="#DejaVuSans-111"/>
      <use x="499.304688" xlink:href="#DejaVuSans-102"/>
      <use x="534.509766" xlink:href="#DejaVuSans-32"/>
      <use x="566.296875" xlink:href="#DejaVuSans-99"/>
      <use x="621.277344" xlink:href="#DejaVuSans-101"/>
      <use x="682.800781" xlink:href="#DejaVuSans-108"/>
      <use x="710.583984" xlink:href="#DejaVuSans-108"/>
      <use x="738.367188" xlink:href="#DejaVuSans-115"/>
     </g>
    </g>
   </g>
   <g id="line2d_31">
    <path clip-path="url(#pd2cd74e7b5)" d="M 65.50679 363.721612 
L 70.313843 363.721607 
L 75.120897 363.721589 
L 79.92795 363.721534 
L 84.735004 363.721378 
L 89.542057 363.72095 
L 94.349111 363.719844 
L 99.156164 363.717137 
L 103.963218 363.710855 
L 108.770271 363.697037 
L 113.577325 363.668227 
L 118.384378 363.611269 
L 123.191432 363.50449 
L 127.998485 363.314631 
L 132.805539 362.994427 
L 137.612592 362.482146 
L 142.419646 361.70469 
L 147.226699 360.585512 
L 152.033753 359.057595 
L 156.840806 357.080018 
L 161.64786 354.654679 
L 166.454913 351.838444 
L 171.261967 348.746015 
L 176.06902 345.540722 
L 180.876074 342.413819 
L 185.683127 339.556559 
L 190.49018 337.131772 
L 195.297234 335.251782 
L 200.104287 333.967054 
L 204.911341 333.266372 
L 209.718394 333.08615 
L 214.525448 333.325367 
L 219.332501 333.863317 
L 224.139555 334.578839 
L 228.946608 335.370045 
L 233.753662 336.172226 
L 238.560715 336.969525 
L 243.367769 337.795261 
L 248.174822 338.718027 
L 252.981876 339.815647 
L 257.788929 341.144559 
L 262.595983 342.714983 
L 267.403036 344.480645 
L 272.21009 346.346232 
L 277.017143 348.188926 
L 281.824197 349.885552 
L 286.63125 351.33618 
L 291.438304 352.478215 
L 296.245357 353.29001 
L 301.052411 353.787059 
L 305.859464 354.015166 
L 310.666518 354.043531 
L 315.473571 353.958108 
L 320.280625 353.853761 
L 325.087678 353.823868 
L 329.894732 353.94784 
L 334.701785 354.279097 
L 339.508839 354.837028 
L 344.315892 355.605554 
L 349.122946 356.53873 
L 353.929999 357.571517 
L 358.737053 358.632527 
L 363.544106 359.655565 
L 368.35116 360.5879 
L 373.158213 361.394507 
L 377.965267 362.058649 
L 382.77232 362.579703 
L 387.579374 362.969313 
L 392.386427 363.246853 
L 397.193481 363.435057 
L 402.000534 363.556433 
L 406.807588 363.630802 
L 411.614641 363.674055 
L 416.421695 363.697913 
L 421.228748 363.710385 
L 426.035801 363.71656 
L 430.842855 363.719455 
L 435.649908 363.720739 
L 440.456962 363.721278 
L 445.264015 363.721492 
L 450.071069 363.721572 
L 454.878122 363.721601 
L 459.685176 363.72161 
L 464.492229 363.721613 
L 469.299283 363.721614 
L 474.106336 363.721614 
L 478.91339 363.721615 
L 483.720443 363.721615 
L 488.527497 363.721615 
L 493.33455 363.721615 
L 498.141604 363.721615 
L 502.948657 363.721615 
L 507.755711 363.721615 
L 512.562764 363.721615 
L 517.369818 363.721615 
L 522.176871 363.721615 
L 526.983925 363.721615 
L 531.790978 363.721615 
L 536.598032 363.721615 
L 541.405085 363.721615 
" style="fill:none;stroke:#1f77b4;stroke-linecap:square;stroke-width:1.5;"/>
   </g>
   <g id="line2d_32">
    <path clip-path="url(#pd2cd74e7b5)" d="M 65.50679 363.721615 
L 70.313843 363.721615 
L 75.120897 363.721615 
L 79.92795 363.721615 
L 84.735004 363.721615 
L 89.542057 363.721615 
L 94.349111 363.721615 
L 99.156164 363.721615 
L 103.963218 363.721615 
L 108.770271 363.721615 
L 113.577325 363.721615 
L 118.384378 363.721614 
L 123.191432 363.721613 
L 127.998485 363.721602 
L 132.805539 363.721549 
L 137.612592 363.721311 
L 142.419646 363.720369 
L 147.226699 363.717138 
L 152.033753 363.707505 
L 156.840806 363.682599 
L 161.64786 363.626926 
L 166.454913 363.519769 
L 171.261967 363.343113 
L 176.06902 363.0953 
L 180.876074 362.801341 
L 185.683127 362.505636 
L 190.49018 362.241041 
L 195.297234 361.988349 
L 200.104287 361.654606 
L 204.911341 361.089834 
L 209.718394 360.136075 
L 214.525448 358.684283 
L 219.332501 356.714635 
L 224.139555 354.303522 
L 228.946608 351.588779 
L 233.753662 348.704603 
L 238.560715 345.728591 
L 243.367769 342.688906 
L 248.174822 339.628262 
L 252.981876 336.652943 
L 257.788929 333.898233 
L 262.595983 331.436438 
L 267.403036 329.234956 
L 272.21009 327.227967 
L 277.017143 325.435551 
L 281.824197 324.005289 
L 286.63125 323.137186 
L 291.438304 322.975449 
L 296.245357 323.562417 
L 301.052411 324.855568 
L 305.859464 326.747922 
L 310.666518 329.07858 
L 315.473571 331.678803 
L 320.280625 334.45826 
L 325.087678 337.447748 
L 329.894732 340.724468 
L 334.701785 344.270785 
L 339.508839 347.9047 
L 344.315892 351.35298 
L 349.122946 354.39299 
L 353.929999 356.933787 
L 358.737053 358.989261 
L 363.544106 360.604509 
L 368.35116 361.815091 
L 373.158213 362.65619 
L 377.965267 363.184516 
L 382.77232 363.479563 
L 387.579374 363.624682 
L 392.386427 363.687255 
L 397.193481 363.710861 
L 402.000534 363.718648 
L 406.807588 363.720894 
L 411.614641 363.72146 
L 416.421695 363.721586 
L 421.228748 363.72161 
L 426.035801 363.721614 
L 430.842855 363.721614 
L 435.649908 363.721615 
L 440.456962 363.721615 
L 445.264015 363.721615 
L 450.071069 363.721615 
L 454.878122 363.721615 
L 459.685176 363.721615 
L 464.492229 363.721615 
L 469.299283 363.721615 
L 474.106336 363.721615 
L 478.91339 363.721615 
L 483.720443 363.721615 
L 488.527497 363.721615 
L 493.33455 363.721615 
L 498.141604 363.721615 
L 502.948657 363.721615 
L 507.755711 363.721615 
L 512.562764 363.721615 
L 517.369818 363.721615 
L 522.176871 363.721615 
L 526.983925 363.721615 
L 531.790978 363.721615 
L 536.598032 363.721615 
L 541.405085 363.721615 
" style="fill:none;stroke:#ff7f0e;stroke-linecap:square;stroke-width:1.5;"/>
   </g>
   <g id="patch_91">
    <path d="M 41.711875 363.721615 
L 41.711875 212.238073 
" style="fill:none;stroke:#000000;stroke-linecap:square;stroke-linejoin:miter;stroke-width:0.8;"/>
   </g>
   <g id="patch_92">
    <path d="M 565.2 363.721615 
L 565.2 212.238073 
" style="fill:none;stroke:#000000;stroke-linecap:square;stroke-linejoin:miter;stroke-width:0.8;"/>
   </g>
   <g id="patch_93">
    <path d="M 41.711875 363.721615 
L 565.2 363.721615 
" style="fill:none;stroke:#000000;stroke-linecap:square;stroke-linejoin:miter;stroke-width:0.8;"/>
   </g>
   <g id="patch_94">
    <path d="M 41.711875 212.238073 
L 565.2 212.238073 
" style="fill:none;stroke:#000000;stroke-linecap:square;stroke-linejoin:miter;stroke-width:0.8;"/>
   </g>
   <g id="text_16">
    <!-- cytd cells -->
    <defs>
     <path d="M 32.171875 -5.078125 
Q 28.375 -14.84375 24.75 -17.8125 
Q 21.140625 -20.796875 15.09375 -20.796875 
L 7.90625 -20.796875 
L 7.90625 -13.28125 
L 13.1875 -13.28125 
Q 16.890625 -13.28125 18.9375 -11.515625 
Q 21 -9.765625 23.484375 -3.21875 
L 25.09375 0.875 
L 2.984375 54.6875 
L 12.5 54.6875 
L 29.59375 11.921875 
L 46.6875 54.6875 
L 56.203125 54.6875 
z
" id="DejaVuSans-121"/>
    </defs>
    <g transform="translate(270.359062 206.238073)scale(0.14 -0.14)">
     <use xlink:href="#DejaVuSans-99"/>
     <use x="54.980469" xlink:href="#DejaVuSans-121"/>
     <use x="114.160156" xlink:href="#DejaVuSans-116"/>
     <use x="153.369141" xlink:href="#DejaVuSans-100"/>
     <use x="216.845703" xlink:href="#DejaVuSans-32"/>
     <use x="248.632812" xlink:href="#DejaVuSans-99"/>
     <use x="303.613281" xlink:href="#DejaVuSans-101"/>
     <use x="365.136719" xlink:href="#DejaVuSans-108"/>
     <use x="392.919922" xlink:href="#DejaVuSans-108"/>
     <use x="420.703125" xlink:href="#DejaVuSans-115"/>
    </g>
   </g>
   <g id="legend_2">
    <g id="patch_95">
     <path d="M 487.966875 257.065573 
L 556.8 257.065573 
Q 559.2 257.065573 559.2 254.665573 
L 559.2 220.638073 
Q 559.2 218.238073 556.8 218.238073 
L 487.966875 218.238073 
Q 485.566875 218.238073 485.566875 220.638073 
L 485.566875 254.665573 
Q 485.566875 257.065573 487.966875 257.065573 
z
" style="fill:#ffffff;opacity:0.8;stroke:#cccccc;stroke-linejoin:miter;"/>
    </g>
    <g id="patch_96">
     <path d="M 490.366875 232.156198 
L 514.366875 232.156198 
L 514.366875 223.756198 
L 490.366875 223.756198 
z
" style="fill:#1f77b4;opacity:0.4;"/>
    </g>
    <g id="text_17">
     <!-- dlm8 -->
     <g transform="translate(523.966875 232.156198)scale(0.12 -0.12)">
      <use xlink:href="#DejaVuSans-100"/>
      <use x="63.476562" xlink:href="#DejaVuSans-108"/>
      <use x="91.259766" xlink:href="#DejaVuSans-109"/>
      <use x="188.671875" xlink:href="#DejaVuSans-56"/>
     </g>
    </g>
    <g id="patch_97">
     <path d="M 490.366875 249.769948 
L 514.366875 249.769948 
L 514.366875 241.369948 
L 490.366875 241.369948 
z
" style="fill:#ff7f0e;opacity:0.4;"/>
    </g>
    <g id="text_18">
     <!-- dunn -->
     <g transform="translate(523.966875 249.769948)scale(0.12 -0.12)">
      <use xlink:href="#DejaVuSans-100"/>
      <use x="63.476562" xlink:href="#DejaVuSans-117"/>
      <use x="126.855469" xlink:href="#DejaVuSans-110"/>
      <use x="190.234375" xlink:href="#DejaVuSans-110"/>
     </g>
    </g>
   </g>
  </g>
  <g id="axes_3">
   <g id="patch_98">
    <path d="M 41.711875 548.521875 
L 565.2 548.521875 
L 565.2 397.038333 
L 41.711875 397.038333 
z
" style="fill:#ffffff;"/>
   </g>
   <g id="patch_99">
    <path clip-path="url(#p0a6ded4977)" d="M 158.054321 548.521875 
L 163.103471 548.521875 
L 163.103471 500.431862 
L 158.054321 500.431862 
z
" style="fill:#1f77b4;opacity:0.4;"/>
   </g>
   <g id="patch_100">
    <path clip-path="url(#p0a6ded4977)" d="M 163.103471 548.521875 
L 168.15262 548.521875 
L 168.15262 404.251835 
L 163.103471 404.251835 
z
" style="fill:#1f77b4;opacity:0.4;"/>
   </g>
   <g id="patch_101">
    <path clip-path="url(#p0a6ded4977)" d="M 168.15262 548.521875 
L 173.20177 548.521875 
L 173.20177 452.341849 
L 168.15262 452.341849 
z
" style="fill:#1f77b4;opacity:0.4;"/>
   </g>
   <g id="patch_102">
    <path clip-path="url(#p0a6ded4977)" d="M 173.20177 548.521875 
L 178.250919 548.521875 
L 178.250919 440.319345 
L 173.20177 440.319345 
z
" style="fill:#1f77b4;opacity:0.4;"/>
   </g>
   <g id="patch_103">
    <path clip-path="url(#p0a6ded4977)" d="M 178.250919 548.521875 
L 183.300069 548.521875 
L 183.300069 452.341849 
L 178.250919 452.341849 
z
" style="fill:#1f77b4;opacity:0.4;"/>
   </g>
   <g id="patch_104">
    <path clip-path="url(#p0a6ded4977)" d="M 183.300069 548.521875 
L 188.349219 548.521875 
L 188.349219 512.454365 
L 183.300069 512.454365 
z
" style="fill:#1f77b4;opacity:0.4;"/>
   </g>
   <g id="patch_105">
    <path clip-path="url(#p0a6ded4977)" d="M 188.349219 548.521875 
L 193.398368 548.521875 
L 193.398368 500.431862 
L 188.349219 500.431862 
z
" style="fill:#1f77b4;opacity:0.4;"/>
   </g>
   <g id="patch_106">
    <path clip-path="url(#p0a6ded4977)" d="M 193.398368 548.521875 
L 198.447518 548.521875 
L 198.447518 512.454365 
L 193.398368 512.454365 
z
" style="fill:#1f77b4;opacity:0.4;"/>
   </g>
   <g id="patch_107">
    <path clip-path="url(#p0a6ded4977)" d="M 198.447518 548.521875 
L 203.496668 548.521875 
L 203.496668 536.499372 
L 198.447518 536.499372 
z
" style="fill:#1f77b4;opacity:0.4;"/>
   </g>
   <g id="patch_108">
    <path clip-path="url(#p0a6ded4977)" d="M 203.496668 548.521875 
L 208.545817 548.521875 
L 208.545817 524.476868 
L 203.496668 524.476868 
z
" style="fill:#1f77b4;opacity:0.4;"/>
   </g>
   <g id="patch_109">
    <path clip-path="url(#p0a6ded4977)" d="M 208.545817 548.521875 
L 213.594967 548.521875 
L 213.594967 524.476868 
L 208.545817 524.476868 
z
" style="fill:#1f77b4;opacity:0.4;"/>
   </g>
   <g id="patch_110">
    <path clip-path="url(#p0a6ded4977)" d="M 213.594967 548.521875 
L 218.644117 548.521875 
L 218.644117 536.499372 
L 213.594967 536.499372 
z
" style="fill:#1f77b4;opacity:0.4;"/>
   </g>
   <g id="patch_111">
    <path clip-path="url(#p0a6ded4977)" d="M 218.644117 548.521875 
L 223.693266 548.521875 
L 223.693266 548.521875 
L 218.644117 548.521875 
z
" style="fill:#1f77b4;opacity:0.4;"/>
   </g>
   <g id="patch_112">
    <path clip-path="url(#p0a6ded4977)" d="M 223.693266 548.521875 
L 228.742416 548.521875 
L 228.742416 524.476868 
L 223.693266 524.476868 
z
" style="fill:#1f77b4;opacity:0.4;"/>
   </g>
   <g id="patch_113">
    <path clip-path="url(#p0a6ded4977)" d="M 228.742416 548.521875 
L 233.791566 548.521875 
L 233.791566 548.521875 
L 228.742416 548.521875 
z
" style="fill:#1f77b4;opacity:0.4;"/>
   </g>
   <g id="patch_114">
    <path clip-path="url(#p0a6ded4977)" d="M 233.791566 548.521875 
L 238.840715 548.521875 
L 238.840715 548.521875 
L 233.791566 548.521875 
z
" style="fill:#1f77b4;opacity:0.4;"/>
   </g>
   <g id="patch_115">
    <path clip-path="url(#p0a6ded4977)" d="M 238.840715 548.521875 
L 243.889865 548.521875 
L 243.889865 548.521875 
L 238.840715 548.521875 
z
" style="fill:#1f77b4;opacity:0.4;"/>
   </g>
   <g id="patch_116">
    <path clip-path="url(#p0a6ded4977)" d="M 243.889865 548.521875 
L 248.939015 548.521875 
L 248.939015 524.476868 
L 243.889865 524.476868 
z
" style="fill:#1f77b4;opacity:0.4;"/>
   </g>
   <g id="patch_117">
    <path clip-path="url(#p0a6ded4977)" d="M 248.939015 548.521875 
L 253.988164 548.521875 
L 253.988164 548.521875 
L 248.939015 548.521875 
z
" style="fill:#1f77b4;opacity:0.4;"/>
   </g>
   <g id="patch_118">
    <path clip-path="url(#p0a6ded4977)" d="M 253.988164 548.521875 
L 259.037314 548.521875 
L 259.037314 536.499372 
L 253.988164 536.499372 
z
" style="fill:#1f77b4;opacity:0.4;"/>
   </g>
   <g id="patch_119">
    <path clip-path="url(#p0a6ded4977)" d="M 186.117693 548.521875 
L 191.391088 548.521875 
L 191.391088 525.984041 
L 186.117693 525.984041 
z
" style="fill:#ff7f0e;opacity:0.4;"/>
   </g>
   <g id="patch_120">
    <path clip-path="url(#p0a6ded4977)" d="M 191.391088 548.521875 
L 196.664483 548.521875 
L 196.664483 533.496652 
L 191.391088 533.496652 
z
" style="fill:#ff7f0e;opacity:0.4;"/>
   </g>
   <g id="patch_121">
    <path clip-path="url(#p0a6ded4977)" d="M 196.664483 548.521875 
L 201.937878 548.521875 
L 201.937878 533.496652 
L 196.664483 533.496652 
z
" style="fill:#ff7f0e;opacity:0.4;"/>
   </g>
   <g id="patch_122">
    <path clip-path="url(#p0a6ded4977)" d="M 201.937878 548.521875 
L 207.211273 548.521875 
L 207.211273 541.009264 
L 201.937878 541.009264 
z
" style="fill:#ff7f0e;opacity:0.4;"/>
   </g>
   <g id="patch_123">
    <path clip-path="url(#p0a6ded4977)" d="M 207.211273 548.521875 
L 212.484669 548.521875 
L 212.484669 510.958818 
L 207.211273 510.958818 
z
" style="fill:#ff7f0e;opacity:0.4;"/>
   </g>
   <g id="patch_124">
    <path clip-path="url(#p0a6ded4977)" d="M 212.484669 548.521875 
L 217.758064 548.521875 
L 217.758064 510.958818 
L 212.484669 510.958818 
z
" style="fill:#ff7f0e;opacity:0.4;"/>
   </g>
   <g id="patch_125">
    <path clip-path="url(#p0a6ded4977)" d="M 217.758064 548.521875 
L 223.031459 548.521875 
L 223.031459 525.984041 
L 217.758064 525.984041 
z
" style="fill:#ff7f0e;opacity:0.4;"/>
   </g>
   <g id="patch_126">
    <path clip-path="url(#p0a6ded4977)" d="M 223.031459 548.521875 
L 228.304854 548.521875 
L 228.304854 473.395761 
L 223.031459 473.395761 
z
" style="fill:#ff7f0e;opacity:0.4;"/>
   </g>
   <g id="patch_127">
    <path clip-path="url(#p0a6ded4977)" d="M 228.304854 548.521875 
L 233.578249 548.521875 
L 233.578249 503.446207 
L 228.304854 503.446207 
z
" style="fill:#ff7f0e;opacity:0.4;"/>
   </g>
   <g id="patch_128">
    <path clip-path="url(#p0a6ded4977)" d="M 233.578249 548.521875 
L 238.851644 548.521875 
L 238.851644 510.958818 
L 233.578249 510.958818 
z
" style="fill:#ff7f0e;opacity:0.4;"/>
   </g>
   <g id="patch_129">
    <path clip-path="url(#p0a6ded4977)" d="M 238.851644 548.521875 
L 244.125039 548.521875 
L 244.125039 488.420984 
L 238.851644 488.420984 
z
" style="fill:#ff7f0e;opacity:0.4;"/>
   </g>
   <g id="patch_130">
    <path clip-path="url(#p0a6ded4977)" d="M 244.125039 548.521875 
L 249.398434 548.521875 
L 249.398434 473.395761 
L 244.125039 473.395761 
z
" style="fill:#ff7f0e;opacity:0.4;"/>
   </g>
   <g id="patch_131">
    <path clip-path="url(#p0a6ded4977)" d="M 249.398434 548.521875 
L 254.671829 548.521875 
L 254.671829 458.370538 
L 249.398434 458.370538 
z
" style="fill:#ff7f0e;opacity:0.4;"/>
   </g>
   <g id="patch_132">
    <path clip-path="url(#p0a6ded4977)" d="M 254.671829 548.521875 
L 259.945224 548.521875 
L 259.945224 510.958818 
L 254.671829 510.958818 
z
" style="fill:#ff7f0e;opacity:0.4;"/>
   </g>
   <g id="patch_133">
    <path clip-path="url(#p0a6ded4977)" d="M 259.945224 548.521875 
L 265.218619 548.521875 
L 265.218619 480.908372 
L 259.945224 480.908372 
z
" style="fill:#ff7f0e;opacity:0.4;"/>
   </g>
   <g id="patch_134">
    <path clip-path="url(#p0a6ded4977)" d="M 265.218619 548.521875 
L 270.492014 548.521875 
L 270.492014 525.984041 
L 265.218619 525.984041 
z
" style="fill:#ff7f0e;opacity:0.4;"/>
   </g>
   <g id="patch_135">
    <path clip-path="url(#p0a6ded4977)" d="M 270.492014 548.521875 
L 275.765409 548.521875 
L 275.765409 533.496652 
L 270.492014 533.496652 
z
" style="fill:#ff7f0e;opacity:0.4;"/>
   </g>
   <g id="patch_136">
    <path clip-path="url(#p0a6ded4977)" d="M 275.765409 548.521875 
L 281.038804 548.521875 
L 281.038804 533.496652 
L 275.765409 533.496652 
z
" style="fill:#ff7f0e;opacity:0.4;"/>
   </g>
   <g id="patch_137">
    <path clip-path="url(#p0a6ded4977)" d="M 281.038804 548.521875 
L 286.312199 548.521875 
L 286.312199 541.009264 
L 281.038804 541.009264 
z
" style="fill:#ff7f0e;opacity:0.4;"/>
   </g>
   <g id="patch_138">
    <path clip-path="url(#p0a6ded4977)" d="M 286.312199 548.521875 
L 291.585594 548.521875 
L 291.585594 541.009264 
L 286.312199 541.009264 
z
" style="fill:#ff7f0e;opacity:0.4;"/>
   </g>
   <g id="matplotlib.axis_5">
    <g id="xtick_19">
     <g id="line2d_33">
      <g>
       <use style="stroke:#000000;stroke-width:0.8;" x="65.50679" xlink:href="#m93e53a80e1" y="548.521875"/>
      </g>
     </g>
     <g id="text_19">
      <!-- 0.00 -->
      <defs>
       <path d="M 10.6875 12.40625 
L 21 12.40625 
L 21 0 
L 10.6875 0 
z
" id="DejaVuSans-46"/>
      </defs>
      <g transform="translate(54.373977 563.120312)scale(0.1 -0.1)">
       <use xlink:href="#DejaVuSans-48"/>
       <use x="63.623047" xlink:href="#DejaVuSans-46"/>
       <use x="95.410156" xlink:href="#DejaVuSans-48"/>
       <use x="159.033203" xlink:href="#DejaVuSans-48"/>
      </g>
     </g>
    </g>
    <g id="xtick_20">
     <g id="line2d_34">
      <g>
       <use style="stroke:#000000;stroke-width:0.8;" x="124.994077" xlink:href="#m93e53a80e1" y="548.521875"/>
      </g>
     </g>
     <g id="text_20">
      <!-- 0.25 -->
      <defs>
       <path d="M 10.796875 72.90625 
L 49.515625 72.90625 
L 49.515625 64.59375 
L 19.828125 64.59375 
L 19.828125 46.734375 
Q 21.96875 47.46875 24.109375 47.828125 
Q 26.265625 48.1875 28.421875 48.1875 
Q 40.625 48.1875 47.75 41.5 
Q 54.890625 34.8125 54.890625 23.390625 
Q 54.890625 11.625 47.5625 5.09375 
Q 40.234375 -1.421875 26.90625 -1.421875 
Q 22.3125 -1.421875 17.546875 -0.640625 
Q 12.796875 0.140625 7.71875 1.703125 
L 7.71875 11.625 
Q 12.109375 9.234375 16.796875 8.0625 
Q 21.484375 6.890625 26.703125 6.890625 
Q 35.15625 6.890625 40.078125 11.328125 
Q 45.015625 15.765625 45.015625 23.390625 
Q 45.015625 31 40.078125 35.4375 
Q 35.15625 39.890625 26.703125 39.890625 
Q 22.75 39.890625 18.8125 39.015625 
Q 14.890625 38.140625 10.796875 36.28125 
z
" id="DejaVuSans-53"/>
      </defs>
      <g transform="translate(113.861264 563.120312)scale(0.1 -0.1)">
       <use xlink:href="#DejaVuSans-48"/>
       <use x="63.623047" xlink:href="#DejaVuSans-46"/>
       <use x="95.410156" xlink:href="#DejaVuSans-50"/>
       <use x="159.033203" xlink:href="#DejaVuSans-53"/>
      </g>
     </g>
    </g>
    <g id="xtick_21">
     <g id="line2d_35">
      <g>
       <use style="stroke:#000000;stroke-width:0.8;" x="184.481364" xlink:href="#m93e53a80e1" y="548.521875"/>
      </g>
     </g>
     <g id="text_21">
      <!-- 0.50 -->
      <g transform="translate(173.348551 563.120312)scale(0.1 -0.1)">
       <use xlink:href="#DejaVuSans-48"/>
       <use x="63.623047" xlink:href="#DejaVuSans-46"/>
       <use x="95.410156" xlink:href="#DejaVuSans-53"/>
       <use x="159.033203" xlink:href="#DejaVuSans-48"/>
      </g>
     </g>
    </g>
    <g id="xtick_22">
     <g id="line2d_36">
      <g>
       <use style="stroke:#000000;stroke-width:0.8;" x="243.968651" xlink:href="#m93e53a80e1" y="548.521875"/>
      </g>
     </g>
     <g id="text_22">
      <!-- 0.75 -->
      <defs>
       <path d="M 8.203125 72.90625 
L 55.078125 72.90625 
L 55.078125 68.703125 
L 28.609375 0 
L 18.3125 0 
L 43.21875 64.59375 
L 8.203125 64.59375 
z
" id="DejaVuSans-55"/>
      </defs>
      <g transform="translate(232.835838 563.120312)scale(0.1 -0.1)">
       <use xlink:href="#DejaVuSans-48"/>
       <use x="63.623047" xlink:href="#DejaVuSans-46"/>
       <use x="95.410156" xlink:href="#DejaVuSans-55"/>
       <use x="159.033203" xlink:href="#DejaVuSans-53"/>
      </g>
     </g>
    </g>
    <g id="xtick_23">
     <g id="line2d_37">
      <g>
       <use style="stroke:#000000;stroke-width:0.8;" x="303.455938" xlink:href="#m93e53a80e1" y="548.521875"/>
      </g>
     </g>
     <g id="text_23">
      <!-- 1.00 -->
      <defs>
       <path d="M 12.40625 8.296875 
L 28.515625 8.296875 
L 28.515625 63.921875 
L 10.984375 60.40625 
L 10.984375 69.390625 
L 28.421875 72.90625 
L 38.28125 72.90625 
L 38.28125 8.296875 
L 54.390625 8.296875 
L 54.390625 0 
L 12.40625 0 
z
" id="DejaVuSans-49"/>
      </defs>
      <g transform="translate(292.323125 563.120312)scale(0.1 -0.1)">
       <use xlink:href="#DejaVuSans-49"/>
       <use x="63.623047" xlink:href="#DejaVuSans-46"/>
       <use x="95.410156" xlink:href="#DejaVuSans-48"/>
       <use x="159.033203" xlink:href="#DejaVuSans-48"/>
      </g>
     </g>
    </g>
    <g id="xtick_24">
     <g id="line2d_38">
      <g>
       <use style="stroke:#000000;stroke-width:0.8;" x="362.943224" xlink:href="#m93e53a80e1" y="548.521875"/>
      </g>
     </g>
     <g id="text_24">
      <!-- 1.25 -->
      <g transform="translate(351.810412 563.120312)scale(0.1 -0.1)">
       <use xlink:href="#DejaVuSans-49"/>
       <use x="63.623047" xlink:href="#DejaVuSans-46"/>
       <use x="95.410156" xlink:href="#DejaVuSans-50"/>
       <use x="159.033203" xlink:href="#DejaVuSans-53"/>
      </g>
     </g>
    </g>
    <g id="xtick_25">
     <g id="line2d_39">
      <g>
       <use style="stroke:#000000;stroke-width:0.8;" x="422.430511" xlink:href="#m93e53a80e1" y="548.521875"/>
      </g>
     </g>
     <g id="text_25">
      <!-- 1.50 -->
      <g transform="translate(411.297699 563.120312)scale(0.1 -0.1)">
       <use xlink:href="#DejaVuSans-49"/>
       <use x="63.623047" xlink:href="#DejaVuSans-46"/>
       <use x="95.410156" xlink:href="#DejaVuSans-53"/>
       <use x="159.033203" xlink:href="#DejaVuSans-48"/>
      </g>
     </g>
    </g>
    <g id="xtick_26">
     <g id="line2d_40">
      <g>
       <use style="stroke:#000000;stroke-width:0.8;" x="481.917798" xlink:href="#m93e53a80e1" y="548.521875"/>
      </g>
     </g>
     <g id="text_26">
      <!-- 1.75 -->
      <g transform="translate(470.784986 563.120312)scale(0.1 -0.1)">
       <use xlink:href="#DejaVuSans-49"/>
       <use x="63.623047" xlink:href="#DejaVuSans-46"/>
       <use x="95.410156" xlink:href="#DejaVuSans-55"/>
       <use x="159.033203" xlink:href="#DejaVuSans-53"/>
      </g>
     </g>
    </g>
    <g id="xtick_27">
     <g id="line2d_41">
      <g>
       <use style="stroke:#000000;stroke-width:0.8;" x="541.405085" xlink:href="#m93e53a80e1" y="548.521875"/>
      </g>
     </g>
     <g id="text_27">
      <!-- 2.00 -->
      <g transform="translate(530.272273 563.120312)scale(0.1 -0.1)">
       <use xlink:href="#DejaVuSans-50"/>
       <use x="63.623047" xlink:href="#DejaVuSans-46"/>
       <use x="95.410156" xlink:href="#DejaVuSans-48"/>
       <use x="159.033203" xlink:href="#DejaVuSans-48"/>
      </g>
     </g>
    </g>
   </g>
   <g id="matplotlib.axis_6">
    <g id="ytick_11">
     <g id="line2d_42">
      <g>
       <use style="stroke:#000000;stroke-width:0.8;" x="41.711875" xlink:href="#m560d25c34f" y="548.521875"/>
      </g>
     </g>
     <g id="text_28">
      <!-- 0 -->
      <g transform="translate(28.349375 552.321094)scale(0.1 -0.1)">
       <use xlink:href="#DejaVuSans-48"/>
      </g>
     </g>
    </g>
    <g id="ytick_12">
     <g id="line2d_43">
      <g>
       <use style="stroke:#000000;stroke-width:0.8;" x="41.711875" xlink:href="#m560d25c34f" y="516.888125"/>
      </g>
     </g>
     <g id="text_29">
      <!-- 2 -->
      <g transform="translate(28.349375 520.687344)scale(0.1 -0.1)">
       <use xlink:href="#DejaVuSans-50"/>
      </g>
     </g>
    </g>
    <g id="ytick_13">
     <g id="line2d_44">
      <g>
       <use style="stroke:#000000;stroke-width:0.8;" x="41.711875" xlink:href="#m560d25c34f" y="485.254375"/>
      </g>
     </g>
     <g id="text_30">
      <!-- 4 -->
      <g transform="translate(28.349375 489.053594)scale(0.1 -0.1)">
       <use xlink:href="#DejaVuSans-52"/>
      </g>
     </g>
    </g>
    <g id="ytick_14">
     <g id="line2d_45">
      <g>
       <use style="stroke:#000000;stroke-width:0.8;" x="41.711875" xlink:href="#m560d25c34f" y="453.620625"/>
      </g>
     </g>
     <g id="text_31">
      <!-- 6 -->
      <g transform="translate(28.349375 457.419844)scale(0.1 -0.1)">
       <use xlink:href="#DejaVuSans-54"/>
      </g>
     </g>
    </g>
    <g id="ytick_15">
     <g id="line2d_46">
      <g>
       <use style="stroke:#000000;stroke-width:0.8;" x="41.711875" xlink:href="#m560d25c34f" y="421.986875"/>
      </g>
     </g>
     <g id="text_32">
      <!-- 8 -->
      <g transform="translate(28.349375 425.786093)scale(0.1 -0.1)">
       <use xlink:href="#DejaVuSans-56"/>
      </g>
     </g>
    </g>
    <g id="text_33">
     <!-- Fraction of cells -->
     <g transform="translate(21.437812 528.111823)rotate(-90)scale(0.14 -0.14)">
      <use xlink:href="#DejaVuSans-70"/>
      <use x="57.410156" xlink:href="#DejaVuSans-114"/>
      <use x="98.523438" xlink:href="#DejaVuSans-97"/>
      <use x="159.802734" xlink:href="#DejaVuSans-99"/>
      <use x="214.783203" xlink:href="#DejaVuSans-116"/>
      <use x="253.992188" xlink:href="#DejaVuSans-105"/>
      <use x="281.775391" xlink:href="#DejaVuSans-111"/>
      <use x="342.957031" xlink:href="#DejaVuSans-110"/>
      <use x="406.335938" xlink:href="#DejaVuSans-32"/>
      <use x="438.123047" xlink:href="#DejaVuSans-111"/>
      <use x="499.304688" xlink:href="#DejaVuSans-102"/>
      <use x="534.509766" xlink:href="#DejaVuSans-32"/>
      <use x="566.296875" xlink:href="#DejaVuSans-99"/>
      <use x="621.277344" xlink:href="#DejaVuSans-101"/>
      <use x="682.800781" xlink:href="#DejaVuSans-108"/>
      <use x="710.583984" xlink:href="#DejaVuSans-108"/>
      <use x="738.367188" xlink:href="#DejaVuSans-115"/>
     </g>
    </g>
   </g>
   <g id="line2d_47">
    <path clip-path="url(#p0a6ded4977)" d="M 65.50679 548.521875 
L 70.313843 548.521875 
L 75.120897 548.521875 
L 79.92795 548.521875 
L 84.735004 548.521875 
L 89.542057 548.521875 
L 94.349111 548.521875 
L 99.156164 548.521875 
L 103.963218 548.521874 
L 108.770271 548.521863 
L 113.577325 548.521728 
L 118.384378 548.520456 
L 123.191432 548.510982 
L 127.998485 548.455207 
L 132.805539 548.194822 
L 137.612592 547.22901 
L 142.419646 544.380377 
L 147.226699 537.706886 
L 152.033753 525.340149 
L 156.840806 507.372689 
L 161.64786 487.286726 
L 166.454913 470.830596 
L 171.261967 462.687675 
L 176.06902 463.998573 
L 180.876074 472.62949 
L 185.683127 485.015506 
L 190.49018 497.856802 
L 195.297234 509.084793 
L 200.104287 518.005939 
L 204.911341 524.811235 
L 209.718394 529.949286 
L 214.525448 533.759667 
L 219.332501 536.496221 
L 224.139555 538.482566 
L 228.946608 539.983218 
L 233.753662 540.988317 
L 238.560715 541.444423 
L 243.367769 541.64342 
L 248.174822 542.064603 
L 252.981876 542.909147 
L 257.788929 544.051528 
L 262.595983 545.304085 
L 267.403036 546.498937 
L 272.21009 547.455976 
L 277.017143 548.066132 
L 281.824197 548.366857 
L 286.63125 548.480372 
L 291.438304 548.513176 
L 296.245357 548.520451 
L 301.052411 548.521693 
L 305.859464 548.521857 
L 310.666518 548.521874 
L 315.473571 548.521875 
L 320.280625 548.521875 
L 325.087678 548.521875 
L 329.894732 548.521875 
L 334.701785 548.521875 
L 339.508839 548.521875 
L 344.315892 548.521875 
L 349.122946 548.521875 
L 353.929999 548.521875 
L 358.737053 548.521875 
L 363.544106 548.521875 
L 368.35116 548.521875 
L 373.158213 548.521875 
L 377.965267 548.521875 
L 382.77232 548.521875 
L 387.579374 548.521875 
L 392.386427 548.521875 
L 397.193481 548.521875 
L 402.000534 548.521875 
L 406.807588 548.521875 
L 411.614641 548.521875 
L 416.421695 548.521875 
L 421.228748 548.521875 
L 426.035801 548.521875 
L 430.842855 548.521875 
L 435.649908 548.521875 
L 440.456962 548.521875 
L 445.264015 548.521875 
L 450.071069 548.521875 
L 454.878122 548.521875 
L 459.685176 548.521875 
L 464.492229 548.521875 
L 469.299283 548.521875 
L 474.106336 548.521875 
L 478.91339 548.521875 
L 483.720443 548.521875 
L 488.527497 548.521875 
L 493.33455 548.521875 
L 498.141604 548.521875 
L 502.948657 548.521875 
L 507.755711 548.521875 
L 512.562764 548.521875 
L 517.369818 548.521875 
L 522.176871 548.521875 
L 526.983925 548.521875 
L 531.790978 548.521875 
L 536.598032 548.521875 
L 541.405085 548.521875 
" style="fill:none;stroke:#1f77b4;stroke-linecap:square;stroke-width:1.5;"/>
   </g>
   <g id="line2d_48">
    <path clip-path="url(#p0a6ded4977)" d="M 65.50679 548.521875 
L 70.313843 548.521875 
L 75.120897 548.521875 
L 79.92795 548.521875 
L 84.735004 548.521875 
L 89.542057 548.521875 
L 94.349111 548.521875 
L 99.156164 548.521875 
L 103.963218 548.521875 
L 108.770271 548.521875 
L 113.577325 548.521875 
L 118.384378 548.521875 
L 123.191432 548.521875 
L 127.998485 548.521875 
L 132.805539 548.521875 
L 137.612592 548.521872 
L 142.419646 548.521839 
L 147.226699 548.521475 
L 152.033753 548.518514 
L 156.840806 548.500166 
L 161.64786 548.413934 
L 166.454913 548.106904 
L 171.261967 547.280102 
L 176.06902 545.597214 
L 180.876074 542.995625 
L 185.683127 539.861105 
L 190.49018 536.648027 
L 195.297234 533.299057 
L 200.104287 529.36069 
L 204.911341 524.724237 
L 209.718394 519.801667 
L 214.525448 514.857012 
L 219.332501 509.838672 
L 224.139555 505.096309 
L 228.946608 501.239929 
L 233.753662 497.835751 
L 238.560715 493.526917 
L 243.367769 488.29873 
L 248.174822 484.648621 
L 252.981876 485.609881 
L 257.788929 492.066914 
L 262.595983 502.337688 
L 267.403036 513.651676 
L 272.21009 523.681265 
L 277.017143 531.354986 
L 281.824197 536.80707 
L 286.63125 540.679646 
L 291.438304 543.510023 
L 296.245357 545.579959 
L 301.052411 547.005337 
L 305.859464 547.864866 
L 310.666518 548.291051 
L 315.473571 548.457728 
L 320.280625 548.507995 
L 325.087678 548.519558 
L 329.894732 548.521578 
L 334.701785 548.521846 
L 339.508839 548.521873 
L 344.315892 548.521875 
L 349.122946 548.521875 
L 353.929999 548.521875 
L 358.737053 548.521875 
L 363.544106 548.521875 
L 368.35116 548.521875 
L 373.158213 548.521875 
L 377.965267 548.521875 
L 382.77232 548.521875 
L 387.579374 548.521875 
L 392.386427 548.521875 
L 397.193481 548.521875 
L 402.000534 548.521875 
L 406.807588 548.521875 
L 411.614641 548.521875 
L 416.421695 548.521875 
L 421.228748 548.521875 
L 426.035801 548.521875 
L 430.842855 548.521875 
L 435.649908 548.521875 
L 440.456962 548.521875 
L 445.264015 548.521875 
L 450.071069 548.521875 
L 454.878122 548.521875 
L 459.685176 548.521875 
L 464.492229 548.521875 
L 469.299283 548.521875 
L 474.106336 548.521875 
L 478.91339 548.521875 
L 483.720443 548.521875 
L 488.527497 548.521875 
L 493.33455 548.521875 
L 498.141604 548.521875 
L 502.948657 548.521875 
L 507.755711 548.521875 
L 512.562764 548.521875 
L 517.369818 548.521875 
L 522.176871 548.521875 
L 526.983925 548.521875 
L 531.790978 548.521875 
L 536.598032 548.521875 
L 541.405085 548.521875 
" style="fill:none;stroke:#ff7f0e;stroke-linecap:square;stroke-width:1.5;"/>
   </g>
   <g id="patch_139">
    <path d="M 41.711875 548.521875 
L 41.711875 397.038333 
" style="fill:none;stroke:#000000;stroke-linecap:square;stroke-linejoin:miter;stroke-width:0.8;"/>
   </g>
   <g id="patch_140">
    <path d="M 565.2 548.521875 
L 565.2 397.038333 
" style="fill:none;stroke:#000000;stroke-linecap:square;stroke-linejoin:miter;stroke-width:0.8;"/>
   </g>
   <g id="patch_141">
    <path d="M 41.711875 548.521875 
L 565.2 548.521875 
" style="fill:none;stroke:#000000;stroke-linecap:square;stroke-linejoin:miter;stroke-width:0.8;"/>
   </g>
   <g id="patch_142">
    <path d="M 41.711875 397.038333 
L 565.2 397.038333 
" style="fill:none;stroke:#000000;stroke-linecap:square;stroke-linejoin:miter;stroke-width:0.8;"/>
   </g>
   <g id="text_34">
    <!-- jasp cells -->
    <defs>
     <path d="M 9.421875 54.6875 
L 18.40625 54.6875 
L 18.40625 -0.984375 
Q 18.40625 -11.421875 14.421875 -16.109375 
Q 10.453125 -20.796875 1.609375 -20.796875 
L -1.8125 -20.796875 
L -1.8125 -13.1875 
L 0.59375 -13.1875 
Q 5.71875 -13.1875 7.5625 -10.8125 
Q 9.421875 -8.453125 9.421875 -0.984375 
z
M 9.421875 75.984375 
L 18.40625 75.984375 
L 18.40625 64.59375 
L 9.421875 64.59375 
z
" id="DejaVuSans-106"/>
     <path d="M 18.109375 8.203125 
L 18.109375 -20.796875 
L 9.078125 -20.796875 
L 9.078125 54.6875 
L 18.109375 54.6875 
L 18.109375 46.390625 
Q 20.953125 51.265625 25.265625 53.625 
Q 29.59375 56 35.59375 56 
Q 45.5625 56 51.78125 48.09375 
Q 58.015625 40.1875 58.015625 27.296875 
Q 58.015625 14.40625 51.78125 6.484375 
Q 45.5625 -1.421875 35.59375 -1.421875 
Q 29.59375 -1.421875 25.265625 0.953125 
Q 20.953125 3.328125 18.109375 8.203125 
z
M 48.6875 27.296875 
Q 48.6875 37.203125 44.609375 42.84375 
Q 40.53125 48.484375 33.40625 48.484375 
Q 26.265625 48.484375 22.1875 42.84375 
Q 18.109375 37.203125 18.109375 27.296875 
Q 18.109375 17.390625 22.1875 11.75 
Q 26.265625 6.109375 33.40625 6.109375 
Q 40.53125 6.109375 44.609375 11.75 
Q 48.6875 17.390625 48.6875 27.296875 
z
" id="DejaVuSans-112"/>
    </defs>
    <g transform="translate(271.214375 391.038333)scale(0.14 -0.14)">
     <use xlink:href="#DejaVuSans-106"/>
     <use x="27.783203" xlink:href="#DejaVuSans-97"/>
     <use x="89.0625" xlink:href="#DejaVuSans-115"/>
     <use x="141.162109" xlink:href="#DejaVuSans-112"/>
     <use x="204.638672" xlink:href="#DejaVuSans-32"/>
     <use x="236.425781" xlink:href="#DejaVuSans-99"/>
     <use x="291.40625" xlink:href="#DejaVuSans-101"/>
     <use x="352.929688" xlink:href="#DejaVuSans-108"/>
     <use x="380.712891" xlink:href="#DejaVuSans-108"/>
     <use x="408.496094" xlink:href="#DejaVuSans-115"/>
    </g>
   </g>
   <g id="legend_3">
    <g id="patch_143">
     <path d="M 487.966875 441.865833 
L 556.8 441.865833 
Q 559.2 441.865833 559.2 439.465833 
L 559.2 405.438333 
Q 559.2 403.038333 556.8 403.038333 
L 487.966875 403.038333 
Q 485.566875 403.038333 485.566875 405.438333 
L 485.566875 439.465833 
Q 485.566875 441.865833 487.966875 441.865833 
z
" style="fill:#ffffff;opacity:0.8;stroke:#cccccc;stroke-linejoin:miter;"/>
    </g>
    <g id="patch_144">
     <path d="M 490.366875 416.956458 
L 514.366875 416.956458 
L 514.366875 408.556458 
L 490.366875 408.556458 
z
" style="fill:#1f77b4;opacity:0.4;"/>
    </g>
    <g id="text_35">
     <!-- dlm8 -->
     <g transform="translate(523.966875 416.956458)scale(0.12 -0.12)">
      <use xlink:href="#DejaVuSans-100"/>
      <use x="63.476562" xlink:href="#DejaVuSans-108"/>
      <use x="91.259766" xlink:href="#DejaVuSans-109"/>
      <use x="188.671875" xlink:href="#DejaVuSans-56"/>
     </g>
    </g>
    <g id="patch_145">
     <path d="M 490.366875 434.570208 
L 514.366875 434.570208 
L 514.366875 426.170208 
L 490.366875 426.170208 
z
" style="fill:#ff7f0e;opacity:0.4;"/>
    </g>
    <g id="text_36">
     <!-- dunn -->
     <g transform="translate(523.966875 434.570208)scale(0.12 -0.12)">
      <use xlink:href="#DejaVuSans-100"/>
      <use x="63.476562" xlink:href="#DejaVuSans-117"/>
      <use x="126.855469" xlink:href="#DejaVuSans-110"/>
      <use x="190.234375" xlink:href="#DejaVuSans-110"/>
     </g>
    </g>
   </g>
  </g>
  <g id="text_37">
   <!-- Histograms of elastic distances to *own* mean cell -->
   <defs>
    <path d="M 9.8125 72.90625 
L 19.671875 72.90625 
L 19.671875 43.015625 
L 55.515625 43.015625 
L 55.515625 72.90625 
L 65.375 72.90625 
L 65.375 0 
L 55.515625 0 
L 55.515625 34.71875 
L 19.671875 34.71875 
L 19.671875 0 
L 9.8125 0 
z
" id="DejaVuSans-72"/>
    <path d="M 45.40625 27.984375 
Q 45.40625 37.75 41.375 43.109375 
Q 37.359375 48.484375 30.078125 48.484375 
Q 22.859375 48.484375 18.828125 43.109375 
Q 14.796875 37.75 14.796875 27.984375 
Q 14.796875 18.265625 18.828125 12.890625 
Q 22.859375 7.515625 30.078125 7.515625 
Q 37.359375 7.515625 41.375 12.890625 
Q 45.40625 18.265625 45.40625 27.984375 
z
M 54.390625 6.78125 
Q 54.390625 -7.171875 48.1875 -13.984375 
Q 42 -20.796875 29.203125 -20.796875 
Q 24.46875 -20.796875 20.265625 -20.09375 
Q 16.0625 -19.390625 12.109375 -17.921875 
L 12.109375 -9.1875 
Q 16.0625 -11.328125 19.921875 -12.34375 
Q 23.78125 -13.375 27.78125 -13.375 
Q 36.625 -13.375 41.015625 -8.765625 
Q 45.40625 -4.15625 45.40625 5.171875 
L 45.40625 9.625 
Q 42.625 4.78125 38.28125 2.390625 
Q 33.9375 0 27.875 0 
Q 17.828125 0 11.671875 7.65625 
Q 5.515625 15.328125 5.515625 27.984375 
Q 5.515625 40.671875 11.671875 48.328125 
Q 17.828125 56 27.875 56 
Q 33.9375 56 38.28125 53.609375 
Q 42.625 51.21875 45.40625 46.390625 
L 45.40625 54.6875 
L 54.390625 54.6875 
z
" id="DejaVuSans-103"/>
    <path d="M 47.015625 60.890625 
L 29.5 51.421875 
L 47.015625 41.890625 
L 44.1875 37.109375 
L 27.78125 47.015625 
L 27.78125 28.609375 
L 22.21875 28.609375 
L 22.21875 47.015625 
L 5.8125 37.109375 
L 2.984375 41.890625 
L 20.515625 51.421875 
L 2.984375 60.890625 
L 5.8125 65.71875 
L 22.21875 55.8125 
L 22.21875 74.21875 
L 27.78125 74.21875 
L 27.78125 55.8125 
L 44.1875 65.71875 
z
" id="DejaVuSans-42"/>
    <path d="M 4.203125 54.6875 
L 13.1875 54.6875 
L 24.421875 12.015625 
L 35.59375 54.6875 
L 46.1875 54.6875 
L 57.421875 12.015625 
L 68.609375 54.6875 
L 77.59375 54.6875 
L 63.28125 0 
L 52.6875 0 
L 40.921875 44.828125 
L 29.109375 0 
L 18.5 0 
z
" id="DejaVuSans-119"/>
   </defs>
   <g transform="translate(32.740625 26.716875)scale(0.2 -0.2)">
    <use xlink:href="#DejaVuSans-72"/>
    <use x="75.195312" xlink:href="#DejaVuSans-105"/>
    <use x="102.978516" xlink:href="#DejaVuSans-115"/>
    <use x="155.078125" xlink:href="#DejaVuSans-116"/>
    <use x="194.287109" xlink:href="#DejaVuSans-111"/>
    <use x="255.46875" xlink:href="#DejaVuSans-103"/>
    <use x="318.945312" xlink:href="#DejaVuSans-114"/>
    <use x="360.058594" xlink:href="#DejaVuSans-97"/>
    <use x="421.337891" xlink:href="#DejaVuSans-109"/>
    <use x="518.75" xlink:href="#DejaVuSans-115"/>
    <use x="570.849609" xlink:href="#DejaVuSans-32"/>
    <use x="602.636719" xlink:href="#DejaVuSans-111"/>
    <use x="663.818359" xlink:href="#DejaVuSans-102"/>
    <use x="699.023438" xlink:href="#DejaVuSans-32"/>
    <use x="730.810547" xlink:href="#DejaVuSans-101"/>
    <use x="792.333984" xlink:href="#DejaVuSans-108"/>
    <use x="820.117188" xlink:href="#DejaVuSans-97"/>
    <use x="881.396484" xlink:href="#DejaVuSans-115"/>
    <use x="933.496094" xlink:href="#DejaVuSans-116"/>
    <use x="972.705078" xlink:href="#DejaVuSans-105"/>
    <use x="1000.488281" xlink:href="#DejaVuSans-99"/>
    <use x="1055.46875" xlink:href="#DejaVuSans-32"/>
    <use x="1087.255859" xlink:href="#DejaVuSans-100"/>
    <use x="1150.732422" xlink:href="#DejaVuSans-105"/>
    <use x="1178.515625" xlink:href="#DejaVuSans-115"/>
    <use x="1230.615234" xlink:href="#DejaVuSans-116"/>
    <use x="1269.824219" xlink:href="#DejaVuSans-97"/>
    <use x="1331.103516" xlink:href="#DejaVuSans-110"/>
    <use x="1394.482422" xlink:href="#DejaVuSans-99"/>
    <use x="1449.462891" xlink:href="#DejaVuSans-101"/>
    <use x="1510.986328" xlink:href="#DejaVuSans-115"/>
    <use x="1563.085938" xlink:href="#DejaVuSans-32"/>
    <use x="1594.873047" xlink:href="#DejaVuSans-116"/>
    <use x="1634.082031" xlink:href="#DejaVuSans-111"/>
    <use x="1695.263672" xlink:href="#DejaVuSans-32"/>
    <use x="1727.050781" xlink:href="#DejaVuSans-42"/>
    <use x="1777.050781" xlink:href="#DejaVuSans-111"/>
    <use x="1838.232422" xlink:href="#DejaVuSans-119"/>
    <use x="1920.019531" xlink:href="#DejaVuSans-110"/>
    <use x="1983.398438" xlink:href="#DejaVuSans-42"/>
    <use x="2033.398438" xlink:href="#DejaVuSans-32"/>
    <use x="2065.185547" xlink:href="#DejaVuSans-109"/>
    <use x="2162.597656" xlink:href="#DejaVuSans-101"/>
    <use x="2224.121094" xlink:href="#DejaVuSans-97"/>
    <use x="2285.400391" xlink:href="#DejaVuSans-110"/>
    <use x="2348.779297" xlink:href="#DejaVuSans-32"/>
    <use x="2380.566406" xlink:href="#DejaVuSans-99"/>
    <use x="2435.546875" xlink:href="#DejaVuSans-101"/>
    <use x="2497.070312" xlink:href="#DejaVuSans-108"/>
    <use x="2524.853516" xlink:href="#DejaVuSans-108"/>
   </g>
  </g>
 </g>
 <defs>
  <clipPath id="pd234af17e0">
   <rect height="151.483542" width="523.488125" x="41.711875" y="27.437812"/>
  </clipPath>
  <clipPath id="pd2cd74e7b5">
   <rect height="151.483542" width="523.488125" x="41.711875" y="212.238073"/>
  </clipPath>
  <clipPath id="p0a6ded4977">
   <rect height="151.483542" width="523.488125" x="41.711875" y="397.038333"/>
  </clipPath>
 </defs>
</svg>
