<?xml version="1.0" encoding="utf-8" standalone="no"?>
<!DOCTYPE svg PUBLIC "-//W3C//DTD SVG 1.1//EN"
  "http://www.w3.org/Graphics/SVG/1.1/DTD/svg11.dtd">
<!-- Created with matplotlib (https://matplotlib.org/) -->
<svg height="576pt" version="1.1" viewBox="0 0 576 576" width="576pt" xmlns="http://www.w3.org/2000/svg" xmlns:xlink="http://www.w3.org/1999/xlink">
 <defs>
  <style type="text/css">
*{stroke-linecap:butt;stroke-linejoin:round;}
  </style>
 </defs>
 <g id="figure_1">
  <g id="patch_1">
   <path d="M 0 576 
L 576 576 
L 576 0 
L 0 0 
z
" style="fill:#ffffff;"/>
  </g>
  <g id="axes_1">
   <g id="patch_2">
    <path d="M 41.711875 178.921354 
L 565.2 178.921354 
L 565.2 27.437812 
L 41.711875 27.437812 
z
" style="fill:#ffffff;"/>
   </g>
   <g id="patch_3">
    <path clip-path="url(#pa2740b9182)" d="M 53.517183 178.921354 
L 71.970506 178.921354 
L 71.970506 145.156026 
L 53.517183 145.156026 
z
" style="fill:#1f77b4;opacity:0.4;"/>
   </g>
   <g id="patch_4">
    <path clip-path="url(#pa2740b9182)" d="M 71.970506 178.921354 
L 90.423829 178.921354 
L 90.423829 157.434327 
L 71.970506 157.434327 
z
" style="fill:#1f77b4;opacity:0.4;"/>
   </g>
   <g id="patch_5">
    <path clip-path="url(#pa2740b9182)" d="M 90.423829 178.921354 
L 108.877152 178.921354 
L 108.877152 172.782204 
L 90.423829 172.782204 
z
" style="fill:#1f77b4;opacity:0.4;"/>
   </g>
   <g id="patch_6">
    <path clip-path="url(#pa2740b9182)" d="M 108.877152 178.921354 
L 127.330475 178.921354 
L 127.330475 172.782204 
L 108.877152 172.782204 
z
" style="fill:#1f77b4;opacity:0.4;"/>
   </g>
   <g id="patch_7">
    <path clip-path="url(#pa2740b9182)" d="M 127.330475 178.921354 
L 145.783798 178.921354 
L 145.783798 148.225601 
L 127.330475 148.225601 
z
" style="fill:#1f77b4;opacity:0.4;"/>
   </g>
   <g id="patch_8">
    <path clip-path="url(#pa2740b9182)" d="M 145.783798 178.921354 
L 164.23712 178.921354 
L 164.23712 163.573478 
L 145.783798 163.573478 
z
" style="fill:#1f77b4;opacity:0.4;"/>
   </g>
   <g id="patch_9">
    <path clip-path="url(#pa2740b9182)" d="M 164.23712 178.921354 
L 182.690443 178.921354 
L 182.690443 157.434327 
L 164.23712 157.434327 
z
" style="fill:#1f77b4;opacity:0.4;"/>
   </g>
   <g id="patch_10">
    <path clip-path="url(#pa2740b9182)" d="M 182.690443 178.921354 
L 201.143766 178.921354 
L 201.143766 172.782204 
L 182.690443 172.782204 
z
" style="fill:#1f77b4;opacity:0.4;"/>
   </g>
   <g id="patch_11">
    <path clip-path="url(#pa2740b9182)" d="M 201.143766 178.921354 
L 219.597089 178.921354 
L 219.597089 172.782204 
L 201.143766 172.782204 
z
" style="fill:#1f77b4;opacity:0.4;"/>
   </g>
   <g id="patch_12">
    <path clip-path="url(#pa2740b9182)" d="M 219.597089 178.921354 
L 238.050412 178.921354 
L 238.050412 172.782204 
L 219.597089 172.782204 
z
" style="fill:#1f77b4;opacity:0.4;"/>
   </g>
   <g id="patch_13">
    <path clip-path="url(#pa2740b9182)" d="M 238.050412 178.921354 
L 256.503735 178.921354 
L 256.503735 172.782204 
L 238.050412 172.782204 
z
" style="fill:#1f77b4;opacity:0.4;"/>
   </g>
   <g id="patch_14">
    <path clip-path="url(#pa2740b9182)" d="M 256.503735 178.921354 
L 274.957058 178.921354 
L 274.957058 169.712628 
L 256.503735 169.712628 
z
" style="fill:#1f77b4;opacity:0.4;"/>
   </g>
   <g id="patch_15">
    <path clip-path="url(#pa2740b9182)" d="M 274.957058 178.921354 
L 293.41038 178.921354 
L 293.41038 178.921354 
L 274.957058 178.921354 
z
" style="fill:#1f77b4;opacity:0.4;"/>
   </g>
   <g id="patch_16">
    <path clip-path="url(#pa2740b9182)" d="M 293.41038 178.921354 
L 311.863703 178.921354 
L 311.863703 175.851779 
L 293.41038 175.851779 
z
" style="fill:#1f77b4;opacity:0.4;"/>
   </g>
   <g id="patch_17">
    <path clip-path="url(#pa2740b9182)" d="M 311.863703 178.921354 
L 330.317026 178.921354 
L 330.317026 163.573478 
L 311.863703 163.573478 
z
" style="fill:#1f77b4;opacity:0.4;"/>
   </g>
   <g id="patch_18">
    <path clip-path="url(#pa2740b9182)" d="M 330.317026 178.921354 
L 348.770349 178.921354 
L 348.770349 175.851779 
L 330.317026 175.851779 
z
" style="fill:#1f77b4;opacity:0.4;"/>
   </g>
   <g id="patch_19">
    <path clip-path="url(#pa2740b9182)" d="M 348.770349 178.921354 
L 367.223672 178.921354 
L 367.223672 172.782204 
L 348.770349 172.782204 
z
" style="fill:#1f77b4;opacity:0.4;"/>
   </g>
   <g id="patch_20">
    <path clip-path="url(#pa2740b9182)" d="M 367.223672 178.921354 
L 385.676995 178.921354 
L 385.676995 178.921354 
L 367.223672 178.921354 
z
" style="fill:#1f77b4;opacity:0.4;"/>
   </g>
   <g id="patch_21">
    <path clip-path="url(#pa2740b9182)" d="M 385.676995 178.921354 
L 404.130318 178.921354 
L 404.130318 169.712628 
L 385.676995 169.712628 
z
" style="fill:#1f77b4;opacity:0.4;"/>
   </g>
   <g id="patch_22">
    <path clip-path="url(#pa2740b9182)" d="M 404.130318 178.921354 
L 422.58364 178.921354 
L 422.58364 34.651314 
L 404.130318 34.651314 
z
" style="fill:#1f77b4;opacity:0.4;"/>
   </g>
   <g id="patch_23">
    <path clip-path="url(#pa2740b9182)" d="M 41.711875 178.921354 
L 60.886738 178.921354 
L 60.886738 167.365732 
L 41.711875 167.365732 
z
" style="fill:#ff7f0e;opacity:0.4;"/>
   </g>
   <g id="patch_24">
    <path clip-path="url(#pa2740b9182)" d="M 60.886738 178.921354 
L 80.061602 178.921354 
L 80.061602 134.34967 
L 60.886738 134.34967 
z
" style="fill:#ff7f0e;opacity:0.4;"/>
   </g>
   <g id="patch_25">
    <path clip-path="url(#pa2740b9182)" d="M 80.061602 178.921354 
L 99.236465 178.921354 
L 99.236465 167.365732 
L 80.061602 167.365732 
z
" style="fill:#ff7f0e;opacity:0.4;"/>
   </g>
   <g id="patch_26">
    <path clip-path="url(#pa2740b9182)" d="M 99.236465 178.921354 
L 118.411329 178.921354 
L 118.411329 169.016536 
L 99.236465 169.016536 
z
" style="fill:#ff7f0e;opacity:0.4;"/>
   </g>
   <g id="patch_27">
    <path clip-path="url(#pa2740b9182)" d="M 118.411329 178.921354 
L 137.586192 178.921354 
L 137.586192 170.667339 
L 118.411329 170.667339 
z
" style="fill:#ff7f0e;opacity:0.4;"/>
   </g>
   <g id="patch_28">
    <path clip-path="url(#pa2740b9182)" d="M 137.586192 178.921354 
L 156.761056 178.921354 
L 156.761056 175.619748 
L 137.586192 175.619748 
z
" style="fill:#ff7f0e;opacity:0.4;"/>
   </g>
   <g id="patch_29">
    <path clip-path="url(#pa2740b9182)" d="M 156.761056 178.921354 
L 175.935919 178.921354 
L 175.935919 169.016536 
L 156.761056 169.016536 
z
" style="fill:#ff7f0e;opacity:0.4;"/>
   </g>
   <g id="patch_30">
    <path clip-path="url(#pa2740b9182)" d="M 175.935919 178.921354 
L 195.110782 178.921354 
L 195.110782 172.318142 
L 175.935919 172.318142 
z
" style="fill:#ff7f0e;opacity:0.4;"/>
   </g>
   <g id="patch_31">
    <path clip-path="url(#pa2740b9182)" d="M 195.110782 178.921354 
L 214.285646 178.921354 
L 214.285646 165.714929 
L 195.110782 165.714929 
z
" style="fill:#ff7f0e;opacity:0.4;"/>
   </g>
   <g id="patch_32">
    <path clip-path="url(#pa2740b9182)" d="M 214.285646 178.921354 
L 233.460509 178.921354 
L 233.460509 160.76252 
L 214.285646 160.76252 
z
" style="fill:#ff7f0e;opacity:0.4;"/>
   </g>
   <g id="patch_33">
    <path clip-path="url(#pa2740b9182)" d="M 233.460509 178.921354 
L 252.635373 178.921354 
L 252.635373 165.714929 
L 233.460509 165.714929 
z
" style="fill:#ff7f0e;opacity:0.4;"/>
   </g>
   <g id="patch_34">
    <path clip-path="url(#pa2740b9182)" d="M 252.635373 178.921354 
L 271.810236 178.921354 
L 271.810236 172.318142 
L 252.635373 172.318142 
z
" style="fill:#ff7f0e;opacity:0.4;"/>
   </g>
   <g id="patch_35">
    <path clip-path="url(#pa2740b9182)" d="M 271.810236 178.921354 
L 290.985099 178.921354 
L 290.985099 164.064126 
L 271.810236 164.064126 
z
" style="fill:#ff7f0e;opacity:0.4;"/>
   </g>
   <g id="patch_36">
    <path clip-path="url(#pa2740b9182)" d="M 290.985099 178.921354 
L 310.159963 178.921354 
L 310.159963 177.270551 
L 290.985099 177.270551 
z
" style="fill:#ff7f0e;opacity:0.4;"/>
   </g>
   <g id="patch_37">
    <path clip-path="url(#pa2740b9182)" d="M 310.159963 178.921354 
L 329.334826 178.921354 
L 329.334826 173.968945 
L 310.159963 173.968945 
z
" style="fill:#ff7f0e;opacity:0.4;"/>
   </g>
   <g id="patch_38">
    <path clip-path="url(#pa2740b9182)" d="M 329.334826 178.921354 
L 348.50969 178.921354 
L 348.50969 172.318142 
L 329.334826 172.318142 
z
" style="fill:#ff7f0e;opacity:0.4;"/>
   </g>
   <g id="patch_39">
    <path clip-path="url(#pa2740b9182)" d="M 348.50969 178.921354 
L 367.684553 178.921354 
L 367.684553 170.667339 
L 348.50969 170.667339 
z
" style="fill:#ff7f0e;opacity:0.4;"/>
   </g>
   <g id="patch_40">
    <path clip-path="url(#pa2740b9182)" d="M 367.684553 178.921354 
L 386.859417 178.921354 
L 386.859417 175.619748 
L 367.684553 175.619748 
z
" style="fill:#ff7f0e;opacity:0.4;"/>
   </g>
   <g id="patch_41">
    <path clip-path="url(#pa2740b9182)" d="M 386.859417 178.921354 
L 406.03428 178.921354 
L 406.03428 145.905292 
L 386.859417 145.905292 
z
" style="fill:#ff7f0e;opacity:0.4;"/>
   </g>
   <g id="patch_42">
    <path clip-path="url(#pa2740b9182)" d="M 406.03428 178.921354 
L 425.209143 178.921354 
L 425.209143 71.619152 
L 406.03428 71.619152 
z
" style="fill:#ff7f0e;opacity:0.4;"/>
   </g>
   <g id="matplotlib.axis_1">
    <g id="xtick_1">
     <g id="line2d_1">
      <defs>
       <path d="M 0 0 
L 0 3.5 
" id="m400f41bc9d" style="stroke:#000000;stroke-width:0.8;"/>
      </defs>
      <g>
       <use style="stroke:#000000;stroke-width:0.8;" x="73.61825" xlink:href="#m400f41bc9d" y="178.921354"/>
      </g>
     </g>
    </g>
    <g id="xtick_2">
     <g id="line2d_2">
      <g>
       <use style="stroke:#000000;stroke-width:0.8;" x="132.265636" xlink:href="#m400f41bc9d" y="178.921354"/>
      </g>
     </g>
    </g>
    <g id="xtick_3">
     <g id="line2d_3">
      <g>
       <use style="stroke:#000000;stroke-width:0.8;" x="190.913023" xlink:href="#m400f41bc9d" y="178.921354"/>
      </g>
     </g>
    </g>
    <g id="xtick_4">
     <g id="line2d_4">
      <g>
       <use style="stroke:#000000;stroke-width:0.8;" x="249.560409" xlink:href="#m400f41bc9d" y="178.921354"/>
      </g>
     </g>
    </g>
    <g id="xtick_5">
     <g id="line2d_5">
      <g>
       <use style="stroke:#000000;stroke-width:0.8;" x="308.207795" xlink:href="#m400f41bc9d" y="178.921354"/>
      </g>
     </g>
    </g>
    <g id="xtick_6">
     <g id="line2d_6">
      <g>
       <use style="stroke:#000000;stroke-width:0.8;" x="366.855181" xlink:href="#m400f41bc9d" y="178.921354"/>
      </g>
     </g>
    </g>
    <g id="xtick_7">
     <g id="line2d_7">
      <g>
       <use style="stroke:#000000;stroke-width:0.8;" x="425.502568" xlink:href="#m400f41bc9d" y="178.921354"/>
      </g>
     </g>
    </g>
    <g id="xtick_8">
     <g id="line2d_8">
      <g>
       <use style="stroke:#000000;stroke-width:0.8;" x="484.149954" xlink:href="#m400f41bc9d" y="178.921354"/>
      </g>
     </g>
    </g>
    <g id="xtick_9">
     <g id="line2d_9">
      <g>
       <use style="stroke:#000000;stroke-width:0.8;" x="542.79734" xlink:href="#m400f41bc9d" y="178.921354"/>
      </g>
     </g>
    </g>
   </g>
   <g id="matplotlib.axis_2">
    <g id="ytick_1">
     <g id="line2d_10">
      <defs>
       <path d="M 0 0 
L -3.5 0 
" id="m959487d647" style="stroke:#000000;stroke-width:0.8;"/>
      </defs>
      <g>
       <use style="stroke:#000000;stroke-width:0.8;" x="41.711875" xlink:href="#m959487d647" y="178.921354"/>
      </g>
     </g>
     <g id="text_1">
      <!-- 0 -->
      <defs>
       <path d="M 31.78125 66.40625 
Q 24.171875 66.40625 20.328125 58.90625 
Q 16.5 51.421875 16.5 36.375 
Q 16.5 21.390625 20.328125 13.890625 
Q 24.171875 6.390625 31.78125 6.390625 
Q 39.453125 6.390625 43.28125 13.890625 
Q 47.125 21.390625 47.125 36.375 
Q 47.125 51.421875 43.28125 58.90625 
Q 39.453125 66.40625 31.78125 66.40625 
z
M 31.78125 74.21875 
Q 44.046875 74.21875 50.515625 64.515625 
Q 56.984375 54.828125 56.984375 36.375 
Q 56.984375 17.96875 50.515625 8.265625 
Q 44.046875 -1.421875 31.78125 -1.421875 
Q 19.53125 -1.421875 13.0625 8.265625 
Q 6.59375 17.96875 6.59375 36.375 
Q 6.59375 54.828125 13.0625 64.515625 
Q 19.53125 74.21875 31.78125 74.21875 
z
" id="DejaVuSans-48"/>
      </defs>
      <g transform="translate(28.349375 182.720573)scale(0.1 -0.1)">
       <use xlink:href="#DejaVuSans-48"/>
      </g>
     </g>
    </g>
    <g id="ytick_2">
     <g id="line2d_11">
      <g>
       <use style="stroke:#000000;stroke-width:0.8;" x="41.711875" xlink:href="#m959487d647" y="151.394976"/>
      </g>
     </g>
     <g id="text_2">
      <!-- 1 -->
      <defs>
       <path d="M 12.40625 8.296875 
L 28.515625 8.296875 
L 28.515625 63.921875 
L 10.984375 60.40625 
L 10.984375 69.390625 
L 28.421875 72.90625 
L 38.28125 72.90625 
L 38.28125 8.296875 
L 54.390625 8.296875 
L 54.390625 0 
L 12.40625 0 
z
" id="DejaVuSans-49"/>
      </defs>
      <g transform="translate(28.349375 155.194195)scale(0.1 -0.1)">
       <use xlink:href="#DejaVuSans-49"/>
      </g>
     </g>
    </g>
    <g id="ytick_3">
     <g id="line2d_12">
      <g>
       <use style="stroke:#000000;stroke-width:0.8;" x="41.711875" xlink:href="#m959487d647" y="123.868598"/>
      </g>
     </g>
     <g id="text_3">
      <!-- 2 -->
      <defs>
       <path d="M 19.1875 8.296875 
L 53.609375 8.296875 
L 53.609375 0 
L 7.328125 0 
L 7.328125 8.296875 
Q 12.9375 14.109375 22.625 23.890625 
Q 32.328125 33.6875 34.8125 36.53125 
Q 39.546875 41.84375 41.421875 45.53125 
Q 43.3125 49.21875 43.3125 52.78125 
Q 43.3125 58.59375 39.234375 62.25 
Q 35.15625 65.921875 28.609375 65.921875 
Q 23.96875 65.921875 18.8125 64.3125 
Q 13.671875 62.703125 7.8125 59.421875 
L 7.8125 69.390625 
Q 13.765625 71.78125 18.9375 73 
Q 24.125 74.21875 28.421875 74.21875 
Q 39.75 74.21875 46.484375 68.546875 
Q 53.21875 62.890625 53.21875 53.421875 
Q 53.21875 48.921875 51.53125 44.890625 
Q 49.859375 40.875 45.40625 35.40625 
Q 44.1875 33.984375 37.640625 27.21875 
Q 31.109375 20.453125 19.1875 8.296875 
z
" id="DejaVuSans-50"/>
      </defs>
      <g transform="translate(28.349375 127.667817)scale(0.1 -0.1)">
       <use xlink:href="#DejaVuSans-50"/>
      </g>
     </g>
    </g>
    <g id="ytick_4">
     <g id="line2d_13">
      <g>
       <use style="stroke:#000000;stroke-width:0.8;" x="41.711875" xlink:href="#m959487d647" y="96.34222"/>
      </g>
     </g>
     <g id="text_4">
      <!-- 3 -->
      <defs>
       <path d="M 40.578125 39.3125 
Q 47.65625 37.796875 51.625 33 
Q 55.609375 28.21875 55.609375 21.1875 
Q 55.609375 10.40625 48.1875 4.484375 
Q 40.765625 -1.421875 27.09375 -1.421875 
Q 22.515625 -1.421875 17.65625 -0.515625 
Q 12.796875 0.390625 7.625 2.203125 
L 7.625 11.71875 
Q 11.71875 9.328125 16.59375 8.109375 
Q 21.484375 6.890625 26.8125 6.890625 
Q 36.078125 6.890625 40.9375 10.546875 
Q 45.796875 14.203125 45.796875 21.1875 
Q 45.796875 27.640625 41.28125 31.265625 
Q 36.765625 34.90625 28.71875 34.90625 
L 20.21875 34.90625 
L 20.21875 43.015625 
L 29.109375 43.015625 
Q 36.375 43.015625 40.234375 45.921875 
Q 44.09375 48.828125 44.09375 54.296875 
Q 44.09375 59.90625 40.109375 62.90625 
Q 36.140625 65.921875 28.71875 65.921875 
Q 24.65625 65.921875 20.015625 65.03125 
Q 15.375 64.15625 9.8125 62.3125 
L 9.8125 71.09375 
Q 15.4375 72.65625 20.34375 73.4375 
Q 25.25 74.21875 29.59375 74.21875 
Q 40.828125 74.21875 47.359375 69.109375 
Q 53.90625 64.015625 53.90625 55.328125 
Q 53.90625 49.265625 50.4375 45.09375 
Q 46.96875 40.921875 40.578125 39.3125 
z
" id="DejaVuSans-51"/>
      </defs>
      <g transform="translate(28.349375 100.141439)scale(0.1 -0.1)">
       <use xlink:href="#DejaVuSans-51"/>
      </g>
     </g>
    </g>
    <g id="ytick_5">
     <g id="line2d_14">
      <g>
       <use style="stroke:#000000;stroke-width:0.8;" x="41.711875" xlink:href="#m959487d647" y="68.815842"/>
      </g>
     </g>
     <g id="text_5">
      <!-- 4 -->
      <defs>
       <path d="M 37.796875 64.3125 
L 12.890625 25.390625 
L 37.796875 25.390625 
z
M 35.203125 72.90625 
L 47.609375 72.90625 
L 47.609375 25.390625 
L 58.015625 25.390625 
L 58.015625 17.1875 
L 47.609375 17.1875 
L 47.609375 0 
L 37.796875 0 
L 37.796875 17.1875 
L 4.890625 17.1875 
L 4.890625 26.703125 
z
" id="DejaVuSans-52"/>
      </defs>
      <g transform="translate(28.349375 72.61506)scale(0.1 -0.1)">
       <use xlink:href="#DejaVuSans-52"/>
      </g>
     </g>
    </g>
    <g id="ytick_6">
     <g id="line2d_15">
      <g>
       <use style="stroke:#000000;stroke-width:0.8;" x="41.711875" xlink:href="#m959487d647" y="41.289464"/>
      </g>
     </g>
     <g id="text_6">
      <!-- 5 -->
      <defs>
       <path d="M 10.796875 72.90625 
L 49.515625 72.90625 
L 49.515625 64.59375 
L 19.828125 64.59375 
L 19.828125 46.734375 
Q 21.96875 47.46875 24.109375 47.828125 
Q 26.265625 48.1875 28.421875 48.1875 
Q 40.625 48.1875 47.75 41.5 
Q 54.890625 34.8125 54.890625 23.390625 
Q 54.890625 11.625 47.5625 5.09375 
Q 40.234375 -1.421875 26.90625 -1.421875 
Q 22.3125 -1.421875 17.546875 -0.640625 
Q 12.796875 0.140625 7.71875 1.703125 
L 7.71875 11.625 
Q 12.109375 9.234375 16.796875 8.0625 
Q 21.484375 6.890625 26.703125 6.890625 
Q 35.15625 6.890625 40.078125 11.328125 
Q 45.015625 15.765625 45.015625 23.390625 
Q 45.015625 31 40.078125 35.4375 
Q 35.15625 39.890625 26.703125 39.890625 
Q 22.75 39.890625 18.8125 39.015625 
Q 14.890625 38.140625 10.796875 36.28125 
z
" id="DejaVuSans-53"/>
      </defs>
      <g transform="translate(28.349375 45.088682)scale(0.1 -0.1)">
       <use xlink:href="#DejaVuSans-53"/>
      </g>
     </g>
    </g>
    <g id="text_7">
     <!-- Fraction of cells -->
     <defs>
      <path d="M 9.8125 72.90625 
L 51.703125 72.90625 
L 51.703125 64.59375 
L 19.671875 64.59375 
L 19.671875 43.109375 
L 48.578125 43.109375 
L 48.578125 34.8125 
L 19.671875 34.8125 
L 19.671875 0 
L 9.8125 0 
z
" id="DejaVuSans-70"/>
      <path d="M 41.109375 46.296875 
Q 39.59375 47.171875 37.8125 47.578125 
Q 36.03125 48 33.890625 48 
Q 26.265625 48 22.1875 43.046875 
Q 18.109375 38.09375 18.109375 28.8125 
L 18.109375 0 
L 9.078125 0 
L 9.078125 54.6875 
L 18.109375 54.6875 
L 18.109375 46.1875 
Q 20.953125 51.171875 25.484375 53.578125 
Q 30.03125 56 36.53125 56 
Q 37.453125 56 38.578125 55.875 
Q 39.703125 55.765625 41.0625 55.515625 
z
" id="DejaVuSans-114"/>
      <path d="M 34.28125 27.484375 
Q 23.390625 27.484375 19.1875 25 
Q 14.984375 22.515625 14.984375 16.5 
Q 14.984375 11.71875 18.140625 8.90625 
Q 21.296875 6.109375 26.703125 6.109375 
Q 34.1875 6.109375 38.703125 11.40625 
Q 43.21875 16.703125 43.21875 25.484375 
L 43.21875 27.484375 
z
M 52.203125 31.203125 
L 52.203125 0 
L 43.21875 0 
L 43.21875 8.296875 
Q 40.140625 3.328125 35.546875 0.953125 
Q 30.953125 -1.421875 24.3125 -1.421875 
Q 15.921875 -1.421875 10.953125 3.296875 
Q 6 8.015625 6 15.921875 
Q 6 25.140625 12.171875 29.828125 
Q 18.359375 34.515625 30.609375 34.515625 
L 43.21875 34.515625 
L 43.21875 35.40625 
Q 43.21875 41.609375 39.140625 45 
Q 35.0625 48.390625 27.6875 48.390625 
Q 23 48.390625 18.546875 47.265625 
Q 14.109375 46.140625 10.015625 43.890625 
L 10.015625 52.203125 
Q 14.9375 54.109375 19.578125 55.046875 
Q 24.21875 56 28.609375 56 
Q 40.484375 56 46.34375 49.84375 
Q 52.203125 43.703125 52.203125 31.203125 
z
" id="DejaVuSans-97"/>
      <path d="M 48.78125 52.59375 
L 48.78125 44.1875 
Q 44.96875 46.296875 41.140625 47.34375 
Q 37.3125 48.390625 33.40625 48.390625 
Q 24.65625 48.390625 19.8125 42.84375 
Q 14.984375 37.3125 14.984375 27.296875 
Q 14.984375 17.28125 19.8125 11.734375 
Q 24.65625 6.203125 33.40625 6.203125 
Q 37.3125 6.203125 41.140625 7.25 
Q 44.96875 8.296875 48.78125 10.40625 
L 48.78125 2.09375 
Q 45.015625 0.34375 40.984375 -0.53125 
Q 36.96875 -1.421875 32.421875 -1.421875 
Q 20.0625 -1.421875 12.78125 6.34375 
Q 5.515625 14.109375 5.515625 27.296875 
Q 5.515625 40.671875 12.859375 48.328125 
Q 20.21875 56 33.015625 56 
Q 37.15625 56 41.109375 55.140625 
Q 45.0625 54.296875 48.78125 52.59375 
z
" id="DejaVuSans-99"/>
      <path d="M 18.3125 70.21875 
L 18.3125 54.6875 
L 36.8125 54.6875 
L 36.8125 47.703125 
L 18.3125 47.703125 
L 18.3125 18.015625 
Q 18.3125 11.328125 20.140625 9.421875 
Q 21.96875 7.515625 27.59375 7.515625 
L 36.8125 7.515625 
L 36.8125 0 
L 27.59375 0 
Q 17.1875 0 13.234375 3.875 
Q 9.28125 7.765625 9.28125 18.015625 
L 9.28125 47.703125 
L 2.6875 47.703125 
L 2.6875 54.6875 
L 9.28125 54.6875 
L 9.28125 70.21875 
z
" id="DejaVuSans-116"/>
      <path d="M 9.421875 54.6875 
L 18.40625 54.6875 
L 18.40625 0 
L 9.421875 0 
z
M 9.421875 75.984375 
L 18.40625 75.984375 
L 18.40625 64.59375 
L 9.421875 64.59375 
z
" id="DejaVuSans-105"/>
      <path d="M 30.609375 48.390625 
Q 23.390625 48.390625 19.1875 42.75 
Q 14.984375 37.109375 14.984375 27.296875 
Q 14.984375 17.484375 19.15625 11.84375 
Q 23.34375 6.203125 30.609375 6.203125 
Q 37.796875 6.203125 41.984375 11.859375 
Q 46.1875 17.53125 46.1875 27.296875 
Q 46.1875 37.015625 41.984375 42.703125 
Q 37.796875 48.390625 30.609375 48.390625 
z
M 30.609375 56 
Q 42.328125 56 49.015625 48.375 
Q 55.71875 40.765625 55.71875 27.296875 
Q 55.71875 13.875 49.015625 6.21875 
Q 42.328125 -1.421875 30.609375 -1.421875 
Q 18.84375 -1.421875 12.171875 6.21875 
Q 5.515625 13.875 5.515625 27.296875 
Q 5.515625 40.765625 12.171875 48.375 
Q 18.84375 56 30.609375 56 
z
" id="DejaVuSans-111"/>
      <path d="M 54.890625 33.015625 
L 54.890625 0 
L 45.90625 0 
L 45.90625 32.71875 
Q 45.90625 40.484375 42.875 44.328125 
Q 39.84375 48.1875 33.796875 48.1875 
Q 26.515625 48.1875 22.3125 43.546875 
Q 18.109375 38.921875 18.109375 30.90625 
L 18.109375 0 
L 9.078125 0 
L 9.078125 54.6875 
L 18.109375 54.6875 
L 18.109375 46.1875 
Q 21.34375 51.125 25.703125 53.5625 
Q 30.078125 56 35.796875 56 
Q 45.21875 56 50.046875 50.171875 
Q 54.890625 44.34375 54.890625 33.015625 
z
" id="DejaVuSans-110"/>
      <path id="DejaVuSans-32"/>
      <path d="M 37.109375 75.984375 
L 37.109375 68.5 
L 28.515625 68.5 
Q 23.6875 68.5 21.796875 66.546875 
Q 19.921875 64.59375 19.921875 59.515625 
L 19.921875 54.6875 
L 34.71875 54.6875 
L 34.71875 47.703125 
L 19.921875 47.703125 
L 19.921875 0 
L 10.890625 0 
L 10.890625 47.703125 
L 2.296875 47.703125 
L 2.296875 54.6875 
L 10.890625 54.6875 
L 10.890625 58.5 
Q 10.890625 67.625 15.140625 71.796875 
Q 19.390625 75.984375 28.609375 75.984375 
z
" id="DejaVuSans-102"/>
      <path d="M 56.203125 29.59375 
L 56.203125 25.203125 
L 14.890625 25.203125 
Q 15.484375 15.921875 20.484375 11.0625 
Q 25.484375 6.203125 34.421875 6.203125 
Q 39.59375 6.203125 44.453125 7.46875 
Q 49.3125 8.734375 54.109375 11.28125 
L 54.109375 2.78125 
Q 49.265625 0.734375 44.1875 -0.34375 
Q 39.109375 -1.421875 33.890625 -1.421875 
Q 20.796875 -1.421875 13.15625 6.1875 
Q 5.515625 13.8125 5.515625 26.8125 
Q 5.515625 40.234375 12.765625 48.109375 
Q 20.015625 56 32.328125 56 
Q 43.359375 56 49.78125 48.890625 
Q 56.203125 41.796875 56.203125 29.59375 
z
M 47.21875 32.234375 
Q 47.125 39.59375 43.09375 43.984375 
Q 39.0625 48.390625 32.421875 48.390625 
Q 24.90625 48.390625 20.390625 44.140625 
Q 15.875 39.890625 15.1875 32.171875 
z
" id="DejaVuSans-101"/>
      <path d="M 9.421875 75.984375 
L 18.40625 75.984375 
L 18.40625 0 
L 9.421875 0 
z
" id="DejaVuSans-108"/>
      <path d="M 44.28125 53.078125 
L 44.28125 44.578125 
Q 40.484375 46.53125 36.375 47.5 
Q 32.28125 48.484375 27.875 48.484375 
Q 21.1875 48.484375 17.84375 46.4375 
Q 14.5 44.390625 14.5 40.28125 
Q 14.5 37.15625 16.890625 35.375 
Q 19.28125 33.59375 26.515625 31.984375 
L 29.59375 31.296875 
Q 39.15625 29.25 43.1875 25.515625 
Q 47.21875 21.78125 47.21875 15.09375 
Q 47.21875 7.46875 41.1875 3.015625 
Q 35.15625 -1.421875 24.609375 -1.421875 
Q 20.21875 -1.421875 15.453125 -0.5625 
Q 10.6875 0.296875 5.421875 2 
L 5.421875 11.28125 
Q 10.40625 8.6875 15.234375 7.390625 
Q 20.0625 6.109375 24.8125 6.109375 
Q 31.15625 6.109375 34.5625 8.28125 
Q 37.984375 10.453125 37.984375 14.40625 
Q 37.984375 18.0625 35.515625 20.015625 
Q 33.0625 21.96875 24.703125 23.78125 
L 21.578125 24.515625 
Q 13.234375 26.265625 9.515625 29.90625 
Q 5.8125 33.546875 5.8125 39.890625 
Q 5.8125 47.609375 11.28125 51.796875 
Q 16.75 56 26.8125 56 
Q 31.78125 56 36.171875 55.265625 
Q 40.578125 54.546875 44.28125 53.078125 
z
" id="DejaVuSans-115"/>
     </defs>
     <g transform="translate(21.437812 158.511302)rotate(-90)scale(0.14 -0.14)">
      <use xlink:href="#DejaVuSans-70"/>
      <use x="57.410156" xlink:href="#DejaVuSans-114"/>
      <use x="98.523438" xlink:href="#DejaVuSans-97"/>
      <use x="159.802734" xlink:href="#DejaVuSans-99"/>
      <use x="214.783203" xlink:href="#DejaVuSans-116"/>
      <use x="253.992188" xlink:href="#DejaVuSans-105"/>
      <use x="281.775391" xlink:href="#DejaVuSans-111"/>
      <use x="342.957031" xlink:href="#DejaVuSans-110"/>
      <use x="406.335938" xlink:href="#DejaVuSans-32"/>
      <use x="438.123047" xlink:href="#DejaVuSans-111"/>
      <use x="499.304688" xlink:href="#DejaVuSans-102"/>
      <use x="534.509766" xlink:href="#DejaVuSans-32"/>
      <use x="566.296875" xlink:href="#DejaVuSans-99"/>
      <use x="621.277344" xlink:href="#DejaVuSans-101"/>
      <use x="682.800781" xlink:href="#DejaVuSans-108"/>
      <use x="710.583984" xlink:href="#DejaVuSans-108"/>
      <use x="738.367188" xlink:href="#DejaVuSans-115"/>
     </g>
    </g>
   </g>
   <g id="line2d_16">
    <path clip-path="url(#pa2740b9182)" d="M -1 175.429002 
L 0.160918 175.327604 
L 9.639283 174.371116 
L 19.117649 173.302978 
L 28.596014 172.150473 
L 38.07438 170.949544 
L 47.552745 169.741881 
L 57.03111 168.571197 
L 66.509476 167.47933 
L 75.987841 166.50287 
L 85.466207 165.670846 
L 94.944572 165.003727 
L 104.422938 164.513634 
L 113.901303 164.205388 
L 123.379669 164.077859 
L 132.858034 164.125118 
L 142.3364 164.337107 
L 151.814765 164.699775 
L 161.293131 165.194914 
L 170.771496 165.800023 
L 180.249861 166.48856 
L 189.728227 167.230758 
L 199.206592 167.995009 
L 208.684958 168.749595 
L 218.163323 169.464413 
L 227.641689 170.112333 
L 237.120054 170.669882 
L 246.59842 171.117118 
L 256.076785 171.436721 
L 265.555151 171.612563 
L 275.033516 171.628131 
L 284.511882 171.465367 
L 293.990247 171.104505 
L 303.468612 170.525461 
L 312.946978 169.711125 
L 322.425343 168.652543 
L 331.903709 167.355452 
L 341.382074 165.847035 
L 350.86044 164.181323 
L 360.338805 162.441409 
L 369.817171 160.736984 
L 379.295536 159.196393 
L 388.773902 157.953618 
L 398.252267 157.131896 
L 407.730633 156.826708 
L 417.208998 157.091421 
L 426.687363 157.928533 
L 436.165729 159.288443 
L 445.644094 161.076083 
L 455.12246 163.16409 
L 464.600825 165.409913 
L 474.079191 167.673569 
L 483.557556 169.832979 
L 493.035922 171.794629 
L 502.514287 173.498534 
L 511.992653 174.917754 
L 521.471018 176.053647 
L 530.949384 176.928603 
L 540.427749 177.578014 
L 549.906114 178.0429 
L 559.38448 178.364117 
L 568.862845 178.578476 
L 577 178.697145 
" style="fill:none;stroke:#1f77b4;stroke-linecap:square;stroke-width:1.5;"/>
   </g>
   <g id="line2d_17">
    <path clip-path="url(#pa2740b9182)" d="M -1 175.258979 
L 0.160918 175.135209 
L 9.639283 173.938279 
L 19.117649 172.591115 
L 28.596014 171.155866 
L 38.07438 169.716732 
L 47.552745 168.37086 
L 57.03111 167.215149 
L 66.509476 166.331356 
L 75.987841 165.772644 
L 85.466207 165.554607 
L 94.944572 165.652855 
L 104.422938 166.00769 
L 113.901303 166.534704 
L 123.379669 167.138866 
L 132.858034 167.729109 
L 142.3364 168.230707 
L 151.814765 168.593587 
L 161.293131 168.795851 
L 170.771496 168.842757 
L 180.249861 168.762137 
L 189.728227 168.597468 
L 199.206592 168.399888 
L 208.684958 168.220233 
L 218.163323 168.102004 
L 227.641689 168.07589 
L 237.120054 168.156246 
L 246.59842 168.339555 
L 256.076785 168.604657 
L 265.555151 168.914235 
L 275.033516 169.217078 
L 284.511882 169.450801 
L 293.990247 169.545137 
L 303.468612 169.426369 
L 312.946978 169.023752 
L 322.425343 168.278612 
L 331.903709 167.156092 
L 341.382074 165.658297 
L 350.86044 163.836187 
L 360.338805 161.796521 
L 369.817171 159.700044 
L 379.295536 157.748404 
L 388.773902 156.159844 
L 398.252267 155.136998 
L 407.730633 154.83309 
L 417.208998 155.324233 
L 426.687363 156.594747 
L 436.165729 158.539421 
L 445.644094 160.98228 
L 455.12246 163.707227 
L 464.600825 166.49315 
L 474.079191 169.145599 
L 483.557556 171.518984 
L 493.035922 173.526358 
L 502.514287 175.137365 
L 511.992653 176.367488 
L 521.471018 177.262926 
L 530.949384 177.885226 
L 540.427749 178.298592 
L 549.906114 178.561273 
L 559.38448 178.721078 
L 568.862845 178.814204 
L 577 178.858854 
" style="fill:none;stroke:#ff7f0e;stroke-linecap:square;stroke-width:1.5;"/>
   </g>
   <g id="patch_43">
    <path d="M 41.711875 178.921354 
L 41.711875 27.437812 
" style="fill:none;stroke:#000000;stroke-linecap:square;stroke-linejoin:miter;stroke-width:0.8;"/>
   </g>
   <g id="patch_44">
    <path d="M 565.2 178.921354 
L 565.2 27.437812 
" style="fill:none;stroke:#000000;stroke-linecap:square;stroke-linejoin:miter;stroke-width:0.8;"/>
   </g>
   <g id="patch_45">
    <path d="M 41.711875 178.921354 
L 565.2 178.921354 
" style="fill:none;stroke:#000000;stroke-linecap:square;stroke-linejoin:miter;stroke-width:0.8;"/>
   </g>
   <g id="patch_46">
    <path d="M 41.711875 27.437812 
L 565.2 27.437812 
" style="fill:none;stroke:#000000;stroke-linecap:square;stroke-linejoin:miter;stroke-width:0.8;"/>
   </g>
   <g id="text_8">
    <!-- control cells -->
    <g transform="translate(261.123438 21.437812)scale(0.14 -0.14)">
     <use xlink:href="#DejaVuSans-99"/>
     <use x="54.980469" xlink:href="#DejaVuSans-111"/>
     <use x="116.162109" xlink:href="#DejaVuSans-110"/>
     <use x="179.541016" xlink:href="#DejaVuSans-116"/>
     <use x="218.75" xlink:href="#DejaVuSans-114"/>
     <use x="259.832031" xlink:href="#DejaVuSans-111"/>
     <use x="321.013672" xlink:href="#DejaVuSans-108"/>
     <use x="348.796875" xlink:href="#DejaVuSans-32"/>
     <use x="380.583984" xlink:href="#DejaVuSans-99"/>
     <use x="435.564453" xlink:href="#DejaVuSans-101"/>
     <use x="497.087891" xlink:href="#DejaVuSans-108"/>
     <use x="524.871094" xlink:href="#DejaVuSans-108"/>
     <use x="552.654297" xlink:href="#DejaVuSans-115"/>
    </g>
   </g>
   <g id="legend_1">
    <g id="patch_47">
     <path d="M 487.966875 72.265312 
L 556.8 72.265312 
Q 559.2 72.265312 559.2 69.865313 
L 559.2 35.837812 
Q 559.2 33.437812 556.8 33.437812 
L 487.966875 33.437812 
Q 485.566875 33.437812 485.566875 35.837812 
L 485.566875 69.865313 
Q 485.566875 72.265312 487.966875 72.265312 
z
" style="fill:#ffffff;opacity:0.8;stroke:#cccccc;stroke-linejoin:miter;"/>
    </g>
    <g id="patch_48">
     <path d="M 490.366875 47.355937 
L 514.366875 47.355937 
L 514.366875 38.955937 
L 490.366875 38.955937 
z
" style="fill:#1f77b4;opacity:0.4;"/>
    </g>
    <g id="text_9">
     <!-- dlm8 -->
     <defs>
      <path d="M 45.40625 46.390625 
L 45.40625 75.984375 
L 54.390625 75.984375 
L 54.390625 0 
L 45.40625 0 
L 45.40625 8.203125 
Q 42.578125 3.328125 38.25 0.953125 
Q 33.9375 -1.421875 27.875 -1.421875 
Q 17.96875 -1.421875 11.734375 6.484375 
Q 5.515625 14.40625 5.515625 27.296875 
Q 5.515625 40.1875 11.734375 48.09375 
Q 17.96875 56 27.875 56 
Q 33.9375 56 38.25 53.625 
Q 42.578125 51.265625 45.40625 46.390625 
z
M 14.796875 27.296875 
Q 14.796875 17.390625 18.875 11.75 
Q 22.953125 6.109375 30.078125 6.109375 
Q 37.203125 6.109375 41.296875 11.75 
Q 45.40625 17.390625 45.40625 27.296875 
Q 45.40625 37.203125 41.296875 42.84375 
Q 37.203125 48.484375 30.078125 48.484375 
Q 22.953125 48.484375 18.875 42.84375 
Q 14.796875 37.203125 14.796875 27.296875 
z
" id="DejaVuSans-100"/>
      <path d="M 52 44.1875 
Q 55.375 50.25 60.0625 53.125 
Q 64.75 56 71.09375 56 
Q 79.640625 56 84.28125 50.015625 
Q 88.921875 44.046875 88.921875 33.015625 
L 88.921875 0 
L 79.890625 0 
L 79.890625 32.71875 
Q 79.890625 40.578125 77.09375 44.375 
Q 74.3125 48.1875 68.609375 48.1875 
Q 61.625 48.1875 57.5625 43.546875 
Q 53.515625 38.921875 53.515625 30.90625 
L 53.515625 0 
L 44.484375 0 
L 44.484375 32.71875 
Q 44.484375 40.625 41.703125 44.40625 
Q 38.921875 48.1875 33.109375 48.1875 
Q 26.21875 48.1875 22.15625 43.53125 
Q 18.109375 38.875 18.109375 30.90625 
L 18.109375 0 
L 9.078125 0 
L 9.078125 54.6875 
L 18.109375 54.6875 
L 18.109375 46.1875 
Q 21.1875 51.21875 25.484375 53.609375 
Q 29.78125 56 35.6875 56 
Q 41.65625 56 45.828125 52.96875 
Q 50 49.953125 52 44.1875 
z
" id="DejaVuSans-109"/>
      <path d="M 31.78125 34.625 
Q 24.75 34.625 20.71875 30.859375 
Q 16.703125 27.09375 16.703125 20.515625 
Q 16.703125 13.921875 20.71875 10.15625 
Q 24.75 6.390625 31.78125 6.390625 
Q 38.8125 6.390625 42.859375 10.171875 
Q 46.921875 13.96875 46.921875 20.515625 
Q 46.921875 27.09375 42.890625 30.859375 
Q 38.875 34.625 31.78125 34.625 
z
M 21.921875 38.8125 
Q 15.578125 40.375 12.03125 44.71875 
Q 8.5 49.078125 8.5 55.328125 
Q 8.5 64.0625 14.71875 69.140625 
Q 20.953125 74.21875 31.78125 74.21875 
Q 42.671875 74.21875 48.875 69.140625 
Q 55.078125 64.0625 55.078125 55.328125 
Q 55.078125 49.078125 51.53125 44.71875 
Q 48 40.375 41.703125 38.8125 
Q 48.828125 37.15625 52.796875 32.3125 
Q 56.78125 27.484375 56.78125 20.515625 
Q 56.78125 9.90625 50.3125 4.234375 
Q 43.84375 -1.421875 31.78125 -1.421875 
Q 19.734375 -1.421875 13.25 4.234375 
Q 6.78125 9.90625 6.78125 20.515625 
Q 6.78125 27.484375 10.78125 32.3125 
Q 14.796875 37.15625 21.921875 38.8125 
z
M 18.3125 54.390625 
Q 18.3125 48.734375 21.84375 45.5625 
Q 25.390625 42.390625 31.78125 42.390625 
Q 38.140625 42.390625 41.71875 45.5625 
Q 45.3125 48.734375 45.3125 54.390625 
Q 45.3125 60.0625 41.71875 63.234375 
Q 38.140625 66.40625 31.78125 66.40625 
Q 25.390625 66.40625 21.84375 63.234375 
Q 18.3125 60.0625 18.3125 54.390625 
z
" id="DejaVuSans-56"/>
     </defs>
     <g transform="translate(523.966875 47.355937)scale(0.12 -0.12)">
      <use xlink:href="#DejaVuSans-100"/>
      <use x="63.476562" xlink:href="#DejaVuSans-108"/>
      <use x="91.259766" xlink:href="#DejaVuSans-109"/>
      <use x="188.671875" xlink:href="#DejaVuSans-56"/>
     </g>
    </g>
    <g id="patch_49">
     <path d="M 490.366875 64.969687 
L 514.366875 64.969687 
L 514.366875 56.569687 
L 490.366875 56.569687 
z
" style="fill:#ff7f0e;opacity:0.4;"/>
    </g>
    <g id="text_10">
     <!-- dunn -->
     <defs>
      <path d="M 8.5 21.578125 
L 8.5 54.6875 
L 17.484375 54.6875 
L 17.484375 21.921875 
Q 17.484375 14.15625 20.5 10.265625 
Q 23.53125 6.390625 29.59375 6.390625 
Q 36.859375 6.390625 41.078125 11.03125 
Q 45.3125 15.671875 45.3125 23.6875 
L 45.3125 54.6875 
L 54.296875 54.6875 
L 54.296875 0 
L 45.3125 0 
L 45.3125 8.40625 
Q 42.046875 3.421875 37.71875 1 
Q 33.40625 -1.421875 27.6875 -1.421875 
Q 18.265625 -1.421875 13.375 4.4375 
Q 8.5 10.296875 8.5 21.578125 
z
M 31.109375 56 
z
" id="DejaVuSans-117"/>
     </defs>
     <g transform="translate(523.966875 64.969687)scale(0.12 -0.12)">
      <use xlink:href="#DejaVuSans-100"/>
      <use x="63.476562" xlink:href="#DejaVuSans-117"/>
      <use x="126.855469" xlink:href="#DejaVuSans-110"/>
      <use x="190.234375" xlink:href="#DejaVuSans-110"/>
     </g>
    </g>
   </g>
  </g>
  <g id="axes_2">
   <g id="patch_50">
    <path d="M 41.711875 363.721615 
L 565.2 363.721615 
L 565.2 212.238073 
L 41.711875 212.238073 
z
" style="fill:#ffffff;"/>
   </g>
   <g id="patch_51">
    <path clip-path="url(#p973df24415)" d="M 110.403105 363.721615 
L 133.142949 363.721615 
L 133.142949 349.869491 
L 110.403105 349.869491 
z
" style="fill:#1f77b4;opacity:0.4;"/>
   </g>
   <g id="patch_52">
    <path clip-path="url(#p973df24415)" d="M 133.142949 363.721615 
L 155.882794 363.721615 
L 155.882794 339.480398 
L 133.142949 339.480398 
z
" style="fill:#1f77b4;opacity:0.4;"/>
   </g>
   <g id="patch_53">
    <path clip-path="url(#p973df24415)" d="M 155.882794 363.721615 
L 178.622639 363.721615 
L 178.622639 356.795553 
L 155.882794 356.795553 
z
" style="fill:#1f77b4;opacity:0.4;"/>
   </g>
   <g id="patch_54">
    <path clip-path="url(#p973df24415)" d="M 178.622639 363.721615 
L 201.362484 363.721615 
L 201.362484 346.40646 
L 178.622639 346.40646 
z
" style="fill:#1f77b4;opacity:0.4;"/>
   </g>
   <g id="patch_55">
    <path clip-path="url(#p973df24415)" d="M 201.362484 363.721615 
L 224.102328 363.721615 
L 224.102328 349.869491 
L 201.362484 349.869491 
z
" style="fill:#1f77b4;opacity:0.4;"/>
   </g>
   <g id="patch_56">
    <path clip-path="url(#p973df24415)" d="M 224.102328 363.721615 
L 246.842173 363.721615 
L 246.842173 349.869491 
L 224.102328 349.869491 
z
" style="fill:#1f77b4;opacity:0.4;"/>
   </g>
   <g id="patch_57">
    <path clip-path="url(#p973df24415)" d="M 246.842173 363.721615 
L 269.582018 363.721615 
L 269.582018 360.258584 
L 246.842173 360.258584 
z
" style="fill:#1f77b4;opacity:0.4;"/>
   </g>
   <g id="patch_58">
    <path clip-path="url(#p973df24415)" d="M 269.582018 363.721615 
L 292.321863 363.721615 
L 292.321863 360.258584 
L 269.582018 360.258584 
z
" style="fill:#1f77b4;opacity:0.4;"/>
   </g>
   <g id="patch_59">
    <path clip-path="url(#p973df24415)" d="M 292.321863 363.721615 
L 315.061707 363.721615 
L 315.061707 339.480398 
L 292.321863 339.480398 
z
" style="fill:#1f77b4;opacity:0.4;"/>
   </g>
   <g id="patch_60">
    <path clip-path="url(#p973df24415)" d="M 315.061707 363.721615 
L 337.801552 363.721615 
L 337.801552 353.332522 
L 315.061707 353.332522 
z
" style="fill:#1f77b4;opacity:0.4;"/>
   </g>
   <g id="patch_61">
    <path clip-path="url(#p973df24415)" d="M 337.801552 363.721615 
L 360.541397 363.721615 
L 360.541397 356.795553 
L 337.801552 356.795553 
z
" style="fill:#1f77b4;opacity:0.4;"/>
   </g>
   <g id="patch_62">
    <path clip-path="url(#p973df24415)" d="M 360.541397 363.721615 
L 383.281242 363.721615 
L 383.281242 356.795553 
L 360.541397 356.795553 
z
" style="fill:#1f77b4;opacity:0.4;"/>
   </g>
   <g id="patch_63">
    <path clip-path="url(#p973df24415)" d="M 383.281242 363.721615 
L 406.021087 363.721615 
L 406.021087 318.702212 
L 383.281242 318.702212 
z
" style="fill:#1f77b4;opacity:0.4;"/>
   </g>
   <g id="patch_64">
    <path clip-path="url(#p973df24415)" d="M 406.021087 363.721615 
L 428.760931 363.721615 
L 428.760931 311.77615 
L 406.021087 311.77615 
z
" style="fill:#1f77b4;opacity:0.4;"/>
   </g>
   <g id="patch_65">
    <path clip-path="url(#p973df24415)" d="M 428.760931 363.721615 
L 451.500776 363.721615 
L 451.500776 349.869491 
L 428.760931 349.869491 
z
" style="fill:#1f77b4;opacity:0.4;"/>
   </g>
   <g id="patch_66">
    <path clip-path="url(#p973df24415)" d="M 451.500776 363.721615 
L 474.240621 363.721615 
L 474.240621 349.869491 
L 451.500776 349.869491 
z
" style="fill:#1f77b4;opacity:0.4;"/>
   </g>
   <g id="patch_67">
    <path clip-path="url(#p973df24415)" d="M 474.240621 363.721615 
L 496.980466 363.721615 
L 496.980466 363.721615 
L 474.240621 363.721615 
z
" style="fill:#1f77b4;opacity:0.4;"/>
   </g>
   <g id="patch_68">
    <path clip-path="url(#p973df24415)" d="M 496.980466 363.721615 
L 519.72031 363.721615 
L 519.72031 356.795553 
L 496.980466 356.795553 
z
" style="fill:#1f77b4;opacity:0.4;"/>
   </g>
   <g id="patch_69">
    <path clip-path="url(#p973df24415)" d="M 519.72031 363.721615 
L 542.460155 363.721615 
L 542.460155 360.258584 
L 519.72031 360.258584 
z
" style="fill:#1f77b4;opacity:0.4;"/>
   </g>
   <g id="patch_70">
    <path clip-path="url(#p973df24415)" d="M 542.460155 363.721615 
L 565.2 363.721615 
L 565.2 360.258584 
L 542.460155 360.258584 
z
" style="fill:#1f77b4;opacity:0.4;"/>
   </g>
   <g id="patch_71">
    <path clip-path="url(#p973df24415)" d="M 205.69813 363.721615 
L 220.075107 363.721615 
L 220.075107 358.892058 
L 205.69813 358.892058 
z
" style="fill:#ff7f0e;opacity:0.4;"/>
   </g>
   <g id="patch_72">
    <path clip-path="url(#p973df24415)" d="M 220.075107 363.721615 
L 234.452083 363.721615 
L 234.452083 354.062502 
L 220.075107 354.062502 
z
" style="fill:#ff7f0e;opacity:0.4;"/>
   </g>
   <g id="patch_73">
    <path clip-path="url(#p973df24415)" d="M 234.452083 363.721615 
L 248.829059 363.721615 
L 248.829059 358.892058 
L 234.452083 358.892058 
z
" style="fill:#ff7f0e;opacity:0.4;"/>
   </g>
   <g id="patch_74">
    <path clip-path="url(#p973df24415)" d="M 248.829059 363.721615 
L 263.206035 363.721615 
L 263.206035 363.721615 
L 248.829059 363.721615 
z
" style="fill:#ff7f0e;opacity:0.4;"/>
   </g>
   <g id="patch_75">
    <path clip-path="url(#p973df24415)" d="M 263.206035 363.721615 
L 277.583011 363.721615 
L 277.583011 358.892058 
L 263.206035 358.892058 
z
" style="fill:#ff7f0e;opacity:0.4;"/>
   </g>
   <g id="patch_76">
    <path clip-path="url(#p973df24415)" d="M 277.583011 363.721615 
L 291.959988 363.721615 
L 291.959988 358.892058 
L 277.583011 358.892058 
z
" style="fill:#ff7f0e;opacity:0.4;"/>
   </g>
   <g id="patch_77">
    <path clip-path="url(#p973df24415)" d="M 291.959988 363.721615 
L 306.336964 363.721615 
L 306.336964 349.232946 
L 291.959988 349.232946 
z
" style="fill:#ff7f0e;opacity:0.4;"/>
   </g>
   <g id="patch_78">
    <path clip-path="url(#p973df24415)" d="M 306.336964 363.721615 
L 320.71394 363.721615 
L 320.71394 349.232946 
L 306.336964 349.232946 
z
" style="fill:#ff7f0e;opacity:0.4;"/>
   </g>
   <g id="patch_79">
    <path clip-path="url(#p973df24415)" d="M 320.71394 363.721615 
L 335.090916 363.721615 
L 335.090916 349.232946 
L 320.71394 349.232946 
z
" style="fill:#ff7f0e;opacity:0.4;"/>
   </g>
   <g id="patch_80">
    <path clip-path="url(#p973df24415)" d="M 335.090916 363.721615 
L 349.467892 363.721615 
L 349.467892 358.892058 
L 335.090916 358.892058 
z
" style="fill:#ff7f0e;opacity:0.4;"/>
   </g>
   <g id="patch_81">
    <path clip-path="url(#p973df24415)" d="M 349.467892 363.721615 
L 363.844869 363.721615 
L 363.844869 349.232946 
L 349.467892 349.232946 
z
" style="fill:#ff7f0e;opacity:0.4;"/>
   </g>
   <g id="patch_82">
    <path clip-path="url(#p973df24415)" d="M 363.844869 363.721615 
L 378.221845 363.721615 
L 378.221845 349.232946 
L 363.844869 349.232946 
z
" style="fill:#ff7f0e;opacity:0.4;"/>
   </g>
   <g id="patch_83">
    <path clip-path="url(#p973df24415)" d="M 378.221845 363.721615 
L 392.598821 363.721615 
L 392.598821 349.232946 
L 378.221845 349.232946 
z
" style="fill:#ff7f0e;opacity:0.4;"/>
   </g>
   <g id="patch_84">
    <path clip-path="url(#p973df24415)" d="M 392.598821 363.721615 
L 406.975797 363.721615 
L 406.975797 296.107828 
L 392.598821 296.107828 
z
" style="fill:#ff7f0e;opacity:0.4;"/>
   </g>
   <g id="patch_85">
    <path clip-path="url(#p973df24415)" d="M 406.975797 363.721615 
L 421.352773 363.721615 
L 421.352773 252.641822 
L 406.975797 252.641822 
z
" style="fill:#ff7f0e;opacity:0.4;"/>
   </g>
   <g id="patch_86">
    <path clip-path="url(#p973df24415)" d="M 421.352773 363.721615 
L 435.72975 363.721615 
L 435.72975 310.596497 
L 421.352773 310.596497 
z
" style="fill:#ff7f0e;opacity:0.4;"/>
   </g>
   <g id="patch_87">
    <path clip-path="url(#p973df24415)" d="M 435.72975 363.721615 
L 450.106726 363.721615 
L 450.106726 329.914721 
L 435.72975 329.914721 
z
" style="fill:#ff7f0e;opacity:0.4;"/>
   </g>
   <g id="patch_88">
    <path clip-path="url(#p973df24415)" d="M 450.106726 363.721615 
L 464.483702 363.721615 
L 464.483702 329.914721 
L 450.106726 329.914721 
z
" style="fill:#ff7f0e;opacity:0.4;"/>
   </g>
   <g id="patch_89">
    <path clip-path="url(#p973df24415)" d="M 464.483702 363.721615 
L 478.860678 363.721615 
L 478.860678 354.062502 
L 464.483702 354.062502 
z
" style="fill:#ff7f0e;opacity:0.4;"/>
   </g>
   <g id="patch_90">
    <path clip-path="url(#p973df24415)" d="M 478.860678 363.721615 
L 493.237654 363.721615 
L 493.237654 344.40339 
L 478.860678 344.40339 
z
" style="fill:#ff7f0e;opacity:0.4;"/>
   </g>
   <g id="matplotlib.axis_3">
    <g id="xtick_10">
     <g id="line2d_18">
      <g>
       <use style="stroke:#000000;stroke-width:0.8;" x="73.61825" xlink:href="#m400f41bc9d" y="363.721615"/>
      </g>
     </g>
    </g>
    <g id="xtick_11">
     <g id="line2d_19">
      <g>
       <use style="stroke:#000000;stroke-width:0.8;" x="132.265636" xlink:href="#m400f41bc9d" y="363.721615"/>
      </g>
     </g>
    </g>
    <g id="xtick_12">
     <g id="line2d_20">
      <g>
       <use style="stroke:#000000;stroke-width:0.8;" x="190.913023" xlink:href="#m400f41bc9d" y="363.721615"/>
      </g>
     </g>
    </g>
    <g id="xtick_13">
     <g id="line2d_21">
      <g>
       <use style="stroke:#000000;stroke-width:0.8;" x="249.560409" xlink:href="#m400f41bc9d" y="363.721615"/>
      </g>
     </g>
    </g>
    <g id="xtick_14">
     <g id="line2d_22">
      <g>
       <use style="stroke:#000000;stroke-width:0.8;" x="308.207795" xlink:href="#m400f41bc9d" y="363.721615"/>
      </g>
     </g>
    </g>
    <g id="xtick_15">
     <g id="line2d_23">
      <g>
       <use style="stroke:#000000;stroke-width:0.8;" x="366.855181" xlink:href="#m400f41bc9d" y="363.721615"/>
      </g>
     </g>
    </g>
    <g id="xtick_16">
     <g id="line2d_24">
      <g>
       <use style="stroke:#000000;stroke-width:0.8;" x="425.502568" xlink:href="#m400f41bc9d" y="363.721615"/>
      </g>
     </g>
    </g>
    <g id="xtick_17">
     <g id="line2d_25">
      <g>
       <use style="stroke:#000000;stroke-width:0.8;" x="484.149954" xlink:href="#m400f41bc9d" y="363.721615"/>
      </g>
     </g>
    </g>
    <g id="xtick_18">
     <g id="line2d_26">
      <g>
       <use style="stroke:#000000;stroke-width:0.8;" x="542.79734" xlink:href="#m400f41bc9d" y="363.721615"/>
      </g>
     </g>
    </g>
   </g>
   <g id="matplotlib.axis_4">
    <g id="ytick_7">
     <g id="line2d_27">
      <g>
       <use style="stroke:#000000;stroke-width:0.8;" x="41.711875" xlink:href="#m959487d647" y="363.721615"/>
      </g>
     </g>
     <g id="text_11">
      <!-- 0 -->
      <g transform="translate(28.349375 367.520833)scale(0.1 -0.1)">
       <use xlink:href="#DejaVuSans-48"/>
      </g>
     </g>
    </g>
    <g id="ytick_8">
     <g id="line2d_28">
      <g>
       <use style="stroke:#000000;stroke-width:0.8;" x="41.711875" xlink:href="#m959487d647" y="336.195236"/>
      </g>
     </g>
     <g id="text_12">
      <!-- 1 -->
      <g transform="translate(28.349375 339.994455)scale(0.1 -0.1)">
       <use xlink:href="#DejaVuSans-49"/>
      </g>
     </g>
    </g>
    <g id="ytick_9">
     <g id="line2d_29">
      <g>
       <use style="stroke:#000000;stroke-width:0.8;" x="41.711875" xlink:href="#m959487d647" y="308.668858"/>
      </g>
     </g>
     <g id="text_13">
      <!-- 2 -->
      <g transform="translate(28.349375 312.468077)scale(0.1 -0.1)">
       <use xlink:href="#DejaVuSans-50"/>
      </g>
     </g>
    </g>
    <g id="ytick_10">
     <g id="line2d_30">
      <g>
       <use style="stroke:#000000;stroke-width:0.8;" x="41.711875" xlink:href="#m959487d647" y="281.14248"/>
      </g>
     </g>
     <g id="text_14">
      <!-- 3 -->
      <g transform="translate(28.349375 284.941699)scale(0.1 -0.1)">
       <use xlink:href="#DejaVuSans-51"/>
      </g>
     </g>
    </g>
    <g id="ytick_11">
     <g id="line2d_31">
      <g>
       <use style="stroke:#000000;stroke-width:0.8;" x="41.711875" xlink:href="#m959487d647" y="253.616102"/>
      </g>
     </g>
     <g id="text_15">
      <!-- 4 -->
      <g transform="translate(28.349375 257.415321)scale(0.1 -0.1)">
       <use xlink:href="#DejaVuSans-52"/>
      </g>
     </g>
    </g>
    <g id="ytick_12">
     <g id="line2d_32">
      <g>
       <use style="stroke:#000000;stroke-width:0.8;" x="41.711875" xlink:href="#m959487d647" y="226.089724"/>
      </g>
     </g>
     <g id="text_16">
      <!-- 5 -->
      <g transform="translate(28.349375 229.888943)scale(0.1 -0.1)">
       <use xlink:href="#DejaVuSans-53"/>
      </g>
     </g>
    </g>
    <g id="text_17">
     <!-- Fraction of cells -->
     <g transform="translate(21.437812 343.311562)rotate(-90)scale(0.14 -0.14)">
      <use xlink:href="#DejaVuSans-70"/>
      <use x="57.410156" xlink:href="#DejaVuSans-114"/>
      <use x="98.523438" xlink:href="#DejaVuSans-97"/>
      <use x="159.802734" xlink:href="#DejaVuSans-99"/>
      <use x="214.783203" xlink:href="#DejaVuSans-116"/>
      <use x="253.992188" xlink:href="#DejaVuSans-105"/>
      <use x="281.775391" xlink:href="#DejaVuSans-111"/>
      <use x="342.957031" xlink:href="#DejaVuSans-110"/>
      <use x="406.335938" xlink:href="#DejaVuSans-32"/>
      <use x="438.123047" xlink:href="#DejaVuSans-111"/>
      <use x="499.304688" xlink:href="#DejaVuSans-102"/>
      <use x="534.509766" xlink:href="#DejaVuSans-32"/>
      <use x="566.296875" xlink:href="#DejaVuSans-99"/>
      <use x="621.277344" xlink:href="#DejaVuSans-101"/>
      <use x="682.800781" xlink:href="#DejaVuSans-108"/>
      <use x="710.583984" xlink:href="#DejaVuSans-108"/>
      <use x="738.367188" xlink:href="#DejaVuSans-115"/>
     </g>
    </g>
   </g>
   <g id="line2d_33">
    <path clip-path="url(#p973df24415)" d="M -1 363.540414 
L 0.160918 363.530904 
L 9.639283 363.410519 
L 19.117649 363.230687 
L 28.596014 362.97191 
L 38.07438 362.613272 
L 47.552745 362.134712 
L 57.03111 361.520074 
L 66.509476 360.760605 
L 75.987841 359.858288 
L 85.466207 358.828286 
L 94.944572 357.699783 
L 104.422938 356.514751 
L 113.901303 355.324553 
L 123.379669 354.184816 
L 132.858034 353.149397 
L 142.3364 352.264496 
L 151.814765 351.56392 
L 161.293131 351.066166 
L 170.771496 350.773527 
L 180.249861 350.673018 
L 189.728227 350.738597 
L 199.206592 350.934182 
L 208.684958 351.217058 
L 218.163323 351.5415 
L 227.641689 351.862537 
L 237.120054 352.13966 
L 246.59842 352.340061 
L 256.076785 352.440731 
L 265.555151 352.428676 
L 275.033516 352.29884 
L 284.511882 352.049972 
L 293.990247 351.679541 
L 303.468612 351.179507 
L 312.946978 350.534951 
L 322.425343 349.727057 
L 331.903709 348.740681 
L 341.382074 347.575145 
L 350.86044 346.255382 
L 360.338805 344.839803 
L 369.817171 343.421604 
L 379.295536 342.121658 
L 388.773902 341.073452 
L 398.252267 340.402801 
L 407.730633 340.206825 
L 417.208998 340.53704 
L 426.687363 341.390539 
L 436.165729 342.711104 
L 445.644094 344.39963 
L 455.12246 346.331049 
L 464.600825 348.373691 
L 474.079191 350.406981 
L 483.557556 352.334345 
L 493.035922 354.089805 
L 502.514287 355.638406 
L 511.992653 356.971847 
L 521.471018 358.10137 
L 530.949384 359.049929 
L 540.427749 359.845211 
L 549.906114 360.514447 
L 559.38448 361.081252 
L 568.862845 361.564305 
L 577 361.918924 
" style="fill:none;stroke:#1f77b4;stroke-linecap:square;stroke-width:1.5;"/>
   </g>
   <g id="line2d_34">
    <path clip-path="url(#p973df24415)" d="M -1 363.721615 
L 0.160918 363.721615 
L 9.639283 363.721615 
L 19.117649 363.721615 
L 28.596014 363.721615 
L 38.07438 363.721615 
L 47.552745 363.721615 
L 57.03111 363.721615 
L 66.509476 363.721615 
L 75.987841 363.721614 
L 85.466207 363.721611 
L 94.944572 363.721591 
L 104.422938 363.721477 
L 113.901303 363.720921 
L 123.379669 363.718616 
L 132.858034 363.710495 
L 142.3364 363.686188 
L 151.814765 363.624259 
L 161.293131 363.489553 
L 170.771496 363.238028 
L 180.249861 362.831552 
L 189.728227 362.257389 
L 199.206592 361.543321 
L 208.684958 360.764112 
L 218.163323 360.03602 
L 227.641689 359.485573 
L 237.120054 359.182599 
L 246.59842 359.067891 
L 256.076785 358.94058 
L 265.555151 358.538254 
L 275.033516 357.668536 
L 284.511882 356.316736 
L 293.990247 354.677431 
L 303.468612 353.088548 
L 312.946978 351.874853 
L 322.425343 351.160716 
L 331.903709 350.753957 
L 341.382074 350.158244 
L 350.86044 348.670494 
L 360.338805 345.504975 
L 369.817171 340.000641 
L 379.295536 332.016514 
L 388.773902 322.401204 
L 398.252267 313.11075 
L 407.730633 306.606814 
L 417.208998 304.730853 
L 426.687363 307.798318 
L 436.165729 314.561898 
L 445.644094 323.004374 
L 455.12246 331.327914 
L 464.600825 338.524878 
L 474.079191 344.376499 
L 483.557556 349.115177 
L 493.035922 353.054003 
L 502.514287 356.363982 
L 511.992653 359.046115 
L 521.471018 361.041551 
L 530.949384 362.358147 
L 540.427749 363.113101 
L 549.906114 363.485287 
L 559.38448 363.642185 
L 568.862845 363.698598 
L 577 363.713434 
" style="fill:none;stroke:#ff7f0e;stroke-linecap:square;stroke-width:1.5;"/>
   </g>
   <g id="patch_91">
    <path d="M 41.711875 363.721615 
L 41.711875 212.238073 
" style="fill:none;stroke:#000000;stroke-linecap:square;stroke-linejoin:miter;stroke-width:0.8;"/>
   </g>
   <g id="patch_92">
    <path d="M 565.2 363.721615 
L 565.2 212.238073 
" style="fill:none;stroke:#000000;stroke-linecap:square;stroke-linejoin:miter;stroke-width:0.8;"/>
   </g>
   <g id="patch_93">
    <path d="M 41.711875 363.721615 
L 565.2 363.721615 
" style="fill:none;stroke:#000000;stroke-linecap:square;stroke-linejoin:miter;stroke-width:0.8;"/>
   </g>
   <g id="patch_94">
    <path d="M 41.711875 212.238073 
L 565.2 212.238073 
" style="fill:none;stroke:#000000;stroke-linecap:square;stroke-linejoin:miter;stroke-width:0.8;"/>
   </g>
   <g id="text_18">
    <!-- cytd cells -->
    <defs>
     <path d="M 32.171875 -5.078125 
Q 28.375 -14.84375 24.75 -17.8125 
Q 21.140625 -20.796875 15.09375 -20.796875 
L 7.90625 -20.796875 
L 7.90625 -13.28125 
L 13.1875 -13.28125 
Q 16.890625 -13.28125 18.9375 -11.515625 
Q 21 -9.765625 23.484375 -3.21875 
L 25.09375 0.875 
L 2.984375 54.6875 
L 12.5 54.6875 
L 29.59375 11.921875 
L 46.6875 54.6875 
L 56.203125 54.6875 
z
" id="DejaVuSans-121"/>
    </defs>
    <g transform="translate(270.359062 206.238073)scale(0.14 -0.14)">
     <use xlink:href="#DejaVuSans-99"/>
     <use x="54.980469" xlink:href="#DejaVuSans-121"/>
     <use x="114.160156" xlink:href="#DejaVuSans-116"/>
     <use x="153.369141" xlink:href="#DejaVuSans-100"/>
     <use x="216.845703" xlink:href="#DejaVuSans-32"/>
     <use x="248.632812" xlink:href="#DejaVuSans-99"/>
     <use x="303.613281" xlink:href="#DejaVuSans-101"/>
     <use x="365.136719" xlink:href="#DejaVuSans-108"/>
     <use x="392.919922" xlink:href="#DejaVuSans-108"/>
     <use x="420.703125" xlink:href="#DejaVuSans-115"/>
    </g>
   </g>
   <g id="legend_2">
    <g id="patch_95">
     <path d="M 487.966875 257.065573 
L 556.8 257.065573 
Q 559.2 257.065573 559.2 254.665573 
L 559.2 220.638073 
Q 559.2 218.238073 556.8 218.238073 
L 487.966875 218.238073 
Q 485.566875 218.238073 485.566875 220.638073 
L 485.566875 254.665573 
Q 485.566875 257.065573 487.966875 257.065573 
z
" style="fill:#ffffff;opacity:0.8;stroke:#cccccc;stroke-linejoin:miter;"/>
    </g>
    <g id="patch_96">
     <path d="M 490.366875 232.156198 
L 514.366875 232.156198 
L 514.366875 223.756198 
L 490.366875 223.756198 
z
" style="fill:#1f77b4;opacity:0.4;"/>
    </g>
    <g id="text_19">
     <!-- dlm8 -->
     <g transform="translate(523.966875 232.156198)scale(0.12 -0.12)">
      <use xlink:href="#DejaVuSans-100"/>
      <use x="63.476562" xlink:href="#DejaVuSans-108"/>
      <use x="91.259766" xlink:href="#DejaVuSans-109"/>
      <use x="188.671875" xlink:href="#DejaVuSans-56"/>
     </g>
    </g>
    <g id="patch_97">
     <path d="M 490.366875 249.769948 
L 514.366875 249.769948 
L 514.366875 241.369948 
L 490.366875 241.369948 
z
" style="fill:#ff7f0e;opacity:0.4;"/>
    </g>
    <g id="text_20">
     <!-- dunn -->
     <g transform="translate(523.966875 249.769948)scale(0.12 -0.12)">
      <use xlink:href="#DejaVuSans-100"/>
      <use x="63.476562" xlink:href="#DejaVuSans-117"/>
      <use x="126.855469" xlink:href="#DejaVuSans-110"/>
      <use x="190.234375" xlink:href="#DejaVuSans-110"/>
     </g>
    </g>
   </g>
  </g>
  <g id="axes_3">
   <g id="patch_98">
    <path d="M 41.711875 548.521875 
L 565.2 548.521875 
L 565.2 397.038333 
L 41.711875 397.038333 
z
" style="fill:#ffffff;"/>
   </g>
   <g id="patch_99">
    <path clip-path="url(#p0cba1c7810)" d="M 83.069604 548.521875 
L 99.844005 548.521875 
L 99.844005 517.477064 
L 83.069604 517.477064 
z
" style="fill:#1f77b4;opacity:0.4;"/>
   </g>
   <g id="patch_100">
    <path clip-path="url(#p0cba1c7810)" d="M 99.844005 548.521875 
L 116.618406 548.521875 
L 116.618406 505.05914 
L 99.844005 505.05914 
z
" style="fill:#1f77b4;opacity:0.4;"/>
   </g>
   <g id="patch_101">
    <path clip-path="url(#p0cba1c7810)" d="M 116.618406 548.521875 
L 133.392807 548.521875 
L 133.392807 511.268102 
L 116.618406 511.268102 
z
" style="fill:#1f77b4;opacity:0.4;"/>
   </g>
   <g id="patch_102">
    <path clip-path="url(#p0cba1c7810)" d="M 133.392807 548.521875 
L 150.167208 548.521875 
L 150.167208 517.477064 
L 133.392807 517.477064 
z
" style="fill:#1f77b4;opacity:0.4;"/>
   </g>
   <g id="patch_103">
    <path clip-path="url(#p0cba1c7810)" d="M 150.167208 548.521875 
L 166.941609 548.521875 
L 166.941609 529.894988 
L 150.167208 529.894988 
z
" style="fill:#1f77b4;opacity:0.4;"/>
   </g>
   <g id="patch_104">
    <path clip-path="url(#p0cba1c7810)" d="M 166.941609 548.521875 
L 183.71601 548.521875 
L 183.71601 542.312913 
L 166.941609 542.312913 
z
" style="fill:#1f77b4;opacity:0.4;"/>
   </g>
   <g id="patch_105">
    <path clip-path="url(#p0cba1c7810)" d="M 183.71601 548.521875 
L 200.490411 548.521875 
L 200.490411 548.521875 
L 183.71601 548.521875 
z
" style="fill:#1f77b4;opacity:0.4;"/>
   </g>
   <g id="patch_106">
    <path clip-path="url(#p0cba1c7810)" d="M 200.490411 548.521875 
L 217.264812 548.521875 
L 217.264812 536.103951 
L 200.490411 536.103951 
z
" style="fill:#1f77b4;opacity:0.4;"/>
   </g>
   <g id="patch_107">
    <path clip-path="url(#p0cba1c7810)" d="M 217.264812 548.521875 
L 234.039213 548.521875 
L 234.039213 548.521875 
L 217.264812 548.521875 
z
" style="fill:#1f77b4;opacity:0.4;"/>
   </g>
   <g id="patch_108">
    <path clip-path="url(#p0cba1c7810)" d="M 234.039213 548.521875 
L 250.813614 548.521875 
L 250.813614 536.103951 
L 234.039213 536.103951 
z
" style="fill:#1f77b4;opacity:0.4;"/>
   </g>
   <g id="patch_109">
    <path clip-path="url(#p0cba1c7810)" d="M 250.813614 548.521875 
L 267.588015 548.521875 
L 267.588015 548.521875 
L 250.813614 548.521875 
z
" style="fill:#1f77b4;opacity:0.4;"/>
   </g>
   <g id="patch_110">
    <path clip-path="url(#p0cba1c7810)" d="M 267.588015 548.521875 
L 284.362416 548.521875 
L 284.362416 536.103951 
L 267.588015 536.103951 
z
" style="fill:#1f77b4;opacity:0.4;"/>
   </g>
   <g id="patch_111">
    <path clip-path="url(#p0cba1c7810)" d="M 284.362416 548.521875 
L 301.136817 548.521875 
L 301.136817 548.521875 
L 284.362416 548.521875 
z
" style="fill:#1f77b4;opacity:0.4;"/>
   </g>
   <g id="patch_112">
    <path clip-path="url(#p0cba1c7810)" d="M 301.136817 548.521875 
L 317.911218 548.521875 
L 317.911218 548.521875 
L 301.136817 548.521875 
z
" style="fill:#1f77b4;opacity:0.4;"/>
   </g>
   <g id="patch_113">
    <path clip-path="url(#p0cba1c7810)" d="M 317.911218 548.521875 
L 334.685619 548.521875 
L 334.685619 542.312913 
L 317.911218 542.312913 
z
" style="fill:#1f77b4;opacity:0.4;"/>
   </g>
   <g id="patch_114">
    <path clip-path="url(#p0cba1c7810)" d="M 334.685619 548.521875 
L 351.46002 548.521875 
L 351.46002 542.312913 
L 334.685619 542.312913 
z
" style="fill:#1f77b4;opacity:0.4;"/>
   </g>
   <g id="patch_115">
    <path clip-path="url(#p0cba1c7810)" d="M 351.46002 548.521875 
L 368.234421 548.521875 
L 368.234421 536.103951 
L 351.46002 536.103951 
z
" style="fill:#1f77b4;opacity:0.4;"/>
   </g>
   <g id="patch_116">
    <path clip-path="url(#p0cba1c7810)" d="M 368.234421 548.521875 
L 385.008822 548.521875 
L 385.008822 529.894988 
L 368.234421 529.894988 
z
" style="fill:#1f77b4;opacity:0.4;"/>
   </g>
   <g id="patch_117">
    <path clip-path="url(#p0cba1c7810)" d="M 385.008822 548.521875 
L 401.783223 548.521875 
L 401.783223 529.894988 
L 385.008822 529.894988 
z
" style="fill:#1f77b4;opacity:0.4;"/>
   </g>
   <g id="patch_118">
    <path clip-path="url(#p0cba1c7810)" d="M 401.783223 548.521875 
L 418.557624 548.521875 
L 418.557624 430.551594 
L 401.783223 430.551594 
z
" style="fill:#1f77b4;opacity:0.4;"/>
   </g>
   <g id="patch_119">
    <path clip-path="url(#p0cba1c7810)" d="M 140.409778 548.521875 
L 155.162124 548.521875 
L 155.162124 543.914293 
L 140.409778 543.914293 
z
" style="fill:#ff7f0e;opacity:0.4;"/>
   </g>
   <g id="patch_120">
    <path clip-path="url(#p0cba1c7810)" d="M 155.162124 548.521875 
L 169.914469 548.521875 
L 169.914469 539.306712 
L 155.162124 539.306712 
z
" style="fill:#ff7f0e;opacity:0.4;"/>
   </g>
   <g id="patch_121">
    <path clip-path="url(#p0cba1c7810)" d="M 169.914469 548.521875 
L 184.666815 548.521875 
L 184.666815 548.521875 
L 169.914469 548.521875 
z
" style="fill:#ff7f0e;opacity:0.4;"/>
   </g>
   <g id="patch_122">
    <path clip-path="url(#p0cba1c7810)" d="M 184.666815 548.521875 
L 199.419161 548.521875 
L 199.419161 543.914293 
L 184.666815 543.914293 
z
" style="fill:#ff7f0e;opacity:0.4;"/>
   </g>
   <g id="patch_123">
    <path clip-path="url(#p0cba1c7810)" d="M 199.419161 548.521875 
L 214.171506 548.521875 
L 214.171506 539.306712 
L 199.419161 539.306712 
z
" style="fill:#ff7f0e;opacity:0.4;"/>
   </g>
   <g id="patch_124">
    <path clip-path="url(#p0cba1c7810)" d="M 214.171506 548.521875 
L 228.923852 548.521875 
L 228.923852 530.091548 
L 214.171506 530.091548 
z
" style="fill:#ff7f0e;opacity:0.4;"/>
   </g>
   <g id="patch_125">
    <path clip-path="url(#p0cba1c7810)" d="M 228.923852 548.521875 
L 243.676197 548.521875 
L 243.676197 525.483967 
L 228.923852 525.483967 
z
" style="fill:#ff7f0e;opacity:0.4;"/>
   </g>
   <g id="patch_126">
    <path clip-path="url(#p0cba1c7810)" d="M 243.676197 548.521875 
L 258.428543 548.521875 
L 258.428543 543.914293 
L 243.676197 543.914293 
z
" style="fill:#ff7f0e;opacity:0.4;"/>
   </g>
   <g id="patch_127">
    <path clip-path="url(#p0cba1c7810)" d="M 258.428543 548.521875 
L 273.180888 548.521875 
L 273.180888 530.091548 
L 258.428543 530.091548 
z
" style="fill:#ff7f0e;opacity:0.4;"/>
   </g>
   <g id="patch_128">
    <path clip-path="url(#p0cba1c7810)" d="M 273.180888 548.521875 
L 287.933234 548.521875 
L 287.933234 502.446058 
L 273.180888 502.446058 
z
" style="fill:#ff7f0e;opacity:0.4;"/>
   </g>
   <g id="patch_129">
    <path clip-path="url(#p0cba1c7810)" d="M 287.933234 548.521875 
L 302.685579 548.521875 
L 302.685579 507.05364 
L 287.933234 507.05364 
z
" style="fill:#ff7f0e;opacity:0.4;"/>
   </g>
   <g id="patch_130">
    <path clip-path="url(#p0cba1c7810)" d="M 302.685579 548.521875 
L 317.437925 548.521875 
L 317.437925 530.091548 
L 302.685579 530.091548 
z
" style="fill:#ff7f0e;opacity:0.4;"/>
   </g>
   <g id="patch_131">
    <path clip-path="url(#p0cba1c7810)" d="M 317.437925 548.521875 
L 332.19027 548.521875 
L 332.19027 539.306712 
L 317.437925 539.306712 
z
" style="fill:#ff7f0e;opacity:0.4;"/>
   </g>
   <g id="patch_132">
    <path clip-path="url(#p0cba1c7810)" d="M 332.19027 548.521875 
L 346.942616 548.521875 
L 346.942616 543.914293 
L 332.19027 543.914293 
z
" style="fill:#ff7f0e;opacity:0.4;"/>
   </g>
   <g id="patch_133">
    <path clip-path="url(#p0cba1c7810)" d="M 346.942616 548.521875 
L 361.694962 548.521875 
L 361.694962 534.69913 
L 346.942616 534.69913 
z
" style="fill:#ff7f0e;opacity:0.4;"/>
   </g>
   <g id="patch_134">
    <path clip-path="url(#p0cba1c7810)" d="M 361.694962 548.521875 
L 376.447307 548.521875 
L 376.447307 539.306712 
L 361.694962 539.306712 
z
" style="fill:#ff7f0e;opacity:0.4;"/>
   </g>
   <g id="patch_135">
    <path clip-path="url(#p0cba1c7810)" d="M 376.447307 548.521875 
L 391.199653 548.521875 
L 391.199653 548.521875 
L 376.447307 548.521875 
z
" style="fill:#ff7f0e;opacity:0.4;"/>
   </g>
   <g id="patch_136">
    <path clip-path="url(#p0cba1c7810)" d="M 391.199653 548.521875 
L 405.951998 548.521875 
L 405.951998 451.76266 
L 391.199653 451.76266 
z
" style="fill:#ff7f0e;opacity:0.4;"/>
   </g>
   <g id="patch_137">
    <path clip-path="url(#p0cba1c7810)" d="M 405.951998 548.521875 
L 420.704344 548.521875 
L 420.704344 456.370241 
L 405.951998 456.370241 
z
" style="fill:#ff7f0e;opacity:0.4;"/>
   </g>
   <g id="patch_138">
    <path clip-path="url(#p0cba1c7810)" d="M 420.704344 548.521875 
L 435.456689 548.521875 
L 435.456689 534.69913 
L 420.704344 534.69913 
z
" style="fill:#ff7f0e;opacity:0.4;"/>
   </g>
   <g id="matplotlib.axis_5">
    <g id="xtick_19">
     <g id="line2d_35">
      <g>
       <use style="stroke:#000000;stroke-width:0.8;" x="73.61825" xlink:href="#m400f41bc9d" y="548.521875"/>
      </g>
     </g>
     <g id="text_21">
      <!-- 1.00 -->
      <defs>
       <path d="M 10.6875 12.40625 
L 21 12.40625 
L 21 0 
L 10.6875 0 
z
" id="DejaVuSans-46"/>
      </defs>
      <g transform="translate(62.485438 563.120312)scale(0.1 -0.1)">
       <use xlink:href="#DejaVuSans-49"/>
       <use x="63.623047" xlink:href="#DejaVuSans-46"/>
       <use x="95.410156" xlink:href="#DejaVuSans-48"/>
       <use x="159.033203" xlink:href="#DejaVuSans-48"/>
      </g>
     </g>
    </g>
    <g id="xtick_20">
     <g id="line2d_36">
      <g>
       <use style="stroke:#000000;stroke-width:0.8;" x="132.265636" xlink:href="#m400f41bc9d" y="548.521875"/>
      </g>
     </g>
     <g id="text_22">
      <!-- 1.25 -->
      <g transform="translate(121.132824 563.120312)scale(0.1 -0.1)">
       <use xlink:href="#DejaVuSans-49"/>
       <use x="63.623047" xlink:href="#DejaVuSans-46"/>
       <use x="95.410156" xlink:href="#DejaVuSans-50"/>
       <use x="159.033203" xlink:href="#DejaVuSans-53"/>
      </g>
     </g>
    </g>
    <g id="xtick_21">
     <g id="line2d_37">
      <g>
       <use style="stroke:#000000;stroke-width:0.8;" x="190.913023" xlink:href="#m400f41bc9d" y="548.521875"/>
      </g>
     </g>
     <g id="text_23">
      <!-- 1.50 -->
      <g transform="translate(179.78021 563.120312)scale(0.1 -0.1)">
       <use xlink:href="#DejaVuSans-49"/>
       <use x="63.623047" xlink:href="#DejaVuSans-46"/>
       <use x="95.410156" xlink:href="#DejaVuSans-53"/>
       <use x="159.033203" xlink:href="#DejaVuSans-48"/>
      </g>
     </g>
    </g>
    <g id="xtick_22">
     <g id="line2d_38">
      <g>
       <use style="stroke:#000000;stroke-width:0.8;" x="249.560409" xlink:href="#m400f41bc9d" y="548.521875"/>
      </g>
     </g>
     <g id="text_24">
      <!-- 1.75 -->
      <defs>
       <path d="M 8.203125 72.90625 
L 55.078125 72.90625 
L 55.078125 68.703125 
L 28.609375 0 
L 18.3125 0 
L 43.21875 64.59375 
L 8.203125 64.59375 
z
" id="DejaVuSans-55"/>
      </defs>
      <g transform="translate(238.427596 563.120312)scale(0.1 -0.1)">
       <use xlink:href="#DejaVuSans-49"/>
       <use x="63.623047" xlink:href="#DejaVuSans-46"/>
       <use x="95.410156" xlink:href="#DejaVuSans-55"/>
       <use x="159.033203" xlink:href="#DejaVuSans-53"/>
      </g>
     </g>
    </g>
    <g id="xtick_23">
     <g id="line2d_39">
      <g>
       <use style="stroke:#000000;stroke-width:0.8;" x="308.207795" xlink:href="#m400f41bc9d" y="548.521875"/>
      </g>
     </g>
     <g id="text_25">
      <!-- 2.00 -->
      <g transform="translate(297.074983 563.120312)scale(0.1 -0.1)">
       <use xlink:href="#DejaVuSans-50"/>
       <use x="63.623047" xlink:href="#DejaVuSans-46"/>
       <use x="95.410156" xlink:href="#DejaVuSans-48"/>
       <use x="159.033203" xlink:href="#DejaVuSans-48"/>
      </g>
     </g>
    </g>
    <g id="xtick_24">
     <g id="line2d_40">
      <g>
       <use style="stroke:#000000;stroke-width:0.8;" x="366.855181" xlink:href="#m400f41bc9d" y="548.521875"/>
      </g>
     </g>
     <g id="text_26">
      <!-- 2.25 -->
      <g transform="translate(355.722369 563.120312)scale(0.1 -0.1)">
       <use xlink:href="#DejaVuSans-50"/>
       <use x="63.623047" xlink:href="#DejaVuSans-46"/>
       <use x="95.410156" xlink:href="#DejaVuSans-50"/>
       <use x="159.033203" xlink:href="#DejaVuSans-53"/>
      </g>
     </g>
    </g>
    <g id="xtick_25">
     <g id="line2d_41">
      <g>
       <use style="stroke:#000000;stroke-width:0.8;" x="425.502568" xlink:href="#m400f41bc9d" y="548.521875"/>
      </g>
     </g>
     <g id="text_27">
      <!-- 2.50 -->
      <g transform="translate(414.369755 563.120312)scale(0.1 -0.1)">
       <use xlink:href="#DejaVuSans-50"/>
       <use x="63.623047" xlink:href="#DejaVuSans-46"/>
       <use x="95.410156" xlink:href="#DejaVuSans-53"/>
       <use x="159.033203" xlink:href="#DejaVuSans-48"/>
      </g>
     </g>
    </g>
    <g id="xtick_26">
     <g id="line2d_42">
      <g>
       <use style="stroke:#000000;stroke-width:0.8;" x="484.149954" xlink:href="#m400f41bc9d" y="548.521875"/>
      </g>
     </g>
     <g id="text_28">
      <!-- 2.75 -->
      <g transform="translate(473.017142 563.120312)scale(0.1 -0.1)">
       <use xlink:href="#DejaVuSans-50"/>
       <use x="63.623047" xlink:href="#DejaVuSans-46"/>
       <use x="95.410156" xlink:href="#DejaVuSans-55"/>
       <use x="159.033203" xlink:href="#DejaVuSans-53"/>
      </g>
     </g>
    </g>
    <g id="xtick_27">
     <g id="line2d_43">
      <g>
       <use style="stroke:#000000;stroke-width:0.8;" x="542.79734" xlink:href="#m400f41bc9d" y="548.521875"/>
      </g>
     </g>
     <g id="text_29">
      <!-- 3.00 -->
      <g transform="translate(531.664528 563.120312)scale(0.1 -0.1)">
       <use xlink:href="#DejaVuSans-51"/>
       <use x="63.623047" xlink:href="#DejaVuSans-46"/>
       <use x="95.410156" xlink:href="#DejaVuSans-48"/>
       <use x="159.033203" xlink:href="#DejaVuSans-48"/>
      </g>
     </g>
    </g>
   </g>
   <g id="matplotlib.axis_6">
    <g id="ytick_13">
     <g id="line2d_44">
      <g>
       <use style="stroke:#000000;stroke-width:0.8;" x="41.711875" xlink:href="#m959487d647" y="548.521875"/>
      </g>
     </g>
     <g id="text_30">
      <!-- 0 -->
      <g transform="translate(28.349375 552.321094)scale(0.1 -0.1)">
       <use xlink:href="#DejaVuSans-48"/>
      </g>
     </g>
    </g>
    <g id="ytick_14">
     <g id="line2d_45">
      <g>
       <use style="stroke:#000000;stroke-width:0.8;" x="41.711875" xlink:href="#m959487d647" y="520.995497"/>
      </g>
     </g>
     <g id="text_31">
      <!-- 1 -->
      <g transform="translate(28.349375 524.794716)scale(0.1 -0.1)">
       <use xlink:href="#DejaVuSans-49"/>
      </g>
     </g>
    </g>
    <g id="ytick_15">
     <g id="line2d_46">
      <g>
       <use style="stroke:#000000;stroke-width:0.8;" x="41.711875" xlink:href="#m959487d647" y="493.469119"/>
      </g>
     </g>
     <g id="text_32">
      <!-- 2 -->
      <g transform="translate(28.349375 497.268337)scale(0.1 -0.1)">
       <use xlink:href="#DejaVuSans-50"/>
      </g>
     </g>
    </g>
    <g id="ytick_16">
     <g id="line2d_47">
      <g>
       <use style="stroke:#000000;stroke-width:0.8;" x="41.711875" xlink:href="#m959487d647" y="465.942741"/>
      </g>
     </g>
     <g id="text_33">
      <!-- 3 -->
      <g transform="translate(28.349375 469.741959)scale(0.1 -0.1)">
       <use xlink:href="#DejaVuSans-51"/>
      </g>
     </g>
    </g>
    <g id="ytick_17">
     <g id="line2d_48">
      <g>
       <use style="stroke:#000000;stroke-width:0.8;" x="41.711875" xlink:href="#m959487d647" y="438.416362"/>
      </g>
     </g>
     <g id="text_34">
      <!-- 4 -->
      <g transform="translate(28.349375 442.215581)scale(0.1 -0.1)">
       <use xlink:href="#DejaVuSans-52"/>
      </g>
     </g>
    </g>
    <g id="ytick_18">
     <g id="line2d_49">
      <g>
       <use style="stroke:#000000;stroke-width:0.8;" x="41.711875" xlink:href="#m959487d647" y="410.889984"/>
      </g>
     </g>
     <g id="text_35">
      <!-- 5 -->
      <g transform="translate(28.349375 414.689203)scale(0.1 -0.1)">
       <use xlink:href="#DejaVuSans-53"/>
      </g>
     </g>
    </g>
    <g id="text_36">
     <!-- Fraction of cells -->
     <g transform="translate(21.437812 528.111823)rotate(-90)scale(0.14 -0.14)">
      <use xlink:href="#DejaVuSans-70"/>
      <use x="57.410156" xlink:href="#DejaVuSans-114"/>
      <use x="98.523438" xlink:href="#DejaVuSans-97"/>
      <use x="159.802734" xlink:href="#DejaVuSans-99"/>
      <use x="214.783203" xlink:href="#DejaVuSans-116"/>
      <use x="253.992188" xlink:href="#DejaVuSans-105"/>
      <use x="281.775391" xlink:href="#DejaVuSans-111"/>
      <use x="342.957031" xlink:href="#DejaVuSans-110"/>
      <use x="406.335938" xlink:href="#DejaVuSans-32"/>
      <use x="438.123047" xlink:href="#DejaVuSans-111"/>
      <use x="499.304688" xlink:href="#DejaVuSans-102"/>
      <use x="534.509766" xlink:href="#DejaVuSans-32"/>
      <use x="566.296875" xlink:href="#DejaVuSans-99"/>
      <use x="621.277344" xlink:href="#DejaVuSans-101"/>
      <use x="682.800781" xlink:href="#DejaVuSans-108"/>
      <use x="710.583984" xlink:href="#DejaVuSans-108"/>
      <use x="738.367188" xlink:href="#DejaVuSans-115"/>
     </g>
    </g>
   </g>
   <g id="line2d_50">
    <path clip-path="url(#p0cba1c7810)" d="M -1 546.036745 
L 0.160918 545.952321 
L 9.639283 545.092611 
L 19.117649 544.051903 
L 28.596014 542.830349 
L 38.07438 541.441779 
L 47.552745 539.915694 
L 57.03111 538.297723 
L 66.509476 536.648173 
L 75.987841 535.038499 
L 85.466207 533.545913 
L 94.944572 532.246642 
L 104.422938 531.208671 
L 113.901303 530.484953 
L 123.379669 530.108058 
L 132.858034 530.08703 
L 142.3364 530.40691 
L 151.814765 531.030914 
L 161.293131 531.904866 
L 170.771496 532.963146 
L 180.249861 534.135214 
L 189.728227 535.351764 
L 199.206592 536.549734 
L 208.684958 537.675624 
L 218.163323 538.686969 
L 227.641689 539.552072 
L 237.120054 540.248426 
L 246.59842 540.760385 
L 256.076785 541.076723 
L 265.555151 541.188691 
L 275.033516 541.089012 
L 284.511882 540.77212 
L 293.990247 540.235659 
L 303.468612 539.483057 
L 312.946978 538.526737 
L 322.425343 537.391352 
L 331.903709 536.116304 
L 341.382074 534.756835 
L 350.86044 533.383077 
L 360.338805 532.076726 
L 369.817171 530.925383 
L 379.295536 530.015032 
L 388.773902 529.421551 
L 398.252267 529.202427 
L 407.730633 529.389964 
L 417.208998 529.987124 
L 426.687363 530.966744 
L 436.165729 532.27436 
L 445.644094 533.834224 
L 455.12246 535.557587 
L 464.600825 537.351984 
L 474.079191 539.13014 
L 483.557556 540.817315 
L 493.035922 542.35626 
L 502.514287 543.709454 
L 511.992653 544.85876 
L 521.471018 545.803022 
L 530.949384 546.554334 
L 540.427749 547.13376 
L 549.906114 547.567201 
L 559.38448 547.881872 
L 568.862845 548.10368 
L 577 548.234056 
" style="fill:none;stroke:#1f77b4;stroke-linecap:square;stroke-width:1.5;"/>
   </g>
   <g id="line2d_51">
    <path clip-path="url(#p0cba1c7810)" d="M -1 548.521841 
L 0.160918 548.521837 
L 9.639283 548.521731 
L 19.117649 548.521371 
L 28.596014 548.520268 
L 38.07438 548.517178 
L 47.552745 548.509292 
L 57.03111 548.490948 
L 66.509476 548.452064 
L 75.987841 548.376974 
L 85.466207 548.244903 
L 94.944572 548.033405 
L 104.422938 547.725002 
L 113.901303 547.314966 
L 123.379669 546.815616 
L 132.858034 546.251993 
L 142.3364 545.647126 
L 151.814765 545.002047 
L 161.293131 544.282055 
L 170.771496 543.420877 
L 180.249861 542.345475 
L 189.728227 541.010033 
L 199.206592 539.418116 
L 208.684958 537.616425 
L 218.163323 535.662731 
L 227.641689 533.592974 
L 237.120054 531.420047 
L 246.59842 529.177998 
L 256.076785 526.98837 
L 265.555151 525.096654 
L 275.033516 523.833366 
L 284.511882 523.498545 
L 293.990247 524.221469 
L 303.468612 525.868914 
L 312.946978 528.048203 
L 322.425343 530.196358 
L 331.903709 531.706087 
L 341.382074 532.041365 
L 350.86044 530.831555 
L 360.338805 527.96439 
L 369.817171 523.687334 
L 379.295536 518.675113 
L 388.773902 513.977371 
L 398.252267 510.785302 
L 407.730633 510.060135 
L 417.208998 512.181513 
L 426.687363 516.800975 
L 436.165729 522.985664 
L 445.644094 529.575068 
L 455.12246 535.565691 
L 464.600825 540.353395 
L 474.079191 543.770902 
L 483.557556 545.970996 
L 493.035922 547.256736 
L 502.514287 547.941981 
L 511.992653 548.276147 
L 521.471018 548.425607 
L 530.949384 548.487014 
L 540.427749 548.510212 
L 549.906114 548.518273 
L 559.38448 548.520849 
L 568.862845 548.521606 
L 577 548.521781 
" style="fill:none;stroke:#ff7f0e;stroke-linecap:square;stroke-width:1.5;"/>
   </g>
   <g id="patch_139">
    <path d="M 41.711875 548.521875 
L 41.711875 397.038333 
" style="fill:none;stroke:#000000;stroke-linecap:square;stroke-linejoin:miter;stroke-width:0.8;"/>
   </g>
   <g id="patch_140">
    <path d="M 565.2 548.521875 
L 565.2 397.038333 
" style="fill:none;stroke:#000000;stroke-linecap:square;stroke-linejoin:miter;stroke-width:0.8;"/>
   </g>
   <g id="patch_141">
    <path d="M 41.711875 548.521875 
L 565.2 548.521875 
" style="fill:none;stroke:#000000;stroke-linecap:square;stroke-linejoin:miter;stroke-width:0.8;"/>
   </g>
   <g id="patch_142">
    <path d="M 41.711875 397.038333 
L 565.2 397.038333 
" style="fill:none;stroke:#000000;stroke-linecap:square;stroke-linejoin:miter;stroke-width:0.8;"/>
   </g>
   <g id="text_37">
    <!-- jasp cells -->
    <defs>
     <path d="M 9.421875 54.6875 
L 18.40625 54.6875 
L 18.40625 -0.984375 
Q 18.40625 -11.421875 14.421875 -16.109375 
Q 10.453125 -20.796875 1.609375 -20.796875 
L -1.8125 -20.796875 
L -1.8125 -13.1875 
L 0.59375 -13.1875 
Q 5.71875 -13.1875 7.5625 -10.8125 
Q 9.421875 -8.453125 9.421875 -0.984375 
z
M 9.421875 75.984375 
L 18.40625 75.984375 
L 18.40625 64.59375 
L 9.421875 64.59375 
z
" id="DejaVuSans-106"/>
     <path d="M 18.109375 8.203125 
L 18.109375 -20.796875 
L 9.078125 -20.796875 
L 9.078125 54.6875 
L 18.109375 54.6875 
L 18.109375 46.390625 
Q 20.953125 51.265625 25.265625 53.625 
Q 29.59375 56 35.59375 56 
Q 45.5625 56 51.78125 48.09375 
Q 58.015625 40.1875 58.015625 27.296875 
Q 58.015625 14.40625 51.78125 6.484375 
Q 45.5625 -1.421875 35.59375 -1.421875 
Q 29.59375 -1.421875 25.265625 0.953125 
Q 20.953125 3.328125 18.109375 8.203125 
z
M 48.6875 27.296875 
Q 48.6875 37.203125 44.609375 42.84375 
Q 40.53125 48.484375 33.40625 48.484375 
Q 26.265625 48.484375 22.1875 42.84375 
Q 18.109375 37.203125 18.109375 27.296875 
Q 18.109375 17.390625 22.1875 11.75 
Q 26.265625 6.109375 33.40625 6.109375 
Q 40.53125 6.109375 44.609375 11.75 
Q 48.6875 17.390625 48.6875 27.296875 
z
" id="DejaVuSans-112"/>
    </defs>
    <g transform="translate(271.214375 391.038333)scale(0.14 -0.14)">
     <use xlink:href="#DejaVuSans-106"/>
     <use x="27.783203" xlink:href="#DejaVuSans-97"/>
     <use x="89.0625" xlink:href="#DejaVuSans-115"/>
     <use x="141.162109" xlink:href="#DejaVuSans-112"/>
     <use x="204.638672" xlink:href="#DejaVuSans-32"/>
     <use x="236.425781" xlink:href="#DejaVuSans-99"/>
     <use x="291.40625" xlink:href="#DejaVuSans-101"/>
     <use x="352.929688" xlink:href="#DejaVuSans-108"/>
     <use x="380.712891" xlink:href="#DejaVuSans-108"/>
     <use x="408.496094" xlink:href="#DejaVuSans-115"/>
    </g>
   </g>
   <g id="legend_3">
    <g id="patch_143">
     <path d="M 487.966875 441.865833 
L 556.8 441.865833 
Q 559.2 441.865833 559.2 439.465833 
L 559.2 405.438333 
Q 559.2 403.038333 556.8 403.038333 
L 487.966875 403.038333 
Q 485.566875 403.038333 485.566875 405.438333 
L 485.566875 439.465833 
Q 485.566875 441.865833 487.966875 441.865833 
z
" style="fill:#ffffff;opacity:0.8;stroke:#cccccc;stroke-linejoin:miter;"/>
    </g>
    <g id="patch_144">
     <path d="M 490.366875 416.956458 
L 514.366875 416.956458 
L 514.366875 408.556458 
L 490.366875 408.556458 
z
" style="fill:#1f77b4;opacity:0.4;"/>
    </g>
    <g id="text_38">
     <!-- dlm8 -->
     <g transform="translate(523.966875 416.956458)scale(0.12 -0.12)">
      <use xlink:href="#DejaVuSans-100"/>
      <use x="63.476562" xlink:href="#DejaVuSans-108"/>
      <use x="91.259766" xlink:href="#DejaVuSans-109"/>
      <use x="188.671875" xlink:href="#DejaVuSans-56"/>
     </g>
    </g>
    <g id="patch_145">
     <path d="M 490.366875 434.570208 
L 514.366875 434.570208 
L 514.366875 426.170208 
L 490.366875 426.170208 
z
" style="fill:#ff7f0e;opacity:0.4;"/>
    </g>
    <g id="text_39">
     <!-- dunn -->
     <g transform="translate(523.966875 434.570208)scale(0.12 -0.12)">
      <use xlink:href="#DejaVuSans-100"/>
      <use x="63.476562" xlink:href="#DejaVuSans-117"/>
      <use x="126.855469" xlink:href="#DejaVuSans-110"/>
      <use x="190.234375" xlink:href="#DejaVuSans-110"/>
     </g>
    </g>
   </g>
  </g>
  <g id="text_40">
   <!-- Histograms of elastic (a=3, b=1) distances to global mean cell -->
   <defs>
    <path d="M 9.8125 72.90625 
L 19.671875 72.90625 
L 19.671875 43.015625 
L 55.515625 43.015625 
L 55.515625 72.90625 
L 65.375 72.90625 
L 65.375 0 
L 55.515625 0 
L 55.515625 34.71875 
L 19.671875 34.71875 
L 19.671875 0 
L 9.8125 0 
z
" id="DejaVuSans-72"/>
    <path d="M 45.40625 27.984375 
Q 45.40625 37.75 41.375 43.109375 
Q 37.359375 48.484375 30.078125 48.484375 
Q 22.859375 48.484375 18.828125 43.109375 
Q 14.796875 37.75 14.796875 27.984375 
Q 14.796875 18.265625 18.828125 12.890625 
Q 22.859375 7.515625 30.078125 7.515625 
Q 37.359375 7.515625 41.375 12.890625 
Q 45.40625 18.265625 45.40625 27.984375 
z
M 54.390625 6.78125 
Q 54.390625 -7.171875 48.1875 -13.984375 
Q 42 -20.796875 29.203125 -20.796875 
Q 24.46875 -20.796875 20.265625 -20.09375 
Q 16.0625 -19.390625 12.109375 -17.921875 
L 12.109375 -9.1875 
Q 16.0625 -11.328125 19.921875 -12.34375 
Q 23.78125 -13.375 27.78125 -13.375 
Q 36.625 -13.375 41.015625 -8.765625 
Q 45.40625 -4.15625 45.40625 5.171875 
L 45.40625 9.625 
Q 42.625 4.78125 38.28125 2.390625 
Q 33.9375 0 27.875 0 
Q 17.828125 0 11.671875 7.65625 
Q 5.515625 15.328125 5.515625 27.984375 
Q 5.515625 40.671875 11.671875 48.328125 
Q 17.828125 56 27.875 56 
Q 33.9375 56 38.28125 53.609375 
Q 42.625 51.21875 45.40625 46.390625 
L 45.40625 54.6875 
L 54.390625 54.6875 
z
" id="DejaVuSans-103"/>
    <path d="M 31 75.875 
Q 24.46875 64.65625 21.28125 53.65625 
Q 18.109375 42.671875 18.109375 31.390625 
Q 18.109375 20.125 21.3125 9.0625 
Q 24.515625 -2 31 -13.1875 
L 23.1875 -13.1875 
Q 15.875 -1.703125 12.234375 9.375 
Q 8.59375 20.453125 8.59375 31.390625 
Q 8.59375 42.28125 12.203125 53.3125 
Q 15.828125 64.359375 23.1875 75.875 
z
" id="DejaVuSans-40"/>
    <path d="M 10.59375 45.40625 
L 73.1875 45.40625 
L 73.1875 37.203125 
L 10.59375 37.203125 
z
M 10.59375 25.484375 
L 73.1875 25.484375 
L 73.1875 17.1875 
L 10.59375 17.1875 
z
" id="DejaVuSans-61"/>
    <path d="M 11.71875 12.40625 
L 22.015625 12.40625 
L 22.015625 4 
L 14.015625 -11.625 
L 7.71875 -11.625 
L 11.71875 4 
z
" id="DejaVuSans-44"/>
    <path d="M 48.6875 27.296875 
Q 48.6875 37.203125 44.609375 42.84375 
Q 40.53125 48.484375 33.40625 48.484375 
Q 26.265625 48.484375 22.1875 42.84375 
Q 18.109375 37.203125 18.109375 27.296875 
Q 18.109375 17.390625 22.1875 11.75 
Q 26.265625 6.109375 33.40625 6.109375 
Q 40.53125 6.109375 44.609375 11.75 
Q 48.6875 17.390625 48.6875 27.296875 
z
M 18.109375 46.390625 
Q 20.953125 51.265625 25.265625 53.625 
Q 29.59375 56 35.59375 56 
Q 45.5625 56 51.78125 48.09375 
Q 58.015625 40.1875 58.015625 27.296875 
Q 58.015625 14.40625 51.78125 6.484375 
Q 45.5625 -1.421875 35.59375 -1.421875 
Q 29.59375 -1.421875 25.265625 0.953125 
Q 20.953125 3.328125 18.109375 8.203125 
L 18.109375 0 
L 9.078125 0 
L 9.078125 75.984375 
L 18.109375 75.984375 
z
" id="DejaVuSans-98"/>
    <path d="M 8.015625 75.875 
L 15.828125 75.875 
Q 23.140625 64.359375 26.78125 53.3125 
Q 30.421875 42.28125 30.421875 31.390625 
Q 30.421875 20.453125 26.78125 9.375 
Q 23.140625 -1.703125 15.828125 -13.1875 
L 8.015625 -13.1875 
Q 14.5 -2 17.703125 9.0625 
Q 20.90625 20.125 20.90625 31.390625 
Q 20.90625 42.671875 17.703125 53.65625 
Q 14.5 64.65625 8.015625 75.875 
z
" id="DejaVuSans-41"/>
   </defs>
   <g transform="translate(-26.423438 26.716875)scale(0.2 -0.2)">
    <use xlink:href="#DejaVuSans-72"/>
    <use x="75.195312" xlink:href="#DejaVuSans-105"/>
    <use x="102.978516" xlink:href="#DejaVuSans-115"/>
    <use x="155.078125" xlink:href="#DejaVuSans-116"/>
    <use x="194.287109" xlink:href="#DejaVuSans-111"/>
    <use x="255.46875" xlink:href="#DejaVuSans-103"/>
    <use x="318.945312" xlink:href="#DejaVuSans-114"/>
    <use x="360.058594" xlink:href="#DejaVuSans-97"/>
    <use x="421.337891" xlink:href="#DejaVuSans-109"/>
    <use x="518.75" xlink:href="#DejaVuSans-115"/>
    <use x="570.849609" xlink:href="#DejaVuSans-32"/>
    <use x="602.636719" xlink:href="#DejaVuSans-111"/>
    <use x="663.818359" xlink:href="#DejaVuSans-102"/>
    <use x="699.023438" xlink:href="#DejaVuSans-32"/>
    <use x="730.810547" xlink:href="#DejaVuSans-101"/>
    <use x="792.333984" xlink:href="#DejaVuSans-108"/>
    <use x="820.117188" xlink:href="#DejaVuSans-97"/>
    <use x="881.396484" xlink:href="#DejaVuSans-115"/>
    <use x="933.496094" xlink:href="#DejaVuSans-116"/>
    <use x="972.705078" xlink:href="#DejaVuSans-105"/>
    <use x="1000.488281" xlink:href="#DejaVuSans-99"/>
    <use x="1055.46875" xlink:href="#DejaVuSans-32"/>
    <use x="1087.255859" xlink:href="#DejaVuSans-40"/>
    <use x="1126.269531" xlink:href="#DejaVuSans-97"/>
    <use x="1187.548828" xlink:href="#DejaVuSans-61"/>
    <use x="1271.337891" xlink:href="#DejaVuSans-51"/>
    <use x="1334.960938" xlink:href="#DejaVuSans-44"/>
    <use x="1366.748047" xlink:href="#DejaVuSans-32"/>
    <use x="1398.535156" xlink:href="#DejaVuSans-98"/>
    <use x="1462.011719" xlink:href="#DejaVuSans-61"/>
    <use x="1545.800781" xlink:href="#DejaVuSans-49"/>
    <use x="1609.423828" xlink:href="#DejaVuSans-41"/>
    <use x="1648.4375" xlink:href="#DejaVuSans-32"/>
    <use x="1680.224609" xlink:href="#DejaVuSans-100"/>
    <use x="1743.701172" xlink:href="#DejaVuSans-105"/>
    <use x="1771.484375" xlink:href="#DejaVuSans-115"/>
    <use x="1823.583984" xlink:href="#DejaVuSans-116"/>
    <use x="1862.792969" xlink:href="#DejaVuSans-97"/>
    <use x="1924.072266" xlink:href="#DejaVuSans-110"/>
    <use x="1987.451172" xlink:href="#DejaVuSans-99"/>
    <use x="2042.431641" xlink:href="#DejaVuSans-101"/>
    <use x="2103.955078" xlink:href="#DejaVuSans-115"/>
    <use x="2156.054688" xlink:href="#DejaVuSans-32"/>
    <use x="2187.841797" xlink:href="#DejaVuSans-116"/>
    <use x="2227.050781" xlink:href="#DejaVuSans-111"/>
    <use x="2288.232422" xlink:href="#DejaVuSans-32"/>
    <use x="2320.019531" xlink:href="#DejaVuSans-103"/>
    <use x="2383.496094" xlink:href="#DejaVuSans-108"/>
    <use x="2411.279297" xlink:href="#DejaVuSans-111"/>
    <use x="2472.460938" xlink:href="#DejaVuSans-98"/>
    <use x="2535.9375" xlink:href="#DejaVuSans-97"/>
    <use x="2597.216797" xlink:href="#DejaVuSans-108"/>
    <use x="2625" xlink:href="#DejaVuSans-32"/>
    <use x="2656.787109" xlink:href="#DejaVuSans-109"/>
    <use x="2754.199219" xlink:href="#DejaVuSans-101"/>
    <use x="2815.722656" xlink:href="#DejaVuSans-97"/>
    <use x="2877.001953" xlink:href="#DejaVuSans-110"/>
    <use x="2940.380859" xlink:href="#DejaVuSans-32"/>
    <use x="2972.167969" xlink:href="#DejaVuSans-99"/>
    <use x="3027.148438" xlink:href="#DejaVuSans-101"/>
    <use x="3088.671875" xlink:href="#DejaVuSans-108"/>
    <use x="3116.455078" xlink:href="#DejaVuSans-108"/>
   </g>
  </g>
 </g>
 <defs>
  <clipPath id="pa2740b9182">
   <rect height="151.483542" width="523.488125" x="41.711875" y="27.437812"/>
  </clipPath>
  <clipPath id="p973df24415">
   <rect height="151.483542" width="523.488125" x="41.711875" y="212.238073"/>
  </clipPath>
  <clipPath id="p0cba1c7810">
   <rect height="151.483542" width="523.488125" x="41.711875" y="397.038333"/>
  </clipPath>
 </defs>
</svg>
