<?xml version="1.0" encoding="utf-8" standalone="no"?>
<!DOCTYPE svg PUBLIC "-//W3C//DTD SVG 1.1//EN"
  "http://www.w3.org/Graphics/SVG/1.1/DTD/svg11.dtd">
<!-- Created with matplotlib (https://matplotlib.org/) -->
<svg height="576pt" version="1.1" viewBox="0 0 576 576" width="576pt" xmlns="http://www.w3.org/2000/svg" xmlns:xlink="http://www.w3.org/1999/xlink">
 <defs>
  <style type="text/css">
*{stroke-linecap:butt;stroke-linejoin:round;}
  </style>
 </defs>
 <g id="figure_1">
  <g id="patch_1">
   <path d="M 0 576 
L 576 576 
L 576 0 
L 0 0 
z
" style="fill:#ffffff;"/>
  </g>
  <g id="axes_1">
   <g id="patch_2">
    <path d="M 41.711875 178.921354 
L 565.2 178.921354 
L 565.2 27.437812 
L 41.711875 27.437812 
z
" style="fill:#ffffff;"/>
   </g>
   <g id="patch_3">
    <path clip-path="url(#p8a309b5a89)" d="M 44.60172 178.921354 
L 57.055941 178.921354 
L 57.055941 143.940928 
L 44.60172 143.940928 
z
" style="fill:#1f77b4;opacity:0.4;"/>
   </g>
   <g id="patch_4">
    <path clip-path="url(#p8a309b5a89)" d="M 57.055941 178.921354 
L 69.510161 178.921354 
L 69.510161 52.991821 
L 57.055941 52.991821 
z
" style="fill:#1f77b4;opacity:0.4;"/>
   </g>
   <g id="patch_5">
    <path clip-path="url(#p8a309b5a89)" d="M 69.510161 178.921354 
L 81.964382 178.921354 
L 81.964382 66.983992 
L 69.510161 66.983992 
z
" style="fill:#1f77b4;opacity:0.4;"/>
   </g>
   <g id="patch_6">
    <path clip-path="url(#p8a309b5a89)" d="M 81.964382 178.921354 
L 94.418602 178.921354 
L 94.418602 87.972247 
L 81.964382 87.972247 
z
" style="fill:#1f77b4;opacity:0.4;"/>
   </g>
   <g id="patch_7">
    <path clip-path="url(#p8a309b5a89)" d="M 94.418602 178.921354 
L 106.872823 178.921354 
L 106.872823 129.948758 
L 94.418602 129.948758 
z
" style="fill:#1f77b4;opacity:0.4;"/>
   </g>
   <g id="patch_8">
    <path clip-path="url(#p8a309b5a89)" d="M 106.872823 178.921354 
L 119.327043 178.921354 
L 119.327043 136.944843 
L 106.872823 136.944843 
z
" style="fill:#1f77b4;opacity:0.4;"/>
   </g>
   <g id="patch_9">
    <path clip-path="url(#p8a309b5a89)" d="M 119.327043 178.921354 
L 131.781264 178.921354 
L 131.781264 115.956588 
L 119.327043 115.956588 
z
" style="fill:#1f77b4;opacity:0.4;"/>
   </g>
   <g id="patch_10">
    <path clip-path="url(#p8a309b5a89)" d="M 131.781264 178.921354 
L 144.235484 178.921354 
L 144.235484 94.968332 
L 131.781264 94.968332 
z
" style="fill:#1f77b4;opacity:0.4;"/>
   </g>
   <g id="patch_11">
    <path clip-path="url(#p8a309b5a89)" d="M 144.235484 178.921354 
L 156.689705 178.921354 
L 156.689705 150.937014 
L 144.235484 150.937014 
z
" style="fill:#1f77b4;opacity:0.4;"/>
   </g>
   <g id="patch_12">
    <path clip-path="url(#p8a309b5a89)" d="M 156.689705 178.921354 
L 169.143925 178.921354 
L 169.143925 164.929184 
L 156.689705 164.929184 
z
" style="fill:#1f77b4;opacity:0.4;"/>
   </g>
   <g id="patch_13">
    <path clip-path="url(#p8a309b5a89)" d="M 169.143925 178.921354 
L 181.598145 178.921354 
L 181.598145 136.944843 
L 169.143925 136.944843 
z
" style="fill:#1f77b4;opacity:0.4;"/>
   </g>
   <g id="patch_14">
    <path clip-path="url(#p8a309b5a89)" d="M 181.598145 178.921354 
L 194.052366 178.921354 
L 194.052366 150.937014 
L 181.598145 150.937014 
z
" style="fill:#1f77b4;opacity:0.4;"/>
   </g>
   <g id="patch_15">
    <path clip-path="url(#p8a309b5a89)" d="M 194.052366 178.921354 
L 206.506586 178.921354 
L 206.506586 150.937014 
L 194.052366 150.937014 
z
" style="fill:#1f77b4;opacity:0.4;"/>
   </g>
   <g id="patch_16">
    <path clip-path="url(#p8a309b5a89)" d="M 206.506586 178.921354 
L 218.960807 178.921354 
L 218.960807 164.929184 
L 206.506586 164.929184 
z
" style="fill:#1f77b4;opacity:0.4;"/>
   </g>
   <g id="patch_17">
    <path clip-path="url(#p8a309b5a89)" d="M 218.960807 178.921354 
L 231.415027 178.921354 
L 231.415027 171.925269 
L 218.960807 171.925269 
z
" style="fill:#1f77b4;opacity:0.4;"/>
   </g>
   <g id="patch_18">
    <path clip-path="url(#p8a309b5a89)" d="M 231.415027 178.921354 
L 243.869248 178.921354 
L 243.869248 171.925269 
L 231.415027 171.925269 
z
" style="fill:#1f77b4;opacity:0.4;"/>
   </g>
   <g id="patch_19">
    <path clip-path="url(#p8a309b5a89)" d="M 243.869248 178.921354 
L 256.323468 178.921354 
L 256.323468 164.929184 
L 243.869248 164.929184 
z
" style="fill:#1f77b4;opacity:0.4;"/>
   </g>
   <g id="patch_20">
    <path clip-path="url(#p8a309b5a89)" d="M 256.323468 178.921354 
L 268.777689 178.921354 
L 268.777689 178.921354 
L 256.323468 178.921354 
z
" style="fill:#1f77b4;opacity:0.4;"/>
   </g>
   <g id="patch_21">
    <path clip-path="url(#p8a309b5a89)" d="M 268.777689 178.921354 
L 281.231909 178.921354 
L 281.231909 178.921354 
L 268.777689 178.921354 
z
" style="fill:#1f77b4;opacity:0.4;"/>
   </g>
   <g id="patch_22">
    <path clip-path="url(#p8a309b5a89)" d="M 281.231909 178.921354 
L 293.68613 178.921354 
L 293.68613 164.929184 
L 281.231909 164.929184 
z
" style="fill:#1f77b4;opacity:0.4;"/>
   </g>
   <g id="patch_23">
    <path clip-path="url(#p8a309b5a89)" d="M 41.711875 178.921354 
L 60.077501 178.921354 
L 60.077501 123.246399 
L 41.711875 123.246399 
z
" style="fill:#ff7f0e;opacity:0.4;"/>
   </g>
   <g id="patch_24">
    <path clip-path="url(#p8a309b5a89)" d="M 60.077501 178.921354 
L 78.443127 178.921354 
L 78.443127 62.269067 
L 60.077501 62.269067 
z
" style="fill:#ff7f0e;opacity:0.4;"/>
   </g>
   <g id="patch_25">
    <path clip-path="url(#p8a309b5a89)" d="M 78.443127 178.921354 
L 96.808753 178.921354 
L 96.808753 136.50234 
L 78.443127 136.50234 
z
" style="fill:#ff7f0e;opacity:0.4;"/>
   </g>
   <g id="patch_26">
    <path clip-path="url(#p8a309b5a89)" d="M 96.808753 178.921354 
L 115.174379 178.921354 
L 115.174379 152.409471 
L 96.808753 152.409471 
z
" style="fill:#ff7f0e;opacity:0.4;"/>
   </g>
   <g id="patch_27">
    <path clip-path="url(#p8a309b5a89)" d="M 115.174379 178.921354 
L 133.540005 178.921354 
L 133.540005 160.363036 
L 115.174379 160.363036 
z
" style="fill:#ff7f0e;opacity:0.4;"/>
   </g>
   <g id="patch_28">
    <path clip-path="url(#p8a309b5a89)" d="M 133.540005 178.921354 
L 151.905631 178.921354 
L 151.905631 165.665412 
L 133.540005 165.665412 
z
" style="fill:#ff7f0e;opacity:0.4;"/>
   </g>
   <g id="patch_29">
    <path clip-path="url(#p8a309b5a89)" d="M 151.905631 178.921354 
L 170.271257 178.921354 
L 170.271257 152.409471 
L 151.905631 152.409471 
z
" style="fill:#ff7f0e;opacity:0.4;"/>
   </g>
   <g id="patch_30">
    <path clip-path="url(#p8a309b5a89)" d="M 170.271257 178.921354 
L 188.636883 178.921354 
L 188.636883 147.107094 
L 170.271257 147.107094 
z
" style="fill:#ff7f0e;opacity:0.4;"/>
   </g>
   <g id="patch_31">
    <path clip-path="url(#p8a309b5a89)" d="M 188.636883 178.921354 
L 207.002509 178.921354 
L 207.002509 152.409471 
L 188.636883 152.409471 
z
" style="fill:#ff7f0e;opacity:0.4;"/>
   </g>
   <g id="patch_32">
    <path clip-path="url(#p8a309b5a89)" d="M 207.002509 178.921354 
L 225.368135 178.921354 
L 225.368135 128.548775 
L 207.002509 128.548775 
z
" style="fill:#ff7f0e;opacity:0.4;"/>
   </g>
   <g id="patch_33">
    <path clip-path="url(#p8a309b5a89)" d="M 225.368135 178.921354 
L 243.733761 178.921354 
L 243.733761 155.060659 
L 225.368135 155.060659 
z
" style="fill:#ff7f0e;opacity:0.4;"/>
   </g>
   <g id="patch_34">
    <path clip-path="url(#p8a309b5a89)" d="M 243.733761 178.921354 
L 262.099387 178.921354 
L 262.099387 165.665412 
L 243.733761 165.665412 
z
" style="fill:#ff7f0e;opacity:0.4;"/>
   </g>
   <g id="patch_35">
    <path clip-path="url(#p8a309b5a89)" d="M 262.099387 178.921354 
L 280.465013 178.921354 
L 280.465013 149.758282 
L 262.099387 149.758282 
z
" style="fill:#ff7f0e;opacity:0.4;"/>
   </g>
   <g id="patch_36">
    <path clip-path="url(#p8a309b5a89)" d="M 280.465013 178.921354 
L 298.830639 178.921354 
L 298.830639 160.363036 
L 280.465013 160.363036 
z
" style="fill:#ff7f0e;opacity:0.4;"/>
   </g>
   <g id="patch_37">
    <path clip-path="url(#p8a309b5a89)" d="M 298.830639 178.921354 
L 317.196265 178.921354 
L 317.196265 160.363036 
L 298.830639 160.363036 
z
" style="fill:#ff7f0e;opacity:0.4;"/>
   </g>
   <g id="patch_38">
    <path clip-path="url(#p8a309b5a89)" d="M 317.196265 178.921354 
L 335.561891 178.921354 
L 335.561891 173.618977 
L 317.196265 173.618977 
z
" style="fill:#ff7f0e;opacity:0.4;"/>
   </g>
   <g id="patch_39">
    <path clip-path="url(#p8a309b5a89)" d="M 335.561891 178.921354 
L 353.927517 178.921354 
L 353.927517 170.967789 
L 335.561891 170.967789 
z
" style="fill:#ff7f0e;opacity:0.4;"/>
   </g>
   <g id="patch_40">
    <path clip-path="url(#p8a309b5a89)" d="M 353.927517 178.921354 
L 372.293143 178.921354 
L 372.293143 170.967789 
L 353.927517 170.967789 
z
" style="fill:#ff7f0e;opacity:0.4;"/>
   </g>
   <g id="patch_41">
    <path clip-path="url(#p8a309b5a89)" d="M 372.293143 178.921354 
L 390.658769 178.921354 
L 390.658769 173.618977 
L 372.293143 173.618977 
z
" style="fill:#ff7f0e;opacity:0.4;"/>
   </g>
   <g id="patch_42">
    <path clip-path="url(#p8a309b5a89)" d="M 390.658769 178.921354 
L 409.024395 178.921354 
L 409.024395 176.270166 
L 390.658769 176.270166 
z
" style="fill:#ff7f0e;opacity:0.4;"/>
   </g>
   <g id="matplotlib.axis_1">
    <g id="xtick_1">
     <g id="line2d_1">
      <defs>
       <path d="M 0 0 
L 0 3.5 
" id="m09d3db4348" style="stroke:#000000;stroke-width:0.8;"/>
      </defs>
      <g>
       <use style="stroke:#000000;stroke-width:0.8;" x="82.084314" xlink:href="#m09d3db4348" y="178.921354"/>
      </g>
     </g>
    </g>
    <g id="xtick_2">
     <g id="line2d_2">
      <g>
       <use style="stroke:#000000;stroke-width:0.8;" x="193.732775" xlink:href="#m09d3db4348" y="178.921354"/>
      </g>
     </g>
    </g>
    <g id="xtick_3">
     <g id="line2d_3">
      <g>
       <use style="stroke:#000000;stroke-width:0.8;" x="305.381236" xlink:href="#m09d3db4348" y="178.921354"/>
      </g>
     </g>
    </g>
    <g id="xtick_4">
     <g id="line2d_4">
      <g>
       <use style="stroke:#000000;stroke-width:0.8;" x="417.029697" xlink:href="#m09d3db4348" y="178.921354"/>
      </g>
     </g>
    </g>
    <g id="xtick_5">
     <g id="line2d_5">
      <g>
       <use style="stroke:#000000;stroke-width:0.8;" x="528.678158" xlink:href="#m09d3db4348" y="178.921354"/>
      </g>
     </g>
    </g>
   </g>
   <g id="matplotlib.axis_2">
    <g id="ytick_1">
     <g id="line2d_6">
      <defs>
       <path d="M 0 0 
L -3.5 0 
" id="m5a02195214" style="stroke:#000000;stroke-width:0.8;"/>
      </defs>
      <g>
       <use style="stroke:#000000;stroke-width:0.8;" x="41.711875" xlink:href="#m5a02195214" y="178.921354"/>
      </g>
     </g>
     <g id="text_1">
      <!-- 0 -->
      <defs>
       <path d="M 31.78125 66.40625 
Q 24.171875 66.40625 20.328125 58.90625 
Q 16.5 51.421875 16.5 36.375 
Q 16.5 21.390625 20.328125 13.890625 
Q 24.171875 6.390625 31.78125 6.390625 
Q 39.453125 6.390625 43.28125 13.890625 
Q 47.125 21.390625 47.125 36.375 
Q 47.125 51.421875 43.28125 58.90625 
Q 39.453125 66.40625 31.78125 66.40625 
z
M 31.78125 74.21875 
Q 44.046875 74.21875 50.515625 64.515625 
Q 56.984375 54.828125 56.984375 36.375 
Q 56.984375 17.96875 50.515625 8.265625 
Q 44.046875 -1.421875 31.78125 -1.421875 
Q 19.53125 -1.421875 13.0625 8.265625 
Q 6.59375 17.96875 6.59375 36.375 
Q 6.59375 54.828125 13.0625 64.515625 
Q 19.53125 74.21875 31.78125 74.21875 
z
" id="DejaVuSans-48"/>
      </defs>
      <g transform="translate(28.349375 182.720573)scale(0.1 -0.1)">
       <use xlink:href="#DejaVuSans-48"/>
      </g>
     </g>
    </g>
    <g id="ytick_2">
     <g id="line2d_7">
      <g>
       <use style="stroke:#000000;stroke-width:0.8;" x="41.711875" xlink:href="#m5a02195214" y="143.33498"/>
      </g>
     </g>
     <g id="text_2">
      <!-- 2 -->
      <defs>
       <path d="M 19.1875 8.296875 
L 53.609375 8.296875 
L 53.609375 0 
L 7.328125 0 
L 7.328125 8.296875 
Q 12.9375 14.109375 22.625 23.890625 
Q 32.328125 33.6875 34.8125 36.53125 
Q 39.546875 41.84375 41.421875 45.53125 
Q 43.3125 49.21875 43.3125 52.78125 
Q 43.3125 58.59375 39.234375 62.25 
Q 35.15625 65.921875 28.609375 65.921875 
Q 23.96875 65.921875 18.8125 64.3125 
Q 13.671875 62.703125 7.8125 59.421875 
L 7.8125 69.390625 
Q 13.765625 71.78125 18.9375 73 
Q 24.125 74.21875 28.421875 74.21875 
Q 39.75 74.21875 46.484375 68.546875 
Q 53.21875 62.890625 53.21875 53.421875 
Q 53.21875 48.921875 51.53125 44.890625 
Q 49.859375 40.875 45.40625 35.40625 
Q 44.1875 33.984375 37.640625 27.21875 
Q 31.109375 20.453125 19.1875 8.296875 
z
" id="DejaVuSans-50"/>
      </defs>
      <g transform="translate(28.349375 147.134199)scale(0.1 -0.1)">
       <use xlink:href="#DejaVuSans-50"/>
      </g>
     </g>
    </g>
    <g id="ytick_3">
     <g id="line2d_8">
      <g>
       <use style="stroke:#000000;stroke-width:0.8;" x="41.711875" xlink:href="#m5a02195214" y="107.748606"/>
      </g>
     </g>
     <g id="text_3">
      <!-- 4 -->
      <defs>
       <path d="M 37.796875 64.3125 
L 12.890625 25.390625 
L 37.796875 25.390625 
z
M 35.203125 72.90625 
L 47.609375 72.90625 
L 47.609375 25.390625 
L 58.015625 25.390625 
L 58.015625 17.1875 
L 47.609375 17.1875 
L 47.609375 0 
L 37.796875 0 
L 37.796875 17.1875 
L 4.890625 17.1875 
L 4.890625 26.703125 
z
" id="DejaVuSans-52"/>
      </defs>
      <g transform="translate(28.349375 111.547825)scale(0.1 -0.1)">
       <use xlink:href="#DejaVuSans-52"/>
      </g>
     </g>
    </g>
    <g id="ytick_4">
     <g id="line2d_9">
      <g>
       <use style="stroke:#000000;stroke-width:0.8;" x="41.711875" xlink:href="#m5a02195214" y="72.162232"/>
      </g>
     </g>
     <g id="text_4">
      <!-- 6 -->
      <defs>
       <path d="M 33.015625 40.375 
Q 26.375 40.375 22.484375 35.828125 
Q 18.609375 31.296875 18.609375 23.390625 
Q 18.609375 15.53125 22.484375 10.953125 
Q 26.375 6.390625 33.015625 6.390625 
Q 39.65625 6.390625 43.53125 10.953125 
Q 47.40625 15.53125 47.40625 23.390625 
Q 47.40625 31.296875 43.53125 35.828125 
Q 39.65625 40.375 33.015625 40.375 
z
M 52.59375 71.296875 
L 52.59375 62.3125 
Q 48.875 64.0625 45.09375 64.984375 
Q 41.3125 65.921875 37.59375 65.921875 
Q 27.828125 65.921875 22.671875 59.328125 
Q 17.53125 52.734375 16.796875 39.40625 
Q 19.671875 43.65625 24.015625 45.921875 
Q 28.375 48.1875 33.59375 48.1875 
Q 44.578125 48.1875 50.953125 41.515625 
Q 57.328125 34.859375 57.328125 23.390625 
Q 57.328125 12.15625 50.6875 5.359375 
Q 44.046875 -1.421875 33.015625 -1.421875 
Q 20.359375 -1.421875 13.671875 8.265625 
Q 6.984375 17.96875 6.984375 36.375 
Q 6.984375 53.65625 15.1875 63.9375 
Q 23.390625 74.21875 37.203125 74.21875 
Q 40.921875 74.21875 44.703125 73.484375 
Q 48.484375 72.75 52.59375 71.296875 
z
" id="DejaVuSans-54"/>
      </defs>
      <g transform="translate(28.349375 75.961451)scale(0.1 -0.1)">
       <use xlink:href="#DejaVuSans-54"/>
      </g>
     </g>
    </g>
    <g id="ytick_5">
     <g id="line2d_10">
      <g>
       <use style="stroke:#000000;stroke-width:0.8;" x="41.711875" xlink:href="#m5a02195214" y="36.575858"/>
      </g>
     </g>
     <g id="text_5">
      <!-- 8 -->
      <defs>
       <path d="M 31.78125 34.625 
Q 24.75 34.625 20.71875 30.859375 
Q 16.703125 27.09375 16.703125 20.515625 
Q 16.703125 13.921875 20.71875 10.15625 
Q 24.75 6.390625 31.78125 6.390625 
Q 38.8125 6.390625 42.859375 10.171875 
Q 46.921875 13.96875 46.921875 20.515625 
Q 46.921875 27.09375 42.890625 30.859375 
Q 38.875 34.625 31.78125 34.625 
z
M 21.921875 38.8125 
Q 15.578125 40.375 12.03125 44.71875 
Q 8.5 49.078125 8.5 55.328125 
Q 8.5 64.0625 14.71875 69.140625 
Q 20.953125 74.21875 31.78125 74.21875 
Q 42.671875 74.21875 48.875 69.140625 
Q 55.078125 64.0625 55.078125 55.328125 
Q 55.078125 49.078125 51.53125 44.71875 
Q 48 40.375 41.703125 38.8125 
Q 48.828125 37.15625 52.796875 32.3125 
Q 56.78125 27.484375 56.78125 20.515625 
Q 56.78125 9.90625 50.3125 4.234375 
Q 43.84375 -1.421875 31.78125 -1.421875 
Q 19.734375 -1.421875 13.25 4.234375 
Q 6.78125 9.90625 6.78125 20.515625 
Q 6.78125 27.484375 10.78125 32.3125 
Q 14.796875 37.15625 21.921875 38.8125 
z
M 18.3125 54.390625 
Q 18.3125 48.734375 21.84375 45.5625 
Q 25.390625 42.390625 31.78125 42.390625 
Q 38.140625 42.390625 41.71875 45.5625 
Q 45.3125 48.734375 45.3125 54.390625 
Q 45.3125 60.0625 41.71875 63.234375 
Q 38.140625 66.40625 31.78125 66.40625 
Q 25.390625 66.40625 21.84375 63.234375 
Q 18.3125 60.0625 18.3125 54.390625 
z
" id="DejaVuSans-56"/>
      </defs>
      <g transform="translate(28.349375 40.375077)scale(0.1 -0.1)">
       <use xlink:href="#DejaVuSans-56"/>
      </g>
     </g>
    </g>
    <g id="text_6">
     <!-- Fraction of cells -->
     <defs>
      <path d="M 9.8125 72.90625 
L 51.703125 72.90625 
L 51.703125 64.59375 
L 19.671875 64.59375 
L 19.671875 43.109375 
L 48.578125 43.109375 
L 48.578125 34.8125 
L 19.671875 34.8125 
L 19.671875 0 
L 9.8125 0 
z
" id="DejaVuSans-70"/>
      <path d="M 41.109375 46.296875 
Q 39.59375 47.171875 37.8125 47.578125 
Q 36.03125 48 33.890625 48 
Q 26.265625 48 22.1875 43.046875 
Q 18.109375 38.09375 18.109375 28.8125 
L 18.109375 0 
L 9.078125 0 
L 9.078125 54.6875 
L 18.109375 54.6875 
L 18.109375 46.1875 
Q 20.953125 51.171875 25.484375 53.578125 
Q 30.03125 56 36.53125 56 
Q 37.453125 56 38.578125 55.875 
Q 39.703125 55.765625 41.0625 55.515625 
z
" id="DejaVuSans-114"/>
      <path d="M 34.28125 27.484375 
Q 23.390625 27.484375 19.1875 25 
Q 14.984375 22.515625 14.984375 16.5 
Q 14.984375 11.71875 18.140625 8.90625 
Q 21.296875 6.109375 26.703125 6.109375 
Q 34.1875 6.109375 38.703125 11.40625 
Q 43.21875 16.703125 43.21875 25.484375 
L 43.21875 27.484375 
z
M 52.203125 31.203125 
L 52.203125 0 
L 43.21875 0 
L 43.21875 8.296875 
Q 40.140625 3.328125 35.546875 0.953125 
Q 30.953125 -1.421875 24.3125 -1.421875 
Q 15.921875 -1.421875 10.953125 3.296875 
Q 6 8.015625 6 15.921875 
Q 6 25.140625 12.171875 29.828125 
Q 18.359375 34.515625 30.609375 34.515625 
L 43.21875 34.515625 
L 43.21875 35.40625 
Q 43.21875 41.609375 39.140625 45 
Q 35.0625 48.390625 27.6875 48.390625 
Q 23 48.390625 18.546875 47.265625 
Q 14.109375 46.140625 10.015625 43.890625 
L 10.015625 52.203125 
Q 14.9375 54.109375 19.578125 55.046875 
Q 24.21875 56 28.609375 56 
Q 40.484375 56 46.34375 49.84375 
Q 52.203125 43.703125 52.203125 31.203125 
z
" id="DejaVuSans-97"/>
      <path d="M 48.78125 52.59375 
L 48.78125 44.1875 
Q 44.96875 46.296875 41.140625 47.34375 
Q 37.3125 48.390625 33.40625 48.390625 
Q 24.65625 48.390625 19.8125 42.84375 
Q 14.984375 37.3125 14.984375 27.296875 
Q 14.984375 17.28125 19.8125 11.734375 
Q 24.65625 6.203125 33.40625 6.203125 
Q 37.3125 6.203125 41.140625 7.25 
Q 44.96875 8.296875 48.78125 10.40625 
L 48.78125 2.09375 
Q 45.015625 0.34375 40.984375 -0.53125 
Q 36.96875 -1.421875 32.421875 -1.421875 
Q 20.0625 -1.421875 12.78125 6.34375 
Q 5.515625 14.109375 5.515625 27.296875 
Q 5.515625 40.671875 12.859375 48.328125 
Q 20.21875 56 33.015625 56 
Q 37.15625 56 41.109375 55.140625 
Q 45.0625 54.296875 48.78125 52.59375 
z
" id="DejaVuSans-99"/>
      <path d="M 18.3125 70.21875 
L 18.3125 54.6875 
L 36.8125 54.6875 
L 36.8125 47.703125 
L 18.3125 47.703125 
L 18.3125 18.015625 
Q 18.3125 11.328125 20.140625 9.421875 
Q 21.96875 7.515625 27.59375 7.515625 
L 36.8125 7.515625 
L 36.8125 0 
L 27.59375 0 
Q 17.1875 0 13.234375 3.875 
Q 9.28125 7.765625 9.28125 18.015625 
L 9.28125 47.703125 
L 2.6875 47.703125 
L 2.6875 54.6875 
L 9.28125 54.6875 
L 9.28125 70.21875 
z
" id="DejaVuSans-116"/>
      <path d="M 9.421875 54.6875 
L 18.40625 54.6875 
L 18.40625 0 
L 9.421875 0 
z
M 9.421875 75.984375 
L 18.40625 75.984375 
L 18.40625 64.59375 
L 9.421875 64.59375 
z
" id="DejaVuSans-105"/>
      <path d="M 30.609375 48.390625 
Q 23.390625 48.390625 19.1875 42.75 
Q 14.984375 37.109375 14.984375 27.296875 
Q 14.984375 17.484375 19.15625 11.84375 
Q 23.34375 6.203125 30.609375 6.203125 
Q 37.796875 6.203125 41.984375 11.859375 
Q 46.1875 17.53125 46.1875 27.296875 
Q 46.1875 37.015625 41.984375 42.703125 
Q 37.796875 48.390625 30.609375 48.390625 
z
M 30.609375 56 
Q 42.328125 56 49.015625 48.375 
Q 55.71875 40.765625 55.71875 27.296875 
Q 55.71875 13.875 49.015625 6.21875 
Q 42.328125 -1.421875 30.609375 -1.421875 
Q 18.84375 -1.421875 12.171875 6.21875 
Q 5.515625 13.875 5.515625 27.296875 
Q 5.515625 40.765625 12.171875 48.375 
Q 18.84375 56 30.609375 56 
z
" id="DejaVuSans-111"/>
      <path d="M 54.890625 33.015625 
L 54.890625 0 
L 45.90625 0 
L 45.90625 32.71875 
Q 45.90625 40.484375 42.875 44.328125 
Q 39.84375 48.1875 33.796875 48.1875 
Q 26.515625 48.1875 22.3125 43.546875 
Q 18.109375 38.921875 18.109375 30.90625 
L 18.109375 0 
L 9.078125 0 
L 9.078125 54.6875 
L 18.109375 54.6875 
L 18.109375 46.1875 
Q 21.34375 51.125 25.703125 53.5625 
Q 30.078125 56 35.796875 56 
Q 45.21875 56 50.046875 50.171875 
Q 54.890625 44.34375 54.890625 33.015625 
z
" id="DejaVuSans-110"/>
      <path id="DejaVuSans-32"/>
      <path d="M 37.109375 75.984375 
L 37.109375 68.5 
L 28.515625 68.5 
Q 23.6875 68.5 21.796875 66.546875 
Q 19.921875 64.59375 19.921875 59.515625 
L 19.921875 54.6875 
L 34.71875 54.6875 
L 34.71875 47.703125 
L 19.921875 47.703125 
L 19.921875 0 
L 10.890625 0 
L 10.890625 47.703125 
L 2.296875 47.703125 
L 2.296875 54.6875 
L 10.890625 54.6875 
L 10.890625 58.5 
Q 10.890625 67.625 15.140625 71.796875 
Q 19.390625 75.984375 28.609375 75.984375 
z
" id="DejaVuSans-102"/>
      <path d="M 56.203125 29.59375 
L 56.203125 25.203125 
L 14.890625 25.203125 
Q 15.484375 15.921875 20.484375 11.0625 
Q 25.484375 6.203125 34.421875 6.203125 
Q 39.59375 6.203125 44.453125 7.46875 
Q 49.3125 8.734375 54.109375 11.28125 
L 54.109375 2.78125 
Q 49.265625 0.734375 44.1875 -0.34375 
Q 39.109375 -1.421875 33.890625 -1.421875 
Q 20.796875 -1.421875 13.15625 6.1875 
Q 5.515625 13.8125 5.515625 26.8125 
Q 5.515625 40.234375 12.765625 48.109375 
Q 20.015625 56 32.328125 56 
Q 43.359375 56 49.78125 48.890625 
Q 56.203125 41.796875 56.203125 29.59375 
z
M 47.21875 32.234375 
Q 47.125 39.59375 43.09375 43.984375 
Q 39.0625 48.390625 32.421875 48.390625 
Q 24.90625 48.390625 20.390625 44.140625 
Q 15.875 39.890625 15.1875 32.171875 
z
" id="DejaVuSans-101"/>
      <path d="M 9.421875 75.984375 
L 18.40625 75.984375 
L 18.40625 0 
L 9.421875 0 
z
" id="DejaVuSans-108"/>
      <path d="M 44.28125 53.078125 
L 44.28125 44.578125 
Q 40.484375 46.53125 36.375 47.5 
Q 32.28125 48.484375 27.875 48.484375 
Q 21.1875 48.484375 17.84375 46.4375 
Q 14.5 44.390625 14.5 40.28125 
Q 14.5 37.15625 16.890625 35.375 
Q 19.28125 33.59375 26.515625 31.984375 
L 29.59375 31.296875 
Q 39.15625 29.25 43.1875 25.515625 
Q 47.21875 21.78125 47.21875 15.09375 
Q 47.21875 7.46875 41.1875 3.015625 
Q 35.15625 -1.421875 24.609375 -1.421875 
Q 20.21875 -1.421875 15.453125 -0.5625 
Q 10.6875 0.296875 5.421875 2 
L 5.421875 11.28125 
Q 10.40625 8.6875 15.234375 7.390625 
Q 20.0625 6.109375 24.8125 6.109375 
Q 31.15625 6.109375 34.5625 8.28125 
Q 37.984375 10.453125 37.984375 14.40625 
Q 37.984375 18.0625 35.515625 20.015625 
Q 33.0625 21.96875 24.703125 23.78125 
L 21.578125 24.515625 
Q 13.234375 26.265625 9.515625 29.90625 
Q 5.8125 33.546875 5.8125 39.890625 
Q 5.8125 47.609375 11.28125 51.796875 
Q 16.75 56 26.8125 56 
Q 31.78125 56 36.171875 55.265625 
Q 40.578125 54.546875 44.28125 53.078125 
z
" id="DejaVuSans-115"/>
     </defs>
     <g transform="translate(21.437812 158.511302)rotate(-90)scale(0.14 -0.14)">
      <use xlink:href="#DejaVuSans-70"/>
      <use x="57.410156" xlink:href="#DejaVuSans-114"/>
      <use x="98.523438" xlink:href="#DejaVuSans-97"/>
      <use x="159.802734" xlink:href="#DejaVuSans-99"/>
      <use x="214.783203" xlink:href="#DejaVuSans-116"/>
      <use x="253.992188" xlink:href="#DejaVuSans-105"/>
      <use x="281.775391" xlink:href="#DejaVuSans-111"/>
      <use x="342.957031" xlink:href="#DejaVuSans-110"/>
      <use x="406.335938" xlink:href="#DejaVuSans-32"/>
      <use x="438.123047" xlink:href="#DejaVuSans-111"/>
      <use x="499.304688" xlink:href="#DejaVuSans-102"/>
      <use x="534.509766" xlink:href="#DejaVuSans-32"/>
      <use x="566.296875" xlink:href="#DejaVuSans-99"/>
      <use x="621.277344" xlink:href="#DejaVuSans-101"/>
      <use x="682.800781" xlink:href="#DejaVuSans-108"/>
      <use x="710.583984" xlink:href="#DejaVuSans-108"/>
      <use x="738.367188" xlink:href="#DejaVuSans-115"/>
     </g>
    </g>
   </g>
   <g id="line2d_11">
    <path clip-path="url(#p8a309b5a89)" d="M -1 177.972979 
L 5.396483 177.257786 
L 16.674105 173.462133 
L 27.951727 164.624333 
L 39.22935 148.868027 
L 50.506972 127.816806 
L 61.784594 107.825076 
L 73.062217 96.582153 
L 84.339839 97.179261 
L 95.617461 105.700824 
L 106.895084 115.035676 
L 118.172706 120.981202 
L 129.450328 124.629821 
L 140.72795 129.2442 
L 152.005573 135.833915 
L 163.283195 142.594024 
L 174.560817 147.814741 
L 185.83844 151.752596 
L 197.116062 155.631349 
L 208.393684 159.918449 
L 219.671307 164.029468 
L 230.948929 167.344877 
L 242.226551 169.941216 
L 253.504174 172.137554 
L 264.781796 173.816982 
L 276.059418 174.701582 
L 287.33704 175.049882 
L 298.614663 175.53421 
L 309.892285 176.462963 
L 321.169907 177.531379 
L 332.44753 178.322238 
L 343.725152 178.725834 
L 355.002774 178.873145 
L 366.280397 178.912379 
L 377.558019 178.920093 
L 388.835641 178.92122 
L 400.113263 178.921343 
L 411.390886 178.921354 
L 422.668508 178.921354 
L 433.94613 178.921354 
L 445.223753 178.921354 
L 456.501375 178.921354 
L 467.778997 178.921354 
L 479.05662 178.921354 
L 490.334242 178.921354 
L 501.611864 178.921354 
L 512.889487 178.921354 
L 524.167109 178.921354 
L 535.444731 178.921354 
L 546.722353 178.921354 
L 557.999976 178.921354 
L 569.277598 178.921354 
L 577 178.921354 
" style="fill:none;stroke:#1f77b4;stroke-linecap:square;stroke-width:1.5;"/>
   </g>
   <g id="line2d_12">
    <path clip-path="url(#p8a309b5a89)" d="M -1 173.115653 
L 5.396483 170.86679 
L 16.674105 164.691559 
L 27.951727 156.341154 
L 39.22935 146.681942 
L 50.506972 137.404292 
L 61.784594 130.529062 
L 73.062217 127.591793 
L 84.339839 128.953994 
L 95.617461 133.665229 
L 106.895084 139.944387 
L 118.172706 145.954225 
L 129.450328 150.424874 
L 140.72795 152.878379 
L 152.005573 153.495355 
L 163.283195 152.823385 
L 174.560817 151.510487 
L 185.83844 150.144569 
L 197.116062 149.185016 
L 208.393684 148.930488 
L 219.671307 149.486569 
L 230.948929 150.751756 
L 242.226551 152.469821 
L 253.504174 154.35731 
L 264.781796 156.239724 
L 276.059418 158.103578 
L 287.33704 160.032649 
L 298.614663 162.088882 
L 309.892285 164.233971 
L 321.169907 166.341537 
L 332.44753 168.27395 
L 343.725152 169.957238 
L 355.002774 171.403685 
L 366.280397 172.6786 
L 377.558019 173.845594 
L 388.835641 174.929921 
L 400.113263 175.916565 
L 411.390886 176.772333 
L 422.668508 177.470203 
L 433.94613 178.002016 
L 445.223753 178.378955 
L 456.501375 178.625826 
L 467.778997 178.773938 
L 479.05662 178.854576 
L 490.334242 178.894075 
L 501.611864 178.911362 
L 512.889487 178.918086 
L 524.167109 178.920403 
L 535.444731 178.921108 
L 546.722353 178.921298 
L 557.999976 178.921343 
L 569.277598 178.921352 
L 577 178.921353 
" style="fill:none;stroke:#ff7f0e;stroke-linecap:square;stroke-width:1.5;"/>
   </g>
   <g id="patch_43">
    <path d="M 41.711875 178.921354 
L 41.711875 27.437812 
" style="fill:none;stroke:#000000;stroke-linecap:square;stroke-linejoin:miter;stroke-width:0.8;"/>
   </g>
   <g id="patch_44">
    <path d="M 565.2 178.921354 
L 565.2 27.437812 
" style="fill:none;stroke:#000000;stroke-linecap:square;stroke-linejoin:miter;stroke-width:0.8;"/>
   </g>
   <g id="patch_45">
    <path d="M 41.711875 178.921354 
L 565.2 178.921354 
" style="fill:none;stroke:#000000;stroke-linecap:square;stroke-linejoin:miter;stroke-width:0.8;"/>
   </g>
   <g id="patch_46">
    <path d="M 41.711875 27.437812 
L 565.2 27.437812 
" style="fill:none;stroke:#000000;stroke-linecap:square;stroke-linejoin:miter;stroke-width:0.8;"/>
   </g>
   <g id="text_7">
    <!-- control cells -->
    <g transform="translate(261.123438 21.437812)scale(0.14 -0.14)">
     <use xlink:href="#DejaVuSans-99"/>
     <use x="54.980469" xlink:href="#DejaVuSans-111"/>
     <use x="116.162109" xlink:href="#DejaVuSans-110"/>
     <use x="179.541016" xlink:href="#DejaVuSans-116"/>
     <use x="218.75" xlink:href="#DejaVuSans-114"/>
     <use x="259.832031" xlink:href="#DejaVuSans-111"/>
     <use x="321.013672" xlink:href="#DejaVuSans-108"/>
     <use x="348.796875" xlink:href="#DejaVuSans-32"/>
     <use x="380.583984" xlink:href="#DejaVuSans-99"/>
     <use x="435.564453" xlink:href="#DejaVuSans-101"/>
     <use x="497.087891" xlink:href="#DejaVuSans-108"/>
     <use x="524.871094" xlink:href="#DejaVuSans-108"/>
     <use x="552.654297" xlink:href="#DejaVuSans-115"/>
    </g>
   </g>
   <g id="legend_1">
    <g id="patch_47">
     <path d="M 487.966875 72.265312 
L 556.8 72.265312 
Q 559.2 72.265312 559.2 69.865313 
L 559.2 35.837812 
Q 559.2 33.437812 556.8 33.437812 
L 487.966875 33.437812 
Q 485.566875 33.437812 485.566875 35.837812 
L 485.566875 69.865313 
Q 485.566875 72.265312 487.966875 72.265312 
z
" style="fill:#ffffff;opacity:0.8;stroke:#cccccc;stroke-linejoin:miter;"/>
    </g>
    <g id="patch_48">
     <path d="M 490.366875 47.355937 
L 514.366875 47.355937 
L 514.366875 38.955937 
L 490.366875 38.955937 
z
" style="fill:#1f77b4;opacity:0.4;"/>
    </g>
    <g id="text_8">
     <!-- dlm8 -->
     <defs>
      <path d="M 45.40625 46.390625 
L 45.40625 75.984375 
L 54.390625 75.984375 
L 54.390625 0 
L 45.40625 0 
L 45.40625 8.203125 
Q 42.578125 3.328125 38.25 0.953125 
Q 33.9375 -1.421875 27.875 -1.421875 
Q 17.96875 -1.421875 11.734375 6.484375 
Q 5.515625 14.40625 5.515625 27.296875 
Q 5.515625 40.1875 11.734375 48.09375 
Q 17.96875 56 27.875 56 
Q 33.9375 56 38.25 53.625 
Q 42.578125 51.265625 45.40625 46.390625 
z
M 14.796875 27.296875 
Q 14.796875 17.390625 18.875 11.75 
Q 22.953125 6.109375 30.078125 6.109375 
Q 37.203125 6.109375 41.296875 11.75 
Q 45.40625 17.390625 45.40625 27.296875 
Q 45.40625 37.203125 41.296875 42.84375 
Q 37.203125 48.484375 30.078125 48.484375 
Q 22.953125 48.484375 18.875 42.84375 
Q 14.796875 37.203125 14.796875 27.296875 
z
" id="DejaVuSans-100"/>
      <path d="M 52 44.1875 
Q 55.375 50.25 60.0625 53.125 
Q 64.75 56 71.09375 56 
Q 79.640625 56 84.28125 50.015625 
Q 88.921875 44.046875 88.921875 33.015625 
L 88.921875 0 
L 79.890625 0 
L 79.890625 32.71875 
Q 79.890625 40.578125 77.09375 44.375 
Q 74.3125 48.1875 68.609375 48.1875 
Q 61.625 48.1875 57.5625 43.546875 
Q 53.515625 38.921875 53.515625 30.90625 
L 53.515625 0 
L 44.484375 0 
L 44.484375 32.71875 
Q 44.484375 40.625 41.703125 44.40625 
Q 38.921875 48.1875 33.109375 48.1875 
Q 26.21875 48.1875 22.15625 43.53125 
Q 18.109375 38.875 18.109375 30.90625 
L 18.109375 0 
L 9.078125 0 
L 9.078125 54.6875 
L 18.109375 54.6875 
L 18.109375 46.1875 
Q 21.1875 51.21875 25.484375 53.609375 
Q 29.78125 56 35.6875 56 
Q 41.65625 56 45.828125 52.96875 
Q 50 49.953125 52 44.1875 
z
" id="DejaVuSans-109"/>
     </defs>
     <g transform="translate(523.966875 47.355937)scale(0.12 -0.12)">
      <use xlink:href="#DejaVuSans-100"/>
      <use x="63.476562" xlink:href="#DejaVuSans-108"/>
      <use x="91.259766" xlink:href="#DejaVuSans-109"/>
      <use x="188.671875" xlink:href="#DejaVuSans-56"/>
     </g>
    </g>
    <g id="patch_49">
     <path d="M 490.366875 64.969687 
L 514.366875 64.969687 
L 514.366875 56.569687 
L 490.366875 56.569687 
z
" style="fill:#ff7f0e;opacity:0.4;"/>
    </g>
    <g id="text_9">
     <!-- dunn -->
     <defs>
      <path d="M 8.5 21.578125 
L 8.5 54.6875 
L 17.484375 54.6875 
L 17.484375 21.921875 
Q 17.484375 14.15625 20.5 10.265625 
Q 23.53125 6.390625 29.59375 6.390625 
Q 36.859375 6.390625 41.078125 11.03125 
Q 45.3125 15.671875 45.3125 23.6875 
L 45.3125 54.6875 
L 54.296875 54.6875 
L 54.296875 0 
L 45.3125 0 
L 45.3125 8.40625 
Q 42.046875 3.421875 37.71875 1 
Q 33.40625 -1.421875 27.6875 -1.421875 
Q 18.265625 -1.421875 13.375 4.4375 
Q 8.5 10.296875 8.5 21.578125 
z
M 31.109375 56 
z
" id="DejaVuSans-117"/>
     </defs>
     <g transform="translate(523.966875 64.969687)scale(0.12 -0.12)">
      <use xlink:href="#DejaVuSans-100"/>
      <use x="63.476562" xlink:href="#DejaVuSans-117"/>
      <use x="126.855469" xlink:href="#DejaVuSans-110"/>
      <use x="190.234375" xlink:href="#DejaVuSans-110"/>
     </g>
    </g>
   </g>
  </g>
  <g id="axes_2">
   <g id="patch_50">
    <path d="M 41.711875 363.721615 
L 565.2 363.721615 
L 565.2 212.238073 
L 41.711875 212.238073 
z
" style="fill:#ffffff;"/>
   </g>
   <g id="patch_51">
    <path clip-path="url(#p410b1995b7)" d="M 104.816812 363.721615 
L 127.835971 363.721615 
L 127.835971 342.672532 
L 104.816812 342.672532 
z
" style="fill:#1f77b4;opacity:0.4;"/>
   </g>
   <g id="patch_52">
    <path clip-path="url(#p410b1995b7)" d="M 127.835971 363.721615 
L 150.855131 363.721615 
L 150.855131 321.62345 
L 127.835971 321.62345 
z
" style="fill:#1f77b4;opacity:0.4;"/>
   </g>
   <g id="patch_53">
    <path clip-path="url(#p410b1995b7)" d="M 150.855131 363.721615 
L 173.87429 363.721615 
L 173.87429 326.885721 
L 150.855131 326.885721 
z
" style="fill:#1f77b4;opacity:0.4;"/>
   </g>
   <g id="patch_54">
    <path clip-path="url(#p410b1995b7)" d="M 173.87429 363.721615 
L 196.89345 363.721615 
L 196.89345 332.147991 
L 173.87429 332.147991 
z
" style="fill:#1f77b4;opacity:0.4;"/>
   </g>
   <g id="patch_55">
    <path clip-path="url(#p410b1995b7)" d="M 196.89345 363.721615 
L 219.912609 363.721615 
L 219.912609 316.361179 
L 196.89345 316.361179 
z
" style="fill:#1f77b4;opacity:0.4;"/>
   </g>
   <g id="patch_56">
    <path clip-path="url(#p410b1995b7)" d="M 219.912609 363.721615 
L 242.931768 363.721615 
L 242.931768 337.410262 
L 219.912609 337.410262 
z
" style="fill:#1f77b4;opacity:0.4;"/>
   </g>
   <g id="patch_57">
    <path clip-path="url(#p410b1995b7)" d="M 242.931768 363.721615 
L 265.950928 363.721615 
L 265.950928 342.672532 
L 242.931768 342.672532 
z
" style="fill:#1f77b4;opacity:0.4;"/>
   </g>
   <g id="patch_58">
    <path clip-path="url(#p410b1995b7)" d="M 265.950928 363.721615 
L 288.970087 363.721615 
L 288.970087 342.672532 
L 265.950928 342.672532 
z
" style="fill:#1f77b4;opacity:0.4;"/>
   </g>
   <g id="patch_59">
    <path clip-path="url(#p410b1995b7)" d="M 288.970087 363.721615 
L 311.989247 363.721615 
L 311.989247 316.361179 
L 288.970087 316.361179 
z
" style="fill:#1f77b4;opacity:0.4;"/>
   </g>
   <g id="patch_60">
    <path clip-path="url(#p410b1995b7)" d="M 311.989247 363.721615 
L 335.008406 363.721615 
L 335.008406 337.410262 
L 311.989247 337.410262 
z
" style="fill:#1f77b4;opacity:0.4;"/>
   </g>
   <g id="patch_61">
    <path clip-path="url(#p410b1995b7)" d="M 335.008406 363.721615 
L 358.027565 363.721615 
L 358.027565 353.197073 
L 335.008406 353.197073 
z
" style="fill:#1f77b4;opacity:0.4;"/>
   </g>
   <g id="patch_62">
    <path clip-path="url(#p410b1995b7)" d="M 358.027565 363.721615 
L 381.046725 363.721615 
L 381.046725 342.672532 
L 358.027565 342.672532 
z
" style="fill:#1f77b4;opacity:0.4;"/>
   </g>
   <g id="patch_63">
    <path clip-path="url(#p410b1995b7)" d="M 381.046725 363.721615 
L 404.065884 363.721615 
L 404.065884 353.197073 
L 381.046725 353.197073 
z
" style="fill:#1f77b4;opacity:0.4;"/>
   </g>
   <g id="patch_64">
    <path clip-path="url(#p410b1995b7)" d="M 404.065884 363.721615 
L 427.085044 363.721615 
L 427.085044 358.459344 
L 404.065884 358.459344 
z
" style="fill:#1f77b4;opacity:0.4;"/>
   </g>
   <g id="patch_65">
    <path clip-path="url(#p410b1995b7)" d="M 427.085044 363.721615 
L 450.104203 363.721615 
L 450.104203 363.721615 
L 427.085044 363.721615 
z
" style="fill:#1f77b4;opacity:0.4;"/>
   </g>
   <g id="patch_66">
    <path clip-path="url(#p410b1995b7)" d="M 450.104203 363.721615 
L 473.123362 363.721615 
L 473.123362 342.672532 
L 450.104203 342.672532 
z
" style="fill:#1f77b4;opacity:0.4;"/>
   </g>
   <g id="patch_67">
    <path clip-path="url(#p410b1995b7)" d="M 473.123362 363.721615 
L 496.142522 363.721615 
L 496.142522 347.934803 
L 473.123362 347.934803 
z
" style="fill:#1f77b4;opacity:0.4;"/>
   </g>
   <g id="patch_68">
    <path clip-path="url(#p410b1995b7)" d="M 496.142522 363.721615 
L 519.161681 363.721615 
L 519.161681 363.721615 
L 496.142522 363.721615 
z
" style="fill:#1f77b4;opacity:0.4;"/>
   </g>
   <g id="patch_69">
    <path clip-path="url(#p410b1995b7)" d="M 519.161681 363.721615 
L 542.180841 363.721615 
L 542.180841 347.934803 
L 519.161681 347.934803 
z
" style="fill:#1f77b4;opacity:0.4;"/>
   </g>
   <g id="patch_70">
    <path clip-path="url(#p410b1995b7)" d="M 542.180841 363.721615 
L 565.2 363.721615 
L 565.2 353.197073 
L 542.180841 353.197073 
z
" style="fill:#1f77b4;opacity:0.4;"/>
   </g>
   <g id="patch_71">
    <path clip-path="url(#p410b1995b7)" d="M 115.171882 363.721615 
L 136.829355 363.721615 
L 136.829355 358.790038 
L 115.171882 358.790038 
z
" style="fill:#ff7f0e;opacity:0.4;"/>
   </g>
   <g id="patch_72">
    <path clip-path="url(#p410b1995b7)" d="M 136.829355 363.721615 
L 158.486829 363.721615 
L 158.486829 363.721615 
L 136.829355 363.721615 
z
" style="fill:#ff7f0e;opacity:0.4;"/>
   </g>
   <g id="patch_73">
    <path clip-path="url(#p410b1995b7)" d="M 158.486829 363.721615 
L 180.144302 363.721615 
L 180.144302 358.790038 
L 158.486829 358.790038 
z
" style="fill:#ff7f0e;opacity:0.4;"/>
   </g>
   <g id="patch_74">
    <path clip-path="url(#p410b1995b7)" d="M 180.144302 363.721615 
L 201.801775 363.721615 
L 201.801775 358.790038 
L 180.144302 358.790038 
z
" style="fill:#ff7f0e;opacity:0.4;"/>
   </g>
   <g id="patch_75">
    <path clip-path="url(#p410b1995b7)" d="M 201.801775 363.721615 
L 223.459248 363.721615 
L 223.459248 363.721615 
L 201.801775 363.721615 
z
" style="fill:#ff7f0e;opacity:0.4;"/>
   </g>
   <g id="patch_76">
    <path clip-path="url(#p410b1995b7)" d="M 223.459248 363.721615 
L 245.116722 363.721615 
L 245.116722 343.99531 
L 223.459248 343.99531 
z
" style="fill:#ff7f0e;opacity:0.4;"/>
   </g>
   <g id="patch_77">
    <path clip-path="url(#p410b1995b7)" d="M 245.116722 363.721615 
L 266.774195 363.721615 
L 266.774195 353.858462 
L 245.116722 353.858462 
z
" style="fill:#ff7f0e;opacity:0.4;"/>
   </g>
   <g id="patch_78">
    <path clip-path="url(#p410b1995b7)" d="M 266.774195 363.721615 
L 288.431668 363.721615 
L 288.431668 348.926886 
L 266.774195 348.926886 
z
" style="fill:#ff7f0e;opacity:0.4;"/>
   </g>
   <g id="patch_79">
    <path clip-path="url(#p410b1995b7)" d="M 288.431668 363.721615 
L 310.089141 363.721615 
L 310.089141 334.132157 
L 288.431668 334.132157 
z
" style="fill:#ff7f0e;opacity:0.4;"/>
   </g>
   <g id="patch_80">
    <path clip-path="url(#p410b1995b7)" d="M 310.089141 363.721615 
L 331.746615 363.721615 
L 331.746615 329.200581 
L 310.089141 329.200581 
z
" style="fill:#ff7f0e;opacity:0.4;"/>
   </g>
   <g id="patch_81">
    <path clip-path="url(#p410b1995b7)" d="M 331.746615 363.721615 
L 353.404088 363.721615 
L 353.404088 329.200581 
L 331.746615 329.200581 
z
" style="fill:#ff7f0e;opacity:0.4;"/>
   </g>
   <g id="patch_82">
    <path clip-path="url(#p410b1995b7)" d="M 353.404088 363.721615 
L 375.061561 363.721615 
L 375.061561 329.200581 
L 353.404088 329.200581 
z
" style="fill:#ff7f0e;opacity:0.4;"/>
   </g>
   <g id="patch_83">
    <path clip-path="url(#p410b1995b7)" d="M 375.061561 363.721615 
L 396.719035 363.721615 
L 396.719035 329.200581 
L 375.061561 329.200581 
z
" style="fill:#ff7f0e;opacity:0.4;"/>
   </g>
   <g id="patch_84">
    <path clip-path="url(#p410b1995b7)" d="M 396.719035 363.721615 
L 418.376508 363.721615 
L 418.376508 304.5427 
L 396.719035 304.5427 
z
" style="fill:#ff7f0e;opacity:0.4;"/>
   </g>
   <g id="patch_85">
    <path clip-path="url(#p410b1995b7)" d="M 418.376508 363.721615 
L 440.033981 363.721615 
L 440.033981 304.5427 
L 418.376508 304.5427 
z
" style="fill:#ff7f0e;opacity:0.4;"/>
   </g>
   <g id="patch_86">
    <path clip-path="url(#p410b1995b7)" d="M 440.033981 363.721615 
L 461.691454 363.721615 
L 461.691454 348.926886 
L 440.033981 348.926886 
z
" style="fill:#ff7f0e;opacity:0.4;"/>
   </g>
   <g id="patch_87">
    <path clip-path="url(#p410b1995b7)" d="M 461.691454 363.721615 
L 483.348928 363.721615 
L 483.348928 329.200581 
L 461.691454 329.200581 
z
" style="fill:#ff7f0e;opacity:0.4;"/>
   </g>
   <g id="patch_88">
    <path clip-path="url(#p410b1995b7)" d="M 483.348928 363.721615 
L 505.006401 363.721615 
L 505.006401 324.269005 
L 483.348928 324.269005 
z
" style="fill:#ff7f0e;opacity:0.4;"/>
   </g>
   <g id="patch_89">
    <path clip-path="url(#p410b1995b7)" d="M 505.006401 363.721615 
L 526.663874 363.721615 
L 526.663874 353.858462 
L 505.006401 353.858462 
z
" style="fill:#ff7f0e;opacity:0.4;"/>
   </g>
   <g id="patch_90">
    <path clip-path="url(#p410b1995b7)" d="M 526.663874 363.721615 
L 548.321347 363.721615 
L 548.321347 348.926886 
L 526.663874 348.926886 
z
" style="fill:#ff7f0e;opacity:0.4;"/>
   </g>
   <g id="matplotlib.axis_3">
    <g id="xtick_6">
     <g id="line2d_13">
      <g>
       <use style="stroke:#000000;stroke-width:0.8;" x="82.084314" xlink:href="#m09d3db4348" y="363.721615"/>
      </g>
     </g>
    </g>
    <g id="xtick_7">
     <g id="line2d_14">
      <g>
       <use style="stroke:#000000;stroke-width:0.8;" x="193.732775" xlink:href="#m09d3db4348" y="363.721615"/>
      </g>
     </g>
    </g>
    <g id="xtick_8">
     <g id="line2d_15">
      <g>
       <use style="stroke:#000000;stroke-width:0.8;" x="305.381236" xlink:href="#m09d3db4348" y="363.721615"/>
      </g>
     </g>
    </g>
    <g id="xtick_9">
     <g id="line2d_16">
      <g>
       <use style="stroke:#000000;stroke-width:0.8;" x="417.029697" xlink:href="#m09d3db4348" y="363.721615"/>
      </g>
     </g>
    </g>
    <g id="xtick_10">
     <g id="line2d_17">
      <g>
       <use style="stroke:#000000;stroke-width:0.8;" x="528.678158" xlink:href="#m09d3db4348" y="363.721615"/>
      </g>
     </g>
    </g>
   </g>
   <g id="matplotlib.axis_4">
    <g id="ytick_6">
     <g id="line2d_18">
      <g>
       <use style="stroke:#000000;stroke-width:0.8;" x="41.711875" xlink:href="#m5a02195214" y="363.721615"/>
      </g>
     </g>
     <g id="text_10">
      <!-- 0 -->
      <g transform="translate(28.349375 367.520833)scale(0.1 -0.1)">
       <use xlink:href="#DejaVuSans-48"/>
      </g>
     </g>
    </g>
    <g id="ytick_7">
     <g id="line2d_19">
      <g>
       <use style="stroke:#000000;stroke-width:0.8;" x="41.711875" xlink:href="#m5a02195214" y="328.135241"/>
      </g>
     </g>
     <g id="text_11">
      <!-- 2 -->
      <g transform="translate(28.349375 331.934459)scale(0.1 -0.1)">
       <use xlink:href="#DejaVuSans-50"/>
      </g>
     </g>
    </g>
    <g id="ytick_8">
     <g id="line2d_20">
      <g>
       <use style="stroke:#000000;stroke-width:0.8;" x="41.711875" xlink:href="#m5a02195214" y="292.548867"/>
      </g>
     </g>
     <g id="text_12">
      <!-- 4 -->
      <g transform="translate(28.349375 296.348085)scale(0.1 -0.1)">
       <use xlink:href="#DejaVuSans-52"/>
      </g>
     </g>
    </g>
    <g id="ytick_9">
     <g id="line2d_21">
      <g>
       <use style="stroke:#000000;stroke-width:0.8;" x="41.711875" xlink:href="#m5a02195214" y="256.962493"/>
      </g>
     </g>
     <g id="text_13">
      <!-- 6 -->
      <g transform="translate(28.349375 260.761711)scale(0.1 -0.1)">
       <use xlink:href="#DejaVuSans-54"/>
      </g>
     </g>
    </g>
    <g id="ytick_10">
     <g id="line2d_22">
      <g>
       <use style="stroke:#000000;stroke-width:0.8;" x="41.711875" xlink:href="#m5a02195214" y="221.376119"/>
      </g>
     </g>
     <g id="text_14">
      <!-- 8 -->
      <g transform="translate(28.349375 225.175337)scale(0.1 -0.1)">
       <use xlink:href="#DejaVuSans-56"/>
      </g>
     </g>
    </g>
    <g id="text_15">
     <!-- Fraction of cells -->
     <g transform="translate(21.437812 343.311562)rotate(-90)scale(0.14 -0.14)">
      <use xlink:href="#DejaVuSans-70"/>
      <use x="57.410156" xlink:href="#DejaVuSans-114"/>
      <use x="98.523438" xlink:href="#DejaVuSans-97"/>
      <use x="159.802734" xlink:href="#DejaVuSans-99"/>
      <use x="214.783203" xlink:href="#DejaVuSans-116"/>
      <use x="253.992188" xlink:href="#DejaVuSans-105"/>
      <use x="281.775391" xlink:href="#DejaVuSans-111"/>
      <use x="342.957031" xlink:href="#DejaVuSans-110"/>
      <use x="406.335938" xlink:href="#DejaVuSans-32"/>
      <use x="438.123047" xlink:href="#DejaVuSans-111"/>
      <use x="499.304688" xlink:href="#DejaVuSans-102"/>
      <use x="534.509766" xlink:href="#DejaVuSans-32"/>
      <use x="566.296875" xlink:href="#DejaVuSans-99"/>
      <use x="621.277344" xlink:href="#DejaVuSans-101"/>
      <use x="682.800781" xlink:href="#DejaVuSans-108"/>
      <use x="710.583984" xlink:href="#DejaVuSans-108"/>
      <use x="738.367188" xlink:href="#DejaVuSans-115"/>
     </g>
    </g>
   </g>
   <g id="line2d_23">
    <path clip-path="url(#p410b1995b7)" d="M -1 363.197144 
L 5.396483 363.027317 
L 16.674105 362.553254 
L 27.951727 361.838716 
L 39.22935 360.813517 
L 50.506972 359.413529 
L 61.784594 357.59429 
L 73.062217 355.345307 
L 84.339839 352.701415 
L 95.617461 349.747425 
L 106.895084 346.613489 
L 118.172706 343.46097 
L 129.450328 340.461373 
L 140.72795 337.77296 
L 152.005573 335.520272 
L 163.283195 333.780591 
L 174.560817 332.579093 
L 185.83844 331.892033 
L 197.116062 331.655843 
L 208.393684 331.77984 
L 219.671307 332.16088 
L 230.948929 332.698944 
L 242.226551 333.31248 
L 253.504174 333.951389 
L 264.781796 334.604588 
L 276.059418 335.299164 
L 287.33704 336.08991 
L 298.614663 337.041071 
L 309.892285 338.205115 
L 321.169907 339.604709 
L 332.44753 341.223013 
L 343.725152 343.004353 
L 355.002774 344.863781 
L 366.280397 346.701668 
L 377.558019 348.419107 
L 388.835641 349.931212 
L 400.113263 351.177125 
L 411.390886 352.126631 
L 422.668508 352.783253 
L 433.94613 353.183245 
L 445.223753 353.389773 
L 456.501375 353.482526 
L 467.778997 353.544512 
L 479.05662 353.649171 
L 490.334242 353.851051 
L 501.611864 354.181999 
L 512.889487 354.652666 
L 524.167109 355.257265 
L 535.444731 355.978852 
L 546.722353 356.793145 
L 557.999976 357.670463 
L 569.277598 358.576721 
L 577 359.191766 
" style="fill:none;stroke:#1f77b4;stroke-linecap:square;stroke-width:1.5;"/>
   </g>
   <g id="line2d_24">
    <path clip-path="url(#p410b1995b7)" d="M -1 363.715887 
L 5.396483 363.712519 
L 16.674105 363.697979 
L 27.951727 363.666192 
L 39.22935 363.60429 
L 50.506972 363.4972 
L 61.784594 363.333168 
L 73.062217 363.111507 
L 84.339839 362.847893 
L 95.617461 362.571109 
L 106.895084 362.30882 
L 118.172706 362.068092 
L 129.450328 361.822698 
L 140.72795 361.516806 
L 152.005573 361.083624 
L 163.283195 360.467261 
L 174.560817 359.636185 
L 185.83844 358.586285 
L 197.116062 357.339328 
L 208.393684 355.939595 
L 219.671307 354.442614 
L 230.948929 352.889417 
L 242.226551 351.273565 
L 253.504174 349.524165 
L 264.781796 347.52714 
L 276.059418 345.183896 
L 287.33704 342.477719 
L 298.614663 339.507268 
L 309.892285 336.463003 
L 321.169907 333.555129 
L 332.44753 330.929637 
L 343.725152 328.617387 
L 355.002774 326.547237 
L 366.280397 324.623747 
L 377.558019 322.833613 
L 388.835641 321.319026 
L 400.113263 320.361179 
L 411.390886 320.263163 
L 422.668508 321.189576 
L 433.94613 323.063117 
L 445.223753 325.593946 
L 456.501375 328.430925 
L 467.778997 331.336245 
L 479.05662 334.268169 
L 490.334242 337.327079 
L 501.611864 340.619898 
L 512.889487 344.145544 
L 524.167109 347.769116 
L 535.444731 351.27757 
L 546.722353 354.461149 
L 557.999976 357.170585 
L 569.277598 359.335675 
L 577 360.446415 
" style="fill:none;stroke:#ff7f0e;stroke-linecap:square;stroke-width:1.5;"/>
   </g>
   <g id="patch_91">
    <path d="M 41.711875 363.721615 
L 41.711875 212.238073 
" style="fill:none;stroke:#000000;stroke-linecap:square;stroke-linejoin:miter;stroke-width:0.8;"/>
   </g>
   <g id="patch_92">
    <path d="M 565.2 363.721615 
L 565.2 212.238073 
" style="fill:none;stroke:#000000;stroke-linecap:square;stroke-linejoin:miter;stroke-width:0.8;"/>
   </g>
   <g id="patch_93">
    <path d="M 41.711875 363.721615 
L 565.2 363.721615 
" style="fill:none;stroke:#000000;stroke-linecap:square;stroke-linejoin:miter;stroke-width:0.8;"/>
   </g>
   <g id="patch_94">
    <path d="M 41.711875 212.238073 
L 565.2 212.238073 
" style="fill:none;stroke:#000000;stroke-linecap:square;stroke-linejoin:miter;stroke-width:0.8;"/>
   </g>
   <g id="text_16">
    <!-- cytd cells -->
    <defs>
     <path d="M 32.171875 -5.078125 
Q 28.375 -14.84375 24.75 -17.8125 
Q 21.140625 -20.796875 15.09375 -20.796875 
L 7.90625 -20.796875 
L 7.90625 -13.28125 
L 13.1875 -13.28125 
Q 16.890625 -13.28125 18.9375 -11.515625 
Q 21 -9.765625 23.484375 -3.21875 
L 25.09375 0.875 
L 2.984375 54.6875 
L 12.5 54.6875 
L 29.59375 11.921875 
L 46.6875 54.6875 
L 56.203125 54.6875 
z
" id="DejaVuSans-121"/>
    </defs>
    <g transform="translate(270.359062 206.238073)scale(0.14 -0.14)">
     <use xlink:href="#DejaVuSans-99"/>
     <use x="54.980469" xlink:href="#DejaVuSans-121"/>
     <use x="114.160156" xlink:href="#DejaVuSans-116"/>
     <use x="153.369141" xlink:href="#DejaVuSans-100"/>
     <use x="216.845703" xlink:href="#DejaVuSans-32"/>
     <use x="248.632812" xlink:href="#DejaVuSans-99"/>
     <use x="303.613281" xlink:href="#DejaVuSans-101"/>
     <use x="365.136719" xlink:href="#DejaVuSans-108"/>
     <use x="392.919922" xlink:href="#DejaVuSans-108"/>
     <use x="420.703125" xlink:href="#DejaVuSans-115"/>
    </g>
   </g>
   <g id="legend_2">
    <g id="patch_95">
     <path d="M 487.966875 257.065573 
L 556.8 257.065573 
Q 559.2 257.065573 559.2 254.665573 
L 559.2 220.638073 
Q 559.2 218.238073 556.8 218.238073 
L 487.966875 218.238073 
Q 485.566875 218.238073 485.566875 220.638073 
L 485.566875 254.665573 
Q 485.566875 257.065573 487.966875 257.065573 
z
" style="fill:#ffffff;opacity:0.8;stroke:#cccccc;stroke-linejoin:miter;"/>
    </g>
    <g id="patch_96">
     <path d="M 490.366875 232.156198 
L 514.366875 232.156198 
L 514.366875 223.756198 
L 490.366875 223.756198 
z
" style="fill:#1f77b4;opacity:0.4;"/>
    </g>
    <g id="text_17">
     <!-- dlm8 -->
     <g transform="translate(523.966875 232.156198)scale(0.12 -0.12)">
      <use xlink:href="#DejaVuSans-100"/>
      <use x="63.476562" xlink:href="#DejaVuSans-108"/>
      <use x="91.259766" xlink:href="#DejaVuSans-109"/>
      <use x="188.671875" xlink:href="#DejaVuSans-56"/>
     </g>
    </g>
    <g id="patch_97">
     <path d="M 490.366875 249.769948 
L 514.366875 249.769948 
L 514.366875 241.369948 
L 490.366875 241.369948 
z
" style="fill:#ff7f0e;opacity:0.4;"/>
    </g>
    <g id="text_18">
     <!-- dunn -->
     <g transform="translate(523.966875 249.769948)scale(0.12 -0.12)">
      <use xlink:href="#DejaVuSans-100"/>
      <use x="63.476562" xlink:href="#DejaVuSans-117"/>
      <use x="126.855469" xlink:href="#DejaVuSans-110"/>
      <use x="190.234375" xlink:href="#DejaVuSans-110"/>
     </g>
    </g>
   </g>
  </g>
  <g id="axes_3">
   <g id="patch_98">
    <path d="M 41.711875 548.521875 
L 565.2 548.521875 
L 565.2 397.038333 
L 41.711875 397.038333 
z
" style="fill:#ffffff;"/>
   </g>
   <g id="patch_99">
    <path clip-path="url(#p4aabbd92d9)" d="M 75.773458 548.521875 
L 87.988679 548.521875 
L 87.988679 482.944584 
L 75.773458 482.944584 
z
" style="fill:#1f77b4;opacity:0.4;"/>
   </g>
   <g id="patch_100">
    <path clip-path="url(#p4aabbd92d9)" d="M 87.988679 548.521875 
L 100.203901 548.521875 
L 100.203901 430.482752 
L 87.988679 430.482752 
z
" style="fill:#1f77b4;opacity:0.4;"/>
   </g>
   <g id="patch_101">
    <path clip-path="url(#p4aabbd92d9)" d="M 100.203901 548.521875 
L 112.419122 548.521875 
L 112.419122 404.251835 
L 100.203901 404.251835 
z
" style="fill:#1f77b4;opacity:0.4;"/>
   </g>
   <g id="patch_102">
    <path clip-path="url(#p4aabbd92d9)" d="M 112.419122 548.521875 
L 124.634343 548.521875 
L 124.634343 482.944584 
L 112.419122 482.944584 
z
" style="fill:#1f77b4;opacity:0.4;"/>
   </g>
   <g id="patch_103">
    <path clip-path="url(#p4aabbd92d9)" d="M 124.634343 548.521875 
L 136.849564 548.521875 
L 136.849564 456.713668 
L 124.634343 456.713668 
z
" style="fill:#1f77b4;opacity:0.4;"/>
   </g>
   <g id="patch_104">
    <path clip-path="url(#p4aabbd92d9)" d="M 136.849564 548.521875 
L 149.064785 548.521875 
L 149.064785 469.829126 
L 136.849564 469.829126 
z
" style="fill:#1f77b4;opacity:0.4;"/>
   </g>
   <g id="patch_105">
    <path clip-path="url(#p4aabbd92d9)" d="M 149.064785 548.521875 
L 161.280006 548.521875 
L 161.280006 496.060042 
L 149.064785 496.060042 
z
" style="fill:#1f77b4;opacity:0.4;"/>
   </g>
   <g id="patch_106">
    <path clip-path="url(#p4aabbd92d9)" d="M 161.280006 548.521875 
L 173.495227 548.521875 
L 173.495227 509.175501 
L 161.280006 509.175501 
z
" style="fill:#1f77b4;opacity:0.4;"/>
   </g>
   <g id="patch_107">
    <path clip-path="url(#p4aabbd92d9)" d="M 173.495227 548.521875 
L 185.710448 548.521875 
L 185.710448 535.406417 
L 173.495227 535.406417 
z
" style="fill:#1f77b4;opacity:0.4;"/>
   </g>
   <g id="patch_108">
    <path clip-path="url(#p4aabbd92d9)" d="M 185.710448 548.521875 
L 197.925669 548.521875 
L 197.925669 535.406417 
L 185.710448 535.406417 
z
" style="fill:#1f77b4;opacity:0.4;"/>
   </g>
   <g id="patch_109">
    <path clip-path="url(#p4aabbd92d9)" d="M 197.925669 548.521875 
L 210.14089 548.521875 
L 210.14089 496.060042 
L 197.925669 496.060042 
z
" style="fill:#1f77b4;opacity:0.4;"/>
   </g>
   <g id="patch_110">
    <path clip-path="url(#p4aabbd92d9)" d="M 210.14089 548.521875 
L 222.356111 548.521875 
L 222.356111 548.521875 
L 210.14089 548.521875 
z
" style="fill:#1f77b4;opacity:0.4;"/>
   </g>
   <g id="patch_111">
    <path clip-path="url(#p4aabbd92d9)" d="M 222.356111 548.521875 
L 234.571332 548.521875 
L 234.571332 535.406417 
L 222.356111 535.406417 
z
" style="fill:#1f77b4;opacity:0.4;"/>
   </g>
   <g id="patch_112">
    <path clip-path="url(#p4aabbd92d9)" d="M 234.571332 548.521875 
L 246.786554 548.521875 
L 246.786554 535.406417 
L 234.571332 535.406417 
z
" style="fill:#1f77b4;opacity:0.4;"/>
   </g>
   <g id="patch_113">
    <path clip-path="url(#p4aabbd92d9)" d="M 246.786554 548.521875 
L 259.001775 548.521875 
L 259.001775 535.406417 
L 246.786554 535.406417 
z
" style="fill:#1f77b4;opacity:0.4;"/>
   </g>
   <g id="patch_114">
    <path clip-path="url(#p4aabbd92d9)" d="M 259.001775 548.521875 
L 271.216996 548.521875 
L 271.216996 548.521875 
L 259.001775 548.521875 
z
" style="fill:#1f77b4;opacity:0.4;"/>
   </g>
   <g id="patch_115">
    <path clip-path="url(#p4aabbd92d9)" d="M 271.216996 548.521875 
L 283.432217 548.521875 
L 283.432217 548.521875 
L 271.216996 548.521875 
z
" style="fill:#1f77b4;opacity:0.4;"/>
   </g>
   <g id="patch_116">
    <path clip-path="url(#p4aabbd92d9)" d="M 283.432217 548.521875 
L 295.647438 548.521875 
L 295.647438 548.521875 
L 283.432217 548.521875 
z
" style="fill:#1f77b4;opacity:0.4;"/>
   </g>
   <g id="patch_117">
    <path clip-path="url(#p4aabbd92d9)" d="M 295.647438 548.521875 
L 307.862659 548.521875 
L 307.862659 522.290959 
L 295.647438 522.290959 
z
" style="fill:#1f77b4;opacity:0.4;"/>
   </g>
   <g id="patch_118">
    <path clip-path="url(#p4aabbd92d9)" d="M 307.862659 548.521875 
L 320.07788 548.521875 
L 320.07788 535.406417 
L 307.862659 535.406417 
z
" style="fill:#1f77b4;opacity:0.4;"/>
   </g>
   <g id="patch_119">
    <path clip-path="url(#p4aabbd92d9)" d="M 126.84061 548.521875 
L 139.896118 548.521875 
L 139.896118 524.495937 
L 126.84061 524.495937 
z
" style="fill:#ff7f0e;opacity:0.4;"/>
   </g>
   <g id="patch_120">
    <path clip-path="url(#p4aabbd92d9)" d="M 139.896118 548.521875 
L 152.951626 548.521875 
L 152.951626 540.513229 
L 139.896118 540.513229 
z
" style="fill:#ff7f0e;opacity:0.4;"/>
   </g>
   <g id="patch_121">
    <path clip-path="url(#p4aabbd92d9)" d="M 152.951626 548.521875 
L 166.007134 548.521875 
L 166.007134 540.513229 
L 152.951626 540.513229 
z
" style="fill:#ff7f0e;opacity:0.4;"/>
   </g>
   <g id="patch_122">
    <path clip-path="url(#p4aabbd92d9)" d="M 166.007134 548.521875 
L 179.062643 548.521875 
L 179.062643 548.521875 
L 166.007134 548.521875 
z
" style="fill:#ff7f0e;opacity:0.4;"/>
   </g>
   <g id="patch_123">
    <path clip-path="url(#p4aabbd92d9)" d="M 179.062643 548.521875 
L 192.118151 548.521875 
L 192.118151 500.469998 
L 179.062643 500.469998 
z
" style="fill:#ff7f0e;opacity:0.4;"/>
   </g>
   <g id="patch_124">
    <path clip-path="url(#p4aabbd92d9)" d="M 192.118151 548.521875 
L 205.173659 548.521875 
L 205.173659 524.495937 
L 192.118151 524.495937 
z
" style="fill:#ff7f0e;opacity:0.4;"/>
   </g>
   <g id="patch_125">
    <path clip-path="url(#p4aabbd92d9)" d="M 205.173659 548.521875 
L 218.229167 548.521875 
L 218.229167 500.469998 
L 205.173659 500.469998 
z
" style="fill:#ff7f0e;opacity:0.4;"/>
   </g>
   <g id="patch_126">
    <path clip-path="url(#p4aabbd92d9)" d="M 218.229167 548.521875 
L 231.284675 548.521875 
L 231.284675 524.495937 
L 218.229167 524.495937 
z
" style="fill:#ff7f0e;opacity:0.4;"/>
   </g>
   <g id="patch_127">
    <path clip-path="url(#p4aabbd92d9)" d="M 231.284675 548.521875 
L 244.340183 548.521875 
L 244.340183 492.461352 
L 231.284675 492.461352 
z
" style="fill:#ff7f0e;opacity:0.4;"/>
   </g>
   <g id="patch_128">
    <path clip-path="url(#p4aabbd92d9)" d="M 244.340183 548.521875 
L 257.395691 548.521875 
L 257.395691 508.478645 
L 244.340183 508.478645 
z
" style="fill:#ff7f0e;opacity:0.4;"/>
   </g>
   <g id="patch_129">
    <path clip-path="url(#p4aabbd92d9)" d="M 257.395691 548.521875 
L 270.4512 548.521875 
L 270.4512 484.452706 
L 257.395691 484.452706 
z
" style="fill:#ff7f0e;opacity:0.4;"/>
   </g>
   <g id="patch_130">
    <path clip-path="url(#p4aabbd92d9)" d="M 270.4512 548.521875 
L 283.506708 548.521875 
L 283.506708 484.452706 
L 270.4512 484.452706 
z
" style="fill:#ff7f0e;opacity:0.4;"/>
   </g>
   <g id="patch_131">
    <path clip-path="url(#p4aabbd92d9)" d="M 283.506708 548.521875 
L 296.562216 548.521875 
L 296.562216 452.418122 
L 283.506708 452.418122 
z
" style="fill:#ff7f0e;opacity:0.4;"/>
   </g>
   <g id="patch_132">
    <path clip-path="url(#p4aabbd92d9)" d="M 296.562216 548.521875 
L 309.617724 548.521875 
L 309.617724 484.452706 
L 296.562216 484.452706 
z
" style="fill:#ff7f0e;opacity:0.4;"/>
   </g>
   <g id="patch_133">
    <path clip-path="url(#p4aabbd92d9)" d="M 309.617724 548.521875 
L 322.673232 548.521875 
L 322.673232 484.452706 
L 309.617724 484.452706 
z
" style="fill:#ff7f0e;opacity:0.4;"/>
   </g>
   <g id="patch_134">
    <path clip-path="url(#p4aabbd92d9)" d="M 322.673232 548.521875 
L 335.72874 548.521875 
L 335.72874 492.461352 
L 322.673232 492.461352 
z
" style="fill:#ff7f0e;opacity:0.4;"/>
   </g>
   <g id="patch_135">
    <path clip-path="url(#p4aabbd92d9)" d="M 335.72874 548.521875 
L 348.784248 548.521875 
L 348.784248 540.513229 
L 335.72874 540.513229 
z
" style="fill:#ff7f0e;opacity:0.4;"/>
   </g>
   <g id="patch_136">
    <path clip-path="url(#p4aabbd92d9)" d="M 348.784248 548.521875 
L 361.839756 548.521875 
L 361.839756 516.487291 
L 348.784248 516.487291 
z
" style="fill:#ff7f0e;opacity:0.4;"/>
   </g>
   <g id="patch_137">
    <path clip-path="url(#p4aabbd92d9)" d="M 361.839756 548.521875 
L 374.895265 548.521875 
L 374.895265 540.513229 
L 361.839756 540.513229 
z
" style="fill:#ff7f0e;opacity:0.4;"/>
   </g>
   <g id="patch_138">
    <path clip-path="url(#p4aabbd92d9)" d="M 374.895265 548.521875 
L 387.950773 548.521875 
L 387.950773 524.495937 
L 374.895265 524.495937 
z
" style="fill:#ff7f0e;opacity:0.4;"/>
   </g>
   <g id="matplotlib.axis_5">
    <g id="xtick_11">
     <g id="line2d_25">
      <g>
       <use style="stroke:#000000;stroke-width:0.8;" x="82.084314" xlink:href="#m09d3db4348" y="548.521875"/>
      </g>
     </g>
     <g id="text_19">
      <!-- 0.4 -->
      <defs>
       <path d="M 10.6875 12.40625 
L 21 12.40625 
L 21 0 
L 10.6875 0 
z
" id="DejaVuSans-46"/>
      </defs>
      <g transform="translate(74.132752 563.120312)scale(0.1 -0.1)">
       <use xlink:href="#DejaVuSans-48"/>
       <use x="63.623047" xlink:href="#DejaVuSans-46"/>
       <use x="95.410156" xlink:href="#DejaVuSans-52"/>
      </g>
     </g>
    </g>
    <g id="xtick_12">
     <g id="line2d_26">
      <g>
       <use style="stroke:#000000;stroke-width:0.8;" x="193.732775" xlink:href="#m09d3db4348" y="548.521875"/>
      </g>
     </g>
     <g id="text_20">
      <!-- 0.6 -->
      <g transform="translate(185.781213 563.120312)scale(0.1 -0.1)">
       <use xlink:href="#DejaVuSans-48"/>
       <use x="63.623047" xlink:href="#DejaVuSans-46"/>
       <use x="95.410156" xlink:href="#DejaVuSans-54"/>
      </g>
     </g>
    </g>
    <g id="xtick_13">
     <g id="line2d_27">
      <g>
       <use style="stroke:#000000;stroke-width:0.8;" x="305.381236" xlink:href="#m09d3db4348" y="548.521875"/>
      </g>
     </g>
     <g id="text_21">
      <!-- 0.8 -->
      <g transform="translate(297.429674 563.120312)scale(0.1 -0.1)">
       <use xlink:href="#DejaVuSans-48"/>
       <use x="63.623047" xlink:href="#DejaVuSans-46"/>
       <use x="95.410156" xlink:href="#DejaVuSans-56"/>
      </g>
     </g>
    </g>
    <g id="xtick_14">
     <g id="line2d_28">
      <g>
       <use style="stroke:#000000;stroke-width:0.8;" x="417.029697" xlink:href="#m09d3db4348" y="548.521875"/>
      </g>
     </g>
     <g id="text_22">
      <!-- 1.0 -->
      <defs>
       <path d="M 12.40625 8.296875 
L 28.515625 8.296875 
L 28.515625 63.921875 
L 10.984375 60.40625 
L 10.984375 69.390625 
L 28.421875 72.90625 
L 38.28125 72.90625 
L 38.28125 8.296875 
L 54.390625 8.296875 
L 54.390625 0 
L 12.40625 0 
z
" id="DejaVuSans-49"/>
      </defs>
      <g transform="translate(409.078134 563.120312)scale(0.1 -0.1)">
       <use xlink:href="#DejaVuSans-49"/>
       <use x="63.623047" xlink:href="#DejaVuSans-46"/>
       <use x="95.410156" xlink:href="#DejaVuSans-48"/>
      </g>
     </g>
    </g>
    <g id="xtick_15">
     <g id="line2d_29">
      <g>
       <use style="stroke:#000000;stroke-width:0.8;" x="528.678158" xlink:href="#m09d3db4348" y="548.521875"/>
      </g>
     </g>
     <g id="text_23">
      <!-- 1.2 -->
      <g transform="translate(520.726595 563.120312)scale(0.1 -0.1)">
       <use xlink:href="#DejaVuSans-49"/>
       <use x="63.623047" xlink:href="#DejaVuSans-46"/>
       <use x="95.410156" xlink:href="#DejaVuSans-50"/>
      </g>
     </g>
    </g>
   </g>
   <g id="matplotlib.axis_6">
    <g id="ytick_11">
     <g id="line2d_30">
      <g>
       <use style="stroke:#000000;stroke-width:0.8;" x="41.711875" xlink:href="#m5a02195214" y="548.521875"/>
      </g>
     </g>
     <g id="text_24">
      <!-- 0 -->
      <g transform="translate(28.349375 552.321094)scale(0.1 -0.1)">
       <use xlink:href="#DejaVuSans-48"/>
      </g>
     </g>
    </g>
    <g id="ytick_12">
     <g id="line2d_31">
      <g>
       <use style="stroke:#000000;stroke-width:0.8;" x="41.711875" xlink:href="#m5a02195214" y="512.935501"/>
      </g>
     </g>
     <g id="text_25">
      <!-- 2 -->
      <g transform="translate(28.349375 516.73472)scale(0.1 -0.1)">
       <use xlink:href="#DejaVuSans-50"/>
      </g>
     </g>
    </g>
    <g id="ytick_13">
     <g id="line2d_32">
      <g>
       <use style="stroke:#000000;stroke-width:0.8;" x="41.711875" xlink:href="#m5a02195214" y="477.349127"/>
      </g>
     </g>
     <g id="text_26">
      <!-- 4 -->
      <g transform="translate(28.349375 481.148346)scale(0.1 -0.1)">
       <use xlink:href="#DejaVuSans-52"/>
      </g>
     </g>
    </g>
    <g id="ytick_14">
     <g id="line2d_33">
      <g>
       <use style="stroke:#000000;stroke-width:0.8;" x="41.711875" xlink:href="#m5a02195214" y="441.762753"/>
      </g>
     </g>
     <g id="text_27">
      <!-- 6 -->
      <g transform="translate(28.349375 445.561972)scale(0.1 -0.1)">
       <use xlink:href="#DejaVuSans-54"/>
      </g>
     </g>
    </g>
    <g id="ytick_15">
     <g id="line2d_34">
      <g>
       <use style="stroke:#000000;stroke-width:0.8;" x="41.711875" xlink:href="#m5a02195214" y="406.176379"/>
      </g>
     </g>
     <g id="text_28">
      <!-- 8 -->
      <g transform="translate(28.349375 409.975598)scale(0.1 -0.1)">
       <use xlink:href="#DejaVuSans-56"/>
      </g>
     </g>
    </g>
    <g id="text_29">
     <!-- Fraction of cells -->
     <g transform="translate(21.437812 528.111823)rotate(-90)scale(0.14 -0.14)">
      <use xlink:href="#DejaVuSans-70"/>
      <use x="57.410156" xlink:href="#DejaVuSans-114"/>
      <use x="98.523438" xlink:href="#DejaVuSans-97"/>
      <use x="159.802734" xlink:href="#DejaVuSans-99"/>
      <use x="214.783203" xlink:href="#DejaVuSans-116"/>
      <use x="253.992188" xlink:href="#DejaVuSans-105"/>
      <use x="281.775391" xlink:href="#DejaVuSans-111"/>
      <use x="342.957031" xlink:href="#DejaVuSans-110"/>
      <use x="406.335938" xlink:href="#DejaVuSans-32"/>
      <use x="438.123047" xlink:href="#DejaVuSans-111"/>
      <use x="499.304688" xlink:href="#DejaVuSans-102"/>
      <use x="534.509766" xlink:href="#DejaVuSans-32"/>
      <use x="566.296875" xlink:href="#DejaVuSans-99"/>
      <use x="621.277344" xlink:href="#DejaVuSans-101"/>
      <use x="682.800781" xlink:href="#DejaVuSans-108"/>
      <use x="710.583984" xlink:href="#DejaVuSans-108"/>
      <use x="738.367188" xlink:href="#DejaVuSans-115"/>
     </g>
    </g>
   </g>
   <g id="line2d_35">
    <path clip-path="url(#p4aabbd92d9)" d="M -1 548.426904 
L 5.396483 548.350275 
L 16.674105 547.855033 
L 27.951727 546.368576 
L 39.22935 542.705881 
L 50.506972 535.279913 
L 61.784594 522.883456 
L 73.062217 505.906148 
L 84.339839 487.086 
L 95.617461 470.828765 
L 106.895084 461.164422 
L 118.172706 459.765897 
L 129.450328 465.592842 
L 140.72795 476.157796 
L 152.005573 488.889923 
L 163.283195 501.551238 
L 174.560817 512.258743 
L 185.83844 519.928949 
L 197.116062 524.774933 
L 208.393684 528.003352 
L 219.671307 530.846775 
L 230.948929 533.877741 
L 242.226551 537.0191 
L 253.504174 539.836603 
L 264.781796 541.770611 
L 276.059418 542.423373 
L 287.33704 541.935993 
L 298.614663 541.094996 
L 309.892285 540.886484 
L 321.169907 541.808033 
L 332.44753 543.582245 
L 343.725152 545.501624 
L 355.002774 546.991105 
L 366.280397 547.879962 
L 377.558019 548.299652 
L 388.835641 548.458527 
L 400.113263 548.507046 
L 411.390886 548.519032 
L 422.668508 548.52143 
L 433.94613 548.521818 
L 445.223753 548.521869 
L 456.501375 548.521875 
L 467.778997 548.521875 
L 479.05662 548.521875 
L 490.334242 548.521875 
L 501.611864 548.521875 
L 512.889487 548.521875 
L 524.167109 548.521875 
L 535.444731 548.521875 
L 546.722353 548.521875 
L 557.999976 548.521875 
L 569.277598 548.521875 
L 577 548.521875 
" style="fill:none;stroke:#1f77b4;stroke-linecap:square;stroke-width:1.5;"/>
   </g>
   <g id="line2d_36">
    <path clip-path="url(#p4aabbd92d9)" d="M -1 548.521872 
L 5.396483 548.521869 
L 16.674105 548.521809 
L 27.951727 548.521299 
L 39.22935 548.517887 
L 50.506972 548.499869 
L 61.784594 548.425011 
L 73.062217 548.181037 
L 84.339839 547.559998 
L 95.617461 546.33243 
L 106.895084 544.461406 
L 118.172706 542.269637 
L 129.450328 540.237977 
L 140.72795 538.470933 
L 152.005573 536.411516 
L 163.283195 533.268421 
L 174.560817 528.786596 
L 185.83844 523.508334 
L 197.116062 518.263061 
L 208.393684 513.537127 
L 219.671307 509.328547 
L 230.948929 505.302761 
L 242.226551 500.895255 
L 253.504174 495.54658 
L 264.781796 489.315992 
L 276.059418 483.44385 
L 287.33704 480.076097 
L 298.614663 481.061809 
L 309.892285 486.779269 
L 321.169907 495.959165 
L 332.44753 506.453308 
L 343.725152 516.251994 
L 355.002774 524.211118 
L 366.280397 530.222542 
L 377.558019 534.838309 
L 388.835641 538.681599 
L 400.113263 542.027667 
L 411.390886 544.763856 
L 422.668508 546.681912 
L 433.94613 547.778075 
L 445.223753 548.277426 
L 456.501375 548.457168 
L 467.778997 548.508154 
L 479.05662 548.519552 
L 490.334242 548.521561 
L 501.611864 548.521841 
L 512.889487 548.521872 
L 524.167109 548.521875 
L 535.444731 548.521875 
L 546.722353 548.521875 
L 557.999976 548.521875 
L 569.277598 548.521875 
L 577 548.521875 
" style="fill:none;stroke:#ff7f0e;stroke-linecap:square;stroke-width:1.5;"/>
   </g>
   <g id="patch_139">
    <path d="M 41.711875 548.521875 
L 41.711875 397.038333 
" style="fill:none;stroke:#000000;stroke-linecap:square;stroke-linejoin:miter;stroke-width:0.8;"/>
   </g>
   <g id="patch_140">
    <path d="M 565.2 548.521875 
L 565.2 397.038333 
" style="fill:none;stroke:#000000;stroke-linecap:square;stroke-linejoin:miter;stroke-width:0.8;"/>
   </g>
   <g id="patch_141">
    <path d="M 41.711875 548.521875 
L 565.2 548.521875 
" style="fill:none;stroke:#000000;stroke-linecap:square;stroke-linejoin:miter;stroke-width:0.8;"/>
   </g>
   <g id="patch_142">
    <path d="M 41.711875 397.038333 
L 565.2 397.038333 
" style="fill:none;stroke:#000000;stroke-linecap:square;stroke-linejoin:miter;stroke-width:0.8;"/>
   </g>
   <g id="text_30">
    <!-- jasp cells -->
    <defs>
     <path d="M 9.421875 54.6875 
L 18.40625 54.6875 
L 18.40625 -0.984375 
Q 18.40625 -11.421875 14.421875 -16.109375 
Q 10.453125 -20.796875 1.609375 -20.796875 
L -1.8125 -20.796875 
L -1.8125 -13.1875 
L 0.59375 -13.1875 
Q 5.71875 -13.1875 7.5625 -10.8125 
Q 9.421875 -8.453125 9.421875 -0.984375 
z
M 9.421875 75.984375 
L 18.40625 75.984375 
L 18.40625 64.59375 
L 9.421875 64.59375 
z
" id="DejaVuSans-106"/>
     <path d="M 18.109375 8.203125 
L 18.109375 -20.796875 
L 9.078125 -20.796875 
L 9.078125 54.6875 
L 18.109375 54.6875 
L 18.109375 46.390625 
Q 20.953125 51.265625 25.265625 53.625 
Q 29.59375 56 35.59375 56 
Q 45.5625 56 51.78125 48.09375 
Q 58.015625 40.1875 58.015625 27.296875 
Q 58.015625 14.40625 51.78125 6.484375 
Q 45.5625 -1.421875 35.59375 -1.421875 
Q 29.59375 -1.421875 25.265625 0.953125 
Q 20.953125 3.328125 18.109375 8.203125 
z
M 48.6875 27.296875 
Q 48.6875 37.203125 44.609375 42.84375 
Q 40.53125 48.484375 33.40625 48.484375 
Q 26.265625 48.484375 22.1875 42.84375 
Q 18.109375 37.203125 18.109375 27.296875 
Q 18.109375 17.390625 22.1875 11.75 
Q 26.265625 6.109375 33.40625 6.109375 
Q 40.53125 6.109375 44.609375 11.75 
Q 48.6875 17.390625 48.6875 27.296875 
z
" id="DejaVuSans-112"/>
    </defs>
    <g transform="translate(271.214375 391.038333)scale(0.14 -0.14)">
     <use xlink:href="#DejaVuSans-106"/>
     <use x="27.783203" xlink:href="#DejaVuSans-97"/>
     <use x="89.0625" xlink:href="#DejaVuSans-115"/>
     <use x="141.162109" xlink:href="#DejaVuSans-112"/>
     <use x="204.638672" xlink:href="#DejaVuSans-32"/>
     <use x="236.425781" xlink:href="#DejaVuSans-99"/>
     <use x="291.40625" xlink:href="#DejaVuSans-101"/>
     <use x="352.929688" xlink:href="#DejaVuSans-108"/>
     <use x="380.712891" xlink:href="#DejaVuSans-108"/>
     <use x="408.496094" xlink:href="#DejaVuSans-115"/>
    </g>
   </g>
   <g id="legend_3">
    <g id="patch_143">
     <path d="M 487.966875 441.865833 
L 556.8 441.865833 
Q 559.2 441.865833 559.2 439.465833 
L 559.2 405.438333 
Q 559.2 403.038333 556.8 403.038333 
L 487.966875 403.038333 
Q 485.566875 403.038333 485.566875 405.438333 
L 485.566875 439.465833 
Q 485.566875 441.865833 487.966875 441.865833 
z
" style="fill:#ffffff;opacity:0.8;stroke:#cccccc;stroke-linejoin:miter;"/>
    </g>
    <g id="patch_144">
     <path d="M 490.366875 416.956458 
L 514.366875 416.956458 
L 514.366875 408.556458 
L 490.366875 408.556458 
z
" style="fill:#1f77b4;opacity:0.4;"/>
    </g>
    <g id="text_31">
     <!-- dlm8 -->
     <g transform="translate(523.966875 416.956458)scale(0.12 -0.12)">
      <use xlink:href="#DejaVuSans-100"/>
      <use x="63.476562" xlink:href="#DejaVuSans-108"/>
      <use x="91.259766" xlink:href="#DejaVuSans-109"/>
      <use x="188.671875" xlink:href="#DejaVuSans-56"/>
     </g>
    </g>
    <g id="patch_145">
     <path d="M 490.366875 434.570208 
L 514.366875 434.570208 
L 514.366875 426.170208 
L 490.366875 426.170208 
z
" style="fill:#ff7f0e;opacity:0.4;"/>
    </g>
    <g id="text_32">
     <!-- dunn -->
     <g transform="translate(523.966875 434.570208)scale(0.12 -0.12)">
      <use xlink:href="#DejaVuSans-100"/>
      <use x="63.476562" xlink:href="#DejaVuSans-117"/>
      <use x="126.855469" xlink:href="#DejaVuSans-110"/>
      <use x="190.234375" xlink:href="#DejaVuSans-110"/>
     </g>
    </g>
   </g>
  </g>
  <g id="text_33">
   <!-- Histograms of srv distances (a=1, b=0.5) to global mean cell -->
   <defs>
    <path d="M 9.8125 72.90625 
L 19.671875 72.90625 
L 19.671875 43.015625 
L 55.515625 43.015625 
L 55.515625 72.90625 
L 65.375 72.90625 
L 65.375 0 
L 55.515625 0 
L 55.515625 34.71875 
L 19.671875 34.71875 
L 19.671875 0 
L 9.8125 0 
z
" id="DejaVuSans-72"/>
    <path d="M 45.40625 27.984375 
Q 45.40625 37.75 41.375 43.109375 
Q 37.359375 48.484375 30.078125 48.484375 
Q 22.859375 48.484375 18.828125 43.109375 
Q 14.796875 37.75 14.796875 27.984375 
Q 14.796875 18.265625 18.828125 12.890625 
Q 22.859375 7.515625 30.078125 7.515625 
Q 37.359375 7.515625 41.375 12.890625 
Q 45.40625 18.265625 45.40625 27.984375 
z
M 54.390625 6.78125 
Q 54.390625 -7.171875 48.1875 -13.984375 
Q 42 -20.796875 29.203125 -20.796875 
Q 24.46875 -20.796875 20.265625 -20.09375 
Q 16.0625 -19.390625 12.109375 -17.921875 
L 12.109375 -9.1875 
Q 16.0625 -11.328125 19.921875 -12.34375 
Q 23.78125 -13.375 27.78125 -13.375 
Q 36.625 -13.375 41.015625 -8.765625 
Q 45.40625 -4.15625 45.40625 5.171875 
L 45.40625 9.625 
Q 42.625 4.78125 38.28125 2.390625 
Q 33.9375 0 27.875 0 
Q 17.828125 0 11.671875 7.65625 
Q 5.515625 15.328125 5.515625 27.984375 
Q 5.515625 40.671875 11.671875 48.328125 
Q 17.828125 56 27.875 56 
Q 33.9375 56 38.28125 53.609375 
Q 42.625 51.21875 45.40625 46.390625 
L 45.40625 54.6875 
L 54.390625 54.6875 
z
" id="DejaVuSans-103"/>
    <path d="M 2.984375 54.6875 
L 12.5 54.6875 
L 29.59375 8.796875 
L 46.6875 54.6875 
L 56.203125 54.6875 
L 35.6875 0 
L 23.484375 0 
z
" id="DejaVuSans-118"/>
    <path d="M 31 75.875 
Q 24.46875 64.65625 21.28125 53.65625 
Q 18.109375 42.671875 18.109375 31.390625 
Q 18.109375 20.125 21.3125 9.0625 
Q 24.515625 -2 31 -13.1875 
L 23.1875 -13.1875 
Q 15.875 -1.703125 12.234375 9.375 
Q 8.59375 20.453125 8.59375 31.390625 
Q 8.59375 42.28125 12.203125 53.3125 
Q 15.828125 64.359375 23.1875 75.875 
z
" id="DejaVuSans-40"/>
    <path d="M 10.59375 45.40625 
L 73.1875 45.40625 
L 73.1875 37.203125 
L 10.59375 37.203125 
z
M 10.59375 25.484375 
L 73.1875 25.484375 
L 73.1875 17.1875 
L 10.59375 17.1875 
z
" id="DejaVuSans-61"/>
    <path d="M 11.71875 12.40625 
L 22.015625 12.40625 
L 22.015625 4 
L 14.015625 -11.625 
L 7.71875 -11.625 
L 11.71875 4 
z
" id="DejaVuSans-44"/>
    <path d="M 48.6875 27.296875 
Q 48.6875 37.203125 44.609375 42.84375 
Q 40.53125 48.484375 33.40625 48.484375 
Q 26.265625 48.484375 22.1875 42.84375 
Q 18.109375 37.203125 18.109375 27.296875 
Q 18.109375 17.390625 22.1875 11.75 
Q 26.265625 6.109375 33.40625 6.109375 
Q 40.53125 6.109375 44.609375 11.75 
Q 48.6875 17.390625 48.6875 27.296875 
z
M 18.109375 46.390625 
Q 20.953125 51.265625 25.265625 53.625 
Q 29.59375 56 35.59375 56 
Q 45.5625 56 51.78125 48.09375 
Q 58.015625 40.1875 58.015625 27.296875 
Q 58.015625 14.40625 51.78125 6.484375 
Q 45.5625 -1.421875 35.59375 -1.421875 
Q 29.59375 -1.421875 25.265625 0.953125 
Q 20.953125 3.328125 18.109375 8.203125 
L 18.109375 0 
L 9.078125 0 
L 9.078125 75.984375 
L 18.109375 75.984375 
z
" id="DejaVuSans-98"/>
    <path d="M 10.796875 72.90625 
L 49.515625 72.90625 
L 49.515625 64.59375 
L 19.828125 64.59375 
L 19.828125 46.734375 
Q 21.96875 47.46875 24.109375 47.828125 
Q 26.265625 48.1875 28.421875 48.1875 
Q 40.625 48.1875 47.75 41.5 
Q 54.890625 34.8125 54.890625 23.390625 
Q 54.890625 11.625 47.5625 5.09375 
Q 40.234375 -1.421875 26.90625 -1.421875 
Q 22.3125 -1.421875 17.546875 -0.640625 
Q 12.796875 0.140625 7.71875 1.703125 
L 7.71875 11.625 
Q 12.109375 9.234375 16.796875 8.0625 
Q 21.484375 6.890625 26.703125 6.890625 
Q 35.15625 6.890625 40.078125 11.328125 
Q 45.015625 15.765625 45.015625 23.390625 
Q 45.015625 31 40.078125 35.4375 
Q 35.15625 39.890625 26.703125 39.890625 
Q 22.75 39.890625 18.8125 39.015625 
Q 14.890625 38.140625 10.796875 36.28125 
z
" id="DejaVuSans-53"/>
    <path d="M 8.015625 75.875 
L 15.828125 75.875 
Q 23.140625 64.359375 26.78125 53.3125 
Q 30.421875 42.28125 30.421875 31.390625 
Q 30.421875 20.453125 26.78125 9.375 
Q 23.140625 -1.703125 15.828125 -13.1875 
L 8.015625 -13.1875 
Q 14.5 -2 17.703125 9.0625 
Q 20.90625 20.125 20.90625 31.390625 
Q 20.90625 42.671875 17.703125 53.65625 
Q 14.5 64.65625 8.015625 75.875 
z
" id="DejaVuSans-41"/>
   </defs>
   <g transform="translate(-18.7375 26.716875)scale(0.2 -0.2)">
    <use xlink:href="#DejaVuSans-72"/>
    <use x="75.195312" xlink:href="#DejaVuSans-105"/>
    <use x="102.978516" xlink:href="#DejaVuSans-115"/>
    <use x="155.078125" xlink:href="#DejaVuSans-116"/>
    <use x="194.287109" xlink:href="#DejaVuSans-111"/>
    <use x="255.46875" xlink:href="#DejaVuSans-103"/>
    <use x="318.945312" xlink:href="#DejaVuSans-114"/>
    <use x="360.058594" xlink:href="#DejaVuSans-97"/>
    <use x="421.337891" xlink:href="#DejaVuSans-109"/>
    <use x="518.75" xlink:href="#DejaVuSans-115"/>
    <use x="570.849609" xlink:href="#DejaVuSans-32"/>
    <use x="602.636719" xlink:href="#DejaVuSans-111"/>
    <use x="663.818359" xlink:href="#DejaVuSans-102"/>
    <use x="699.023438" xlink:href="#DejaVuSans-32"/>
    <use x="730.810547" xlink:href="#DejaVuSans-115"/>
    <use x="782.910156" xlink:href="#DejaVuSans-114"/>
    <use x="824.023438" xlink:href="#DejaVuSans-118"/>
    <use x="883.203125" xlink:href="#DejaVuSans-32"/>
    <use x="914.990234" xlink:href="#DejaVuSans-100"/>
    <use x="978.466797" xlink:href="#DejaVuSans-105"/>
    <use x="1006.25" xlink:href="#DejaVuSans-115"/>
    <use x="1058.349609" xlink:href="#DejaVuSans-116"/>
    <use x="1097.558594" xlink:href="#DejaVuSans-97"/>
    <use x="1158.837891" xlink:href="#DejaVuSans-110"/>
    <use x="1222.216797" xlink:href="#DejaVuSans-99"/>
    <use x="1277.197266" xlink:href="#DejaVuSans-101"/>
    <use x="1338.720703" xlink:href="#DejaVuSans-115"/>
    <use x="1390.820312" xlink:href="#DejaVuSans-32"/>
    <use x="1422.607422" xlink:href="#DejaVuSans-40"/>
    <use x="1461.621094" xlink:href="#DejaVuSans-97"/>
    <use x="1522.900391" xlink:href="#DejaVuSans-61"/>
    <use x="1606.689453" xlink:href="#DejaVuSans-49"/>
    <use x="1670.3125" xlink:href="#DejaVuSans-44"/>
    <use x="1702.099609" xlink:href="#DejaVuSans-32"/>
    <use x="1733.886719" xlink:href="#DejaVuSans-98"/>
    <use x="1797.363281" xlink:href="#DejaVuSans-61"/>
    <use x="1881.152344" xlink:href="#DejaVuSans-48"/>
    <use x="1944.775391" xlink:href="#DejaVuSans-46"/>
    <use x="1976.5625" xlink:href="#DejaVuSans-53"/>
    <use x="2040.185547" xlink:href="#DejaVuSans-41"/>
    <use x="2079.199219" xlink:href="#DejaVuSans-32"/>
    <use x="2110.986328" xlink:href="#DejaVuSans-116"/>
    <use x="2150.195312" xlink:href="#DejaVuSans-111"/>
    <use x="2211.376953" xlink:href="#DejaVuSans-32"/>
    <use x="2243.164062" xlink:href="#DejaVuSans-103"/>
    <use x="2306.640625" xlink:href="#DejaVuSans-108"/>
    <use x="2334.423828" xlink:href="#DejaVuSans-111"/>
    <use x="2395.605469" xlink:href="#DejaVuSans-98"/>
    <use x="2459.082031" xlink:href="#DejaVuSans-97"/>
    <use x="2520.361328" xlink:href="#DejaVuSans-108"/>
    <use x="2548.144531" xlink:href="#DejaVuSans-32"/>
    <use x="2579.931641" xlink:href="#DejaVuSans-109"/>
    <use x="2677.34375" xlink:href="#DejaVuSans-101"/>
    <use x="2738.867188" xlink:href="#DejaVuSans-97"/>
    <use x="2800.146484" xlink:href="#DejaVuSans-110"/>
    <use x="2863.525391" xlink:href="#DejaVuSans-32"/>
    <use x="2895.3125" xlink:href="#DejaVuSans-99"/>
    <use x="2950.292969" xlink:href="#DejaVuSans-101"/>
    <use x="3011.816406" xlink:href="#DejaVuSans-108"/>
    <use x="3039.599609" xlink:href="#DejaVuSans-108"/>
   </g>
  </g>
 </g>
 <defs>
  <clipPath id="p8a309b5a89">
   <rect height="151.483542" width="523.488125" x="41.711875" y="27.437812"/>
  </clipPath>
  <clipPath id="p410b1995b7">
   <rect height="151.483542" width="523.488125" x="41.711875" y="212.238073"/>
  </clipPath>
  <clipPath id="p4aabbd92d9">
   <rect height="151.483542" width="523.488125" x="41.711875" y="397.038333"/>
  </clipPath>
 </defs>
</svg>
