<?xml version="1.0" encoding="utf-8" standalone="no"?>
<!DOCTYPE svg PUBLIC "-//W3C//DTD SVG 1.1//EN"
  "http://www.w3.org/Graphics/SVG/1.1/DTD/svg11.dtd">
<!-- Created with matplotlib (https://matplotlib.org/) -->
<svg height="288pt" version="1.1" viewBox="0 0 576 288" width="576pt" xmlns="http://www.w3.org/2000/svg" xmlns:xlink="http://www.w3.org/1999/xlink">
 <defs>
  <style type="text/css">
*{stroke-linecap:butt;stroke-linejoin:round;}
  </style>
 </defs>
 <g id="figure_1">
  <g id="patch_1">
   <path d="M 0 288 
L 576 288 
L 576 0 
L 0 0 
z
" style="fill:#ffffff;"/>
  </g>
  <g id="axes_1">
   <g id="patch_2">
    <path d="M 41.711875 260.521875 
L 565.2 260.521875 
L 565.2 27.437812 
L 41.711875 27.437812 
z
" style="fill:#ffffff;"/>
   </g>
   <g id="patch_3">
    <path clip-path="url(#p9fa13004a7)" d="M 41.711875 260.521875 
L 60.077501 260.521875 
L 60.077501 168.556735 
L 41.711875 168.556735 
z
" style="fill:#2ca02c;opacity:0.4;"/>
   </g>
   <g id="patch_4">
    <path clip-path="url(#p9fa13004a7)" d="M 60.077501 260.521875 
L 78.443127 260.521875 
L 78.443127 38.537054 
L 60.077501 38.537054 
z
" style="fill:#2ca02c;opacity:0.4;"/>
   </g>
   <g id="patch_5">
    <path clip-path="url(#p9fa13004a7)" d="M 78.443127 260.521875 
L 96.808753 260.521875 
L 96.808753 143.187041 
L 78.443127 143.187041 
z
" style="fill:#2ca02c;opacity:0.4;"/>
   </g>
   <g id="patch_6">
    <path clip-path="url(#p9fa13004a7)" d="M 96.808753 260.521875 
L 115.174379 260.521875 
L 115.174379 200.268852 
L 96.808753 200.268852 
z
" style="fill:#2ca02c;opacity:0.4;"/>
   </g>
   <g id="patch_7">
    <path clip-path="url(#p9fa13004a7)" d="M 115.174379 260.521875 
L 133.540005 260.521875 
L 133.540005 203.440064 
L 115.174379 203.440064 
z
" style="fill:#2ca02c;opacity:0.4;"/>
   </g>
   <g id="patch_8">
    <path clip-path="url(#p9fa13004a7)" d="M 133.540005 260.521875 
L 151.905631 260.521875 
L 151.905631 203.440064 
L 133.540005 203.440064 
z
" style="fill:#2ca02c;opacity:0.4;"/>
   </g>
   <g id="patch_9">
    <path clip-path="url(#p9fa13004a7)" d="M 151.905631 260.521875 
L 170.271257 260.521875 
L 170.271257 212.953699 
L 151.905631 212.953699 
z
" style="fill:#2ca02c;opacity:0.4;"/>
   </g>
   <g id="patch_10">
    <path clip-path="url(#p9fa13004a7)" d="M 170.271257 260.521875 
L 188.636883 260.521875 
L 188.636883 203.440064 
L 170.271257 203.440064 
z
" style="fill:#2ca02c;opacity:0.4;"/>
   </g>
   <g id="patch_11">
    <path clip-path="url(#p9fa13004a7)" d="M 188.636883 260.521875 
L 207.002509 260.521875 
L 207.002509 206.611276 
L 188.636883 206.611276 
z
" style="fill:#2ca02c;opacity:0.4;"/>
   </g>
   <g id="patch_12">
    <path clip-path="url(#p9fa13004a7)" d="M 207.002509 260.521875 
L 225.368135 260.521875 
L 225.368135 193.926429 
L 207.002509 193.926429 
z
" style="fill:#2ca02c;opacity:0.4;"/>
   </g>
   <g id="patch_13">
    <path clip-path="url(#p9fa13004a7)" d="M 225.368135 260.521875 
L 243.733761 260.521875 
L 243.733761 225.638546 
L 225.368135 225.638546 
z
" style="fill:#2ca02c;opacity:0.4;"/>
   </g>
   <g id="patch_14">
    <path clip-path="url(#p9fa13004a7)" d="M 243.733761 260.521875 
L 262.099387 260.521875 
L 262.099387 238.323393 
L 243.733761 238.323393 
z
" style="fill:#2ca02c;opacity:0.4;"/>
   </g>
   <g id="patch_15">
    <path clip-path="url(#p9fa13004a7)" d="M 262.099387 260.521875 
L 280.465013 260.521875 
L 280.465013 225.638546 
L 262.099387 225.638546 
z
" style="fill:#2ca02c;opacity:0.4;"/>
   </g>
   <g id="patch_16">
    <path clip-path="url(#p9fa13004a7)" d="M 280.465013 260.521875 
L 298.830639 260.521875 
L 298.830639 231.980969 
L 280.465013 231.980969 
z
" style="fill:#2ca02c;opacity:0.4;"/>
   </g>
   <g id="patch_17">
    <path clip-path="url(#p9fa13004a7)" d="M 298.830639 260.521875 
L 317.196265 260.521875 
L 317.196265 238.323393 
L 298.830639 238.323393 
z
" style="fill:#2ca02c;opacity:0.4;"/>
   </g>
   <g id="patch_18">
    <path clip-path="url(#p9fa13004a7)" d="M 317.196265 260.521875 
L 335.561891 260.521875 
L 335.561891 254.179452 
L 317.196265 254.179452 
z
" style="fill:#2ca02c;opacity:0.4;"/>
   </g>
   <g id="patch_19">
    <path clip-path="url(#p9fa13004a7)" d="M 335.561891 260.521875 
L 353.927517 260.521875 
L 353.927517 251.00824 
L 335.561891 251.00824 
z
" style="fill:#2ca02c;opacity:0.4;"/>
   </g>
   <g id="patch_20">
    <path clip-path="url(#p9fa13004a7)" d="M 353.927517 260.521875 
L 372.293143 260.521875 
L 372.293143 251.00824 
L 353.927517 251.00824 
z
" style="fill:#2ca02c;opacity:0.4;"/>
   </g>
   <g id="patch_21">
    <path clip-path="url(#p9fa13004a7)" d="M 372.293143 260.521875 
L 390.658769 260.521875 
L 390.658769 254.179452 
L 372.293143 254.179452 
z
" style="fill:#2ca02c;opacity:0.4;"/>
   </g>
   <g id="patch_22">
    <path clip-path="url(#p9fa13004a7)" d="M 390.658769 260.521875 
L 409.024395 260.521875 
L 409.024395 257.350663 
L 390.658769 257.350663 
z
" style="fill:#2ca02c;opacity:0.4;"/>
   </g>
   <g id="patch_23">
    <path clip-path="url(#p9fa13004a7)" d="M 104.816812 260.521875 
L 127.835971 260.521875 
L 127.835971 237.533907 
L 104.816812 237.533907 
z
" style="fill:#d62728;opacity:0.4;"/>
   </g>
   <g id="patch_24">
    <path clip-path="url(#p9fa13004a7)" d="M 127.835971 260.521875 
L 150.855131 260.521875 
L 150.855131 223.741126 
L 127.835971 223.741126 
z
" style="fill:#d62728;opacity:0.4;"/>
   </g>
   <g id="patch_25">
    <path clip-path="url(#p9fa13004a7)" d="M 150.855131 260.521875 
L 173.87429 260.521875 
L 173.87429 228.338719 
L 150.855131 228.338719 
z
" style="fill:#d62728;opacity:0.4;"/>
   </g>
   <g id="patch_26">
    <path clip-path="url(#p9fa13004a7)" d="M 173.87429 260.521875 
L 196.89345 260.521875 
L 196.89345 223.741126 
L 173.87429 223.741126 
z
" style="fill:#d62728;opacity:0.4;"/>
   </g>
   <g id="patch_27">
    <path clip-path="url(#p9fa13004a7)" d="M 196.89345 260.521875 
L 219.912609 260.521875 
L 219.912609 219.143532 
L 196.89345 219.143532 
z
" style="fill:#d62728;opacity:0.4;"/>
   </g>
   <g id="patch_28">
    <path clip-path="url(#p9fa13004a7)" d="M 219.912609 260.521875 
L 242.931768 260.521875 
L 242.931768 219.143532 
L 219.912609 219.143532 
z
" style="fill:#d62728;opacity:0.4;"/>
   </g>
   <g id="patch_29">
    <path clip-path="url(#p9fa13004a7)" d="M 242.931768 260.521875 
L 265.950928 260.521875 
L 265.950928 232.936313 
L 242.931768 232.936313 
z
" style="fill:#d62728;opacity:0.4;"/>
   </g>
   <g id="patch_30">
    <path clip-path="url(#p9fa13004a7)" d="M 265.950928 260.521875 
L 288.970087 260.521875 
L 288.970087 228.338719 
L 265.950928 228.338719 
z
" style="fill:#d62728;opacity:0.4;"/>
   </g>
   <g id="patch_31">
    <path clip-path="url(#p9fa13004a7)" d="M 288.970087 260.521875 
L 311.989247 260.521875 
L 311.989247 191.55797 
L 288.970087 191.55797 
z
" style="fill:#d62728;opacity:0.4;"/>
   </g>
   <g id="patch_32">
    <path clip-path="url(#p9fa13004a7)" d="M 311.989247 260.521875 
L 335.008406 260.521875 
L 335.008406 200.753157 
L 311.989247 200.753157 
z
" style="fill:#d62728;opacity:0.4;"/>
   </g>
   <g id="patch_33">
    <path clip-path="url(#p9fa13004a7)" d="M 335.008406 260.521875 
L 358.027565 260.521875 
L 358.027565 219.143532 
L 335.008406 219.143532 
z
" style="fill:#d62728;opacity:0.4;"/>
   </g>
   <g id="patch_34">
    <path clip-path="url(#p9fa13004a7)" d="M 358.027565 260.521875 
L 381.046725 260.521875 
L 381.046725 205.350751 
L 358.027565 205.350751 
z
" style="fill:#d62728;opacity:0.4;"/>
   </g>
   <g id="patch_35">
    <path clip-path="url(#p9fa13004a7)" d="M 381.046725 260.521875 
L 404.065884 260.521875 
L 404.065884 209.948344 
L 381.046725 209.948344 
z
" style="fill:#d62728;opacity:0.4;"/>
   </g>
   <g id="patch_36">
    <path clip-path="url(#p9fa13004a7)" d="M 404.065884 260.521875 
L 427.085044 260.521875 
L 427.085044 196.155563 
L 404.065884 196.155563 
z
" style="fill:#d62728;opacity:0.4;"/>
   </g>
   <g id="patch_37">
    <path clip-path="url(#p9fa13004a7)" d="M 427.085044 260.521875 
L 450.104203 260.521875 
L 450.104203 219.143532 
L 427.085044 219.143532 
z
" style="fill:#d62728;opacity:0.4;"/>
   </g>
   <g id="patch_38">
    <path clip-path="url(#p9fa13004a7)" d="M 450.104203 260.521875 
L 473.123362 260.521875 
L 473.123362 223.741126 
L 450.104203 223.741126 
z
" style="fill:#d62728;opacity:0.4;"/>
   </g>
   <g id="patch_39">
    <path clip-path="url(#p9fa13004a7)" d="M 473.123362 260.521875 
L 496.142522 260.521875 
L 496.142522 205.350751 
L 473.123362 205.350751 
z
" style="fill:#d62728;opacity:0.4;"/>
   </g>
   <g id="patch_40">
    <path clip-path="url(#p9fa13004a7)" d="M 496.142522 260.521875 
L 519.161681 260.521875 
L 519.161681 242.1315 
L 496.142522 242.1315 
z
" style="fill:#d62728;opacity:0.4;"/>
   </g>
   <g id="patch_41">
    <path clip-path="url(#p9fa13004a7)" d="M 519.161681 260.521875 
L 542.180841 260.521875 
L 542.180841 232.936313 
L 519.161681 232.936313 
z
" style="fill:#d62728;opacity:0.4;"/>
   </g>
   <g id="patch_42">
    <path clip-path="url(#p9fa13004a7)" d="M 542.180841 260.521875 
L 565.2 260.521875 
L 565.2 246.729094 
L 542.180841 246.729094 
z
" style="fill:#d62728;opacity:0.4;"/>
   </g>
   <g id="patch_43">
    <path clip-path="url(#p9fa13004a7)" d="M 75.773458 260.521875 
L 91.382324 260.521875 
L 91.382324 207.618286 
L 75.773458 207.618286 
z
" style="fill:#9467bd;opacity:0.4;"/>
   </g>
   <g id="patch_44">
    <path clip-path="url(#p9fa13004a7)" d="M 91.382324 260.521875 
L 106.99119 260.521875 
L 106.99119 177.387663 
L 91.382324 177.387663 
z
" style="fill:#9467bd;opacity:0.4;"/>
   </g>
   <g id="patch_45">
    <path clip-path="url(#p9fa13004a7)" d="M 106.99119 260.521875 
L 122.600056 260.521875 
L 122.600056 169.830007 
L 106.99119 169.830007 
z
" style="fill:#9467bd;opacity:0.4;"/>
   </g>
   <g id="patch_46">
    <path clip-path="url(#p9fa13004a7)" d="M 122.600056 260.521875 
L 138.208921 260.521875 
L 138.208921 177.387663 
L 122.600056 177.387663 
z
" style="fill:#9467bd;opacity:0.4;"/>
   </g>
   <g id="patch_47">
    <path clip-path="url(#p9fa13004a7)" d="M 138.208921 260.521875 
L 153.817787 260.521875 
L 153.817787 207.618286 
L 138.208921 207.618286 
z
" style="fill:#9467bd;opacity:0.4;"/>
   </g>
   <g id="patch_48">
    <path clip-path="url(#p9fa13004a7)" d="M 153.817787 260.521875 
L 169.426653 260.521875 
L 169.426653 207.618286 
L 153.817787 207.618286 
z
" style="fill:#9467bd;opacity:0.4;"/>
   </g>
   <g id="patch_49">
    <path clip-path="url(#p9fa13004a7)" d="M 169.426653 260.521875 
L 185.035518 260.521875 
L 185.035518 222.733597 
L 169.426653 222.733597 
z
" style="fill:#9467bd;opacity:0.4;"/>
   </g>
   <g id="patch_50">
    <path clip-path="url(#p9fa13004a7)" d="M 185.035518 260.521875 
L 200.644384 260.521875 
L 200.644384 207.618286 
L 185.035518 207.618286 
z
" style="fill:#9467bd;opacity:0.4;"/>
   </g>
   <g id="patch_51">
    <path clip-path="url(#p9fa13004a7)" d="M 200.644384 260.521875 
L 216.25325 260.521875 
L 216.25325 207.618286 
L 200.644384 207.618286 
z
" style="fill:#9467bd;opacity:0.4;"/>
   </g>
   <g id="patch_52">
    <path clip-path="url(#p9fa13004a7)" d="M 216.25325 260.521875 
L 231.862116 260.521875 
L 231.862116 207.618286 
L 216.25325 207.618286 
z
" style="fill:#9467bd;opacity:0.4;"/>
   </g>
   <g id="patch_53">
    <path clip-path="url(#p9fa13004a7)" d="M 231.862116 260.521875 
L 247.470981 260.521875 
L 247.470981 192.502974 
L 231.862116 192.502974 
z
" style="fill:#9467bd;opacity:0.4;"/>
   </g>
   <g id="patch_54">
    <path clip-path="url(#p9fa13004a7)" d="M 247.470981 260.521875 
L 263.079847 260.521875 
L 263.079847 192.502974 
L 247.470981 192.502974 
z
" style="fill:#9467bd;opacity:0.4;"/>
   </g>
   <g id="patch_55">
    <path clip-path="url(#p9fa13004a7)" d="M 263.079847 260.521875 
L 278.688713 260.521875 
L 278.688713 215.175941 
L 263.079847 215.175941 
z
" style="fill:#9467bd;opacity:0.4;"/>
   </g>
   <g id="patch_56">
    <path clip-path="url(#p9fa13004a7)" d="M 278.688713 260.521875 
L 294.297578 260.521875 
L 294.297578 139.599385 
L 278.688713 139.599385 
z
" style="fill:#9467bd;opacity:0.4;"/>
   </g>
   <g id="patch_57">
    <path clip-path="url(#p9fa13004a7)" d="M 294.297578 260.521875 
L 309.906444 260.521875 
L 309.906444 177.387663 
L 294.297578 177.387663 
z
" style="fill:#9467bd;opacity:0.4;"/>
   </g>
   <g id="patch_58">
    <path clip-path="url(#p9fa13004a7)" d="M 309.906444 260.521875 
L 325.51531 260.521875 
L 325.51531 169.830007 
L 309.906444 169.830007 
z
" style="fill:#9467bd;opacity:0.4;"/>
   </g>
   <g id="patch_59">
    <path clip-path="url(#p9fa13004a7)" d="M 325.51531 260.521875 
L 341.124176 260.521875 
L 341.124176 230.291252 
L 325.51531 230.291252 
z
" style="fill:#9467bd;opacity:0.4;"/>
   </g>
   <g id="patch_60">
    <path clip-path="url(#p9fa13004a7)" d="M 341.124176 260.521875 
L 356.733041 260.521875 
L 356.733041 237.848908 
L 341.124176 237.848908 
z
" style="fill:#9467bd;opacity:0.4;"/>
   </g>
   <g id="patch_61">
    <path clip-path="url(#p9fa13004a7)" d="M 356.733041 260.521875 
L 372.341907 260.521875 
L 372.341907 237.848908 
L 356.733041 237.848908 
z
" style="fill:#9467bd;opacity:0.4;"/>
   </g>
   <g id="patch_62">
    <path clip-path="url(#p9fa13004a7)" d="M 372.341907 260.521875 
L 387.950773 260.521875 
L 387.950773 237.848908 
L 372.341907 237.848908 
z
" style="fill:#9467bd;opacity:0.4;"/>
   </g>
   <g id="matplotlib.axis_1">
    <g id="xtick_1">
     <g id="line2d_1">
      <defs>
       <path d="M 0 0 
L 0 3.5 
" id="m3c7b859bfa" style="stroke:#000000;stroke-width:0.8;"/>
      </defs>
      <g>
       <use style="stroke:#000000;stroke-width:0.8;" x="82.084314" xlink:href="#m3c7b859bfa" y="260.521875"/>
      </g>
     </g>
     <g id="text_1">
      <!-- 0.4 -->
      <defs>
       <path d="M 31.78125 66.40625 
Q 24.171875 66.40625 20.328125 58.90625 
Q 16.5 51.421875 16.5 36.375 
Q 16.5 21.390625 20.328125 13.890625 
Q 24.171875 6.390625 31.78125 6.390625 
Q 39.453125 6.390625 43.28125 13.890625 
Q 47.125 21.390625 47.125 36.375 
Q 47.125 51.421875 43.28125 58.90625 
Q 39.453125 66.40625 31.78125 66.40625 
z
M 31.78125 74.21875 
Q 44.046875 74.21875 50.515625 64.515625 
Q 56.984375 54.828125 56.984375 36.375 
Q 56.984375 17.96875 50.515625 8.265625 
Q 44.046875 -1.421875 31.78125 -1.421875 
Q 19.53125 -1.421875 13.0625 8.265625 
Q 6.59375 17.96875 6.59375 36.375 
Q 6.59375 54.828125 13.0625 64.515625 
Q 19.53125 74.21875 31.78125 74.21875 
z
" id="DejaVuSans-48"/>
       <path d="M 10.6875 12.40625 
L 21 12.40625 
L 21 0 
L 10.6875 0 
z
" id="DejaVuSans-46"/>
       <path d="M 37.796875 64.3125 
L 12.890625 25.390625 
L 37.796875 25.390625 
z
M 35.203125 72.90625 
L 47.609375 72.90625 
L 47.609375 25.390625 
L 58.015625 25.390625 
L 58.015625 17.1875 
L 47.609375 17.1875 
L 47.609375 0 
L 37.796875 0 
L 37.796875 17.1875 
L 4.890625 17.1875 
L 4.890625 26.703125 
z
" id="DejaVuSans-52"/>
      </defs>
      <g transform="translate(74.132752 275.120313)scale(0.1 -0.1)">
       <use xlink:href="#DejaVuSans-48"/>
       <use x="63.623047" xlink:href="#DejaVuSans-46"/>
       <use x="95.410156" xlink:href="#DejaVuSans-52"/>
      </g>
     </g>
    </g>
    <g id="xtick_2">
     <g id="line2d_2">
      <g>
       <use style="stroke:#000000;stroke-width:0.8;" x="193.732775" xlink:href="#m3c7b859bfa" y="260.521875"/>
      </g>
     </g>
     <g id="text_2">
      <!-- 0.6 -->
      <defs>
       <path d="M 33.015625 40.375 
Q 26.375 40.375 22.484375 35.828125 
Q 18.609375 31.296875 18.609375 23.390625 
Q 18.609375 15.53125 22.484375 10.953125 
Q 26.375 6.390625 33.015625 6.390625 
Q 39.65625 6.390625 43.53125 10.953125 
Q 47.40625 15.53125 47.40625 23.390625 
Q 47.40625 31.296875 43.53125 35.828125 
Q 39.65625 40.375 33.015625 40.375 
z
M 52.59375 71.296875 
L 52.59375 62.3125 
Q 48.875 64.0625 45.09375 64.984375 
Q 41.3125 65.921875 37.59375 65.921875 
Q 27.828125 65.921875 22.671875 59.328125 
Q 17.53125 52.734375 16.796875 39.40625 
Q 19.671875 43.65625 24.015625 45.921875 
Q 28.375 48.1875 33.59375 48.1875 
Q 44.578125 48.1875 50.953125 41.515625 
Q 57.328125 34.859375 57.328125 23.390625 
Q 57.328125 12.15625 50.6875 5.359375 
Q 44.046875 -1.421875 33.015625 -1.421875 
Q 20.359375 -1.421875 13.671875 8.265625 
Q 6.984375 17.96875 6.984375 36.375 
Q 6.984375 53.65625 15.1875 63.9375 
Q 23.390625 74.21875 37.203125 74.21875 
Q 40.921875 74.21875 44.703125 73.484375 
Q 48.484375 72.75 52.59375 71.296875 
z
" id="DejaVuSans-54"/>
      </defs>
      <g transform="translate(185.781213 275.120313)scale(0.1 -0.1)">
       <use xlink:href="#DejaVuSans-48"/>
       <use x="63.623047" xlink:href="#DejaVuSans-46"/>
       <use x="95.410156" xlink:href="#DejaVuSans-54"/>
      </g>
     </g>
    </g>
    <g id="xtick_3">
     <g id="line2d_3">
      <g>
       <use style="stroke:#000000;stroke-width:0.8;" x="305.381236" xlink:href="#m3c7b859bfa" y="260.521875"/>
      </g>
     </g>
     <g id="text_3">
      <!-- 0.8 -->
      <defs>
       <path d="M 31.78125 34.625 
Q 24.75 34.625 20.71875 30.859375 
Q 16.703125 27.09375 16.703125 20.515625 
Q 16.703125 13.921875 20.71875 10.15625 
Q 24.75 6.390625 31.78125 6.390625 
Q 38.8125 6.390625 42.859375 10.171875 
Q 46.921875 13.96875 46.921875 20.515625 
Q 46.921875 27.09375 42.890625 30.859375 
Q 38.875 34.625 31.78125 34.625 
z
M 21.921875 38.8125 
Q 15.578125 40.375 12.03125 44.71875 
Q 8.5 49.078125 8.5 55.328125 
Q 8.5 64.0625 14.71875 69.140625 
Q 20.953125 74.21875 31.78125 74.21875 
Q 42.671875 74.21875 48.875 69.140625 
Q 55.078125 64.0625 55.078125 55.328125 
Q 55.078125 49.078125 51.53125 44.71875 
Q 48 40.375 41.703125 38.8125 
Q 48.828125 37.15625 52.796875 32.3125 
Q 56.78125 27.484375 56.78125 20.515625 
Q 56.78125 9.90625 50.3125 4.234375 
Q 43.84375 -1.421875 31.78125 -1.421875 
Q 19.734375 -1.421875 13.25 4.234375 
Q 6.78125 9.90625 6.78125 20.515625 
Q 6.78125 27.484375 10.78125 32.3125 
Q 14.796875 37.15625 21.921875 38.8125 
z
M 18.3125 54.390625 
Q 18.3125 48.734375 21.84375 45.5625 
Q 25.390625 42.390625 31.78125 42.390625 
Q 38.140625 42.390625 41.71875 45.5625 
Q 45.3125 48.734375 45.3125 54.390625 
Q 45.3125 60.0625 41.71875 63.234375 
Q 38.140625 66.40625 31.78125 66.40625 
Q 25.390625 66.40625 21.84375 63.234375 
Q 18.3125 60.0625 18.3125 54.390625 
z
" id="DejaVuSans-56"/>
      </defs>
      <g transform="translate(297.429674 275.120313)scale(0.1 -0.1)">
       <use xlink:href="#DejaVuSans-48"/>
       <use x="63.623047" xlink:href="#DejaVuSans-46"/>
       <use x="95.410156" xlink:href="#DejaVuSans-56"/>
      </g>
     </g>
    </g>
    <g id="xtick_4">
     <g id="line2d_4">
      <g>
       <use style="stroke:#000000;stroke-width:0.8;" x="417.029697" xlink:href="#m3c7b859bfa" y="260.521875"/>
      </g>
     </g>
     <g id="text_4">
      <!-- 1.0 -->
      <defs>
       <path d="M 12.40625 8.296875 
L 28.515625 8.296875 
L 28.515625 63.921875 
L 10.984375 60.40625 
L 10.984375 69.390625 
L 28.421875 72.90625 
L 38.28125 72.90625 
L 38.28125 8.296875 
L 54.390625 8.296875 
L 54.390625 0 
L 12.40625 0 
z
" id="DejaVuSans-49"/>
      </defs>
      <g transform="translate(409.078134 275.120313)scale(0.1 -0.1)">
       <use xlink:href="#DejaVuSans-49"/>
       <use x="63.623047" xlink:href="#DejaVuSans-46"/>
       <use x="95.410156" xlink:href="#DejaVuSans-48"/>
      </g>
     </g>
    </g>
    <g id="xtick_5">
     <g id="line2d_5">
      <g>
       <use style="stroke:#000000;stroke-width:0.8;" x="528.678158" xlink:href="#m3c7b859bfa" y="260.521875"/>
      </g>
     </g>
     <g id="text_5">
      <!-- 1.2 -->
      <defs>
       <path d="M 19.1875 8.296875 
L 53.609375 8.296875 
L 53.609375 0 
L 7.328125 0 
L 7.328125 8.296875 
Q 12.9375 14.109375 22.625 23.890625 
Q 32.328125 33.6875 34.8125 36.53125 
Q 39.546875 41.84375 41.421875 45.53125 
Q 43.3125 49.21875 43.3125 52.78125 
Q 43.3125 58.59375 39.234375 62.25 
Q 35.15625 65.921875 28.609375 65.921875 
Q 23.96875 65.921875 18.8125 64.3125 
Q 13.671875 62.703125 7.8125 59.421875 
L 7.8125 69.390625 
Q 13.765625 71.78125 18.9375 73 
Q 24.125 74.21875 28.421875 74.21875 
Q 39.75 74.21875 46.484375 68.546875 
Q 53.21875 62.890625 53.21875 53.421875 
Q 53.21875 48.921875 51.53125 44.890625 
Q 49.859375 40.875 45.40625 35.40625 
Q 44.1875 33.984375 37.640625 27.21875 
Q 31.109375 20.453125 19.1875 8.296875 
z
" id="DejaVuSans-50"/>
      </defs>
      <g transform="translate(520.726595 275.120313)scale(0.1 -0.1)">
       <use xlink:href="#DejaVuSans-49"/>
       <use x="63.623047" xlink:href="#DejaVuSans-46"/>
       <use x="95.410156" xlink:href="#DejaVuSans-50"/>
      </g>
     </g>
    </g>
   </g>
   <g id="matplotlib.axis_2">
    <g id="ytick_1">
     <g id="line2d_6">
      <defs>
       <path d="M 0 0 
L -3.5 0 
" id="m31765d5415" style="stroke:#000000;stroke-width:0.8;"/>
      </defs>
      <g>
       <use style="stroke:#000000;stroke-width:0.8;" x="41.711875" xlink:href="#m31765d5415" y="260.521875"/>
      </g>
     </g>
     <g id="text_6">
      <!-- 0 -->
      <g transform="translate(28.349375 264.321094)scale(0.1 -0.1)">
       <use xlink:href="#DejaVuSans-48"/>
      </g>
     </g>
    </g>
    <g id="ytick_2">
     <g id="line2d_7">
      <g>
       <use style="stroke:#000000;stroke-width:0.8;" x="41.711875" xlink:href="#m31765d5415" y="227.34501"/>
      </g>
     </g>
     <g id="text_7">
      <!-- 1 -->
      <g transform="translate(28.349375 231.144228)scale(0.1 -0.1)">
       <use xlink:href="#DejaVuSans-49"/>
      </g>
     </g>
    </g>
    <g id="ytick_3">
     <g id="line2d_8">
      <g>
       <use style="stroke:#000000;stroke-width:0.8;" x="41.711875" xlink:href="#m31765d5415" y="194.168144"/>
      </g>
     </g>
     <g id="text_8">
      <!-- 2 -->
      <g transform="translate(28.349375 197.967363)scale(0.1 -0.1)">
       <use xlink:href="#DejaVuSans-50"/>
      </g>
     </g>
    </g>
    <g id="ytick_4">
     <g id="line2d_9">
      <g>
       <use style="stroke:#000000;stroke-width:0.8;" x="41.711875" xlink:href="#m31765d5415" y="160.991279"/>
      </g>
     </g>
     <g id="text_9">
      <!-- 3 -->
      <defs>
       <path d="M 40.578125 39.3125 
Q 47.65625 37.796875 51.625 33 
Q 55.609375 28.21875 55.609375 21.1875 
Q 55.609375 10.40625 48.1875 4.484375 
Q 40.765625 -1.421875 27.09375 -1.421875 
Q 22.515625 -1.421875 17.65625 -0.515625 
Q 12.796875 0.390625 7.625 2.203125 
L 7.625 11.71875 
Q 11.71875 9.328125 16.59375 8.109375 
Q 21.484375 6.890625 26.8125 6.890625 
Q 36.078125 6.890625 40.9375 10.546875 
Q 45.796875 14.203125 45.796875 21.1875 
Q 45.796875 27.640625 41.28125 31.265625 
Q 36.765625 34.90625 28.71875 34.90625 
L 20.21875 34.90625 
L 20.21875 43.015625 
L 29.109375 43.015625 
Q 36.375 43.015625 40.234375 45.921875 
Q 44.09375 48.828125 44.09375 54.296875 
Q 44.09375 59.90625 40.109375 62.90625 
Q 36.140625 65.921875 28.71875 65.921875 
Q 24.65625 65.921875 20.015625 65.03125 
Q 15.375 64.15625 9.8125 62.3125 
L 9.8125 71.09375 
Q 15.4375 72.65625 20.34375 73.4375 
Q 25.25 74.21875 29.59375 74.21875 
Q 40.828125 74.21875 47.359375 69.109375 
Q 53.90625 64.015625 53.90625 55.328125 
Q 53.90625 49.265625 50.4375 45.09375 
Q 46.96875 40.921875 40.578125 39.3125 
z
" id="DejaVuSans-51"/>
      </defs>
      <g transform="translate(28.349375 164.790497)scale(0.1 -0.1)">
       <use xlink:href="#DejaVuSans-51"/>
      </g>
     </g>
    </g>
    <g id="ytick_5">
     <g id="line2d_10">
      <g>
       <use style="stroke:#000000;stroke-width:0.8;" x="41.711875" xlink:href="#m31765d5415" y="127.814413"/>
      </g>
     </g>
     <g id="text_10">
      <!-- 4 -->
      <g transform="translate(28.349375 131.613632)scale(0.1 -0.1)">
       <use xlink:href="#DejaVuSans-52"/>
      </g>
     </g>
    </g>
    <g id="ytick_6">
     <g id="line2d_11">
      <g>
       <use style="stroke:#000000;stroke-width:0.8;" x="41.711875" xlink:href="#m31765d5415" y="94.637548"/>
      </g>
     </g>
     <g id="text_11">
      <!-- 5 -->
      <defs>
       <path d="M 10.796875 72.90625 
L 49.515625 72.90625 
L 49.515625 64.59375 
L 19.828125 64.59375 
L 19.828125 46.734375 
Q 21.96875 47.46875 24.109375 47.828125 
Q 26.265625 48.1875 28.421875 48.1875 
Q 40.625 48.1875 47.75 41.5 
Q 54.890625 34.8125 54.890625 23.390625 
Q 54.890625 11.625 47.5625 5.09375 
Q 40.234375 -1.421875 26.90625 -1.421875 
Q 22.3125 -1.421875 17.546875 -0.640625 
Q 12.796875 0.140625 7.71875 1.703125 
L 7.71875 11.625 
Q 12.109375 9.234375 16.796875 8.0625 
Q 21.484375 6.890625 26.703125 6.890625 
Q 35.15625 6.890625 40.078125 11.328125 
Q 45.015625 15.765625 45.015625 23.390625 
Q 45.015625 31 40.078125 35.4375 
Q 35.15625 39.890625 26.703125 39.890625 
Q 22.75 39.890625 18.8125 39.015625 
Q 14.890625 38.140625 10.796875 36.28125 
z
" id="DejaVuSans-53"/>
      </defs>
      <g transform="translate(28.349375 98.436766)scale(0.1 -0.1)">
       <use xlink:href="#DejaVuSans-53"/>
      </g>
     </g>
    </g>
    <g id="ytick_7">
     <g id="line2d_12">
      <g>
       <use style="stroke:#000000;stroke-width:0.8;" x="41.711875" xlink:href="#m31765d5415" y="61.460682"/>
      </g>
     </g>
     <g id="text_12">
      <!-- 6 -->
      <g transform="translate(28.349375 65.259901)scale(0.1 -0.1)">
       <use xlink:href="#DejaVuSans-54"/>
      </g>
     </g>
    </g>
    <g id="ytick_8">
     <g id="line2d_13">
      <g>
       <use style="stroke:#000000;stroke-width:0.8;" x="41.711875" xlink:href="#m31765d5415" y="28.283817"/>
      </g>
     </g>
     <g id="text_13">
      <!-- 7 -->
      <defs>
       <path d="M 8.203125 72.90625 
L 55.078125 72.90625 
L 55.078125 68.703125 
L 28.609375 0 
L 18.3125 0 
L 43.21875 64.59375 
L 8.203125 64.59375 
z
" id="DejaVuSans-55"/>
      </defs>
      <g transform="translate(28.349375 32.083035)scale(0.1 -0.1)">
       <use xlink:href="#DejaVuSans-55"/>
      </g>
     </g>
    </g>
    <g id="text_14">
     <!-- Fraction of cells -->
     <defs>
      <path d="M 9.8125 72.90625 
L 51.703125 72.90625 
L 51.703125 64.59375 
L 19.671875 64.59375 
L 19.671875 43.109375 
L 48.578125 43.109375 
L 48.578125 34.8125 
L 19.671875 34.8125 
L 19.671875 0 
L 9.8125 0 
z
" id="DejaVuSans-70"/>
      <path d="M 41.109375 46.296875 
Q 39.59375 47.171875 37.8125 47.578125 
Q 36.03125 48 33.890625 48 
Q 26.265625 48 22.1875 43.046875 
Q 18.109375 38.09375 18.109375 28.8125 
L 18.109375 0 
L 9.078125 0 
L 9.078125 54.6875 
L 18.109375 54.6875 
L 18.109375 46.1875 
Q 20.953125 51.171875 25.484375 53.578125 
Q 30.03125 56 36.53125 56 
Q 37.453125 56 38.578125 55.875 
Q 39.703125 55.765625 41.0625 55.515625 
z
" id="DejaVuSans-114"/>
      <path d="M 34.28125 27.484375 
Q 23.390625 27.484375 19.1875 25 
Q 14.984375 22.515625 14.984375 16.5 
Q 14.984375 11.71875 18.140625 8.90625 
Q 21.296875 6.109375 26.703125 6.109375 
Q 34.1875 6.109375 38.703125 11.40625 
Q 43.21875 16.703125 43.21875 25.484375 
L 43.21875 27.484375 
z
M 52.203125 31.203125 
L 52.203125 0 
L 43.21875 0 
L 43.21875 8.296875 
Q 40.140625 3.328125 35.546875 0.953125 
Q 30.953125 -1.421875 24.3125 -1.421875 
Q 15.921875 -1.421875 10.953125 3.296875 
Q 6 8.015625 6 15.921875 
Q 6 25.140625 12.171875 29.828125 
Q 18.359375 34.515625 30.609375 34.515625 
L 43.21875 34.515625 
L 43.21875 35.40625 
Q 43.21875 41.609375 39.140625 45 
Q 35.0625 48.390625 27.6875 48.390625 
Q 23 48.390625 18.546875 47.265625 
Q 14.109375 46.140625 10.015625 43.890625 
L 10.015625 52.203125 
Q 14.9375 54.109375 19.578125 55.046875 
Q 24.21875 56 28.609375 56 
Q 40.484375 56 46.34375 49.84375 
Q 52.203125 43.703125 52.203125 31.203125 
z
" id="DejaVuSans-97"/>
      <path d="M 48.78125 52.59375 
L 48.78125 44.1875 
Q 44.96875 46.296875 41.140625 47.34375 
Q 37.3125 48.390625 33.40625 48.390625 
Q 24.65625 48.390625 19.8125 42.84375 
Q 14.984375 37.3125 14.984375 27.296875 
Q 14.984375 17.28125 19.8125 11.734375 
Q 24.65625 6.203125 33.40625 6.203125 
Q 37.3125 6.203125 41.140625 7.25 
Q 44.96875 8.296875 48.78125 10.40625 
L 48.78125 2.09375 
Q 45.015625 0.34375 40.984375 -0.53125 
Q 36.96875 -1.421875 32.421875 -1.421875 
Q 20.0625 -1.421875 12.78125 6.34375 
Q 5.515625 14.109375 5.515625 27.296875 
Q 5.515625 40.671875 12.859375 48.328125 
Q 20.21875 56 33.015625 56 
Q 37.15625 56 41.109375 55.140625 
Q 45.0625 54.296875 48.78125 52.59375 
z
" id="DejaVuSans-99"/>
      <path d="M 18.3125 70.21875 
L 18.3125 54.6875 
L 36.8125 54.6875 
L 36.8125 47.703125 
L 18.3125 47.703125 
L 18.3125 18.015625 
Q 18.3125 11.328125 20.140625 9.421875 
Q 21.96875 7.515625 27.59375 7.515625 
L 36.8125 7.515625 
L 36.8125 0 
L 27.59375 0 
Q 17.1875 0 13.234375 3.875 
Q 9.28125 7.765625 9.28125 18.015625 
L 9.28125 47.703125 
L 2.6875 47.703125 
L 2.6875 54.6875 
L 9.28125 54.6875 
L 9.28125 70.21875 
z
" id="DejaVuSans-116"/>
      <path d="M 9.421875 54.6875 
L 18.40625 54.6875 
L 18.40625 0 
L 9.421875 0 
z
M 9.421875 75.984375 
L 18.40625 75.984375 
L 18.40625 64.59375 
L 9.421875 64.59375 
z
" id="DejaVuSans-105"/>
      <path d="M 30.609375 48.390625 
Q 23.390625 48.390625 19.1875 42.75 
Q 14.984375 37.109375 14.984375 27.296875 
Q 14.984375 17.484375 19.15625 11.84375 
Q 23.34375 6.203125 30.609375 6.203125 
Q 37.796875 6.203125 41.984375 11.859375 
Q 46.1875 17.53125 46.1875 27.296875 
Q 46.1875 37.015625 41.984375 42.703125 
Q 37.796875 48.390625 30.609375 48.390625 
z
M 30.609375 56 
Q 42.328125 56 49.015625 48.375 
Q 55.71875 40.765625 55.71875 27.296875 
Q 55.71875 13.875 49.015625 6.21875 
Q 42.328125 -1.421875 30.609375 -1.421875 
Q 18.84375 -1.421875 12.171875 6.21875 
Q 5.515625 13.875 5.515625 27.296875 
Q 5.515625 40.765625 12.171875 48.375 
Q 18.84375 56 30.609375 56 
z
" id="DejaVuSans-111"/>
      <path d="M 54.890625 33.015625 
L 54.890625 0 
L 45.90625 0 
L 45.90625 32.71875 
Q 45.90625 40.484375 42.875 44.328125 
Q 39.84375 48.1875 33.796875 48.1875 
Q 26.515625 48.1875 22.3125 43.546875 
Q 18.109375 38.921875 18.109375 30.90625 
L 18.109375 0 
L 9.078125 0 
L 9.078125 54.6875 
L 18.109375 54.6875 
L 18.109375 46.1875 
Q 21.34375 51.125 25.703125 53.5625 
Q 30.078125 56 35.796875 56 
Q 45.21875 56 50.046875 50.171875 
Q 54.890625 44.34375 54.890625 33.015625 
z
" id="DejaVuSans-110"/>
      <path id="DejaVuSans-32"/>
      <path d="M 37.109375 75.984375 
L 37.109375 68.5 
L 28.515625 68.5 
Q 23.6875 68.5 21.796875 66.546875 
Q 19.921875 64.59375 19.921875 59.515625 
L 19.921875 54.6875 
L 34.71875 54.6875 
L 34.71875 47.703125 
L 19.921875 47.703125 
L 19.921875 0 
L 10.890625 0 
L 10.890625 47.703125 
L 2.296875 47.703125 
L 2.296875 54.6875 
L 10.890625 54.6875 
L 10.890625 58.5 
Q 10.890625 67.625 15.140625 71.796875 
Q 19.390625 75.984375 28.609375 75.984375 
z
" id="DejaVuSans-102"/>
      <path d="M 56.203125 29.59375 
L 56.203125 25.203125 
L 14.890625 25.203125 
Q 15.484375 15.921875 20.484375 11.0625 
Q 25.484375 6.203125 34.421875 6.203125 
Q 39.59375 6.203125 44.453125 7.46875 
Q 49.3125 8.734375 54.109375 11.28125 
L 54.109375 2.78125 
Q 49.265625 0.734375 44.1875 -0.34375 
Q 39.109375 -1.421875 33.890625 -1.421875 
Q 20.796875 -1.421875 13.15625 6.1875 
Q 5.515625 13.8125 5.515625 26.8125 
Q 5.515625 40.234375 12.765625 48.109375 
Q 20.015625 56 32.328125 56 
Q 43.359375 56 49.78125 48.890625 
Q 56.203125 41.796875 56.203125 29.59375 
z
M 47.21875 32.234375 
Q 47.125 39.59375 43.09375 43.984375 
Q 39.0625 48.390625 32.421875 48.390625 
Q 24.90625 48.390625 20.390625 44.140625 
Q 15.875 39.890625 15.1875 32.171875 
z
" id="DejaVuSans-101"/>
      <path d="M 9.421875 75.984375 
L 18.40625 75.984375 
L 18.40625 0 
L 9.421875 0 
z
" id="DejaVuSans-108"/>
      <path d="M 44.28125 53.078125 
L 44.28125 44.578125 
Q 40.484375 46.53125 36.375 47.5 
Q 32.28125 48.484375 27.875 48.484375 
Q 21.1875 48.484375 17.84375 46.4375 
Q 14.5 44.390625 14.5 40.28125 
Q 14.5 37.15625 16.890625 35.375 
Q 19.28125 33.59375 26.515625 31.984375 
L 29.59375 31.296875 
Q 39.15625 29.25 43.1875 25.515625 
Q 47.21875 21.78125 47.21875 15.09375 
Q 47.21875 7.46875 41.1875 3.015625 
Q 35.15625 -1.421875 24.609375 -1.421875 
Q 20.21875 -1.421875 15.453125 -0.5625 
Q 10.6875 0.296875 5.421875 2 
L 5.421875 11.28125 
Q 10.40625 8.6875 15.234375 7.390625 
Q 20.0625 6.109375 24.8125 6.109375 
Q 31.15625 6.109375 34.5625 8.28125 
Q 37.984375 10.453125 37.984375 14.40625 
Q 37.984375 18.0625 35.515625 20.015625 
Q 33.0625 21.96875 24.703125 23.78125 
L 21.578125 24.515625 
Q 13.234375 26.265625 9.515625 29.90625 
Q 5.8125 33.546875 5.8125 39.890625 
Q 5.8125 47.609375 11.28125 51.796875 
Q 16.75 56 26.8125 56 
Q 31.78125 56 36.171875 55.265625 
Q 40.578125 54.546875 44.28125 53.078125 
z
" id="DejaVuSans-115"/>
     </defs>
     <g transform="translate(21.437812 199.311562)rotate(-90)scale(0.14 -0.14)">
      <use xlink:href="#DejaVuSans-70"/>
      <use x="57.410156" xlink:href="#DejaVuSans-114"/>
      <use x="98.523438" xlink:href="#DejaVuSans-97"/>
      <use x="159.802734" xlink:href="#DejaVuSans-99"/>
      <use x="214.783203" xlink:href="#DejaVuSans-116"/>
      <use x="253.992188" xlink:href="#DejaVuSans-105"/>
      <use x="281.775391" xlink:href="#DejaVuSans-111"/>
      <use x="342.957031" xlink:href="#DejaVuSans-110"/>
      <use x="406.335938" xlink:href="#DejaVuSans-32"/>
      <use x="438.123047" xlink:href="#DejaVuSans-111"/>
      <use x="499.304688" xlink:href="#DejaVuSans-102"/>
      <use x="534.509766" xlink:href="#DejaVuSans-32"/>
      <use x="566.296875" xlink:href="#DejaVuSans-99"/>
      <use x="621.277344" xlink:href="#DejaVuSans-101"/>
      <use x="682.800781" xlink:href="#DejaVuSans-108"/>
      <use x="710.583984" xlink:href="#DejaVuSans-108"/>
      <use x="738.367188" xlink:href="#DejaVuSans-115"/>
     </g>
    </g>
   </g>
   <g id="line2d_14">
    <path clip-path="url(#p9fa13004a7)" d="M -1 254.949232 
L 5.396483 251.949527 
L 16.674105 241.348294 
L 27.951727 223.69204 
L 39.22935 199.581491 
L 50.506972 173.300051 
L 61.784594 151.868595 
L 73.062217 141.558679 
L 84.339839 144.184071 
L 95.617461 156.230214 
L 106.895084 171.498657 
L 118.172706 184.868442 
L 129.450328 194.256887 
L 140.72795 200.038496 
L 152.005573 203.39251 
L 163.283195 205.255463 
L 174.560817 206.256478 
L 185.83844 207.001596 
L 197.116062 208.156933 
L 208.393684 210.291073 
L 219.671307 213.640032 
L 230.948929 217.941001 
L 242.226551 222.497813 
L 253.504174 226.552419 
L 264.781796 229.756583 
L 276.059418 232.364592 
L 287.33704 234.96857 
L 298.614663 238.001533 
L 309.892285 241.42403 
L 321.169907 244.812985 
L 332.44753 247.715355 
L 343.725152 249.950891 
L 355.002774 251.656744 
L 366.280397 253.108352 
L 377.558019 254.504694 
L 388.835641 255.877805 
L 400.113263 257.146877 
L 411.390886 258.222464 
L 422.668508 259.063754 
L 433.94613 259.674029 
L 445.223753 260.079199 
L 456.501375 260.318772 
L 467.778997 260.441452 
L 479.05662 260.49475 
L 490.334242 260.51415 
L 501.611864 260.520028 
L 512.889487 260.521505 
L 524.167109 260.521813 
L 535.444731 260.521866 
L 546.722353 260.521874 
L 557.999976 260.521875 
L 569.277598 260.521875 
L 577 260.521875 
" style="fill:none;stroke:#2ca02c;stroke-linecap:square;stroke-width:1.5;"/>
   </g>
   <g id="line2d_15">
    <path clip-path="url(#p9fa13004a7)" d="M -1 260.354089 
L 5.396483 260.280321 
L 16.674105 260.031416 
L 27.951727 259.587647 
L 39.22935 258.850497 
L 50.506972 257.709508 
L 61.784594 256.063603 
L 73.062217 253.850341 
L 84.339839 251.074892 
L 95.617461 247.827162 
L 106.895084 244.277214 
L 118.172706 240.646468 
L 129.450328 237.162341 
L 140.72795 234.011721 
L 152.005573 231.309434 
L 163.283195 229.090901 
L 174.560817 227.327037 
L 185.83844 225.949822 
L 197.116062 224.873912 
L 208.393684 224.00456 
L 219.671307 223.232779 
L 230.948929 222.429128 
L 242.226551 221.451346 
L 253.504174 220.174179 
L 264.781796 218.534683 
L 276.059418 216.57159 
L 287.33704 214.433715 
L 298.614663 212.344634 
L 309.892285 210.533594 
L 321.169907 209.162275 
L 332.44753 208.281049 
L 343.725152 207.833722 
L 355.002774 207.705071 
L 366.280397 207.785133 
L 377.558019 208.018778 
L 388.835641 208.419988 
L 400.113263 209.050119 
L 411.390886 209.977479 
L 422.668508 211.242859 
L 433.94613 212.849088 
L 445.223753 214.776325 
L 456.501375 217.008457 
L 467.778997 219.549832 
L 479.05662 222.419565 
L 490.334242 225.626944 
L 501.611864 229.144327 
L 512.889487 232.894483 
L 524.167109 236.758517 
L 535.444731 240.597565 
L 546.722353 244.275724 
L 557.999976 247.675447 
L 569.277598 250.704636 
L 577 252.481643 
" style="fill:none;stroke:#d62728;stroke-linecap:square;stroke-width:1.5;"/>
   </g>
   <g id="line2d_16">
    <path clip-path="url(#p9fa13004a7)" d="M -1 260.054382 
L 5.396483 259.788089 
L 16.674105 258.706135 
L 27.951727 256.506304 
L 39.22935 252.559557 
L 50.506972 246.31491 
L 61.784594 237.618065 
L 73.062217 227.004443 
L 84.339839 215.761898 
L 95.617461 205.639901 
L 106.895084 198.285417 
L 118.172706 194.66593 
L 129.450328 194.754002 
L 140.72795 197.594504 
L 152.005573 201.686389 
L 163.283195 205.502463 
L 174.560817 207.951789 
L 185.83844 208.621866 
L 197.116062 207.719955 
L 208.393684 205.76842 
L 219.671307 203.235556 
L 230.948929 200.311194 
L 242.226551 196.944589 
L 253.504174 193.111569 
L 264.781796 189.143289 
L 276.059418 185.888596 
L 287.33704 184.546657 
L 298.614663 186.199487 
L 309.892285 191.289599 
L 321.169907 199.3583 
L 332.44753 209.209192 
L 343.725152 219.394481 
L 355.002774 228.737047 
L 366.280397 236.620411 
L 377.558019 242.96037 
L 388.835641 247.968744 
L 400.113263 251.902358 
L 411.390886 254.934265 
L 422.668508 257.161809 
L 433.94613 258.675573 
L 445.223753 259.605659 
L 456.501375 260.1148 
L 467.778997 260.360949 
L 479.05662 260.46552 
L 490.334242 260.504448 
L 501.611864 260.517127 
L 512.889487 260.520737 
L 524.167109 260.521635 
L 535.444731 260.521831 
L 546.722353 260.521868 
L 557.999976 260.521874 
L 569.277598 260.521875 
L 577 260.521875 
" style="fill:none;stroke:#9467bd;stroke-linecap:square;stroke-width:1.5;"/>
   </g>
   <g id="patch_63">
    <path d="M 41.711875 260.521875 
L 41.711875 27.437812 
" style="fill:none;stroke:#000000;stroke-linecap:square;stroke-linejoin:miter;stroke-width:0.8;"/>
   </g>
   <g id="patch_64">
    <path d="M 565.2 260.521875 
L 565.2 27.437812 
" style="fill:none;stroke:#000000;stroke-linecap:square;stroke-linejoin:miter;stroke-width:0.8;"/>
   </g>
   <g id="patch_65">
    <path d="M 41.711875 260.521875 
L 565.2 260.521875 
" style="fill:none;stroke:#000000;stroke-linecap:square;stroke-linejoin:miter;stroke-width:0.8;"/>
   </g>
   <g id="patch_66">
    <path d="M 41.711875 27.437812 
L 565.2 27.437812 
" style="fill:none;stroke:#000000;stroke-linecap:square;stroke-linejoin:miter;stroke-width:0.8;"/>
   </g>
   <g id="text_15">
    <!-- jasp cells -->
    <defs>
     <path d="M 9.421875 54.6875 
L 18.40625 54.6875 
L 18.40625 -0.984375 
Q 18.40625 -11.421875 14.421875 -16.109375 
Q 10.453125 -20.796875 1.609375 -20.796875 
L -1.8125 -20.796875 
L -1.8125 -13.1875 
L 0.59375 -13.1875 
Q 5.71875 -13.1875 7.5625 -10.8125 
Q 9.421875 -8.453125 9.421875 -0.984375 
z
M 9.421875 75.984375 
L 18.40625 75.984375 
L 18.40625 64.59375 
L 9.421875 64.59375 
z
" id="DejaVuSans-106"/>
     <path d="M 18.109375 8.203125 
L 18.109375 -20.796875 
L 9.078125 -20.796875 
L 9.078125 54.6875 
L 18.109375 54.6875 
L 18.109375 46.390625 
Q 20.953125 51.265625 25.265625 53.625 
Q 29.59375 56 35.59375 56 
Q 45.5625 56 51.78125 48.09375 
Q 58.015625 40.1875 58.015625 27.296875 
Q 58.015625 14.40625 51.78125 6.484375 
Q 45.5625 -1.421875 35.59375 -1.421875 
Q 29.59375 -1.421875 25.265625 0.953125 
Q 20.953125 3.328125 18.109375 8.203125 
z
M 48.6875 27.296875 
Q 48.6875 37.203125 44.609375 42.84375 
Q 40.53125 48.484375 33.40625 48.484375 
Q 26.265625 48.484375 22.1875 42.84375 
Q 18.109375 37.203125 18.109375 27.296875 
Q 18.109375 17.390625 22.1875 11.75 
Q 26.265625 6.109375 33.40625 6.109375 
Q 40.53125 6.109375 44.609375 11.75 
Q 48.6875 17.390625 48.6875 27.296875 
z
" id="DejaVuSans-112"/>
    </defs>
    <g transform="translate(271.214375 21.437813)scale(0.14 -0.14)">
     <use xlink:href="#DejaVuSans-106"/>
     <use x="27.783203" xlink:href="#DejaVuSans-97"/>
     <use x="89.0625" xlink:href="#DejaVuSans-115"/>
     <use x="141.162109" xlink:href="#DejaVuSans-112"/>
     <use x="204.638672" xlink:href="#DejaVuSans-32"/>
     <use x="236.425781" xlink:href="#DejaVuSans-99"/>
     <use x="291.40625" xlink:href="#DejaVuSans-101"/>
     <use x="352.929688" xlink:href="#DejaVuSans-108"/>
     <use x="380.712891" xlink:href="#DejaVuSans-108"/>
     <use x="408.496094" xlink:href="#DejaVuSans-115"/>
    </g>
   </g>
   <g id="legend_1">
    <g id="patch_67">
     <path d="M 476.544375 89.879062 
L 556.8 89.879062 
Q 559.2 89.879062 559.2 87.479062 
L 559.2 35.837812 
Q 559.2 33.437812 556.8 33.437812 
L 476.544375 33.437812 
Q 474.144375 33.437812 474.144375 35.837812 
L 474.144375 87.479062 
Q 474.144375 89.879062 476.544375 89.879062 
z
" style="fill:#ffffff;opacity:0.8;stroke:#cccccc;stroke-linejoin:miter;"/>
    </g>
    <g id="patch_68">
     <path d="M 478.944375 47.355937 
L 502.944375 47.355937 
L 502.944375 38.955937 
L 478.944375 38.955937 
z
" style="fill:#2ca02c;opacity:0.4;"/>
    </g>
    <g id="text_16">
     <!-- control -->
     <g transform="translate(512.544375 47.355937)scale(0.12 -0.12)">
      <use xlink:href="#DejaVuSans-99"/>
      <use x="54.980469" xlink:href="#DejaVuSans-111"/>
      <use x="116.162109" xlink:href="#DejaVuSans-110"/>
      <use x="179.541016" xlink:href="#DejaVuSans-116"/>
      <use x="218.75" xlink:href="#DejaVuSans-114"/>
      <use x="259.832031" xlink:href="#DejaVuSans-111"/>
      <use x="321.013672" xlink:href="#DejaVuSans-108"/>
     </g>
    </g>
    <g id="patch_69">
     <path d="M 478.944375 64.969687 
L 502.944375 64.969687 
L 502.944375 56.569687 
L 478.944375 56.569687 
z
" style="fill:#d62728;opacity:0.4;"/>
    </g>
    <g id="text_17">
     <!-- cytd -->
     <defs>
      <path d="M 32.171875 -5.078125 
Q 28.375 -14.84375 24.75 -17.8125 
Q 21.140625 -20.796875 15.09375 -20.796875 
L 7.90625 -20.796875 
L 7.90625 -13.28125 
L 13.1875 -13.28125 
Q 16.890625 -13.28125 18.9375 -11.515625 
Q 21 -9.765625 23.484375 -3.21875 
L 25.09375 0.875 
L 2.984375 54.6875 
L 12.5 54.6875 
L 29.59375 11.921875 
L 46.6875 54.6875 
L 56.203125 54.6875 
z
" id="DejaVuSans-121"/>
      <path d="M 45.40625 46.390625 
L 45.40625 75.984375 
L 54.390625 75.984375 
L 54.390625 0 
L 45.40625 0 
L 45.40625 8.203125 
Q 42.578125 3.328125 38.25 0.953125 
Q 33.9375 -1.421875 27.875 -1.421875 
Q 17.96875 -1.421875 11.734375 6.484375 
Q 5.515625 14.40625 5.515625 27.296875 
Q 5.515625 40.1875 11.734375 48.09375 
Q 17.96875 56 27.875 56 
Q 33.9375 56 38.25 53.625 
Q 42.578125 51.265625 45.40625 46.390625 
z
M 14.796875 27.296875 
Q 14.796875 17.390625 18.875 11.75 
Q 22.953125 6.109375 30.078125 6.109375 
Q 37.203125 6.109375 41.296875 11.75 
Q 45.40625 17.390625 45.40625 27.296875 
Q 45.40625 37.203125 41.296875 42.84375 
Q 37.203125 48.484375 30.078125 48.484375 
Q 22.953125 48.484375 18.875 42.84375 
Q 14.796875 37.203125 14.796875 27.296875 
z
" id="DejaVuSans-100"/>
     </defs>
     <g transform="translate(512.544375 64.969687)scale(0.12 -0.12)">
      <use xlink:href="#DejaVuSans-99"/>
      <use x="54.980469" xlink:href="#DejaVuSans-121"/>
      <use x="114.160156" xlink:href="#DejaVuSans-116"/>
      <use x="153.369141" xlink:href="#DejaVuSans-100"/>
     </g>
    </g>
    <g id="patch_70">
     <path d="M 478.944375 82.583437 
L 502.944375 82.583437 
L 502.944375 74.183437 
L 478.944375 74.183437 
z
" style="fill:#9467bd;opacity:0.4;"/>
    </g>
    <g id="text_18">
     <!-- jasp -->
     <g transform="translate(512.544375 82.583437)scale(0.12 -0.12)">
      <use xlink:href="#DejaVuSans-106"/>
      <use x="27.783203" xlink:href="#DejaVuSans-97"/>
      <use x="89.0625" xlink:href="#DejaVuSans-115"/>
      <use x="141.162109" xlink:href="#DejaVuSans-112"/>
     </g>
    </g>
   </g>
  </g>
  <g id="text_19">
   <!-- Histograms of srv distances (a=1, b=0.5) to global mean cell -->
   <defs>
    <path d="M 9.8125 72.90625 
L 19.671875 72.90625 
L 19.671875 43.015625 
L 55.515625 43.015625 
L 55.515625 72.90625 
L 65.375 72.90625 
L 65.375 0 
L 55.515625 0 
L 55.515625 34.71875 
L 19.671875 34.71875 
L 19.671875 0 
L 9.8125 0 
z
" id="DejaVuSans-72"/>
    <path d="M 45.40625 27.984375 
Q 45.40625 37.75 41.375 43.109375 
Q 37.359375 48.484375 30.078125 48.484375 
Q 22.859375 48.484375 18.828125 43.109375 
Q 14.796875 37.75 14.796875 27.984375 
Q 14.796875 18.265625 18.828125 12.890625 
Q 22.859375 7.515625 30.078125 7.515625 
Q 37.359375 7.515625 41.375 12.890625 
Q 45.40625 18.265625 45.40625 27.984375 
z
M 54.390625 6.78125 
Q 54.390625 -7.171875 48.1875 -13.984375 
Q 42 -20.796875 29.203125 -20.796875 
Q 24.46875 -20.796875 20.265625 -20.09375 
Q 16.0625 -19.390625 12.109375 -17.921875 
L 12.109375 -9.1875 
Q 16.0625 -11.328125 19.921875 -12.34375 
Q 23.78125 -13.375 27.78125 -13.375 
Q 36.625 -13.375 41.015625 -8.765625 
Q 45.40625 -4.15625 45.40625 5.171875 
L 45.40625 9.625 
Q 42.625 4.78125 38.28125 2.390625 
Q 33.9375 0 27.875 0 
Q 17.828125 0 11.671875 7.65625 
Q 5.515625 15.328125 5.515625 27.984375 
Q 5.515625 40.671875 11.671875 48.328125 
Q 17.828125 56 27.875 56 
Q 33.9375 56 38.28125 53.609375 
Q 42.625 51.21875 45.40625 46.390625 
L 45.40625 54.6875 
L 54.390625 54.6875 
z
" id="DejaVuSans-103"/>
    <path d="M 52 44.1875 
Q 55.375 50.25 60.0625 53.125 
Q 64.75 56 71.09375 56 
Q 79.640625 56 84.28125 50.015625 
Q 88.921875 44.046875 88.921875 33.015625 
L 88.921875 0 
L 79.890625 0 
L 79.890625 32.71875 
Q 79.890625 40.578125 77.09375 44.375 
Q 74.3125 48.1875 68.609375 48.1875 
Q 61.625 48.1875 57.5625 43.546875 
Q 53.515625 38.921875 53.515625 30.90625 
L 53.515625 0 
L 44.484375 0 
L 44.484375 32.71875 
Q 44.484375 40.625 41.703125 44.40625 
Q 38.921875 48.1875 33.109375 48.1875 
Q 26.21875 48.1875 22.15625 43.53125 
Q 18.109375 38.875 18.109375 30.90625 
L 18.109375 0 
L 9.078125 0 
L 9.078125 54.6875 
L 18.109375 54.6875 
L 18.109375 46.1875 
Q 21.1875 51.21875 25.484375 53.609375 
Q 29.78125 56 35.6875 56 
Q 41.65625 56 45.828125 52.96875 
Q 50 49.953125 52 44.1875 
z
" id="DejaVuSans-109"/>
    <path d="M 2.984375 54.6875 
L 12.5 54.6875 
L 29.59375 8.796875 
L 46.6875 54.6875 
L 56.203125 54.6875 
L 35.6875 0 
L 23.484375 0 
z
" id="DejaVuSans-118"/>
    <path d="M 31 75.875 
Q 24.46875 64.65625 21.28125 53.65625 
Q 18.109375 42.671875 18.109375 31.390625 
Q 18.109375 20.125 21.3125 9.0625 
Q 24.515625 -2 31 -13.1875 
L 23.1875 -13.1875 
Q 15.875 -1.703125 12.234375 9.375 
Q 8.59375 20.453125 8.59375 31.390625 
Q 8.59375 42.28125 12.203125 53.3125 
Q 15.828125 64.359375 23.1875 75.875 
z
" id="DejaVuSans-40"/>
    <path d="M 10.59375 45.40625 
L 73.1875 45.40625 
L 73.1875 37.203125 
L 10.59375 37.203125 
z
M 10.59375 25.484375 
L 73.1875 25.484375 
L 73.1875 17.1875 
L 10.59375 17.1875 
z
" id="DejaVuSans-61"/>
    <path d="M 11.71875 12.40625 
L 22.015625 12.40625 
L 22.015625 4 
L 14.015625 -11.625 
L 7.71875 -11.625 
L 11.71875 4 
z
" id="DejaVuSans-44"/>
    <path d="M 48.6875 27.296875 
Q 48.6875 37.203125 44.609375 42.84375 
Q 40.53125 48.484375 33.40625 48.484375 
Q 26.265625 48.484375 22.1875 42.84375 
Q 18.109375 37.203125 18.109375 27.296875 
Q 18.109375 17.390625 22.1875 11.75 
Q 26.265625 6.109375 33.40625 6.109375 
Q 40.53125 6.109375 44.609375 11.75 
Q 48.6875 17.390625 48.6875 27.296875 
z
M 18.109375 46.390625 
Q 20.953125 51.265625 25.265625 53.625 
Q 29.59375 56 35.59375 56 
Q 45.5625 56 51.78125 48.09375 
Q 58.015625 40.1875 58.015625 27.296875 
Q 58.015625 14.40625 51.78125 6.484375 
Q 45.5625 -1.421875 35.59375 -1.421875 
Q 29.59375 -1.421875 25.265625 0.953125 
Q 20.953125 3.328125 18.109375 8.203125 
L 18.109375 0 
L 9.078125 0 
L 9.078125 75.984375 
L 18.109375 75.984375 
z
" id="DejaVuSans-98"/>
    <path d="M 8.015625 75.875 
L 15.828125 75.875 
Q 23.140625 64.359375 26.78125 53.3125 
Q 30.421875 42.28125 30.421875 31.390625 
Q 30.421875 20.453125 26.78125 9.375 
Q 23.140625 -1.703125 15.828125 -13.1875 
L 8.015625 -13.1875 
Q 14.5 -2 17.703125 9.0625 
Q 20.90625 20.125 20.90625 31.390625 
Q 20.90625 42.671875 17.703125 53.65625 
Q 14.5 64.65625 8.015625 75.875 
z
" id="DejaVuSans-41"/>
   </defs>
   <g transform="translate(-18.7375 20.956875)scale(0.2 -0.2)">
    <use xlink:href="#DejaVuSans-72"/>
    <use x="75.195312" xlink:href="#DejaVuSans-105"/>
    <use x="102.978516" xlink:href="#DejaVuSans-115"/>
    <use x="155.078125" xlink:href="#DejaVuSans-116"/>
    <use x="194.287109" xlink:href="#DejaVuSans-111"/>
    <use x="255.46875" xlink:href="#DejaVuSans-103"/>
    <use x="318.945312" xlink:href="#DejaVuSans-114"/>
    <use x="360.058594" xlink:href="#DejaVuSans-97"/>
    <use x="421.337891" xlink:href="#DejaVuSans-109"/>
    <use x="518.75" xlink:href="#DejaVuSans-115"/>
    <use x="570.849609" xlink:href="#DejaVuSans-32"/>
    <use x="602.636719" xlink:href="#DejaVuSans-111"/>
    <use x="663.818359" xlink:href="#DejaVuSans-102"/>
    <use x="699.023438" xlink:href="#DejaVuSans-32"/>
    <use x="730.810547" xlink:href="#DejaVuSans-115"/>
    <use x="782.910156" xlink:href="#DejaVuSans-114"/>
    <use x="824.023438" xlink:href="#DejaVuSans-118"/>
    <use x="883.203125" xlink:href="#DejaVuSans-32"/>
    <use x="914.990234" xlink:href="#DejaVuSans-100"/>
    <use x="978.466797" xlink:href="#DejaVuSans-105"/>
    <use x="1006.25" xlink:href="#DejaVuSans-115"/>
    <use x="1058.349609" xlink:href="#DejaVuSans-116"/>
    <use x="1097.558594" xlink:href="#DejaVuSans-97"/>
    <use x="1158.837891" xlink:href="#DejaVuSans-110"/>
    <use x="1222.216797" xlink:href="#DejaVuSans-99"/>
    <use x="1277.197266" xlink:href="#DejaVuSans-101"/>
    <use x="1338.720703" xlink:href="#DejaVuSans-115"/>
    <use x="1390.820312" xlink:href="#DejaVuSans-32"/>
    <use x="1422.607422" xlink:href="#DejaVuSans-40"/>
    <use x="1461.621094" xlink:href="#DejaVuSans-97"/>
    <use x="1522.900391" xlink:href="#DejaVuSans-61"/>
    <use x="1606.689453" xlink:href="#DejaVuSans-49"/>
    <use x="1670.3125" xlink:href="#DejaVuSans-44"/>
    <use x="1702.099609" xlink:href="#DejaVuSans-32"/>
    <use x="1733.886719" xlink:href="#DejaVuSans-98"/>
    <use x="1797.363281" xlink:href="#DejaVuSans-61"/>
    <use x="1881.152344" xlink:href="#DejaVuSans-48"/>
    <use x="1944.775391" xlink:href="#DejaVuSans-46"/>
    <use x="1976.5625" xlink:href="#DejaVuSans-53"/>
    <use x="2040.185547" xlink:href="#DejaVuSans-41"/>
    <use x="2079.199219" xlink:href="#DejaVuSans-32"/>
    <use x="2110.986328" xlink:href="#DejaVuSans-116"/>
    <use x="2150.195312" xlink:href="#DejaVuSans-111"/>
    <use x="2211.376953" xlink:href="#DejaVuSans-32"/>
    <use x="2243.164062" xlink:href="#DejaVuSans-103"/>
    <use x="2306.640625" xlink:href="#DejaVuSans-108"/>
    <use x="2334.423828" xlink:href="#DejaVuSans-111"/>
    <use x="2395.605469" xlink:href="#DejaVuSans-98"/>
    <use x="2459.082031" xlink:href="#DejaVuSans-97"/>
    <use x="2520.361328" xlink:href="#DejaVuSans-108"/>
    <use x="2548.144531" xlink:href="#DejaVuSans-32"/>
    <use x="2579.931641" xlink:href="#DejaVuSans-109"/>
    <use x="2677.34375" xlink:href="#DejaVuSans-101"/>
    <use x="2738.867188" xlink:href="#DejaVuSans-97"/>
    <use x="2800.146484" xlink:href="#DejaVuSans-110"/>
    <use x="2863.525391" xlink:href="#DejaVuSans-32"/>
    <use x="2895.3125" xlink:href="#DejaVuSans-99"/>
    <use x="2950.292969" xlink:href="#DejaVuSans-101"/>
    <use x="3011.816406" xlink:href="#DejaVuSans-108"/>
    <use x="3039.599609" xlink:href="#DejaVuSans-108"/>
   </g>
  </g>
 </g>
 <defs>
  <clipPath id="p9fa13004a7">
   <rect height="233.084062" width="523.488125" x="41.711875" y="27.437813"/>
  </clipPath>
 </defs>
</svg>
