<?xml version="1.0" encoding="utf-8" standalone="no"?>
<!DOCTYPE svg PUBLIC "-//W3C//DTD SVG 1.1//EN"
  "http://www.w3.org/Graphics/SVG/1.1/DTD/svg11.dtd">
<!-- Created with matplotlib (https://matplotlib.org/) -->
<svg height="360pt" version="1.1" viewBox="0 0 1080 360" width="1080pt" xmlns="http://www.w3.org/2000/svg" xmlns:xlink="http://www.w3.org/1999/xlink">
 <defs>
  <style type="text/css">
*{stroke-linecap:butt;stroke-linejoin:round;}
  </style>
 </defs>
 <g id="figure_1">
  <g id="patch_1">
   <path d="M 0 360 
L 1080 360 
L 1080 0 
L 0 0 
z
" style="fill:#ffffff;"/>
  </g>
  <g id="axes_1">
   <g id="line2d_1">
    <path clip-path="url(#p414845ae82)" d="M 313.474484 49.819329 
L 313.474484 56.535208 
L 306.758605 63.251087 
L 300.042726 63.251087 
L 296.684787 59.893148 
L 293.326847 63.251087 
L 289.968908 63.251087 
L 286.610968 66.609027 
L 279.895089 66.609027 
L 273.17921 73.324906 
L 266.463331 73.324906 
L 263.105392 69.966966 
L 263.105392 66.609027 
L 263.105392 69.966966 
L 246.315694 86.756664 
L 242.957755 86.756664 
L 242.957755 90.114603 
L 239.599815 93.472543 
L 239.599815 96.830482 
L 236.241876 100.188422 
L 229.525997 100.188422 
L 222.810118 106.904301 
L 216.094239 106.904301 
L 209.37836 100.188422 
L 209.37836 96.830482 
L 199.304541 96.830482 
L 195.946602 93.472543 
L 189.230723 100.188422 
L 185.872783 100.188422 
L 182.514844 103.546361 
L 182.514844 113.62018 
L 189.230723 120.336059 
L 189.230723 127.051938 
L 185.872783 130.409877 
L 185.872783 137.125756 
L 179.156904 143.841635 
L 179.156904 147.199575 
L 169.083086 157.273393 
L 165.725146 157.273393 
L 159.009267 163.989272 
L 155.651328 163.989272 
L 152.293388 167.347212 
L 155.651328 170.705151 
L 159.009267 170.705151 
L 165.725146 177.42103 
L 165.725146 180.77897 
L 175.798965 190.852788 
L 179.156904 187.494849 
L 189.230723 187.494849 
L 192.588662 190.852788 
L 192.588662 194.210728 
L 195.946602 197.568667 
L 199.304541 197.568667 
L 206.02042 204.284546 
L 206.02042 207.642486 
L 209.37836 211.000425 
L 212.736299 207.642486 
L 212.736299 204.284546 
L 222.810118 194.210728 
L 226.168057 194.210728 
L 226.168057 187.494849 
L 229.525997 184.136909 
L 236.241876 184.136909 
L 239.599815 187.494849 
L 239.599815 194.210728 
L 236.241876 197.568667 
L 232.883936 197.568667 
L 232.883936 204.284546 
L 236.241876 207.642486 
L 236.241876 214.358365 
L 253.031573 214.358365 
L 259.747452 221.074244 
L 259.747452 231.148062 
L 263.105392 234.506002 
L 263.105392 241.221881 
L 259.747452 244.57982 
L 259.747452 247.93776 
L 256.389513 251.295699 
L 256.389513 254.653639 
L 253.031573 258.011578 
L 253.031573 264.727457 
L 249.673634 268.085397 
L 253.031573 271.443336 
L 256.389513 271.443336 
L 263.105392 278.159215 
L 266.463331 278.159215 
L 269.821271 281.517155 
L 273.17921 278.159215 
L 279.895089 278.159215 
L 289.968908 288.233034 
L 289.968908 298.306852 
L 286.610968 301.664792 
L 286.610968 305.022731 
L 300.042726 305.022731 
L 303.400666 301.664792 
L 323.548303 301.664792 
L 330.264182 308.380671 
L 336.980061 301.664792 
L 336.980061 298.306852 
L 340.338 294.948913 
L 347.053879 294.948913 
L 353.769758 301.664792 
L 357.127698 301.664792 
L 357.127698 288.233034 
L 360.485637 284.875094 
L 360.485637 278.159215 
L 363.843577 274.801276 
L 363.843577 271.443336 
L 373.917395 261.369518 
L 390.707093 261.369518 
L 394.065032 258.011578 
L 427.644428 258.011578 
L 434.360307 251.295699 
L 444.434125 251.295699 
L 454.507944 241.221881 
L 457.865883 241.221881 
L 461.223823 237.863941 
L 461.223823 234.506002 
L 471.297641 224.432183 
L 474.655581 224.432183 
L 478.01352 221.074244 
L 498.161157 221.074244 
L 498.161157 217.716304 
L 491.445278 211.000425 
L 491.445278 197.568667 
L 488.087339 194.210728 
L 488.087339 187.494849 
L 484.729399 184.136909 
L 484.729399 174.063091 
L 494.803218 163.989272 
L 494.803218 160.631333 
L 491.445278 157.273393 
L 491.445278 153.915454 
L 488.087339 150.557514 
L 488.087339 127.051938 
L 481.37146 127.051938 
L 474.655581 120.336059 
L 471.297641 120.336059 
L 467.939702 123.693998 
L 464.581762 123.693998 
L 461.223823 127.051938 
L 447.792065 127.051938 
L 444.434125 123.693998 
L 444.434125 110.26224 
L 441.076186 106.904301 
L 437.718246 106.904301 
L 431.002367 100.188422 
L 431.002367 96.830482 
L 427.644428 93.472543 
L 424.286488 93.472543 
L 420.928549 90.114603 
L 414.21267 90.114603 
L 410.85473 86.756664 
L 407.49679 86.756664 
L 404.138851 83.398724 
L 404.138851 76.682845 
L 400.780911 76.682845 
L 397.422972 73.324906 
L 397.422972 63.251087 
L 390.707093 63.251087 
L 387.349153 59.893148 
L 336.980061 59.893148 
L 333.622121 56.535208 
L 333.622121 53.177269 
L 326.906242 53.177269 
L 323.548303 49.819329 
L 323.548303 49.819329 
" style="fill:none;stroke:#1f77b4;stroke-linecap:square;stroke-width:1.5;"/>
   </g>
   <g id="text_1">
    <!-- Original curve (166 points) -->
    <defs>
     <path d="M 39.40625 66.21875 
Q 28.65625 66.21875 22.328125 58.203125 
Q 16.015625 50.203125 16.015625 36.375 
Q 16.015625 22.609375 22.328125 14.59375 
Q 28.65625 6.59375 39.40625 6.59375 
Q 50.140625 6.59375 56.421875 14.59375 
Q 62.703125 22.609375 62.703125 36.375 
Q 62.703125 50.203125 56.421875 58.203125 
Q 50.140625 66.21875 39.40625 66.21875 
z
M 39.40625 74.21875 
Q 54.734375 74.21875 63.90625 63.9375 
Q 73.09375 53.65625 73.09375 36.375 
Q 73.09375 19.140625 63.90625 8.859375 
Q 54.734375 -1.421875 39.40625 -1.421875 
Q 24.03125 -1.421875 14.8125 8.828125 
Q 5.609375 19.09375 5.609375 36.375 
Q 5.609375 53.65625 14.8125 63.9375 
Q 24.03125 74.21875 39.40625 74.21875 
z
" id="DejaVuSans-79"/>
     <path d="M 41.109375 46.296875 
Q 39.59375 47.171875 37.8125 47.578125 
Q 36.03125 48 33.890625 48 
Q 26.265625 48 22.1875 43.046875 
Q 18.109375 38.09375 18.109375 28.8125 
L 18.109375 0 
L 9.078125 0 
L 9.078125 54.6875 
L 18.109375 54.6875 
L 18.109375 46.1875 
Q 20.953125 51.171875 25.484375 53.578125 
Q 30.03125 56 36.53125 56 
Q 37.453125 56 38.578125 55.875 
Q 39.703125 55.765625 41.0625 55.515625 
z
" id="DejaVuSans-114"/>
     <path d="M 9.421875 54.6875 
L 18.40625 54.6875 
L 18.40625 0 
L 9.421875 0 
z
M 9.421875 75.984375 
L 18.40625 75.984375 
L 18.40625 64.59375 
L 9.421875 64.59375 
z
" id="DejaVuSans-105"/>
     <path d="M 45.40625 27.984375 
Q 45.40625 37.75 41.375 43.109375 
Q 37.359375 48.484375 30.078125 48.484375 
Q 22.859375 48.484375 18.828125 43.109375 
Q 14.796875 37.75 14.796875 27.984375 
Q 14.796875 18.265625 18.828125 12.890625 
Q 22.859375 7.515625 30.078125 7.515625 
Q 37.359375 7.515625 41.375 12.890625 
Q 45.40625 18.265625 45.40625 27.984375 
z
M 54.390625 6.78125 
Q 54.390625 -7.171875 48.1875 -13.984375 
Q 42 -20.796875 29.203125 -20.796875 
Q 24.46875 -20.796875 20.265625 -20.09375 
Q 16.0625 -19.390625 12.109375 -17.921875 
L 12.109375 -9.1875 
Q 16.0625 -11.328125 19.921875 -12.34375 
Q 23.78125 -13.375 27.78125 -13.375 
Q 36.625 -13.375 41.015625 -8.765625 
Q 45.40625 -4.15625 45.40625 5.171875 
L 45.40625 9.625 
Q 42.625 4.78125 38.28125 2.390625 
Q 33.9375 0 27.875 0 
Q 17.828125 0 11.671875 7.65625 
Q 5.515625 15.328125 5.515625 27.984375 
Q 5.515625 40.671875 11.671875 48.328125 
Q 17.828125 56 27.875 56 
Q 33.9375 56 38.28125 53.609375 
Q 42.625 51.21875 45.40625 46.390625 
L 45.40625 54.6875 
L 54.390625 54.6875 
z
" id="DejaVuSans-103"/>
     <path d="M 54.890625 33.015625 
L 54.890625 0 
L 45.90625 0 
L 45.90625 32.71875 
Q 45.90625 40.484375 42.875 44.328125 
Q 39.84375 48.1875 33.796875 48.1875 
Q 26.515625 48.1875 22.3125 43.546875 
Q 18.109375 38.921875 18.109375 30.90625 
L 18.109375 0 
L 9.078125 0 
L 9.078125 54.6875 
L 18.109375 54.6875 
L 18.109375 46.1875 
Q 21.34375 51.125 25.703125 53.5625 
Q 30.078125 56 35.796875 56 
Q 45.21875 56 50.046875 50.171875 
Q 54.890625 44.34375 54.890625 33.015625 
z
" id="DejaVuSans-110"/>
     <path d="M 34.28125 27.484375 
Q 23.390625 27.484375 19.1875 25 
Q 14.984375 22.515625 14.984375 16.5 
Q 14.984375 11.71875 18.140625 8.90625 
Q 21.296875 6.109375 26.703125 6.109375 
Q 34.1875 6.109375 38.703125 11.40625 
Q 43.21875 16.703125 43.21875 25.484375 
L 43.21875 27.484375 
z
M 52.203125 31.203125 
L 52.203125 0 
L 43.21875 0 
L 43.21875 8.296875 
Q 40.140625 3.328125 35.546875 0.953125 
Q 30.953125 -1.421875 24.3125 -1.421875 
Q 15.921875 -1.421875 10.953125 3.296875 
Q 6 8.015625 6 15.921875 
Q 6 25.140625 12.171875 29.828125 
Q 18.359375 34.515625 30.609375 34.515625 
L 43.21875 34.515625 
L 43.21875 35.40625 
Q 43.21875 41.609375 39.140625 45 
Q 35.0625 48.390625 27.6875 48.390625 
Q 23 48.390625 18.546875 47.265625 
Q 14.109375 46.140625 10.015625 43.890625 
L 10.015625 52.203125 
Q 14.9375 54.109375 19.578125 55.046875 
Q 24.21875 56 28.609375 56 
Q 40.484375 56 46.34375 49.84375 
Q 52.203125 43.703125 52.203125 31.203125 
z
" id="DejaVuSans-97"/>
     <path d="M 9.421875 75.984375 
L 18.40625 75.984375 
L 18.40625 0 
L 9.421875 0 
z
" id="DejaVuSans-108"/>
     <path id="DejaVuSans-32"/>
     <path d="M 48.78125 52.59375 
L 48.78125 44.1875 
Q 44.96875 46.296875 41.140625 47.34375 
Q 37.3125 48.390625 33.40625 48.390625 
Q 24.65625 48.390625 19.8125 42.84375 
Q 14.984375 37.3125 14.984375 27.296875 
Q 14.984375 17.28125 19.8125 11.734375 
Q 24.65625 6.203125 33.40625 6.203125 
Q 37.3125 6.203125 41.140625 7.25 
Q 44.96875 8.296875 48.78125 10.40625 
L 48.78125 2.09375 
Q 45.015625 0.34375 40.984375 -0.53125 
Q 36.96875 -1.421875 32.421875 -1.421875 
Q 20.0625 -1.421875 12.78125 6.34375 
Q 5.515625 14.109375 5.515625 27.296875 
Q 5.515625 40.671875 12.859375 48.328125 
Q 20.21875 56 33.015625 56 
Q 37.15625 56 41.109375 55.140625 
Q 45.0625 54.296875 48.78125 52.59375 
z
" id="DejaVuSans-99"/>
     <path d="M 8.5 21.578125 
L 8.5 54.6875 
L 17.484375 54.6875 
L 17.484375 21.921875 
Q 17.484375 14.15625 20.5 10.265625 
Q 23.53125 6.390625 29.59375 6.390625 
Q 36.859375 6.390625 41.078125 11.03125 
Q 45.3125 15.671875 45.3125 23.6875 
L 45.3125 54.6875 
L 54.296875 54.6875 
L 54.296875 0 
L 45.3125 0 
L 45.3125 8.40625 
Q 42.046875 3.421875 37.71875 1 
Q 33.40625 -1.421875 27.6875 -1.421875 
Q 18.265625 -1.421875 13.375 4.4375 
Q 8.5 10.296875 8.5 21.578125 
z
M 31.109375 56 
z
" id="DejaVuSans-117"/>
     <path d="M 2.984375 54.6875 
L 12.5 54.6875 
L 29.59375 8.796875 
L 46.6875 54.6875 
L 56.203125 54.6875 
L 35.6875 0 
L 23.484375 0 
z
" id="DejaVuSans-118"/>
     <path d="M 56.203125 29.59375 
L 56.203125 25.203125 
L 14.890625 25.203125 
Q 15.484375 15.921875 20.484375 11.0625 
Q 25.484375 6.203125 34.421875 6.203125 
Q 39.59375 6.203125 44.453125 7.46875 
Q 49.3125 8.734375 54.109375 11.28125 
L 54.109375 2.78125 
Q 49.265625 0.734375 44.1875 -0.34375 
Q 39.109375 -1.421875 33.890625 -1.421875 
Q 20.796875 -1.421875 13.15625 6.1875 
Q 5.515625 13.8125 5.515625 26.8125 
Q 5.515625 40.234375 12.765625 48.109375 
Q 20.015625 56 32.328125 56 
Q 43.359375 56 49.78125 48.890625 
Q 56.203125 41.796875 56.203125 29.59375 
z
M 47.21875 32.234375 
Q 47.125 39.59375 43.09375 43.984375 
Q 39.0625 48.390625 32.421875 48.390625 
Q 24.90625 48.390625 20.390625 44.140625 
Q 15.875 39.890625 15.1875 32.171875 
z
" id="DejaVuSans-101"/>
     <path d="M 31 75.875 
Q 24.46875 64.65625 21.28125 53.65625 
Q 18.109375 42.671875 18.109375 31.390625 
Q 18.109375 20.125 21.3125 9.0625 
Q 24.515625 -2 31 -13.1875 
L 23.1875 -13.1875 
Q 15.875 -1.703125 12.234375 9.375 
Q 8.59375 20.453125 8.59375 31.390625 
Q 8.59375 42.28125 12.203125 53.3125 
Q 15.828125 64.359375 23.1875 75.875 
z
" id="DejaVuSans-40"/>
     <path d="M 12.40625 8.296875 
L 28.515625 8.296875 
L 28.515625 63.921875 
L 10.984375 60.40625 
L 10.984375 69.390625 
L 28.421875 72.90625 
L 38.28125 72.90625 
L 38.28125 8.296875 
L 54.390625 8.296875 
L 54.390625 0 
L 12.40625 0 
z
" id="DejaVuSans-49"/>
     <path d="M 33.015625 40.375 
Q 26.375 40.375 22.484375 35.828125 
Q 18.609375 31.296875 18.609375 23.390625 
Q 18.609375 15.53125 22.484375 10.953125 
Q 26.375 6.390625 33.015625 6.390625 
Q 39.65625 6.390625 43.53125 10.953125 
Q 47.40625 15.53125 47.40625 23.390625 
Q 47.40625 31.296875 43.53125 35.828125 
Q 39.65625 40.375 33.015625 40.375 
z
M 52.59375 71.296875 
L 52.59375 62.3125 
Q 48.875 64.0625 45.09375 64.984375 
Q 41.3125 65.921875 37.59375 65.921875 
Q 27.828125 65.921875 22.671875 59.328125 
Q 17.53125 52.734375 16.796875 39.40625 
Q 19.671875 43.65625 24.015625 45.921875 
Q 28.375 48.1875 33.59375 48.1875 
Q 44.578125 48.1875 50.953125 41.515625 
Q 57.328125 34.859375 57.328125 23.390625 
Q 57.328125 12.15625 50.6875 5.359375 
Q 44.046875 -1.421875 33.015625 -1.421875 
Q 20.359375 -1.421875 13.671875 8.265625 
Q 6.984375 17.96875 6.984375 36.375 
Q 6.984375 53.65625 15.1875 63.9375 
Q 23.390625 74.21875 37.203125 74.21875 
Q 40.921875 74.21875 44.703125 73.484375 
Q 48.484375 72.75 52.59375 71.296875 
z
" id="DejaVuSans-54"/>
     <path d="M 18.109375 8.203125 
L 18.109375 -20.796875 
L 9.078125 -20.796875 
L 9.078125 54.6875 
L 18.109375 54.6875 
L 18.109375 46.390625 
Q 20.953125 51.265625 25.265625 53.625 
Q 29.59375 56 35.59375 56 
Q 45.5625 56 51.78125 48.09375 
Q 58.015625 40.1875 58.015625 27.296875 
Q 58.015625 14.40625 51.78125 6.484375 
Q 45.5625 -1.421875 35.59375 -1.421875 
Q 29.59375 -1.421875 25.265625 0.953125 
Q 20.953125 3.328125 18.109375 8.203125 
z
M 48.6875 27.296875 
Q 48.6875 37.203125 44.609375 42.84375 
Q 40.53125 48.484375 33.40625 48.484375 
Q 26.265625 48.484375 22.1875 42.84375 
Q 18.109375 37.203125 18.109375 27.296875 
Q 18.109375 17.390625 22.1875 11.75 
Q 26.265625 6.109375 33.40625 6.109375 
Q 40.53125 6.109375 44.609375 11.75 
Q 48.6875 17.390625 48.6875 27.296875 
z
" id="DejaVuSans-112"/>
     <path d="M 30.609375 48.390625 
Q 23.390625 48.390625 19.1875 42.75 
Q 14.984375 37.109375 14.984375 27.296875 
Q 14.984375 17.484375 19.15625 11.84375 
Q 23.34375 6.203125 30.609375 6.203125 
Q 37.796875 6.203125 41.984375 11.859375 
Q 46.1875 17.53125 46.1875 27.296875 
Q 46.1875 37.015625 41.984375 42.703125 
Q 37.796875 48.390625 30.609375 48.390625 
z
M 30.609375 56 
Q 42.328125 56 49.015625 48.375 
Q 55.71875 40.765625 55.71875 27.296875 
Q 55.71875 13.875 49.015625 6.21875 
Q 42.328125 -1.421875 30.609375 -1.421875 
Q 18.84375 -1.421875 12.171875 6.21875 
Q 5.515625 13.875 5.515625 27.296875 
Q 5.515625 40.765625 12.171875 48.375 
Q 18.84375 56 30.609375 56 
z
" id="DejaVuSans-111"/>
     <path d="M 18.3125 70.21875 
L 18.3125 54.6875 
L 36.8125 54.6875 
L 36.8125 47.703125 
L 18.3125 47.703125 
L 18.3125 18.015625 
Q 18.3125 11.328125 20.140625 9.421875 
Q 21.96875 7.515625 27.59375 7.515625 
L 36.8125 7.515625 
L 36.8125 0 
L 27.59375 0 
Q 17.1875 0 13.234375 3.875 
Q 9.28125 7.765625 9.28125 18.015625 
L 9.28125 47.703125 
L 2.6875 47.703125 
L 2.6875 54.6875 
L 9.28125 54.6875 
L 9.28125 70.21875 
z
" id="DejaVuSans-116"/>
     <path d="M 44.28125 53.078125 
L 44.28125 44.578125 
Q 40.484375 46.53125 36.375 47.5 
Q 32.28125 48.484375 27.875 48.484375 
Q 21.1875 48.484375 17.84375 46.4375 
Q 14.5 44.390625 14.5 40.28125 
Q 14.5 37.15625 16.890625 35.375 
Q 19.28125 33.59375 26.515625 31.984375 
L 29.59375 31.296875 
Q 39.15625 29.25 43.1875 25.515625 
Q 47.21875 21.78125 47.21875 15.09375 
Q 47.21875 7.46875 41.1875 3.015625 
Q 35.15625 -1.421875 24.609375 -1.421875 
Q 20.21875 -1.421875 15.453125 -0.5625 
Q 10.6875 0.296875 5.421875 2 
L 5.421875 11.28125 
Q 10.40625 8.6875 15.234375 7.390625 
Q 20.0625 6.109375 24.8125 6.109375 
Q 31.15625 6.109375 34.5625 8.28125 
Q 37.984375 10.453125 37.984375 14.40625 
Q 37.984375 18.0625 35.515625 20.015625 
Q 33.0625 21.96875 24.703125 23.78125 
L 21.578125 24.515625 
Q 13.234375 26.265625 9.515625 29.90625 
Q 5.8125 33.546875 5.8125 39.890625 
Q 5.8125 47.609375 11.28125 51.796875 
Q 16.75 56 26.8125 56 
Q 31.78125 56 36.171875 55.265625 
Q 40.578125 54.546875 44.28125 53.078125 
z
" id="DejaVuSans-115"/>
     <path d="M 8.015625 75.875 
L 15.828125 75.875 
Q 23.140625 64.359375 26.78125 53.3125 
Q 30.421875 42.28125 30.421875 31.390625 
Q 30.421875 20.453125 26.78125 9.375 
Q 23.140625 -1.703125 15.828125 -13.1875 
L 8.015625 -13.1875 
Q 14.5 -2 17.703125 9.0625 
Q 20.90625 20.125 20.90625 31.390625 
Q 20.90625 42.671875 17.703125 53.65625 
Q 14.5 64.65625 8.015625 75.875 
z
" id="DejaVuSans-41"/>
    </defs>
    <g transform="translate(244.654773 37.2)scale(0.12 -0.12)">
     <use xlink:href="#DejaVuSans-79"/>
     <use x="78.710938" xlink:href="#DejaVuSans-114"/>
     <use x="119.824219" xlink:href="#DejaVuSans-105"/>
     <use x="147.607422" xlink:href="#DejaVuSans-103"/>
     <use x="211.083984" xlink:href="#DejaVuSans-105"/>
     <use x="238.867188" xlink:href="#DejaVuSans-110"/>
     <use x="302.246094" xlink:href="#DejaVuSans-97"/>
     <use x="363.525391" xlink:href="#DejaVuSans-108"/>
     <use x="391.308594" xlink:href="#DejaVuSans-32"/>
     <use x="423.095703" xlink:href="#DejaVuSans-99"/>
     <use x="478.076172" xlink:href="#DejaVuSans-117"/>
     <use x="541.455078" xlink:href="#DejaVuSans-114"/>
     <use x="582.568359" xlink:href="#DejaVuSans-118"/>
     <use x="641.748047" xlink:href="#DejaVuSans-101"/>
     <use x="703.271484" xlink:href="#DejaVuSans-32"/>
     <use x="735.058594" xlink:href="#DejaVuSans-40"/>
     <use x="774.072266" xlink:href="#DejaVuSans-49"/>
     <use x="837.695312" xlink:href="#DejaVuSans-54"/>
     <use x="901.318359" xlink:href="#DejaVuSans-54"/>
     <use x="964.941406" xlink:href="#DejaVuSans-32"/>
     <use x="996.728516" xlink:href="#DejaVuSans-112"/>
     <use x="1060.205078" xlink:href="#DejaVuSans-111"/>
     <use x="1121.386719" xlink:href="#DejaVuSans-105"/>
     <use x="1149.169922" xlink:href="#DejaVuSans-110"/>
     <use x="1212.548828" xlink:href="#DejaVuSans-116"/>
     <use x="1251.757812" xlink:href="#DejaVuSans-115"/>
     <use x="1303.857422" xlink:href="#DejaVuSans-41"/>
    </g>
   </g>
  </g>
  <g id="axes_2">
   <g id="line2d_2">
    <path clip-path="url(#pa6615cbef5)" d="M 769.426402 50.347094 
L 769.426402 55.9392 
L 764.979858 61.531306 
L 759.387649 63.822018 
L 754.873665 62.744 
L 752.077355 60.958576 
L 749.281456 63.754629 
L 746.485146 63.822018 
L 743.689247 65.978004 
L 739.310143 67.190749 
L 733.717935 69.212008 
L 728.125726 73.928211 
L 722.533517 73.928211 
L 719.602738 71.266936 
L 718.895436 68.470883 
L 718.895436 68.706668 
L 714.17913 75.275683 
L 701.681269 87.403136 
L 698.88537 87.403136 
L 698.683049 89.997073 
L 696.661893 92.793126 
L 695.314318 95.589128 
L 694.438415 98.385181 
L 691.339034 100.87806 
L 685.747237 100.87806 
L 680.155028 105.931157 
L 674.562819 107.615522 
L 668.971022 104.853138 
L 664.995738 100.069546 
L 664.288436 97.509329 
L 655.900329 97.509329 
L 652.430437 95.05017 
L 647.747852 97.91356 
L 643.469497 100.87806 
L 640.673598 101.619185 
L 638.04589 104.75208 
L 638.04589 113.140239 
L 642.829636 119.136576 
L 644.783352 124.728682 
L 643.536938 129.074323 
L 641.414621 132.544112 
L 641.212299 138.136218 
L 635.620502 143.728324 
L 634.677158 146.995997 
L 629.421741 153.295508 
L 623.391992 158.146489 
L 619.98954 159.359234 
L 614.431052 164.883951 
L 611.635153 164.883951 
L 608.838843 167.140994 
L 609.411675 169.937047 
L 612.207574 171.621413 
L 615.542585 172.699431 
L 621.134794 178.291486 
L 621.202234 181.121259 
L 627.771095 188.296621 
L 632.925352 190.216823 
L 637.810259 188.465068 
L 645.255023 188.936689 
L 648.050922 191.732742 
L 648.152083 194.528795 
L 650.2744 197.324848 
L 653.070299 198.571262 
L 656.843261 200.525132 
L 661.627007 205.712955 
L 661.627007 208.509008 
L 664.254716 211.305061 
L 667.050615 209.991258 
L 668.364469 207.195205 
L 671.093339 202.58006 
L 678.807453 195.20253 
L 681.603763 195.20253 
L 681.839394 190.082045 
L 683.82683 186.477529 
L 688.037744 185.096337 
L 692.78777 185.93852 
L 695.314318 189.004078 
L 695.314318 194.596184 
L 692.82149 197.69541 
L 690.025591 198.571262 
L 688.576856 201.266257 
L 689.351598 206.083517 
L 691.945587 209.081686 
L 691.945587 214.673792 
L 704.072937 215.414917 
L 712.494764 219.120542 
L 715.526704 225.992731 
L 716.234006 232.965977 
L 718.895436 235.896757 
L 718.895436 241.488863 
L 716.537488 244.722919 
L 715.526704 247.51892 
L 714.314011 250.314922 
L 712.157973 253.111026 
L 712.090533 255.907028 
L 709.294634 258.703132 
L 708.789242 263.789846 
L 707.071157 267.663969 
L 706.565765 270.459971 
L 709.362075 272.683345 
L 712.157973 272.683345 
L 717.750182 278.275451 
L 721.118913 279.420808 
L 723.914812 281.071453 
L 726.710711 281.71152 
L 730.012413 279.420808 
L 735.60421 279.420808 
L 743.925288 287.606799 
L 745.845284 295.99501 
L 744.262079 301.216502 
L 742.476553 304.012503 
L 744.228359 306.370656 
L 755.412365 306.370656 
L 758.612907 303.70933 
L 771.85179 303.001925 
L 782.564535 306.033763 
L 788.156744 307.852906 
L 793.007519 302.631414 
L 793.007519 299.83531 
L 795.601508 297.039308 
L 800.418563 296.264463 
L 806.010772 299.161522 
L 810.727078 303.001925 
L 813.219906 301.789231 
L 813.219906 290.605019 
L 815.746454 287.000453 
L 816.588637 282.250529 
L 817.969932 278.039616 
L 819.957368 275.243614 
L 820.66467 271.975941 
L 829.052778 263.58773 
L 842.359512 262.577152 
L 848.793904 260.690671 
L 863.414081 259.208421 
L 885.445303 257.726171 
L 891.206113 252.470959 
L 899.59422 252.470959 
L 907.982328 245.295545 
L 912.732354 242.364766 
L 915.528253 241.118352 
L 917.65057 238.322247 
L 917.95364 235.32413 
L 926.341748 226.935971 
L 930.08099 225.52111 
L 932.8773 223.769356 
L 941.568478 222.152379 
L 954.706612 221.546032 
L 954.639171 218.716259 
L 949.046962 213.124205 
L 947.969149 203.018011 
L 946.284784 196.886896 
L 944.600418 192.979156 
L 944.061306 187.926059 
L 941.265407 185.130006 
L 941.231687 176.809236 
L 947.800548 168.421129 
L 951.33788 163.266974 
L 950.293376 160.470921 
L 947.969149 157.674868 
L 947.969149 154.878815 
L 945.274 152.082762 
L 944.600418 136.55291 
L 941.501038 127.827909 
L 935.90924 125.874039 
L 930.721263 121.090447 
L 927.925364 121.090447 
L 925.129054 123.718053 
L 922.333155 124.459178 
L 919.537256 125.941428 
L 914.012488 127.827909 
L 903.838854 127.491015 
L 901.042544 124.695014 
L 900.806914 114.218258 
L 898.819478 108.996714 
L 892.385086 105.931157 
L 887.33199 100.608555 
L 887.33199 97.812502 
L 884.839162 95.016449 
L 882.043263 94.140598 
L 879.246953 92.793126 
L 875.676312 90.771867 
L 870.286013 90.569751 
L 867.490114 87.773698 
L 864.694216 87.403136 
L 861.897906 85.550323 
L 860.382141 81.474188 
L 859.674839 77.296942 
L 856.878529 77.162216 
L 854.08263 74.366163 
L 853.644679 66.853856 
L 850.073627 63.822018 
L 845.694523 62.609273 
L 833.937684 60.453287 
L 792.940079 60.385898 
L 790.14418 57.589845 
L 789.638788 54.793844 
L 786.202617 53.715825 
L 781.756073 52.570469 
L 777.814509 50.347094 
L 777.814509 50.347094 
" style="fill:none;stroke:#1f77b4;stroke-linecap:square;stroke-width:1.5;"/>
   </g>
   <g id="text_2">
    <!-- Interpolated curve (200 points) -->
    <defs>
     <path d="M 9.8125 72.90625 
L 19.671875 72.90625 
L 19.671875 0 
L 9.8125 0 
z
" id="DejaVuSans-73"/>
     <path d="M 45.40625 46.390625 
L 45.40625 75.984375 
L 54.390625 75.984375 
L 54.390625 0 
L 45.40625 0 
L 45.40625 8.203125 
Q 42.578125 3.328125 38.25 0.953125 
Q 33.9375 -1.421875 27.875 -1.421875 
Q 17.96875 -1.421875 11.734375 6.484375 
Q 5.515625 14.40625 5.515625 27.296875 
Q 5.515625 40.1875 11.734375 48.09375 
Q 17.96875 56 27.875 56 
Q 33.9375 56 38.25 53.625 
Q 42.578125 51.265625 45.40625 46.390625 
z
M 14.796875 27.296875 
Q 14.796875 17.390625 18.875 11.75 
Q 22.953125 6.109375 30.078125 6.109375 
Q 37.203125 6.109375 41.296875 11.75 
Q 45.40625 17.390625 45.40625 27.296875 
Q 45.40625 37.203125 41.296875 42.84375 
Q 37.203125 48.484375 30.078125 48.484375 
Q 22.953125 48.484375 18.875 42.84375 
Q 14.796875 37.203125 14.796875 27.296875 
z
" id="DejaVuSans-100"/>
     <path d="M 19.1875 8.296875 
L 53.609375 8.296875 
L 53.609375 0 
L 7.328125 0 
L 7.328125 8.296875 
Q 12.9375 14.109375 22.625 23.890625 
Q 32.328125 33.6875 34.8125 36.53125 
Q 39.546875 41.84375 41.421875 45.53125 
Q 43.3125 49.21875 43.3125 52.78125 
Q 43.3125 58.59375 39.234375 62.25 
Q 35.15625 65.921875 28.609375 65.921875 
Q 23.96875 65.921875 18.8125 64.3125 
Q 13.671875 62.703125 7.8125 59.421875 
L 7.8125 69.390625 
Q 13.765625 71.78125 18.9375 73 
Q 24.125 74.21875 28.421875 74.21875 
Q 39.75 74.21875 46.484375 68.546875 
Q 53.21875 62.890625 53.21875 53.421875 
Q 53.21875 48.921875 51.53125 44.890625 
Q 49.859375 40.875 45.40625 35.40625 
Q 44.1875 33.984375 37.640625 27.21875 
Q 31.109375 20.453125 19.1875 8.296875 
z
" id="DejaVuSans-50"/>
     <path d="M 31.78125 66.40625 
Q 24.171875 66.40625 20.328125 58.90625 
Q 16.5 51.421875 16.5 36.375 
Q 16.5 21.390625 20.328125 13.890625 
Q 24.171875 6.390625 31.78125 6.390625 
Q 39.453125 6.390625 43.28125 13.890625 
Q 47.125 21.390625 47.125 36.375 
Q 47.125 51.421875 43.28125 58.90625 
Q 39.453125 66.40625 31.78125 66.40625 
z
M 31.78125 74.21875 
Q 44.046875 74.21875 50.515625 64.515625 
Q 56.984375 54.828125 56.984375 36.375 
Q 56.984375 17.96875 50.515625 8.265625 
Q 44.046875 -1.421875 31.78125 -1.421875 
Q 19.53125 -1.421875 13.0625 8.265625 
Q 6.59375 17.96875 6.59375 36.375 
Q 6.59375 54.828125 13.0625 64.515625 
Q 19.53125 74.21875 31.78125 74.21875 
z
" id="DejaVuSans-48"/>
    </defs>
    <g transform="translate(687.918665 37.2)scale(0.12 -0.12)">
     <use xlink:href="#DejaVuSans-73"/>
     <use x="29.492188" xlink:href="#DejaVuSans-110"/>
     <use x="92.871094" xlink:href="#DejaVuSans-116"/>
     <use x="132.080078" xlink:href="#DejaVuSans-101"/>
     <use x="193.603516" xlink:href="#DejaVuSans-114"/>
     <use x="234.716797" xlink:href="#DejaVuSans-112"/>
     <use x="298.193359" xlink:href="#DejaVuSans-111"/>
     <use x="359.375" xlink:href="#DejaVuSans-108"/>
     <use x="387.158203" xlink:href="#DejaVuSans-97"/>
     <use x="448.4375" xlink:href="#DejaVuSans-116"/>
     <use x="487.646484" xlink:href="#DejaVuSans-101"/>
     <use x="549.169922" xlink:href="#DejaVuSans-100"/>
     <use x="612.646484" xlink:href="#DejaVuSans-32"/>
     <use x="644.433594" xlink:href="#DejaVuSans-99"/>
     <use x="699.414062" xlink:href="#DejaVuSans-117"/>
     <use x="762.792969" xlink:href="#DejaVuSans-114"/>
     <use x="803.90625" xlink:href="#DejaVuSans-118"/>
     <use x="863.085938" xlink:href="#DejaVuSans-101"/>
     <use x="924.609375" xlink:href="#DejaVuSans-32"/>
     <use x="956.396484" xlink:href="#DejaVuSans-40"/>
     <use x="995.410156" xlink:href="#DejaVuSans-50"/>
     <use x="1059.033203" xlink:href="#DejaVuSans-48"/>
     <use x="1122.65625" xlink:href="#DejaVuSans-48"/>
     <use x="1186.279297" xlink:href="#DejaVuSans-32"/>
     <use x="1218.066406" xlink:href="#DejaVuSans-112"/>
     <use x="1281.542969" xlink:href="#DejaVuSans-111"/>
     <use x="1342.724609" xlink:href="#DejaVuSans-105"/>
     <use x="1370.507812" xlink:href="#DejaVuSans-110"/>
     <use x="1433.886719" xlink:href="#DejaVuSans-116"/>
     <use x="1473.095703" xlink:href="#DejaVuSans-115"/>
     <use x="1525.195312" xlink:href="#DejaVuSans-41"/>
    </g>
   </g>
  </g>
 </g>
 <defs>
  <clipPath id="p414845ae82">
   <rect height="271.8" width="380.454545" x="135" y="43.2"/>
  </clipPath>
  <clipPath id="pa6615cbef5">
   <rect height="271.8" width="380.454545" x="591.545455" y="43.2"/>
  </clipPath>
 </defs>
</svg>
